<svg width="70" height="70" viewBox="0 0 70 70" fill="none" xmlns="http://www.w3.org/2000/svg">
<path d="M65.8984 16.543H35H4.10156L0 20.6445V63.7109C0 64.8595 0.902207 65.7617 2.05078 65.7617H17.3451L23.0799 63.7109L28.2231 65.7617H35H41.7769L47.3047 63.7109L52.6549 65.7617H67.9492C69.0978 65.7617 70 64.8595 70 63.7109V20.6445L65.8984 16.543Z" fill="#EDF5FF"/>
<path d="M47.3047 63.7109L52.6549 65.7617H67.9492C69.0978 65.7617 70 64.8595 70 63.7109V20.6445L65.8984 16.543H35V65.7617H41.7769L47.3047 63.7109Z" fill="#D5E8FE"/>
<path d="M70 6.28906V20.6445H0V6.28906C0 5.14049 0.902207 4.23828 2.05078 4.23828H67.9492C69.0978 4.23828 70 5.14049 70 6.28906Z" fill="#47568C"/>
<path d="M70 6.28906V20.6445H35V4.23828H67.9492C69.0978 4.23828 70 5.14049 70 6.28906Z" fill="#29376D"/>
<path d="M10.3906 14.4922C11.5232 14.4922 12.4414 13.574 12.4414 12.4414C12.4414 11.3088 11.5232 10.3906 10.3906 10.3906C9.25801 10.3906 8.33984 11.3088 8.33984 12.4414C8.33984 13.574 9.25801 14.4922 10.3906 14.4922Z" fill="#FF7B4A"/>
<path d="M18.5938 14.4922C19.7264 14.4922 20.6445 13.574 20.6445 12.4414C20.6445 11.3088 19.7264 10.3906 18.5938 10.3906C17.4611 10.3906 16.543 11.3088 16.543 12.4414C16.543 13.574 17.4611 14.4922 18.5938 14.4922Z" fill="#6AA9FF"/>
<path d="M26.7969 14.4922C27.9295 14.4922 28.8477 13.574 28.8477 12.4414C28.8477 11.3088 27.9295 10.3906 26.7969 10.3906C25.6643 10.3906 24.7461 11.3088 24.7461 12.4414C24.7461 13.574 25.6643 14.4922 26.7969 14.4922Z" fill="#6AA9FF"/>
<path d="M59.6094 10.3906H37.0508C35.9172 10.3906 35 11.3079 35 12.4414C35 13.5749 35.9172 14.4922 37.0508 14.4922H59.6094C60.7429 14.4922 61.6602 13.5749 61.6602 12.4414C61.6602 11.3079 60.7429 10.3906 59.6094 10.3906Z" fill="#47568C"/>
<path d="M16.543 57.5586H10.3906C9.25709 57.5586 8.33984 56.6413 8.33984 55.5078C8.33984 54.3743 9.25709 53.457 10.3906 53.457H16.543C17.6765 53.457 18.5938 54.3743 18.5938 55.5078C18.5938 56.6413 17.6765 57.5586 16.543 57.5586Z" fill="#6AA9FF"/>
<path d="M59.6094 57.5586H53.457C52.3235 57.5586 51.4062 56.6413 51.4062 55.5078C51.4062 54.3743 52.3235 53.457 53.457 53.457H59.6094C60.7429 53.457 61.6602 54.3743 61.6602 55.5078C61.6602 56.6413 60.7429 57.5586 59.6094 57.5586Z" fill="#4895FF"/>
<path d="M48.0457 44.5129C47.5209 44.5129 46.9962 44.3126 46.5958 43.912C45.7947 43.111 45.7947 41.8131 46.5958 41.0121L50.9516 36.6562C51.7527 35.8552 53.0505 35.8552 53.8516 36.6562C54.6526 37.4572 54.6526 38.7551 53.8516 39.5561L49.4957 43.912C49.0951 44.3126 48.5704 44.5129 48.0457 44.5129Z" fill="#4895FF"/>
<path d="M21.9543 44.5129C21.4295 44.5129 20.9048 44.3126 20.5044 43.912L16.1485 39.5561C15.3475 38.7551 15.3475 37.4572 16.1485 36.6562C16.9495 35.8552 18.2474 35.8552 19.0484 36.6562L23.4043 41.0121C24.2053 41.8131 24.2053 43.111 23.4043 43.912C23.0037 44.3126 22.479 44.5129 21.9543 44.5129Z" fill="#6AA9FF"/>
<path d="M35 28.8477C33.8665 28.8477 32.9492 29.7649 32.9492 30.8984V37.0508C32.9492 38.1843 33.8665 39.1016 35 39.1016C36.1335 39.1016 37.0508 38.1843 37.0508 37.0508V30.8984C37.0508 29.7649 36.1335 28.8477 35 28.8477Z" fill="#6AA9FF"/>
<path d="M37.0508 37.0508V30.8984C37.0508 29.7649 36.1335 28.8477 35 28.8477V39.1016C36.1335 39.1016 37.0508 38.1843 37.0508 37.0508Z" fill="#4895FF"/>
<path d="M35 35C23.6927 35 14.4922 44.2005 14.4922 55.5078C14.4922 59.2596 15.5784 62.7331 17.3451 65.7617H28.2231C24.8976 63.5567 22.6953 59.7883 22.6953 55.5078C22.6953 48.7226 28.2148 43.2031 35 43.2031C41.7852 43.2031 47.3047 48.7226 47.3047 55.5078C47.3047 59.7883 45.1024 63.5567 41.7769 65.7617H52.6549C54.4216 62.7331 55.5078 59.2596 55.5078 55.5078C55.5078 44.2005 46.3073 35 35 35Z" fill="#6AA9FF"/>
<path d="M47.3047 55.5078C47.3047 59.7883 45.1024 63.5567 41.7769 65.7617H52.6549C54.4216 62.7331 55.5078 59.2596 55.5078 55.5078C55.5078 44.2005 46.3073 35 35 35V43.2031C41.7852 43.2031 47.3047 48.7226 47.3047 55.5078Z" fill="#4895FF"/>
</svg>
