<svg width="70" height="70" viewBox="0 0 70 70" fill="none" xmlns="http://www.w3.org/2000/svg">
<g clip-path="url(#clip0_158_2167)">
<path d="M61.25 45.9375C60.0425 45.9375 59.0625 44.9575 59.0625 43.75V39.375H10.9375V43.75C10.9375 44.9575 9.9575 45.9375 8.75 45.9375C7.5425 45.9375 6.5625 44.9575 6.5625 43.75V37.1875C6.5625 35.98 7.5425 35 8.75 35H61.25C62.4575 35 63.4375 35.98 63.4375 37.1875V43.75C63.4375 44.9575 62.4575 45.9375 61.25 45.9375Z" fill="#607D8B"/>
<path d="M35 46.6667C33.7925 46.6667 32.8125 45.6867 32.8125 44.4792V31.3542C32.8125 30.1467 33.7925 29.1667 35 29.1667C36.2075 29.1667 37.1875 30.1467 37.1875 31.3542V44.4792C37.1875 45.6867 36.2075 46.6667 35 46.6667Z" fill="#607D8B"/>
<path d="M35 58.3333C37.4162 58.3333 39.375 56.3745 39.375 53.9583C39.375 51.542 37.4162 49.5833 35 49.5833C32.5838 49.5833 30.625 51.542 30.625 53.9583C30.625 56.3745 32.5838 58.3333 35 58.3333Z" fill="#2196F3"/>
<path d="M37.1875 61.25H32.8125C29.1958 61.25 26.25 64.1929 26.25 67.8125C26.25 69.02 27.23 70 28.4375 70H41.5625C42.77 70 43.75 69.02 43.75 67.8125C43.75 64.1929 40.8042 61.25 37.1875 61.25Z" fill="#2196F3"/>
<path d="M61.25 58.3333C63.6662 58.3333 65.625 56.3745 65.625 53.9583C65.625 51.542 63.6662 49.5833 61.25 49.5833C58.8338 49.5833 56.875 51.542 56.875 53.9583C56.875 56.3745 58.8338 58.3333 61.25 58.3333Z" fill="#2196F3"/>
<path d="M63.4375 61.25H59.0625C55.4458 61.25 52.5 64.1929 52.5 67.8125C52.5 69.02 53.48 70 54.6875 70H67.8125C69.02 70 70 69.02 70 67.8125C70 64.1929 67.0542 61.25 63.4375 61.25Z" fill="#2196F3"/>
<path d="M47.7166 9.44125L40.3025 8.33583L36.9454 1.25125C36.5837 0.487083 35.8137 0 34.9679 0C34.965 0 34.962 0 34.9591 0C34.1133 0.00291667 33.3404 0.495833 32.9845 1.26583L29.677 8.37083L22.2658 9.52875C21.4549 9.65417 20.7841 10.2229 20.5274 11.0017C20.2679 11.7833 20.472 12.6379 21.0437 13.2242L26.4891 18.76L25.232 26.635C25.0979 27.4604 25.4537 28.2917 26.1391 28.77C26.5124 29.0354 26.9499 29.1667 27.3933 29.1667C27.7579 29.1667 28.1254 29.0763 28.4579 28.8896L35.0466 25.2204L41.6645 28.8429C42.3937 29.2454 43.295 29.1988 43.9833 28.7088C44.6629 28.2246 45.0129 27.3933 44.8758 26.565L43.5633 18.7017L48.9708 13.1279C49.5425 12.5387 49.7379 11.6813 49.4725 10.9054C49.2041 10.1267 48.5304 9.56375 47.7166 9.44125Z" fill="#FFC107"/>
<path d="M34.9562 37.2778H10.6137C9.58417 37.2778 8.75 38.1091 8.75 39.1387V45.9374C9.9575 45.9374 10.9375 44.9574 10.9375 43.7499V39.3749H34.9562V37.2778Z" fill="#546D79"/>
<path d="M35 29.1667C33.7925 29.1667 32.8125 30.1467 32.8125 31.3542V44.4792C32.8125 45.6867 33.7925 46.6667 35 46.6667V29.1667Z" fill="#546D79"/>
<path d="M8.75 58.3333C11.1621 58.3333 13.125 56.3703 13.125 53.9583C13.125 51.5462 11.1621 49.5833 8.75 49.5833C6.33792 49.5833 4.375 51.5462 4.375 53.9583C4.375 56.3703 6.33792 58.3333 8.75 58.3333Z" fill="#2196F3"/>
<path d="M10.9375 61.25H6.5625C2.94583 61.25 0 64.1958 0 67.8125C0 69.02 0.98 70 2.1875 70H15.3125C16.52 70 17.5 69.02 17.5 67.8125C17.5 64.1958 14.5542 61.25 10.9375 61.25Z" fill="#2196F3"/>
<path d="M8.75 49.5833C6.33792 49.5833 4.375 51.5462 4.375 53.9583C4.375 56.3703 6.33792 58.3333 8.75 58.3333V49.5833Z" fill="#1D83D4"/>
<path d="M8.75 61.25H6.5625C2.94583 61.25 0 64.1958 0 67.8125C0 69.02 0.98 70 2.1875 70H8.75V61.25Z" fill="#1D83D4"/>
<path d="M35 49.5833C32.5879 49.5833 30.625 51.5462 30.625 53.9583C30.625 56.3703 32.5879 58.3333 35 58.3333V49.5833Z" fill="#1D83D4"/>
<path d="M35 61.25H32.8125C29.1958 61.25 26.25 64.1958 26.25 67.8125C26.25 69.02 27.23 70 28.4375 70H35V61.25Z" fill="#1D83D4"/>
<path d="M61.25 49.5833C58.8379 49.5833 56.875 51.5462 56.875 53.9583C56.875 56.3703 58.8379 58.3333 61.25 58.3333V49.5833Z" fill="#1D83D4"/>
<path d="M61.25 61.25H59.0625C55.4458 61.25 52.5 64.1958 52.5 67.8125C52.5 69.02 53.48 70 54.6875 70H61.25V61.25Z" fill="#1D83D4"/>
<path d="M34.9679 0H34.9592C34.1133 0.00291667 33.3404 0.495833 32.9846 1.26583L29.6771 8.37083L22.2658 9.52875C21.455 9.65708 20.7841 10.2258 20.5275 11.0017C20.2679 11.7804 20.4691 12.6379 21.0437 13.2213L26.4891 18.7571L25.2321 26.6321C25.0979 27.4604 25.4537 28.2888 26.1391 28.77C26.5125 29.0354 26.95 29.1667 27.3933 29.1667C27.7579 29.1667 28.1254 29.0763 28.4579 28.8896L35.0467 25.2204V0C35.0204 0 34.9942 0 34.9679 0V0Z" fill="#DEA806"/>
</g>
<defs>
<clipPath id="clip0_158_2167">
<rect width="70" height="70" fill="white"/>
</clipPath>
</defs>
</svg>
