<svg width="500" height="270" viewBox="0 0 500 270" fill="none" xmlns="http://www.w3.org/2000/svg">
<rect width="500" height="270" rx="2" fill="url(#paint0_linear_34_762)"/>
<path d="M358.765 178.383C358.765 179.393 358.363 180.362 357.648 181.076C356.932 181.79 355.962 182.191 354.951 182.191H336.18C335.169 182.191 334.199 181.79 333.484 181.076C332.768 180.362 332.366 179.393 332.366 178.383C332.366 177.373 332.768 176.405 333.484 175.691C334.199 174.977 335.169 174.576 336.18 174.576H354.951C355.962 174.576 356.932 174.977 357.648 175.691C358.363 176.405 358.765 177.373 358.765 178.383ZM317.41 174.576H298.64C297.629 174.576 296.659 174.977 295.943 175.691C295.228 176.405 294.826 177.373 294.826 178.383C294.826 179.393 295.228 180.362 295.943 181.076C296.659 181.79 297.629 182.191 298.64 182.191H317.41C318.422 182.191 319.392 181.79 320.107 181.076C320.823 180.362 321.225 179.393 321.225 178.383C321.225 177.373 320.823 176.405 320.107 175.691C319.392 174.977 318.422 174.576 317.41 174.576ZM392.491 174.576H373.721C372.709 174.576 371.739 174.977 371.024 175.691C370.308 176.405 369.907 177.373 369.907 178.383C369.907 179.393 370.308 180.362 371.024 181.076C371.739 181.79 372.709 182.191 373.721 182.191H392.5C393.512 182.191 394.482 181.79 395.197 181.076C395.912 180.362 396.314 179.393 396.314 178.383C396.314 177.373 395.912 176.405 395.197 175.691C394.482 174.977 393.512 174.576 392.5 174.576H392.491ZM298.679 163.6C296.062 163.597 293.504 162.82 291.329 161.366C289.155 159.913 287.461 157.848 286.461 155.433C285.462 153.019 285.202 150.363 285.714 147.801C286.226 145.238 287.488 142.885 289.339 141.039C291.191 139.193 293.549 137.936 296.116 137.427C298.683 136.918 301.343 137.181 303.761 138.181C306.178 139.182 308.245 140.875 309.698 143.048C311.152 145.22 311.928 147.774 311.928 150.387C311.923 153.892 310.525 157.252 308.041 159.729C305.557 162.207 302.19 163.599 298.679 163.6ZM298.679 155.984C299.787 155.983 300.871 155.654 301.792 155.039C302.714 154.423 303.431 153.549 303.855 152.526C304.279 151.503 304.389 150.378 304.172 149.292C303.955 148.207 303.421 147.21 302.637 146.427C301.852 145.645 300.853 145.112 299.766 144.897C298.678 144.681 297.551 144.792 296.527 145.216C295.503 145.64 294.627 146.357 294.012 147.278C293.396 148.198 293.067 149.28 293.067 150.387C293.068 151.872 293.66 153.296 294.712 154.345C295.764 155.395 297.191 155.984 298.679 155.984ZM405.687 140.982V159.725C405.687 160.735 405.286 161.704 404.57 162.418C403.855 163.132 402.885 163.533 401.873 163.533H364.333C363.322 163.533 362.352 163.132 361.636 162.418C360.921 161.704 360.519 160.735 360.519 159.725V140.982C360.519 139.972 360.921 139.003 361.636 138.289C362.352 137.575 363.322 137.174 364.333 137.174H401.873C402.885 137.174 403.855 137.575 404.57 138.289C405.286 139.003 405.687 139.972 405.687 140.982ZM398.059 144.79H368.147V155.918H398.059V144.79ZM461.998 94.1372V206.57C462.031 208.322 461.714 210.062 461.066 211.69C460.418 213.318 459.451 214.8 458.222 216.051C456.993 217.301 455.526 218.295 453.908 218.973C452.29 219.651 450.553 220 448.798 220C447.044 220 445.307 219.651 443.689 218.973C442.071 218.295 440.604 217.301 439.375 216.051C438.146 214.8 437.179 213.318 436.531 211.69C435.883 210.062 435.566 208.322 435.599 206.57V191.615H424.047C423.334 194.304 421.752 196.682 419.545 198.38C417.339 200.078 414.633 201.001 411.847 201.006H279.308C275.963 201.002 272.757 199.674 270.392 197.313C268.027 194.952 266.696 191.751 266.693 188.412V174.609H258.44V191.411C258.44 192.42 258.038 193.389 257.323 194.103C256.608 194.817 255.637 195.218 254.626 195.218H244.814C243.803 195.218 242.832 194.817 242.117 194.103C241.402 193.389 241 192.42 241 191.411V109.225C241 108.215 241.402 107.247 242.117 106.533C242.832 105.819 243.803 105.418 244.814 105.418H254.626C255.637 105.418 256.608 105.819 257.323 106.533C258.038 107.247 258.44 108.215 258.44 109.225V126.027H266.669V112.295C266.674 108.957 268.005 105.757 270.37 103.397C272.734 101.037 275.94 99.7098 279.284 99.706H289.444V92.1286H285.949C284.937 92.1286 283.967 91.7275 283.252 91.0134C282.537 90.2993 282.135 89.3308 282.135 88.3209V75.8077C282.135 74.7979 282.537 73.8293 283.252 73.1153C283.967 72.4012 284.937 72 285.949 72H311.332C312.343 72 313.313 72.4012 314.029 73.1153C314.744 73.8293 315.146 74.7979 315.146 75.8077V88.3209C315.146 89.3308 314.744 90.2993 314.029 91.0134C313.313 91.7275 312.343 92.1286 311.332 92.1286H307.832V99.706H336.371V92.1286H332.877C331.865 92.1286 330.895 91.7275 330.18 91.0134C329.464 90.2993 329.062 89.3308 329.062 88.3209V75.8077C329.062 74.7979 329.464 73.8293 330.18 73.1153C330.895 72.4012 331.865 72 332.877 72H358.255C359.266 72 360.236 72.4012 360.951 73.1153C361.667 73.8293 362.069 74.7979 362.069 75.8077V88.3209C362.069 89.3308 361.667 90.2993 360.951 91.0134C360.236 91.7275 359.266 92.1286 358.255 92.1286H354.76V99.706H383.299V92.1286H379.799C378.788 92.1286 377.818 91.7275 377.102 91.0134C376.387 90.2993 375.985 89.3308 375.985 88.3209V75.8077C375.985 74.7979 376.387 73.8293 377.102 73.1153C377.818 72.4012 378.788 72 379.799 72H405.182C406.194 72 407.164 72.4012 407.879 73.1153C408.594 73.8293 408.996 74.7979 408.996 75.8077V88.3209C408.996 89.3308 408.594 90.2993 407.879 91.0134C407.164 91.7275 406.194 92.1286 405.182 92.1286H401.687V99.706H411.847C414.629 99.7099 417.331 100.63 419.535 102.324C421.739 104.017 423.322 106.39 424.038 109.073H435.599V94.1372C435.665 90.6858 437.085 87.3979 439.553 84.9802C442.021 82.5625 445.341 81.2081 448.798 81.2081C452.256 81.2081 455.576 82.5625 458.044 84.9802C460.512 87.3979 461.932 90.6858 461.998 94.1372ZM443.228 174.633H454.369V163.514H443.228V174.633ZM454.369 155.899V144.785H443.228V155.899H454.369ZM454.369 137.169V126.051H443.228V137.169H454.369ZM454.369 118.435V107.321H443.228V118.44L454.369 118.435ZM443.228 193.367H454.369V182.248H443.228V193.367ZM443.228 94.1372V99.706H454.369V94.1372C454.327 92.6903 453.722 91.3169 452.681 90.3084C451.641 89.3 450.248 88.7359 448.798 88.7359C447.349 88.7359 445.956 89.3 444.916 90.3084C443.875 91.3169 443.27 92.6903 443.228 94.1372ZM383.632 84.5132H401.368V79.6155H383.613L383.632 84.5132ZM390.927 99.706H394.059V92.1286H390.927V99.706ZM336.691 84.5132H354.44V79.6155H336.691V84.5132ZM343.999 99.706H347.132V92.1286H343.999V99.706ZM289.763 84.5132H307.518V79.6155H289.763V84.5132ZM297.072 99.706H300.204V92.1286H297.072V99.706ZM274.297 112.295V118.435H416.815V112.295C416.813 110.979 416.289 109.718 415.358 108.786C414.427 107.854 413.165 107.328 411.847 107.321H279.308C278.651 107.319 278.001 107.446 277.394 107.694C276.787 107.943 276.235 108.309 275.769 108.771C275.304 109.233 274.934 109.782 274.681 110.387C274.429 110.992 274.298 111.64 274.297 112.295ZM250.812 170.806V113.033H248.628V187.608H250.812V170.806ZM266.669 166.998V133.623H258.44V166.998H266.669ZM416.848 126.065H274.297V188.417C274.298 189.737 274.824 191.002 275.759 191.936C276.694 192.869 277.962 193.394 279.284 193.395H411.823C413.147 193.395 414.417 192.87 415.353 191.936C416.289 191.001 416.815 189.734 416.815 188.412L416.848 126.065ZM435.599 184V116.684H424.443V184H435.599ZM454.369 206.57V200.982H443.228V206.57C443.206 207.314 443.334 208.055 443.604 208.749C443.874 209.443 444.281 210.075 444.8 210.609C445.32 211.143 445.941 211.568 446.628 211.858C447.315 212.147 448.053 212.297 448.798 212.297C449.544 212.297 450.282 212.147 450.969 211.858C451.656 211.568 452.277 211.143 452.797 210.609C453.316 210.075 453.723 209.443 453.993 208.749C454.263 208.055 454.391 207.314 454.369 206.57Z" fill="#F5F5F5"/>
<defs>
<linearGradient id="paint0_linear_34_762" x1="250" y1="0" x2="250" y2="270" gradientUnits="userSpaceOnUse">
<stop stop-color="#00ABFC"/>
<stop offset="1" stop-color="#00699B"/>
</linearGradient>
</defs>
</svg>
