<svg width="15" height="15" viewBox="0 0 15 15" fill="none" xmlns="http://www.w3.org/2000/svg">
<g clip-path="url(#clip0_154_1009)">
<path d="M14.5896 6.6114C14.541 6.30667 14.2545 6.09908 13.9498 6.1477C13.6451 6.19632 13.4375 6.48277 13.4861 6.78749C13.4866 6.79083 13.4872 6.79414 13.4878 6.79745C14.0568 10.1469 11.8028 13.3234 8.45332 13.8923C5.10389 14.4613 1.9274 12.2073 1.35842 8.8579C0.789438 5.50846 3.04347 2.33198 6.39287 1.763C8.4527 1.41309 10.5493 2.13261 11.9602 3.67361L9.48509 4.49827C9.19228 4.5957 9.03393 4.91201 9.13132 5.20482C9.13136 5.20488 9.13139 5.20498 9.13142 5.20505C9.22885 5.49785 9.54516 5.65621 9.83797 5.55881C9.83807 5.55878 9.83813 5.55875 9.8382 5.55875L13.1905 4.44131C13.4188 4.36529 13.5728 4.15168 13.5727 3.91109V0.558736C13.5727 0.250149 13.3226 0 13.014 0C12.7054 0 12.4553 0.250149 12.4553 0.558736V2.59974C9.57787 -0.137008 5.02669 -0.0229818 2.28994 2.85441C-0.446806 5.7318 -0.332813 10.283 2.54461 13.0198C5.42203 15.7565 9.97318 15.6425 12.71 12.7651C14.2705 11.1243 14.967 8.84418 14.5896 6.6114Z" fill="black"/>
</g>
<defs>
<clipPath id="clip0_154_1009">
<rect width="15" height="15" fill="white"/>
</clipPath>
</defs>
</svg>
