<svg width="500" height="270" viewBox="0 0 500 270" fill="none" xmlns="http://www.w3.org/2000/svg">
<rect width="500" height="270" rx="2" fill="url(#paint0_linear_34_804)"/>
<path d="M377.934 209.334C382.695 198.839 382.803 187.061 381.056 175.831C379.309 164.601 376.209 149.329 373.931 138.177C371.653 127.024 370.637 119.724 373.87 108.765C375.064 104.72 376.415 101.024 377.175 96.8941C377.936 92.7646 377.57 88.5348 374.846 85.0634H353.149C350.425 88.5348 350.059 92.7646 350.82 96.8941C351.581 101.024 352.932 104.84 354.125 108.885C357.358 119.844 356.343 127.085 354.065 138.236C351.787 149.389 348.687 164.631 346.939 175.861C345.192 187.091 345.301 198.854 350.061 209.349L377.934 209.334Z" fill="url(#paint1_linear_34_804)"/>
<path d="M394.675 215.422H333.321L337.703 208.954H390.292L394.675 215.422Z" fill="white"/>
<path d="M389.854 222.404H338.141V215.422H389.854V222.404Z" fill="white"/>
<path d="M400.372 229H327.623L332.006 222.018H395.99L400.372 229Z" fill="white"/>
<path d="M371.865 62.3951H356.131V75.1238H371.865V62.3951Z" fill="url(#paint2_linear_34_804)"/>
<path d="M372.21 48.8951H355.785L352.327 62.7809H375.668L372.21 48.8951Z" fill="url(#paint3_linear_34_804)"/>
<path d="M355.973 49.0643V49.0258H355.765V48.9872H355.558V48.9486H355.419V48.91H355.281V48.8715H355.177V48.8329H355.074V48.7943H354.97V48.7558H354.866V48.7172H354.797V48.6786H354.728V48.64H354.659V48.6015H354.589V48.5629H354.52V48.5243H354.451V48.4858H354.382V48.4472H354.313V48.4086H354.278V48.37H354.209V48.3315H354.174V48.2929H354.105V48.2543H354.071V48.2158H354.002V48.1772H353.967V48.1386H353.932V48.1H353.863V48.0615H353.829V48.0229H353.794V47.9843H353.76V47.9458H353.725V47.9072H353.69V47.8686H353.621V47.83H353.587V47.7915H353.552V47.7529H353.517V47.7143H353.483V47.6757H353.448V47.5986H353.414V47.56H353.379V47.5215H353.345V47.4829H353.31V47.4443H353.275V47.4057H353.241V47.3672H353.206V47.29H353.172V47.2515H353.137V47.2129H353.103V47.1357H353.068V47.0972H353.033V47.02H352.999V46.9815H352.964V46.9043H352.93V46.8272H352.895V46.7886H352.86V46.7115H352.826V46.6343H352.791V46.5572H352.757V46.48H352.722V46.4029H352.688V46.3257H352.653V46.21H352.618V46.1329H352.584V46.0172H352.549V45.9014H352.515V45.7857H352.48V45.6314H352.445V45.4772H352.411V45.2457H352.376V44.9372H352.342V44.0886H352.376V43.8186H352.411V43.5486H352.445V43.4329H352.48V43.2786H352.515V43.1243H352.549V43.0086H352.584V42.9314H352.618V42.8157H352.653V42.7H352.688V42.6228H352.722V42.5457H352.757V42.4686H352.791V42.3914H352.826V42.3143H352.86V42.2371H352.895V42.1986H352.93V42.1214H352.964V42.0443H352.999V42.0057H353.033V41.9286H353.068V41.89H353.103V41.8514H353.137V41.7743H353.172V41.7357H353.206V41.6971H353.241V41.62H353.275V41.5814H353.31V41.5428H353.345V41.5043H353.379V41.4657H353.414V41.4271H353.448V41.3886H353.483V41.35H353.517V41.2728H353.587V41.2343H353.621V41.1957H353.656V41.1571H353.69V41.1185H353.725V41.08H353.76V41.0414H353.794V41.0028H353.829V40.9643H353.898V40.9257H353.932V40.8871H353.967V40.8485H354.036V40.81H354.071V40.7714H354.105V40.7328H354.174V40.6943H354.244V40.6557H354.278V40.6171H354.347V40.5785H354.382V40.54H354.451V40.5014H354.52V40.4628H354.589V40.4243H354.659V40.3857H354.728V40.3471H354.797V40.3085H354.901V40.27H355.004V40.2314H355.108V40.1928H355.177V40.1543H355.316V40.1157H355.454V40.0771H355.592V40.0385H355.8V40H372.191V40.0385H372.398V40.0771H372.536V40.1157H372.675V40.1543H372.813V40.1928H372.917V40.2314H372.986V40.27H373.09V40.3085H373.194V40.3471H373.263V40.3857H373.332V40.4243H373.401V40.4628H373.47V40.5014H373.539V40.54H373.608V40.5785H373.643V40.6171H373.712V40.6557H373.781V40.6943H373.816V40.7328H373.885V40.7714H373.92V40.81H373.954V40.8485H374.023V40.8871H374.058V40.9257H374.093V40.9643H374.162V41.0028H374.196V41.0414H374.231V41.08H374.266V41.1185H374.3V41.1571H374.335V41.1957H374.404V41.2343H374.438V41.2728H374.473V41.3114H374.508V41.35H374.542V41.4271H374.577V41.4657H374.611V41.5043H374.646V41.5428H374.68V41.5814H374.715V41.62H374.75V41.6586H374.784V41.7357H374.819V41.7743H374.853V41.8128H374.888V41.89H374.923V41.9286H374.957V42.0057H374.992V42.0443H375.026V42.1214H375.061V42.1986H375.095V42.2371H375.13V42.3143H375.165V42.3914H375.199V42.4686H375.234V42.5457H375.268V42.6228H375.303V42.7H375.337V42.7771H375.372V42.8929H375.407V43.0086H375.441V43.1243H375.476V43.24H375.51V43.3943H375.545V43.5486H375.58V43.78H375.614V44.0114H375.649V45.0143H375.614V45.2843H375.58V45.4772H375.545V45.6314H375.51V45.7857H375.476V45.94H375.441V46.0172H375.407V46.1329H375.372V46.2486H375.337V46.3257H375.303V46.4029H375.268V46.48H375.234V46.5572H375.199V46.6729H375.165V46.7115H375.13V46.7886H375.095V46.8657H375.061V46.9043H375.026V46.9815H374.992V47.0586H374.957V47.0972H374.923V47.1357H374.888V47.2129H374.853V47.2515H374.819V47.29H374.784V47.3672H374.75V47.4057H374.715V47.4443H374.68V47.4829H374.646V47.5215H374.611V47.5986H374.577V47.6372H374.542V47.6757H374.508V47.7143H374.473V47.7529H374.438V47.7915H374.404V47.83H374.369V47.8686H374.335V47.9072H374.266V47.9458H374.231V47.9843H374.196V48.0229H374.162V48.0615H374.127V48.1H374.058V48.1386H374.023V48.1772H373.989V48.2158H373.92V48.2543H373.885V48.2929H373.851V48.3315H373.781V48.37H373.712V48.4086H373.678V48.4472H373.608V48.4858H373.539V48.5243H373.47V48.5629H373.401V48.6015H373.332V48.64H373.263V48.6786H373.194V48.7172H373.124V48.7558H373.021V48.7943H372.917V48.8329H372.813V48.8715H372.709V48.91H372.571V48.9486H372.433V48.9872H372.225V49.0258H372.018V49.0643" fill="url(#paint4_linear_34_804)"/>
<path d="M306.986 171.558H262.294L250 151.066H319.28L306.986 171.558Z" fill="url(#paint5_linear_34_804)"/>
<path d="M284.64 91.8732L313.73 147.55H255.55L284.64 91.8732ZM284.64 85.1077L250 151.407H319.28L284.64 85.1077Z" fill="white"/>
<path d="M303.18 176.165H266.1V171.442H303.18V176.165Z" fill="white"/>
<path d="M464.706 171.558H420.015L407.72 151.066H477L464.706 171.558Z" fill="url(#paint6_linear_34_804)"/>
<path d="M442.36 91.8732L471.45 147.55H413.27L442.36 91.8732ZM442.36 85.1077L407.72 151.407H477L442.36 85.1077Z" fill="white"/>
<path d="M460.9 176.165H423.82V171.442H460.9V176.165Z" fill="white"/>
<path d="M363.5 84.9596V65.5186C363.5 65.5186 328.81 84.7667 284.64 84.7667C284.64 84.7667 337.811 97.458 363.5 84.9596Z" fill="url(#paint7_linear_34_804)"/>
<path d="M363.5 84.9596V65.5186C363.5 65.5186 398.19 84.7667 442.36 84.7667C442.36 84.7667 389.189 97.458 363.5 84.9596Z" fill="url(#paint8_linear_34_804)"/>
<defs>
<linearGradient id="paint0_linear_34_804" x1="250" y1="0" x2="250" y2="270" gradientUnits="userSpaceOnUse">
<stop stop-color="#BA000B"/>
<stop offset="1" stop-color="#8C030B"/>
</linearGradient>
<linearGradient id="paint1_linear_34_804" x1="345.904" y1="147.206" x2="382.092" y2="147.206" gradientUnits="userSpaceOnUse">
<stop stop-color="white"/>
<stop offset="0.658163" stop-color="#E9BB66"/>
<stop offset="1" stop-color="white"/>
</linearGradient>
<linearGradient id="paint2_linear_34_804" x1="356.131" y1="68.7594" x2="371.865" y2="68.7594" gradientUnits="userSpaceOnUse">
<stop stop-color="white"/>
<stop offset="0.637755" stop-color="#C6913B"/>
<stop offset="1" stop-color="white"/>
</linearGradient>
<linearGradient id="paint3_linear_34_804" x1="352.327" y1="55.838" x2="375.668" y2="55.838" gradientUnits="userSpaceOnUse">
<stop stop-color="#EFD99D"/>
<stop offset="1" stop-color="#E9BB66"/>
</linearGradient>
<linearGradient id="paint4_linear_34_804" x1="352.358" y1="44.5171" x2="375.637" y2="44.5171" gradientUnits="userSpaceOnUse">
<stop stop-color="#EFD99D"/>
<stop offset="1" stop-color="#EBCE73"/>
</linearGradient>
<linearGradient id="paint5_linear_34_804" x1="250" y1="161.312" x2="319.28" y2="161.312" gradientUnits="userSpaceOnUse">
<stop stop-color="white"/>
<stop offset="0.658163" stop-color="white"/>
<stop offset="1" stop-color="white"/>
</linearGradient>
<linearGradient id="paint6_linear_34_804" x1="407.72" y1="161.312" x2="477" y2="161.312" gradientUnits="userSpaceOnUse">
<stop stop-color="white"/>
<stop offset="0.658163" stop-color="white"/>
<stop offset="1" stop-color="white"/>
</linearGradient>
<linearGradient id="paint7_linear_34_804" x1="284.64" y1="77.9916" x2="363.5" y2="77.9916" gradientUnits="userSpaceOnUse">
<stop stop-color="#EFCB89"/>
<stop offset="1" stop-color="#FFFFFE"/>
</linearGradient>
<linearGradient id="paint8_linear_34_804" x1="363.5" y1="77.9916" x2="442.36" y2="77.9916" gradientUnits="userSpaceOnUse">
<stop stop-color="white"/>
<stop offset="1" stop-color="#F1D39C"/>
</linearGradient>
</defs>
</svg>
