<svg width="500" height="270" viewBox="0 0 500 270" fill="none" xmlns="http://www.w3.org/2000/svg">
<rect width="500" height="270" rx="2" fill="url(#paint0_linear_601_810)"/>
<path d="M361.314 29.0003L390.032 80.9732C390.032 80.9732 381.457 71.9328 376.132 68.6677C370.499 65.2141 357.568 61.2862 357.568 61.2862L383.789 99.4785C383.789 99.4785 373.517 91.3976 367.393 89.1611C360.638 86.6939 345.914 86.092 345.914 86.092C345.914 86.092 360.217 94.8939 366.664 100.142C372.723 105.073 383.373 116.408 383.373 116.408C383.373 116.408 369.841 119.457 365.002 123.798C359.624 128.621 357.054 133.941 355.813 137.872C355.543 137.678 355.278 137.5 355.026 137.354C351.944 135.585 344.693 134.247 344.693 134.247L360.64 108.652C360.64 108.652 351.714 112.073 347.86 114.77C343.313 117.952 336.058 126.361 336.058 126.361L347.037 92.0783C347.037 92.0783 336.56 100.206 332.683 105.396C329.421 109.762 325.619 120.747 325.619 120.747L328.695 72.6099C328.695 72.6099 320.98 83.206 318.506 88.9925C316.209 94.3666 314.381 106.092 314.381 106.092L314.109 69.8871C314.109 69.8871 307.836 76.1251 303.668 86.9148C301.693 92.0269 302.905 103.628 302.905 103.628C302.905 103.628 291.134 94.2416 284.479 90.56C273.7 84.5968 263 85.8295 263 85.8295L301.404 118.428C301.404 118.428 291.893 113.818 286.695 112.813C281.197 111.75 269.784 112.477 269.784 112.477L302.052 134.915C302.052 134.915 291.487 131.568 285.969 131.614C279.881 131.664 268.053 135.549 268.053 135.549C268.053 135.549 282.023 138.273 288.707 140.514C294.988 142.619 306.834 148.429 306.834 148.429C306.834 148.429 297.051 154.851 294.533 159.719C289.283 169.87 292.357 178.525 292.357 178.525C292.357 178.525 297.212 167.419 301.268 163.044C301.904 162.359 302.774 161.626 303.737 160.901C299.154 172.989 299.184 188.35 304.918 203.375C315.346 230.7 331.339 249.004 361.461 238.745C367.94 236.538 372.979 233.593 376.799 230.058C383.831 235.393 393.242 238.574 405.671 238.948C415.906 239.257 424.096 237.307 430.601 233.614L430.788 233.774C430.788 233.774 430.62 233.611 430.613 233.607C438.938 228.877 444.495 221.284 448.022 211.884L448.172 212.019C448.172 212.019 448.029 211.881 448.027 211.877C451.84 201.712 453.284 189.441 453.284 176.393C453.284 157.67 447.015 140.88 437.093 129.416L446.222 134.127C446.222 134.127 443.74 127.023 441.357 124.129C438.694 120.895 431.239 116.408 431.239 116.408L459.683 94.7059C459.683 94.7059 448.366 94.7908 442.965 96.1765C436.592 97.8117 425.016 104.108 425.016 104.108L451.632 70.7354C451.632 70.7354 436.612 75.3849 430.132 79.5191C424.681 82.997 415.838 93.5716 415.838 93.5716L439.563 41.6C439.563 41.6 426.556 50.124 421.377 55.4997C416.567 60.4922 409.596 72.7039 409.596 72.7039L424.579 32.5443C424.579 32.5443 415.007 36.8448 405.842 47.0525C401.499 51.8889 397.941 65.2241 397.941 65.2241C397.941 65.2241 388.884 49.9625 383.076 43.1324C373.67 32.0695 361.314 29 361.314 29L361.314 29.0003ZM374.684 128.92C373.761 129.96 372.86 131.033 372.001 132.163C371.998 132.161 371.871 132.074 371.871 132.074L371.997 132.168C369.552 135.381 367.383 138.954 365.515 142.802C365.514 142.802 365.465 142.766 365.465 142.766L365.515 142.802C364.505 144.881 363.576 147.034 362.755 149.271C362.734 149.321 362.719 149.377 362.705 149.429C360.163 147.197 357.49 145.257 354.729 143.632C354.751 143.61 355.158 143.208 355.323 143.043L361.898 143.819C361.898 143.819 360.283 141.901 358.398 140.079C361.905 136.801 367.17 132.202 371.052 130.266C372.045 129.77 373.317 129.322 374.689 128.919L374.684 128.92ZM353.25 142.8L354.715 142.972C354.679 143.326 354.665 143.529 354.665 143.598C354.197 143.323 353.727 143.057 353.254 142.8L353.25 142.8Z" stroke="#F3E9E9" stroke-width="4.99285" stroke-linecap="round" stroke-linejoin="round"/>
<path d="M381.331 174.818C391.448 201.531 392.232 226.986 363.115 236.979C333.893 247.008 318.378 229.115 308.261 202.402C298.144 175.688 306.299 147.857 326.477 140.24C346.654 132.623 371.214 148.104 381.331 174.818Z" fill="#A86F36"/>
<path d="M310.12 148.686C310.12 148.686 300.629 154.964 298.187 159.722C293.093 169.647 296.076 178.108 296.076 178.108C296.076 178.108 300.785 167.251 304.72 162.973C307.544 159.903 315.034 155.879 315.034 155.879L320.24 168.871C320.24 168.871 324.784 163.203 325.804 159.871C326.818 156.559 326.159 149.591 326.159 149.591L343.741 160.353L338.641 145.923L358.814 152.923L346.715 142.18L363.534 144.182C363.534 144.182 359.55 139.408 356.874 137.86C353.883 136.131 346.848 134.822 346.848 134.822L362.319 109.801C362.319 109.801 353.66 113.145 349.921 115.782C345.51 118.892 338.471 127.112 338.471 127.112L349.122 93.5986C349.122 93.5986 338.958 101.544 335.196 106.618C332.032 110.886 328.344 121.625 328.344 121.625L331.328 74.5658C331.328 74.5658 323.843 84.9247 321.443 90.5815C319.215 95.8352 317.442 107.298 317.442 107.298L317.178 71.9038C317.178 71.9038 311.093 78.0021 307.049 88.5501C305.133 93.5477 306.308 104.889 306.308 104.889C306.308 104.889 294.89 95.7121 288.433 92.1129C277.976 86.2833 267.596 87.4893 267.596 87.4893L304.853 119.357C304.853 119.357 295.625 114.851 290.583 113.869C285.249 112.83 274.176 113.539 274.176 113.539L305.481 135.475C305.481 135.475 295.233 132.202 289.879 132.247C283.973 132.297 272.498 136.095 272.498 136.095C272.498 136.095 286.05 138.758 292.534 140.948C298.627 143.006 310.12 148.686 310.12 148.686L310.12 148.686Z" fill="#6E953F"/>
<path d="M379.743 175.418C389.42 200.97 390.17 225.318 362.319 234.876C334.367 244.47 319.527 227.355 309.85 201.803C300.172 176.25 307.973 149.63 327.273 142.344C346.574 135.058 370.065 149.866 379.743 175.418Z" fill="#FEEB8A"/>
<path d="M310.06 201.723C319.737 227.275 335.311 246.027 362.529 234.797C389.845 223.527 389.63 200.891 379.953 175.339C370.275 149.787 346.784 134.979 327.484 142.265C308.183 149.551 300.382 176.171 310.06 201.723Z" fill="url(#paint1_linear_601_810)"/>
<path d="M379.953 175.339C389.63 200.891 390.38 225.239 362.529 234.797C334.578 244.39 319.737 227.275 310.06 201.723C300.382 176.171 308.183 149.551 327.484 142.265C346.784 134.979 370.275 149.787 379.953 175.339Z" fill="url(#paint2_linear_601_810)"/>
<path d="M324.934 160.305C317.733 163.855 317.561 164.759 315.179 165.78C311.67 167.284 308.445 167.519 308.117 166.653C307.79 165.787 310.419 163.992 313.991 162.643C317.563 161.295 317.046 162.229 324.934 160.305Z" fill="#FADD51"/>
<path d="M328.77 175.519C321.569 179.069 321.397 179.972 319.016 180.994C315.506 182.498 312.282 182.733 311.954 181.867C311.625 181.001 314.255 179.206 317.828 177.857C321.4 176.509 320.883 177.443 328.77 175.519V175.519Z" fill="#FADD51"/>
<path d="M334.329 191.044C327.128 194.594 326.956 195.498 324.574 196.519C321.065 198.023 317.841 198.258 317.512 197.392C317.184 196.526 319.814 194.731 323.387 193.382C326.959 192.034 326.442 192.968 334.329 191.044V191.044Z" fill="#FADD51"/>
<path d="M339.289 205.834C332.088 209.384 331.916 210.287 329.534 211.309C326.025 212.813 322.8 213.048 322.472 212.182C322.144 211.316 324.774 209.521 328.346 208.172C331.918 206.824 331.401 207.758 339.289 205.834Z" fill="#FADD51"/>
<path d="M345.553 222.374C338.352 225.924 338.18 226.828 335.799 227.849C332.289 229.353 329.065 229.589 328.737 228.722C328.408 227.856 331.038 226.061 334.611 224.712C338.183 223.364 337.666 224.298 345.553 222.374Z" fill="#FADD51"/>
<path d="M334.436 144.635L320.395 149.935L351.187 231.235L365.227 225.935L334.436 144.635Z" fill="#FADD51"/>
<path d="M333.312 145.059L321.519 149.511L352.31 230.812L364.104 226.359L333.312 145.059Z" fill="#FDF4C5"/>
<path d="M324.785 167.252C319.275 169.497 318.995 169.769 317.2 170.471C314.556 171.505 312.333 172.149 312.268 171.977C312.203 171.805 314.306 170.852 316.965 169.848C319.623 168.845 319.105 169.187 324.785 167.252Z" fill="#FADD51"/>
<path d="M328.621 182.466C323.111 184.711 322.832 184.983 321.037 185.685C318.392 186.719 316.17 187.363 316.105 187.191C316.04 187.019 318.142 186.066 320.801 185.062C323.46 184.059 322.941 184.401 328.621 182.466Z" fill="#FADD51"/>
<path d="M334.18 197.991C328.67 200.236 328.391 200.508 326.596 201.21C323.951 202.244 321.729 202.888 321.664 202.716C321.599 202.544 323.701 201.591 326.36 200.587C329.019 199.584 328.5 199.927 334.18 197.991Z" fill="#FADD51"/>
<path d="M339.14 212.781C333.63 215.026 333.35 215.298 331.555 216C328.911 217.034 326.688 217.678 326.623 217.506C326.558 217.334 328.661 216.381 331.319 215.377C333.978 214.373 333.46 214.716 339.14 212.781Z" fill="#FADD51"/>
<path d="M340.205 156.463C347.957 154.368 348.684 154.932 351.147 154.124C354.775 152.935 357.349 150.981 357.021 150.115C356.693 149.248 353.531 149.639 349.959 150.988C346.387 152.336 347.394 152.696 340.205 156.463V156.463Z" fill="#FADD51"/>
<path d="M347.411 170.405C355.163 168.31 355.891 168.874 358.353 168.066C361.982 166.876 364.555 164.923 364.227 164.056C363.899 163.19 360.738 163.582 357.166 164.93C353.593 166.278 354.6 166.638 347.411 170.405Z" fill="#FADD51"/>
<path d="M353.531 185.718C361.283 183.623 362.011 184.187 364.474 183.379C368.102 182.19 370.676 180.236 370.348 179.37C370.02 178.504 366.858 178.894 363.286 180.243C359.714 181.591 360.721 181.951 353.531 185.718H353.531Z" fill="#FADD51"/>
<path d="M359.614 200.084C367.366 197.989 368.094 198.553 370.557 197.745C374.185 196.556 376.759 194.602 376.431 193.736C376.102 192.87 372.941 193.26 369.369 194.609C365.797 195.957 366.804 196.317 359.614 200.084Z" fill="#FADD51"/>
<path d="M365.879 216.624C373.631 214.529 374.358 215.093 376.821 214.286C380.449 213.096 383.023 211.142 382.695 210.276C382.367 209.41 379.206 209.8 375.633 211.149C372.061 212.498 373.068 212.857 365.879 216.624Z" fill="#FADD51"/>
<path d="M344.92 161.574C350.54 159.617 350.93 159.636 352.741 158.977C355.409 158.006 357.502 157.021 357.437 156.849C357.372 156.677 355.164 157.351 352.505 158.355C349.846 159.358 350.462 159.272 344.92 161.574Z" fill="#FADD51"/>
<path d="M352.126 175.516C357.746 173.559 358.136 173.578 359.947 172.919C362.615 171.948 364.708 170.962 364.643 170.79C364.578 170.618 362.37 171.293 359.711 172.296C357.052 173.3 357.668 173.214 352.126 175.516Z" fill="#FADD51"/>
<path d="M358.247 190.828C363.866 188.872 364.256 188.891 366.067 188.232C368.735 187.261 370.829 186.275 370.763 186.103C370.699 185.931 368.49 186.605 365.831 187.609C363.173 188.613 363.789 188.527 358.247 190.828Z" fill="#FADD51"/>
<path d="M364.33 205.195C369.949 203.238 370.339 203.257 372.15 202.598C374.818 201.627 376.911 200.641 376.846 200.469C376.782 200.297 374.573 200.971 371.914 201.975C369.256 202.979 369.871 202.894 364.33 205.195Z" fill="#FADD51"/>
<path d="M452.197 176.024C452.197 209.798 442.399 238.282 406.005 237.177C369.48 236.069 359.814 209.798 359.814 176.024C359.814 142.25 380.494 114.871 406.005 114.871C431.516 114.871 452.197 142.25 452.197 176.024Z" fill="#F1B911"/>
<path d="M452.197 176.024C452.197 209.798 442.399 238.282 406.005 237.177C369.48 236.069 359.814 209.798 359.814 176.024C359.814 142.25 380.494 114.871 406.005 114.871C431.516 114.871 452.197 142.25 452.197 176.024Z" fill="#F1B911"/>
<path d="M386.173 99.5569C386.173 99.5569 413.618 118.288 426.213 129.067C433.834 135.59 447.592 150.242 447.592 150.242" stroke="#BF8A2F" stroke-width="0.371423"/>
<path d="M379.072 106.646C379.072 106.646 406.51 125.386 419.113 136.156C430.648 146.014 451.497 168.142 451.497 168.142" stroke="#BF8A2F" stroke-width="0.371423"/>
<path d="M379.072 106.646C379.072 106.646 406.695 125.173 419.113 136.156" stroke="#BF8A2F" stroke-width="0.371423"/>
<path d="M381.558 125.431C381.558 125.431 402.91 139.887 412.722 148.207" stroke="#BF8A2F" stroke-width="0.371423"/>
<path d="M412.722 148.207C429.305 159.818 451.852 185.332 451.852 185.332" stroke="#BF8A2F" stroke-width="0.371423"/>
<path d="M373.214 132.698C373.214 132.698 398.054 149.545 409.172 159.549" stroke="#BF8A2F" stroke-width="0.371423"/>
<path d="M409.172 159.549C424.097 173.219 450.61 197.029 450.61 197.029" stroke="#BF8A2F" stroke-width="0.371423"/>
<path d="M367.002 143.154C367.002 143.154 391.879 160.475 403.491 170.182" stroke="#BF8A2F" stroke-width="0.371423"/>
<path d="M403.491 170.183C418.999 183.19 447.237 210.852 447.237 210.852" stroke="#BF8A2F" stroke-width="0.371423"/>
<path d="M362.736 155.529C362.736 155.529 386.627 173.181 397.983 182.735C412.808 195.207 440.841 221.987 440.841 221.987" stroke="#BF8A2F" stroke-width="0.371423"/>
<path d="M360.078 171.686C360.078 171.686 378.951 185.378 387.87 192.867C402.641 205.268 430.373 232.119 430.373 232.119" stroke="#BF8A2F" stroke-width="0.371423"/>
<path d="M360.256 184.978C360.256 184.978 376.973 197.549 385.03 204.209C397.266 214.324 420.788 235.663 420.788 235.663" stroke="#BF8A2F" stroke-width="0.371423"/>
<path d="M362.741 203.054C362.741 203.054 375.905 213.035 382.19 218.387C389.07 224.245 402.149 236.726 402.149 236.726" stroke="#BF8A2F" stroke-width="0.371423"/>
<path d="M362.952 155.596C362.952 155.596 374.139 143.173 380.022 137.239C394.269 122.866 424.122 95.5056 424.122 95.5056" stroke="#BF8A2F" stroke-width="0.371423"/>
<path d="M360.065 171.761C360.065 171.761 379.471 154.176 389.059 145.259C403.879 131.475 433.16 103.526 433.16 103.526" stroke="#BF8A2F" stroke-width="0.371423"/>
<path d="M360.192 182.961C360.192 182.961 383.916 165.75 395.084 156.286C408.294 145.092 432.972 120.756 432.972 120.756" stroke="#BF8A2F" stroke-width="0.371423"/>
<path d="M361.87 197.913C361.87 197.913 387.573 179.876 399.603 169.82C413.296 158.373 438.683 133.225 438.683 133.225" stroke="#BF8A2F" stroke-width="0.371423"/>
<path d="M365.086 210.859C365.086 210.859 392.523 192.12 405.126 181.349C419.091 169.414 444.331 142.624 444.331 142.624" stroke="#BF8A2F" stroke-width="0.371423"/>
<path d="M371.704 221.502C371.704 221.502 398.053 203.316 410.146 192.878C423.852 181.049 448.599 154.529 448.599 154.529" stroke="#BF8A2F" stroke-width="0.371423"/>
<path d="M380.391 229.841C380.391 229.841 405.032 213.893 416.171 204.407C428.943 193.532 451.486 168.564 451.486 168.564" stroke="#BF8A2F" stroke-width="0.371423"/>
<path d="M392.538 234.967C392.538 234.967 413.793 220.213 423.703 211.926C433.603 203.646 451.862 185.356 451.862 185.356" stroke="#BF8A2F" stroke-width="0.371423"/>
<path d="M406.812 236.876C406.812 236.876 424.648 225.294 432.74 218.442C438.592 213.487 448.975 202.148 448.975 202.148" stroke="#BF8A2F" stroke-width="0.371423"/>
<path d="M384.374 117.383C384.374 117.383 371.245 120.364 366.55 124.607C356.758 133.459 356.513 144.064 356.513 144.064C356.513 144.064 366.271 134.021 372.415 130.932C376.825 128.715 386.796 127.391 386.796 127.391L387.112 143.936C387.112 143.936 394.513 139.565 397.037 136.305C399.547 133.064 401.736 125.081 401.736 125.081L416.676 144.327L417.08 126.236L436.462 142.402L427.578 125.466L445.345 134.704C445.345 134.704 442.938 127.76 440.626 124.93C438.042 121.769 430.809 117.383 430.809 117.383L458.405 96.1663C458.405 96.1663 447.425 96.2499 442.185 97.605C436.002 99.2036 424.772 105.357 424.772 105.357L450.594 72.7333C450.594 72.7333 436.022 77.2783 429.736 81.3199C424.447 84.7199 415.869 95.0582 415.869 95.0582L438.884 44.2499C438.884 44.2499 426.266 52.5831 421.241 57.8385C416.575 62.7191 409.812 74.6579 409.812 74.6579L424.348 35.3969C424.348 35.3969 415.062 39.6015 406.17 49.5807C401.957 54.3089 398.506 67.3446 398.506 67.3446C398.506 67.3446 389.719 52.4255 384.085 45.7482C374.96 34.9332 362.973 31.9326 362.973 31.9326L390.834 82.7411C390.834 82.7411 382.515 73.9031 377.349 70.7112C371.884 67.3349 359.339 63.4955 359.339 63.4955L384.777 100.832C384.777 100.832 374.811 92.9325 368.871 90.746C362.317 88.3342 348.033 87.745 348.033 87.745C348.033 87.745 361.908 96.3497 368.163 101.48C374.041 106.301 384.373 117.383 384.373 117.383H384.374Z" fill="#7CA847"/>
<defs>
<linearGradient id="paint0_linear_601_810" x1="250" y1="0" x2="250" y2="270" gradientUnits="userSpaceOnUse">
<stop stop-color="#70AF48"/>
<stop offset="1" stop-color="#307C00"/>
</linearGradient>
<linearGradient id="paint1_linear_601_810" x1="310.868" y1="203.433" x2="345.073" y2="189.515" gradientUnits="userSpaceOnUse">
<stop stop-color="#FFF0B6"/>
<stop offset="1" stop-color="#FEEB8A" stop-opacity="0"/>
</linearGradient>
<linearGradient id="paint2_linear_601_810" x1="380.48" y1="177.155" x2="345.635" y2="189.388" gradientUnits="userSpaceOnUse">
<stop stop-color="#FFF0B6"/>
<stop offset="1" stop-color="#FEEB8A" stop-opacity="0"/>
</linearGradient>
</defs>
</svg>
