<svg width="500" height="270" viewBox="0 0 500 270" fill="none" xmlns="http://www.w3.org/2000/svg">
<rect width="500" height="270" rx="2" fill="url(#paint0_linear_601_758)"/>
<path d="M416.378 79.3133C403.883 76.9666 389.407 88.5717 373.976 88.5717C373.925 88.5717 373.871 88.5679 373.818 88.5679V88.5594C373.79 88.5594 373.765 88.5622 373.737 88.5641C373.709 88.5622 373.684 88.5594 373.657 88.5594V88.5679C373.603 88.5679 373.551 88.5717 373.499 88.5717C358.068 88.5717 343.592 76.9666 331.095 79.3133C305.348 84.1481 288 122.289 288 132.718C288 137.134 309.178 125.62 339.46 123.005C349.891 122.102 361.401 130.021 373.499 130.021C373.577 130.021 373.657 130.013 373.737 130.01C373.817 130.014 373.898 130.021 373.976 130.021C386.073 130.021 397.582 122.102 408.014 123.005C438.298 125.62 459.476 137.134 459.476 132.718C459.475 122.289 442.125 84.1481 416.378 79.3133Z" fill="#C41414"/>
<path d="M408.014 137.383C397.582 138.331 386.073 144.047 373.976 144.047C373.925 144.047 373.871 144.047 373.818 144.043V144.036C373.79 144.036 373.765 144.039 373.737 144.039C373.709 144.039 373.684 144.036 373.657 144.036V144.043C373.603 144.047 373.551 144.047 373.499 144.047C361.401 144.047 349.891 138.331 339.46 137.383C309.178 134.635 288 138.29 288 143.328C288 145.154 309.612 180.414 339.186 187.745C363.129 193.678 380.837 193.139 407.632 187.79C437.563 181.811 459.476 145.231 459.476 143.328C459.475 138.114 438.298 134.636 408.014 137.383Z" fill="#C41414"/>
<path d="M422.469 144.816C422.469 149.581 400.041 165.987 372.383 165.987C344.723 165.987 322.294 149.581 322.294 144.816C322.294 140.049 344.722 151.601 372.383 151.601C400.041 151.601 422.469 140.049 422.469 144.816Z" fill="white"/>
<path d="M343.99 88.841C343.99 91.1277 341.89 93.3407 334.578 93.3407C327.266 93.3407 323.252 92.3869 323.252 90.103C323.252 87.8182 327.266 83.6272 334.578 83.6272C341.89 83.6272 343.99 86.5591 343.99 88.841Z" fill="white"/>
<defs>
<linearGradient id="paint0_linear_601_758" x1="3.72529e-06" y1="135" x2="500" y2="135" gradientUnits="userSpaceOnUse">
<stop stop-color="#774C0B"/>
<stop offset="1" stop-color="#3E2602"/>
</linearGradient>
</defs>
</svg>
