<svg width="500" height="270" viewBox="0 0 500 270" fill="none" xmlns="http://www.w3.org/2000/svg">
<rect width="500" height="270" rx="2" fill="url(#paint0_linear_34_759)"/>
<path d="M372.472 31.7233L401.191 83.6962C401.191 83.6962 392.615 74.6558 387.29 71.3907C381.658 67.9372 368.727 64.0092 368.727 64.0092L394.947 102.202C394.947 102.202 384.675 94.1206 378.552 91.8841C371.797 89.4169 357.073 88.8151 357.073 88.8151C357.073 88.8151 371.375 97.6169 377.823 102.865C383.882 107.796 394.531 119.131 394.531 119.131C394.531 119.131 381 122.18 376.16 126.521C370.783 131.344 368.213 136.664 366.972 140.595C366.701 140.401 366.437 140.223 366.185 140.077C363.103 138.308 355.852 136.97 355.852 136.97L371.799 111.375C371.799 111.375 362.873 114.796 359.019 117.493C354.472 120.675 347.217 129.084 347.217 129.084L358.195 94.8014C358.195 94.8014 347.719 102.929 343.841 108.119C340.579 112.485 336.777 123.47 336.777 123.47L339.854 75.3329C339.854 75.3329 332.138 85.9291 329.665 91.7155C327.367 97.0896 325.539 108.815 325.539 108.815L325.267 72.6101C325.267 72.6101 318.995 78.8481 314.827 89.6378C312.852 94.7499 314.064 106.351 314.064 106.351C314.064 106.351 302.293 96.9646 295.637 93.2831C284.858 87.3199 274.159 88.5526 274.159 88.5526L312.562 121.151C312.562 121.151 303.051 116.541 297.853 115.536C292.356 114.473 280.943 115.2 280.943 115.2L313.211 137.638C313.211 137.638 302.646 134.291 297.128 134.337C291.04 134.387 279.212 138.272 279.212 138.272C279.212 138.272 293.182 140.996 299.866 143.237C306.146 145.342 317.992 151.152 317.992 151.152C317.992 151.152 308.209 157.574 305.692 162.442C300.442 172.593 303.515 181.248 303.515 181.248C303.515 181.248 308.371 170.142 312.426 165.767C313.062 165.082 313.932 164.349 314.896 163.624C310.313 175.712 310.342 191.073 316.076 206.098C326.505 233.423 342.498 251.727 372.619 241.468C379.098 239.261 384.138 236.316 387.958 232.781C394.99 238.116 404.4 241.297 416.829 241.671C427.065 241.98 435.254 240.03 441.76 236.337L441.946 236.497C441.946 236.497 441.778 236.334 441.772 236.33C450.096 231.6 455.653 224.007 459.181 214.607L459.33 214.742C459.33 214.742 459.188 214.604 459.185 214.6C462.999 204.435 464.442 192.164 464.442 179.116C464.442 160.393 458.173 143.603 448.252 132.139L457.381 136.85C457.381 136.85 454.899 129.746 452.516 126.852C449.853 123.618 442.397 119.131 442.397 119.131L470.841 97.4289C470.841 97.4289 459.525 97.5138 454.123 98.8995C447.75 100.535 436.175 106.831 436.175 106.831L462.791 73.4584C462.791 73.4584 447.771 78.1079 441.291 82.2421C435.839 85.72 426.996 96.2946 426.996 96.2946L450.721 44.323C450.721 44.323 437.714 52.847 432.535 58.2227C427.725 63.2152 420.754 75.4269 420.754 75.4269L435.738 35.2674C435.738 35.2674 426.166 39.5678 417 49.7755C412.657 54.6119 409.099 67.9471 409.099 67.9471C409.099 67.9471 400.042 52.6855 394.235 45.8555C384.828 34.7925 372.473 31.723 372.473 31.723L372.472 31.7233ZM385.843 131.643C384.92 132.683 384.019 133.756 383.159 134.886C383.157 134.884 383.03 134.797 383.03 134.797L383.156 134.891C380.711 138.104 378.542 141.677 376.673 145.525C376.673 145.525 376.623 145.489 376.623 145.489L376.673 145.525C375.663 147.604 374.734 149.757 373.914 151.994C373.892 152.044 373.878 152.1 373.864 152.152C371.322 149.92 368.648 147.98 365.888 146.355C365.909 146.333 366.316 145.931 366.482 145.766L373.056 146.542C373.056 146.542 371.441 144.624 369.557 142.802C373.064 139.524 378.329 134.925 382.211 132.989C383.203 132.493 384.475 132.045 385.848 131.642L385.843 131.643ZM364.409 145.523L365.874 145.695C365.838 146.049 365.823 146.252 365.823 146.321C365.356 146.046 364.885 145.78 364.412 145.523L364.409 145.523Z" stroke="#F3E9E9" stroke-width="4.99285" stroke-linecap="round" stroke-linejoin="round"/>
<path d="M392.49 177.541C402.607 204.254 403.391 229.709 374.274 239.702C345.052 249.731 329.537 231.838 319.42 205.125C309.302 178.411 317.458 150.58 337.635 142.963C357.813 135.346 382.372 150.827 392.49 177.541Z" fill="#A86F36"/>
<path d="M321.278 151.409C321.278 151.409 311.788 157.687 309.345 162.445C304.252 172.37 307.235 180.831 307.235 180.831C307.235 180.831 311.944 169.974 315.878 165.696C318.703 162.626 326.193 158.602 326.193 158.602L331.398 171.594C331.398 171.594 335.943 165.926 336.963 162.594C337.977 159.282 337.318 152.314 337.318 152.314L354.9 163.076L349.8 148.646L369.973 155.646L357.873 144.903L374.693 146.905C374.693 146.905 370.709 142.131 368.032 140.583C365.042 138.854 358.007 137.545 358.007 137.545L373.478 112.524C373.478 112.524 364.819 115.868 361.08 118.505C356.669 121.615 349.63 129.835 349.63 129.835L360.281 96.3215C360.281 96.3215 350.117 104.267 346.355 109.341C343.19 113.609 339.502 124.348 339.502 124.348L342.486 77.2887C342.486 77.2887 335.002 87.6476 332.602 93.3045C330.373 98.5582 328.6 110.021 328.6 110.021L328.337 74.6268C328.337 74.6268 322.252 80.725 318.208 91.2731C316.292 96.2707 317.467 107.612 317.467 107.612C317.467 107.612 306.048 98.4351 299.592 94.8358C289.134 89.0063 278.754 90.2122 278.754 90.2122L316.011 122.08C316.011 122.08 306.784 117.574 301.741 116.592C296.408 115.553 285.335 116.262 285.335 116.262L316.64 138.197C316.64 138.197 306.391 134.925 301.037 134.969C295.131 135.019 283.657 138.818 283.657 138.818C283.657 138.818 297.209 141.481 303.693 143.671C309.786 145.729 321.279 151.409 321.279 151.409L321.278 151.409Z" fill="#6E953F"/>
<path d="M390.901 178.141C400.579 203.693 401.328 228.041 373.478 237.599C345.526 247.193 330.686 230.078 321.008 204.526C311.331 178.973 319.132 152.353 338.432 145.067C357.732 137.781 381.224 152.589 390.901 178.141Z" fill="#FEEB8A"/>
<path d="M321.218 204.446C330.896 229.998 346.47 248.75 373.688 237.52C401.004 226.25 400.789 203.614 391.111 178.062C381.434 152.51 357.943 137.702 338.642 144.988C319.342 152.274 311.541 178.894 321.218 204.446Z" fill="url(#paint1_linear_34_759)"/>
<path d="M391.111 178.062C400.789 203.614 401.538 227.962 373.688 237.52C345.736 247.113 330.896 229.998 321.218 204.446C311.541 178.894 319.342 152.274 338.642 144.988C357.943 137.702 381.434 152.51 391.111 178.062Z" fill="url(#paint2_linear_34_759)"/>
<path d="M336.092 163.028C328.891 166.578 328.72 167.482 326.338 168.503C322.829 170.007 319.604 170.242 319.276 169.376C318.948 168.51 321.578 166.715 325.15 165.366C328.722 164.018 328.205 164.952 336.092 163.028Z" fill="#FADD51"/>
<path d="M339.929 178.242C332.728 181.792 332.556 182.695 330.174 183.717C326.665 185.221 323.44 185.456 323.112 184.59C322.784 183.724 325.414 181.929 328.986 180.58C332.558 179.232 332.041 180.166 339.929 178.242V178.242Z" fill="#FADD51"/>
<path d="M345.488 193.767C338.287 197.317 338.115 198.221 335.733 199.242C332.224 200.746 328.999 200.981 328.671 200.115C328.343 199.249 330.973 197.454 334.545 196.105C338.117 194.757 337.6 195.691 345.488 193.767V193.767Z" fill="#FADD51"/>
<path d="M350.447 208.557C343.246 212.107 343.074 213.011 340.693 214.032C337.183 215.536 333.959 215.771 333.631 214.905C333.303 214.039 335.933 212.244 339.505 210.895C343.077 209.547 342.56 210.481 350.447 208.557Z" fill="#FADD51"/>
<path d="M356.712 225.097C349.511 228.647 349.339 229.551 346.957 230.572C343.448 232.077 340.223 232.312 339.895 231.446C339.567 230.579 342.197 228.784 345.769 227.436C349.341 226.087 348.824 227.021 356.712 225.097Z" fill="#FADD51"/>
<path d="M345.594 147.358L331.554 152.658L362.345 233.958L376.386 228.658L345.594 147.358Z" fill="#FADD51"/>
<path d="M344.471 147.782L332.677 152.234L363.469 233.535L375.262 229.082L344.471 147.782Z" fill="#FDF4C5"/>
<path d="M335.943 169.975C330.433 172.22 330.154 172.492 328.359 173.194C325.715 174.228 323.492 174.872 323.427 174.7C323.362 174.528 325.464 173.575 328.123 172.571C330.782 171.568 330.263 171.91 335.943 169.975Z" fill="#FADD51"/>
<path d="M339.78 185.189C334.27 187.434 333.99 187.706 332.195 188.408C329.551 189.442 327.328 190.086 327.263 189.914C327.198 189.742 329.301 188.789 331.959 187.785C334.618 186.782 334.1 187.124 339.78 185.189Z" fill="#FADD51"/>
<path d="M345.339 200.714C339.829 202.959 339.549 203.231 337.754 203.933C335.11 204.967 332.887 205.611 332.822 205.439C332.757 205.267 334.86 204.314 337.518 203.31C340.177 202.307 339.659 202.65 345.339 200.714Z" fill="#FADD51"/>
<path d="M350.298 215.504C344.788 217.749 344.509 218.021 342.714 218.723C340.07 219.757 337.847 220.401 337.782 220.229C337.717 220.057 339.819 219.104 342.478 218.1C345.137 217.097 344.618 217.439 350.298 215.504Z" fill="#FADD51"/>
<path d="M351.363 159.186C359.115 157.091 359.843 157.655 362.306 156.847C365.934 155.657 368.508 153.704 368.18 152.838C367.851 151.971 364.69 152.362 361.118 153.711C357.546 155.059 358.553 155.419 351.363 159.186V159.186Z" fill="#FADD51"/>
<path d="M358.569 173.128C366.321 171.033 367.049 171.597 369.512 170.789C373.14 169.6 375.714 167.646 375.386 166.78C375.058 165.913 371.896 166.305 368.324 167.653C364.752 169.001 365.759 169.361 358.569 173.128Z" fill="#FADD51"/>
<path d="M364.69 188.441C372.442 186.346 373.17 186.91 375.632 186.102C379.261 184.913 381.834 182.959 381.506 182.093C381.178 181.227 378.017 181.617 374.445 182.966C370.872 184.314 371.88 184.674 364.69 188.441H364.69Z" fill="#FADD51"/>
<path d="M370.773 202.807C378.525 200.712 379.252 201.276 381.715 200.468C385.343 199.279 387.917 197.325 387.589 196.459C387.261 195.593 384.1 195.983 380.527 197.332C376.955 198.681 377.962 199.04 370.773 202.807Z" fill="#FADD51"/>
<path d="M377.037 219.347C384.789 217.252 385.517 217.816 387.98 217.009C391.608 215.819 394.182 213.865 393.854 212.999C393.525 212.133 390.364 212.523 386.792 213.872C383.22 215.221 384.227 215.58 377.037 219.347Z" fill="#FADD51"/>
<path d="M356.079 164.297C361.698 162.34 362.088 162.359 363.899 161.7C366.567 160.729 368.66 159.744 368.595 159.572C368.531 159.4 366.322 160.074 363.663 161.078C361.005 162.081 361.62 161.995 356.079 164.297Z" fill="#FADD51"/>
<path d="M363.285 178.238C368.904 176.282 369.294 176.301 371.105 175.642C373.773 174.671 375.866 173.685 375.801 173.513C375.737 173.341 373.528 174.015 370.869 175.019C368.211 176.023 368.827 175.937 363.285 178.238Z" fill="#FADD51"/>
<path d="M369.405 193.551C375.025 191.595 375.415 191.615 377.226 190.955C379.894 189.984 381.987 188.998 381.922 188.827C381.858 188.654 379.649 189.329 376.99 190.332C374.331 191.336 374.947 191.25 369.405 193.551Z" fill="#FADD51"/>
<path d="M375.488 207.918C381.108 205.961 381.498 205.98 383.309 205.321C385.977 204.35 388.07 203.364 388.005 203.192C387.94 203.02 385.732 203.694 383.073 204.698C380.414 205.702 381.03 205.617 375.488 207.918Z" fill="#FADD51"/>
<path d="M463.355 178.747C463.355 212.521 453.558 241.005 417.164 239.9C380.638 238.792 370.972 212.521 370.972 178.747C370.972 144.973 391.653 117.594 417.164 117.594C442.675 117.594 463.355 144.973 463.355 178.747Z" fill="#F1B911"/>
<path d="M463.355 178.747C463.355 212.521 453.558 241.005 417.164 239.9C380.638 238.792 370.972 212.521 370.972 178.747C370.972 144.973 391.653 117.594 417.164 117.594C442.675 117.594 463.355 144.973 463.355 178.747Z" fill="#F1B911"/>
<path d="M397.331 102.28C397.331 102.28 424.776 121.011 437.372 131.79C444.993 138.313 458.751 152.965 458.751 152.965" stroke="#BF8A2F" stroke-width="0.371423"/>
<path d="M390.231 109.369C390.231 109.369 417.668 128.109 430.271 138.879C441.807 148.738 462.656 170.865 462.656 170.865" stroke="#BF8A2F" stroke-width="0.371423"/>
<path d="M390.231 109.369C390.231 109.369 417.853 127.896 430.271 138.879" stroke="#BF8A2F" stroke-width="0.371423"/>
<path d="M392.716 128.154C392.716 128.154 414.068 142.61 423.881 150.93" stroke="#BF8A2F" stroke-width="0.371423"/>
<path d="M423.881 150.93C440.463 162.541 463.011 188.055 463.011 188.055" stroke="#BF8A2F" stroke-width="0.371423"/>
<path d="M384.373 135.421C384.373 135.421 409.212 152.268 420.33 162.272" stroke="#BF8A2F" stroke-width="0.371423"/>
<path d="M420.33 162.272C435.256 175.942 461.768 199.752 461.768 199.752" stroke="#BF8A2F" stroke-width="0.371423"/>
<path d="M378.16 145.877C378.16 145.877 403.038 163.198 414.65 172.906" stroke="#BF8A2F" stroke-width="0.371423"/>
<path d="M414.65 172.906C430.158 185.913 458.396 213.575 458.396 213.575" stroke="#BF8A2F" stroke-width="0.371423"/>
<path d="M373.895 158.252C373.895 158.252 397.785 175.904 409.142 185.458C423.967 197.93 452 224.71 452 224.71" stroke="#BF8A2F" stroke-width="0.371423"/>
<path d="M371.237 174.409C371.237 174.409 390.109 188.101 399.029 195.59C413.8 207.992 441.532 234.842 441.532 234.842" stroke="#BF8A2F" stroke-width="0.371423"/>
<path d="M371.415 187.701C371.415 187.701 388.132 200.272 396.189 206.932C408.424 217.047 431.946 238.386 431.946 238.386" stroke="#BF8A2F" stroke-width="0.371423"/>
<path d="M373.9 205.777C373.9 205.777 387.064 215.758 393.349 221.11C400.228 226.968 413.307 239.449 413.307 239.449" stroke="#BF8A2F" stroke-width="0.371423"/>
<path d="M374.11 158.319C374.11 158.319 385.297 145.896 391.18 139.962C405.428 125.589 435.281 98.2286 435.281 98.2286" stroke="#BF8A2F" stroke-width="0.371423"/>
<path d="M371.223 174.484C371.223 174.484 390.63 156.899 400.218 147.982C415.038 134.198 444.318 106.249 444.318 106.249" stroke="#BF8A2F" stroke-width="0.371423"/>
<path d="M371.35 185.684C371.35 185.684 395.074 168.474 406.242 159.009C419.452 147.815 444.13 123.479 444.13 123.479" stroke="#BF8A2F" stroke-width="0.371423"/>
<path d="M373.029 200.636C373.029 200.636 398.732 182.599 410.761 172.543C424.455 161.096 449.841 135.948 449.841 135.948" stroke="#BF8A2F" stroke-width="0.371423"/>
<path d="M376.244 213.582C376.244 213.582 403.682 194.843 416.284 184.072C430.25 172.137 455.489 145.347 455.489 145.347" stroke="#BF8A2F" stroke-width="0.371423"/>
<path d="M382.862 224.225C382.862 224.225 409.212 206.039 421.305 195.601C435.011 183.772 459.757 157.252 459.757 157.252" stroke="#BF8A2F" stroke-width="0.371423"/>
<path d="M391.55 232.564C391.55 232.564 416.191 216.616 427.33 207.13C440.102 196.255 462.644 171.287 462.644 171.287" stroke="#BF8A2F" stroke-width="0.371423"/>
<path d="M403.697 237.69C403.697 237.69 424.952 222.936 434.861 214.649C444.762 206.369 463.021 188.079 463.021 188.079" stroke="#BF8A2F" stroke-width="0.371423"/>
<path d="M417.971 239.599C417.971 239.599 435.807 228.017 443.899 221.165C449.751 216.21 460.134 204.871 460.134 204.871" stroke="#BF8A2F" stroke-width="0.371423"/>
<path d="M395.532 120.106C395.532 120.106 382.404 123.087 377.709 127.33C367.917 136.182 367.672 146.787 367.672 146.787C367.672 146.787 377.429 136.743 383.574 133.655C387.984 131.438 397.955 130.114 397.955 130.114L398.27 146.659C398.27 146.659 405.671 142.287 408.196 139.028C410.705 135.787 412.895 127.804 412.895 127.804L427.835 147.05L428.239 128.959L447.62 145.125L438.737 128.189L456.504 137.427C456.504 137.427 454.096 130.483 451.784 127.653C449.201 124.492 441.967 120.106 441.967 120.106L469.563 98.8892C469.563 98.8892 458.584 98.9728 453.343 100.328C447.161 101.927 435.931 108.08 435.931 108.08L461.753 75.4563C461.753 75.4563 447.181 80.0012 440.894 84.0429C435.606 87.4429 427.027 97.7812 427.027 97.7812L450.043 46.9728C450.043 46.9728 437.424 55.3061 432.4 60.5614C427.733 65.4421 420.97 77.3809 420.97 77.3809L435.507 38.1198C435.507 38.1198 426.221 42.3245 417.329 52.3037C413.116 57.0318 409.664 70.0676 409.664 70.0676C409.664 70.0676 400.878 55.1485 395.244 48.4712C386.118 37.6562 374.131 34.6556 374.131 34.6556L401.993 85.4641C401.993 85.4641 393.673 76.6261 388.507 73.4342C383.043 70.0578 370.497 66.2184 370.497 66.2184L395.936 103.555C395.936 103.555 385.97 95.6555 380.029 93.469C373.476 91.0571 359.191 90.468 359.191 90.468C359.191 90.468 373.066 99.0727 379.321 104.203C385.199 109.024 395.532 120.106 395.532 120.106H395.532Z" fill="#7CA847"/>
<defs>
<linearGradient id="paint0_linear_34_759" x1="250" y1="0" x2="250" y2="270" gradientUnits="userSpaceOnUse">
<stop stop-color="#70AF48"/>
<stop offset="1" stop-color="#307C00"/>
</linearGradient>
<linearGradient id="paint1_linear_34_759" x1="322.026" y1="206.156" x2="356.231" y2="192.238" gradientUnits="userSpaceOnUse">
<stop stop-color="#FFF0B6"/>
<stop offset="1" stop-color="#FEEB8A" stop-opacity="0"/>
</linearGradient>
<linearGradient id="paint2_linear_34_759" x1="391.639" y1="179.878" x2="356.794" y2="192.111" gradientUnits="userSpaceOnUse">
<stop stop-color="#FFF0B6"/>
<stop offset="1" stop-color="#FEEB8A" stop-opacity="0"/>
</linearGradient>
</defs>
</svg>
