<svg width="30" height="30" viewBox="0 0 30 30" fill="none" xmlns="http://www.w3.org/2000/svg">
<g clip-path="url(#clip0_158_3692)">
<path d="M28.8081 23.4086L27.9334 15.3743C27.8227 14.3575 26.9679 13.5908 25.9451 13.5908H25.308V12.1286C25.308 10.1969 23.7364 8.62532 21.8047 8.62532C19.873 8.62532 18.3014 10.1969 18.3014 12.1286V13.5907H17.6642C16.6415 13.5907 15.7867 14.3575 15.676 15.3743L14.8013 23.4086C14.6725 24.5913 15.6005 25.625 16.7896 25.625H26.8199C28.0076 25.6251 28.937 24.5928 28.8081 23.4086ZM26.8199 24.6251H16.7896C16.1931 24.6251 15.731 24.109 15.7955 23.5169L16.6702 15.4826C16.7256 14.9742 17.1529 14.5908 17.6643 14.5908H18.3015V15.8527C18.3015 16.1288 18.5253 16.3527 18.8015 16.3527C19.0776 16.3527 19.3015 16.1288 19.3015 15.8527V12.1286C19.3015 10.7483 20.4244 9.62537 21.8048 9.62537C23.1851 9.62537 24.3081 10.7483 24.3081 12.1286V13.5908H21.1433C20.8672 13.5908 20.6433 13.8147 20.6433 14.0908C20.6433 14.3669 20.8672 14.5908 21.1433 14.5908H24.3081V15.8527C24.3081 16.1288 24.5319 16.3527 24.808 16.3527C25.0842 16.3527 25.308 16.1288 25.308 15.8527V14.5908H25.9452C26.4566 14.5908 26.884 14.9741 26.9393 15.4825L27.814 23.5168C27.8786 24.1098 27.4156 24.6251 26.8199 24.6251ZM23.5548 27.5C23.2786 27.5 23.0548 27.7239 23.0548 28C23.0548 28.5514 22.6061 29 22.0548 29H3.18014C2.62877 29 2.18016 28.5514 2.18016 28V2.00051C2.18016 1.44914 2.62877 1.00053 3.18014 1.00053H17.2424V4.81295C17.2424 5.91575 18.1395 6.81292 19.2423 6.81292H23.5548C23.9992 6.81292 24.2224 6.27349 23.9083 5.95937C17.6489 -0.300013 18.0541 0.0526683 17.8402 0.0102316C17.7711 -0.00345566 18.5674 0.000544268 3.18014 0.000544268C2.07735 0.000544268 1.18018 0.897715 1.18018 2.00051V28C1.18018 29.1028 2.07735 30 3.18014 30H22.0548C23.1576 30 24.0547 29.1028 24.0547 28C24.0547 27.7238 23.8309 27.5 23.5548 27.5ZM19.2423 5.81294C18.691 5.81294 18.2424 5.36432 18.2424 4.81295V1.70757L22.3477 5.81294H19.2423ZM9.12471 7.37566C9.12634 6.54542 8.45504 5.87275 7.62474 5.87275H6.61564C5.78859 5.87275 5.11566 6.54561 5.11566 7.37272V8.37801C5.11566 9.20512 5.78859 9.87799 6.61564 9.87799H7.6228C8.44835 9.87799 9.12128 9.20637 9.12278 8.38089L9.12471 7.37566ZM8.1228 8.37901C8.12229 8.6542 7.89799 8.878 7.6228 8.878H6.61564C6.33995 8.878 6.11564 8.6537 6.11564 8.37801V7.37272C6.11564 7.09704 6.33995 6.87273 6.61564 6.87273H7.62474C7.90155 6.87273 8.12523 7.09691 8.12473 7.37366L8.1228 8.37901ZM9.11753 14.8753C9.11753 14.0482 8.4446 13.3753 7.61755 13.3753H6.61757C5.79053 13.3753 5.1176 14.0482 5.1176 14.8753V15.8752C5.1176 16.7024 5.79053 17.3752 6.61757 17.3752H7.61755C8.4446 17.3752 9.11753 16.7024 9.11753 15.8752V14.8753ZM8.11755 15.8752C8.11755 16.1509 7.89324 16.3752 7.61755 16.3752H6.61757C6.34189 16.3752 6.11758 16.1509 6.11758 15.8752V14.8753C6.11758 14.5996 6.34189 14.3753 6.61757 14.3753H7.61755C7.89324 14.3753 8.11755 14.5996 8.11755 14.8753V15.8752ZM7.61755 20.8752H6.61757C5.79053 20.8752 5.1176 21.548 5.1176 22.3751V23.3751C5.1176 24.2022 5.79053 24.8751 6.61757 24.8751H7.61755C8.4446 24.8751 9.11753 24.2022 9.11753 23.3751V22.3751C9.11753 21.548 8.4446 20.8752 7.61755 20.8752ZM8.11755 23.3751C8.11755 23.6508 7.89324 23.8751 7.61755 23.8751H6.61757C6.34189 23.8751 6.11758 23.6508 6.11758 23.3751V22.3751C6.11758 22.0994 6.34189 21.8751 6.61757 21.8751H7.61755C7.89324 21.8751 8.11755 22.0994 8.11755 22.3751V23.3751ZM15.0001 8.37539H11.5627C11.2865 8.37539 11.0627 8.15152 11.0627 7.8754C11.0627 7.59928 11.2865 7.37541 11.5627 7.37541H15.0001C15.2762 7.37541 15.5001 7.59928 15.5001 7.8754C15.5001 8.15152 15.2762 8.37539 15.0001 8.37539ZM13.5626 15.8752H11.5627C11.2865 15.8752 11.0627 15.6514 11.0627 15.3753C11.0627 15.0991 11.2865 14.8753 11.5627 14.8753H13.5626C13.8387 14.8753 14.0626 15.0991 14.0626 15.3753C14.0626 15.6514 13.8387 15.8752 13.5626 15.8752ZM12.8126 22.3751C13.0888 22.3751 13.3126 22.599 13.3126 22.8751C13.3126 23.1512 13.0888 23.3751 12.8126 23.3751H11.5627C11.2865 23.3751 11.0627 23.1512 11.0627 22.8751C11.0627 22.599 11.2865 22.3751 11.5627 22.3751H12.8126Z" fill="#FF0A2D"/>
</g>
<defs>
<clipPath id="clip0_158_3692">
<rect width="30" height="30" fill="white"/>
</clipPath>
</defs>
</svg>
