<svg width="70" height="70" viewBox="0 0 70 70" fill="none" xmlns="http://www.w3.org/2000/svg">
<path d="M41.5625 43.8266V34.0047C44.0562 34.4641 45.9375 36.4547 45.9375 38.8281C45.9375 39.4297 46.4297 39.9219 47.0312 39.9219C47.6328 39.9219 48.125 39.4297 48.125 38.8281C48.125 35.2516 45.2703 32.2984 41.5625 31.7953V29.5312C41.5625 28.9297 41.0703 28.4375 40.4688 28.4375C39.8672 28.4375 39.375 28.9297 39.375 29.5312V31.7953C35.6672 32.2984 32.8125 35.2516 32.8125 38.8281C32.8125 42.4047 35.6672 45.3578 39.375 45.8609V55.6828C36.8812 55.2234 35 53.2328 35 50.8594C35 50.2578 34.5078 49.7656 33.9062 49.7656C33.3047 49.7656 32.8125 50.2578 32.8125 50.8594C32.8125 54.4359 35.6672 57.3891 39.375 57.8922V60.1562C39.375 60.7578 39.8672 61.25 40.4688 61.25C41.0703 61.25 41.5625 60.7578 41.5625 60.1562V57.8922C45.2703 57.3891 48.125 54.4359 48.125 50.8594C48.125 47.2828 45.2703 44.3297 41.5625 43.8266ZM39.375 43.6516C36.8812 43.1922 35 41.2016 35 38.8281C35 36.4547 36.8812 34.4641 39.375 34.0047V43.6516ZM41.5625 55.6828V46.0359C44.0562 46.4953 45.9375 48.4859 45.9375 50.8594C45.9375 53.2328 44.0562 55.2234 41.5625 55.6828Z" fill="#FFA300"/>
<path d="M40.4688 68.9062C53.7581 68.9062 64.5312 58.1331 64.5312 44.8438C64.5312 31.5544 53.7581 20.7812 40.4688 20.7812C27.1794 20.7812 16.4062 31.5544 16.4062 44.8438C16.4062 58.1331 27.1794 68.9062 40.4688 68.9062Z" fill="#FBDE08"/>
<path d="M40.4688 25.1562C51.3406 25.1562 60.1562 33.9719 60.1562 44.8438C60.1562 55.7156 51.3406 64.5312 40.4688 64.5312C29.5969 64.5312 20.7812 55.7156 20.7812 44.8438C20.7812 33.9719 29.5969 25.1562 40.4688 25.1562Z" fill="#FFC008"/>
<path d="M53.1783 29.8157L31.3143 62.2782C27.9674 60.5172 25.2002 57.8266 23.3408 54.5454L43.0174 25.3313C46.8674 25.8235 50.3674 27.4313 53.1783 29.8157Z" fill="#FBDE08"/>
<path d="M57.553 35.0766L37.8437 64.3454H37.8327C36.2687 64.1485 34.7593 63.7547 33.3374 63.1969L54.7968 31.3469C55.8577 32.4735 56.7874 33.7204 57.553 35.0766Z" fill="#FBDE08"/>
<path d="M42.6562 43.8309V34.0058C45.1489 34.463 47.0312 36.4514 47.0312 38.8281C47.0312 39.433 47.5212 39.9219 48.125 39.9219C48.7288 39.9219 49.2188 39.433 49.2188 38.8281C49.2188 35.2538 46.3608 32.2952 42.6562 31.7997V29.5312C42.6562 28.9264 42.1663 28.4375 41.5625 28.4375C40.9588 28.4375 40.4688 28.9264 40.4688 29.5312V31.7997C36.7642 32.2952 33.9062 35.2538 33.9062 38.8281C33.9062 42.4025 36.7642 45.3611 40.4688 45.8566V55.6817C37.9761 55.2245 36.0938 53.2361 36.0938 50.8594C36.0938 50.2545 35.6037 49.7656 35 49.7656C34.3963 49.7656 33.9062 50.2545 33.9062 50.8594C33.9062 54.4338 36.7642 57.3923 40.4688 57.8878V60.1562C40.4688 60.7611 40.9588 61.25 41.5625 61.25C42.1663 61.25 42.6562 60.7611 42.6562 60.1562V57.8878C46.3608 57.3923 49.2188 54.4338 49.2188 50.8594C49.2188 47.285 46.3608 44.3264 42.6562 43.8309ZM36.0938 38.8281C36.0938 36.4514 37.9761 34.463 40.4688 34.0058V43.6505C37.9761 43.1933 36.0938 41.2048 36.0938 38.8281ZM42.6562 55.6817V46.037C45.1489 46.4942 47.0312 48.4827 47.0312 50.8594C47.0312 53.2361 45.1489 55.2245 42.6562 55.6817Z" fill="#FF8B00"/>
<path d="M40.4688 68.9062C39.8563 68.9062 39.2547 68.8844 38.6641 68.8297H38.6531H38.6422C37.0125 68.7094 35.4266 68.425 33.9062 67.9766C31.5547 67.3313 29.3453 66.3141 27.3438 65.0016C24.9047 63.4156 22.7719 61.4031 21.0547 59.0625H20.7812H2.1875C1.58594 59.0625 1.09375 59.5547 1.09375 60.1562V67.8125C1.09375 68.4141 1.58594 68.9062 2.1875 68.9062H7.65625C9.5375 68.9172 11.7797 68.9172 14.2188 68.9172H20.7812C22.9906 68.9281 25.2109 68.9281 27.3438 68.9281H33.9062C37.0016 68.9281 39.4516 68.9281 40.6875 68.9172C40.6 68.9172 40.5344 68.9062 40.4688 68.9062Z" fill="#FBDE08"/>
<path d="M40.4688 68.9062H37.1875V68.6765C38.2594 68.8296 39.3531 68.9062 40.4688 68.9062Z" fill="#FFC008"/>
<path d="M33.9062 67.9983V68.9061H30.625V66.7952C31.675 67.2874 32.7797 67.6811 33.9062 67.9983Z" fill="#FFC008"/>
<path d="M27.3438 65.0125V68.9063H24.0625V62.4531C25.0797 63.4047 26.1734 64.2578 27.3438 65.0125Z" fill="#FFC008"/>
<path d="M17.5 59.0625H20.7812V68.9062H17.5V59.0625Z" fill="#FFC008"/>
<path d="M10.9375 59.0625H14.2188V68.9062H10.9375V59.0625Z" fill="#FFC008"/>
<path d="M4.375 59.0625H7.65625V68.9062H4.375V59.0625Z" fill="#FFC008"/>
<path d="M18.5938 54.8516C17.7734 53.0797 17.1719 51.1875 16.8109 49.2188H6.5625C5.96094 49.2188 5.46875 49.7109 5.46875 50.3125V57.9688C5.46875 58.5703 5.96094 59.0625 6.5625 59.0625H20.7812H21.0547C20.0922 57.75 19.2609 56.35 18.5938 54.8516Z" fill="#FBDE08"/>
<path d="M18.5938 54.8734V59.0625H15.3125V49.2188H16.8109C17.1609 51.1984 17.7734 53.1016 18.5938 54.8734Z" fill="#FFC008"/>
<path d="M8.75 49.2188H12.0312V59.0625H8.75V49.2188Z" fill="#FFC008"/>
<path d="M17.0406 39.375H7.65625C7.05469 39.375 6.5625 39.8672 6.5625 40.4688V48.125C6.5625 48.7266 7.05469 49.2188 7.65625 49.2188H16.8109C16.5375 47.7969 16.4062 46.3422 16.4062 44.8438C16.4062 42.9625 16.625 41.125 17.0406 39.375Z" fill="#FBDE08"/>
<path d="M16.8109 49.2188H16.4062V44.8438C16.4062 46.3422 16.5375 47.7969 16.8109 49.2188Z" fill="#FFC008"/>
<path d="M17.0406 39.375C16.625 41.125 16.4062 42.9625 16.4062 44.8438V39.375H17.0406Z" fill="#FFC008"/>
<path d="M9.84375 39.375H13.125V49.2188H9.84375V39.375Z" fill="#FFC008"/>
<path d="M4.375 29.5312C3.77344 29.5312 3.28125 30.0234 3.28125 30.625V38.2812C3.28125 38.8828 3.77344 39.375 4.375 39.375H17.0406C17.8828 35.7 19.5781 32.3422 21.8969 29.5312H4.375Z" fill="#FBDE08"/>
<path d="M19.6875 32.7031V29.5312H21.8969L19.6875 32.7031Z" fill="#FFC008"/>
<path d="M13.125 29.5312H16.4062V39.375H13.125V29.5312Z" fill="#FFC008"/>
<path d="M6.5625 29.5312H9.84375V39.375H6.5625V29.5312Z" fill="#FFC008"/>
<path d="M42.6562 19.6875H5.46875C4.86719 19.6875 4.375 20.1797 4.375 20.7812V28.4375C4.375 29.0391 4.86719 29.5312 5.46875 29.5312H21.8969C22.5641 28.7219 23.2859 27.9563 24.0625 27.2562C25.9766 25.4625 28.1969 23.975 30.625 22.8813C32.6812 21.9625 34.8797 21.3172 37.1875 21.0109C38.2594 20.8578 39.3531 20.7812 40.4688 20.7812C40.9828 20.7375 42.5906 20.7594 43.75 20.7594C43.7391 20.1687 43.2469 19.6875 42.6562 19.6875Z" fill="#FBDE08"/>
<path d="M30.625 19.6875V22.8922C29.4766 23.3953 28.3828 23.9859 27.3438 24.675V19.6875H30.625Z" fill="#FFC008"/>
<path d="M22.9469 28.35C22.5859 28.7328 22.2359 29.1266 21.8969 29.5312H20.7812V19.6875H24.0625V27.2344C24.0406 27.2562 24.0297 27.2672 24.0078 27.2891L22.9469 28.35Z" fill="#FFC008"/>
<path d="M14.2188 19.6875H17.5V29.5312H14.2188V19.6875Z" fill="#FFC008"/>
<path d="M37.1875 21.0109V19.6875H33.9062V21.6891L37.1875 21.0109Z" fill="#FFC008"/>
<path d="M43.75 20.7594C43.7391 20.1687 43.2469 19.6875 42.6562 19.6875H40.4688V20.7812L43.75 20.7594Z" fill="#FFC008"/>
<path d="M7.65625 19.6875H10.9375V29.5312H7.65625V19.6875Z" fill="#FFC008"/>
<path d="M43.75 20.7594C42.5906 20.7594 40.9828 20.7375 40.4688 20.7812C39.3531 20.7812 38.2594 20.8578 37.1875 21.0109C36.0609 21.1531 34.9672 21.3828 33.9062 21.6891C32.7797 22.0062 31.675 22.4109 30.625 22.8922C30.5594 22.9141 30.5047 22.9359 30.4391 22.9688H4.375V20.7812C4.375 20.1797 4.94375 19.6875 5.64375 19.6875H42.6562C43.2469 19.6875 43.7391 20.1687 43.75 20.7594Z" fill="#FFA10B"/>
<path d="M21.8969 29.5312C21.0547 30.5594 20.2891 31.6531 19.6219 32.8125H3.28125V30.625C3.28125 30.0234 3.77344 29.5312 4.375 29.5312H21.8969Z" fill="#FFA10B"/>
<path d="M17.0406 39.375C16.7781 40.4359 16.6031 41.5406 16.5047 42.6562H6.5625V40.4688C6.5625 39.8672 7.05469 39.375 7.65625 39.375H17.0406Z" fill="#FFA10B"/>
<path d="M17.6531 52.5H5.46875V50.3125C5.46875 49.7109 5.96094 49.2188 6.5625 49.2188H16.8109C17.0078 50.3453 17.2922 51.4391 17.6531 52.5Z" fill="#FFA10B"/>
<path d="M23.9531 62.3438H1.09375V60.1562C1.09375 59.5547 1.58594 59.0625 2.1875 59.0625H21.0547C21.9188 60.2438 22.8922 61.3375 23.9531 62.3438Z" fill="#FFA10B"/>
<path d="M44.8437 20.7813C49.9953 20.7813 54.7641 22.4 58.6797 25.1563H54.2937C50.9469 22.7938 46.9656 21.2625 42.6562 20.8797C41.9344 20.8141 41.2125 20.7813 40.4688 20.7813C40.9828 20.7375 42.5906 20.7594 43.75 20.7594C44.2312 20.7703 44.625 20.7813 44.8437 20.7813Z" fill="#FFC008"/>
<path d="M60.6268 31.7188C58.9643 29.1484 56.8096 26.9172 54.2939 25.1562H58.6799C61.1846 26.9172 63.3393 29.1484 65.0127 31.7188H60.6268Z" fill="#FFC008"/>
<path d="M68.2718 39.375H63.9077C63.2624 36.6078 62.1358 34.0266 60.6265 31.7188H65.0124C66.5218 34.0266 67.6374 36.6078 68.2718 39.375Z" fill="#FFC008"/>
<path d="M68.9062 44.8438C68.9062 45.5875 68.8733 46.3094 68.8077 47.0312H64.4327C64.4983 46.3094 64.5312 45.5875 64.5312 44.8438C64.5312 42.9625 64.3124 41.1359 63.9077 39.375H68.2718C68.6874 41.125 68.9062 42.9625 68.9062 44.8438Z" fill="#FFC008"/>
<path d="M64.4329 47.0312H68.8079C68.5673 49.7438 67.8782 52.3141 66.7954 54.6875H62.4204C63.5032 52.3141 64.1923 49.7438 64.4329 47.0312Z" fill="#FFC008"/>
<path d="M61.3594 62.3438H56.9844C59.2703 60.1891 61.1297 57.5859 62.4203 54.6875H66.7953C65.5047 57.5859 63.6453 60.1891 61.3594 62.3438Z" fill="#FFC008"/>
<path d="M61.3593 62.3438C58.7343 64.8156 55.5624 66.7078 52.0405 67.8125H47.6655C51.1874 66.7188 54.3702 64.8266 56.9843 62.3438H61.3593Z" fill="#FFC008"/>
<path d="M40.4688 68.9063C42.9734 68.9063 45.3906 68.5234 47.6656 67.8125H52.0406C49.7656 68.5234 47.3484 68.9063 44.8438 68.9063C44.1656 68.9063 41.6938 68.9609 40.7094 68.9172C40.6984 68.9172 40.6984 68.9172 40.6875 68.9172C40.6 68.9172 40.5344 68.9063 40.4688 68.9063Z" fill="#FFC008"/>
<path d="M51.4063 23.4172C51.6579 23.5375 51.9095 23.6688 52.1501 23.8109C52.3579 23.9203 52.5548 24.0406 52.7517 24.1609C53.2767 24.4672 53.7907 24.8062 54.2938 25.1562H58.6798C57.4876 24.3141 56.2188 23.5813 54.8735 22.9688H50.4985L51.4063 23.4172Z" fill="#FCEC9F"/>
<path d="M55.639 26.1733L53.178 29.8155C50.3671 27.4311 46.8671 25.8233 43.0171 25.3311L45.6968 21.3499C48.8468 22.0499 51.7561 23.3624 54.2936 25.1561C54.753 25.4842 55.2015 25.8233 55.639 26.1733Z" fill="#FCEC9F"/>
<path d="M31.3141 62.278L28.8641 65.9202C28.3391 65.6358 27.8359 65.3295 27.3438 65.0014C24.9047 63.4155 22.7719 61.403 21.0547 59.0624C20.9234 58.8764 20.7922 58.7014 20.6719 58.5155L23.3406 54.5452C25.2 57.8264 27.9672 60.517 31.3141 62.278Z" fill="#FCEC9F"/>
<path d="M60.2219 31.1171L57.5531 35.0764C56.7875 33.7202 55.8578 32.4733 54.7969 31.3468L57.2797 27.6499C58.3734 28.6999 59.3578 29.8593 60.2219 31.1171Z" fill="#FCEC9F"/>
<path d="M37.8328 64.3452L35.175 68.3046C34.7484 68.2062 34.3219 68.0968 33.9062 67.9765C32.8562 67.6921 31.8281 67.3202 30.8438 66.8937L33.3375 63.1968C34.7594 63.7546 36.2688 64.1483 37.8328 64.3452Z" fill="#FCEC9F"/>
<path d="M65.0127 31.7188H60.6268C59.8721 30.5484 59.0189 29.4547 58.0674 28.4375H62.4424C63.3939 29.4547 64.2471 30.5484 65.0127 31.7188Z" fill="#FCEC9F"/>
<path d="M68.2719 39.375H63.9078C63.6453 38.2484 63.3063 37.1547 62.8906 36.0938H67.2656C67.6703 37.1547 68.0094 38.2484 68.2719 39.375Z" fill="#FCEC9F"/>
<path d="M68.9061 44.8438C68.9061 45.5875 68.8732 46.3094 68.8076 47.0312H64.4326C64.4982 46.3094 64.5311 45.5875 64.5311 44.8438C64.5311 44.4719 64.5201 44.1109 64.4982 43.75H68.8732C68.8951 44.1109 68.9061 44.4719 68.9061 44.8438Z" fill="#FCEC9F"/>
<path d="M67.9985 51.4062C67.6813 52.5328 67.2767 53.6266 66.7954 54.6875H62.4204C62.9017 53.6266 63.3063 52.5328 63.6235 51.4062H67.9985Z" fill="#FCEC9F"/>
<path d="M64.2578 59.0625C63.3938 60.2438 62.4203 61.3375 61.3594 62.3438H56.9844C58.0453 61.3375 59.0188 60.2438 59.8828 59.0625H64.2578Z" fill="#FCEC9F"/>
<path d="M56.9843 65.625C55.4312 66.5328 53.7796 67.2656 52.0405 67.8125H47.6655C49.4155 67.2656 51.0671 66.5328 52.6202 65.625H56.9843Z" fill="#FCEC9F"/>
<path d="M24.1075 53.6858C23.8187 53.1553 23.1548 52.9595 22.6255 53.2461C22.0939 53.5349 21.897 54.1977 22.1858 54.7281C22.3662 55.0606 22.5544 55.3877 22.7523 55.7081C22.958 56.045 23.3178 56.2299 23.6853 56.2299C23.88 56.2299 24.078 56.1774 24.2562 56.0691C24.7714 55.753 24.9322 55.0792 24.6161 54.5641C24.4378 54.2764 24.2694 53.9833 24.1075 53.6858Z" fill="#FFA10B"/>
<path d="M31.9693 61.3868C31.6686 61.2303 31.3711 61.0685 31.0801 60.8967C30.5595 60.5905 29.889 60.7633 29.5828 61.285C29.2765 61.8057 29.4504 62.4761 29.9711 62.7824C30.297 62.9738 30.6295 63.1575 30.9675 63.3304C31.1272 63.4135 31.2989 63.4518 31.4673 63.4518C31.8643 63.4518 32.2461 63.2363 32.4407 62.8589C32.7186 62.3219 32.5064 61.6635 31.9693 61.3868Z" fill="#FFA10B"/>
<path d="M22.5792 49.932C22.4874 49.6083 22.4031 49.2812 22.3299 48.9509C22.1986 48.3614 21.6145 47.9906 21.0239 48.1219C20.4344 48.2531 20.0636 48.8372 20.1949 49.4267C20.278 49.7986 20.372 50.1661 20.4749 50.5303C20.6116 51.0105 21.0502 51.3255 21.526 51.3255C21.6244 51.3255 21.7261 51.3123 21.8256 51.2839C22.4075 51.1176 22.7444 50.5139 22.5792 49.932Z" fill="#FFA10B"/>
<path d="M27.1 57.7664C26.68 57.3333 25.9876 57.3191 25.5534 57.7391C25.1192 58.1591 25.1061 58.8514 25.5261 59.2856C25.7897 59.5591 26.0598 59.8237 26.3376 60.0819C26.5476 60.2777 26.8145 60.3739 27.0814 60.3739C27.3756 60.3739 27.6687 60.2569 27.8831 60.0239C28.2933 59.5809 28.2681 58.8886 27.824 58.4784C27.5769 58.2477 27.3351 58.0103 27.1 57.7664Z" fill="#FFA10B"/>
<path d="M27.1261 28.9112C26.8363 29.1551 26.553 29.4045 26.2774 29.6637C25.8355 30.0761 25.8125 30.7684 26.2249 31.2092C26.4404 31.44 26.7313 31.5559 27.0233 31.5559C27.2913 31.5559 27.5593 31.4586 27.7704 31.2606C28.0186 31.0298 28.2713 30.8056 28.5316 30.5879C28.9943 30.1997 29.0555 29.5095 28.6672 29.0468C28.2789 28.5831 27.5899 28.524 27.1261 28.9112Z" fill="#FFA10B"/>
<path d="M58.8853 42.2703C58.9312 42.605 58.9684 42.9407 58.9968 43.2809C59.0438 43.8518 59.5229 44.2839 60.0862 44.2839C60.1168 44.2839 60.1474 44.2828 60.1781 44.2795C60.7796 44.2292 61.227 43.702 61.1778 43.0993C61.146 42.7209 61.1045 42.3468 61.0531 41.9739C60.971 41.3745 60.4187 40.949 59.8204 41.0398C59.2221 41.1218 58.8032 41.6731 58.8853 42.2703Z" fill="#FFA10B"/>
<path d="M57.5147 37.4053C57.6503 37.7126 57.7761 38.0255 57.8943 38.3426C58.0583 38.7823 58.4761 39.0536 58.9191 39.0536C59.046 39.0536 59.175 39.0306 59.3019 38.9847C59.8685 38.7747 60.155 38.1436 59.9439 37.5781C59.8105 37.2226 59.6694 36.8726 59.5185 36.527C59.2768 35.9747 58.6325 35.7198 58.078 35.9637C57.5246 36.2076 57.273 36.8519 57.5147 37.4053Z" fill="#FFA10B"/>
<path d="M31.9067 25.9022C31.5644 26.0597 31.2253 26.2238 30.8928 26.3955C30.3569 26.6744 30.148 27.334 30.4269 27.871C30.6216 28.2462 31.0033 28.4605 31.3981 28.4605C31.5677 28.4605 31.7405 28.4212 31.9012 28.338C32.202 28.1805 32.5083 28.034 32.8178 27.8918C33.3669 27.6402 33.6086 26.9916 33.357 26.4415C33.1055 25.8913 32.4547 25.6529 31.9067 25.9022Z" fill="#FFA10B"/>
<path d="M21.875 44.844C21.875 44.5027 21.8838 44.1658 21.9024 43.8279C21.9352 43.2241 21.4725 42.7101 20.8688 42.6762C20.2738 42.6565 19.7509 43.1082 19.7181 43.7098C19.6973 44.0871 19.6875 44.4644 19.6875 44.844V44.9249C19.6875 45.5298 20.1775 45.9782 20.7813 45.9782C21.385 45.9782 21.875 45.4488 21.875 44.844Z" fill="#FFA10B"/>
<path d="M55.4936 33.8899C55.708 34.1852 56.0405 34.3405 56.3795 34.3405C56.6027 34.3405 56.8269 34.2727 57.0205 34.1327C57.5094 33.7773 57.6177 33.0937 57.2633 32.6048C57.0402 32.2985 56.8083 31.9988 56.5699 31.7057C56.1881 31.2376 55.5002 31.1676 55.0309 31.5482C54.5628 31.931 54.4928 32.619 54.8745 33.0871C55.0889 33.3485 55.2945 33.6154 55.4936 33.8899Z" fill="#FFA10B"/>
<path d="M21.2111 40.588C21.3095 40.6154 21.4091 40.6285 21.5064 40.6285C21.9855 40.6285 22.4241 40.3124 22.5586 39.829C22.6494 39.502 22.75 39.1782 22.8583 38.8588C23.0519 38.2868 22.7456 37.6655 22.1736 37.4709C21.6027 37.2784 20.9803 37.5846 20.7856 38.1555C20.6653 38.5132 20.5538 38.8752 20.451 39.2405C20.2891 39.8224 20.6292 40.4262 21.2111 40.588Z" fill="#FFA10B"/>
<path d="M24.8422 32.8125C24.3435 32.4713 23.6621 32.5992 23.3219 33.098C23.1086 33.4097 22.903 33.7269 22.7061 34.0495C22.3922 34.5658 22.5552 35.2384 23.0703 35.5523C23.2486 35.6617 23.4444 35.712 23.6391 35.712C24.0077 35.712 24.3686 35.525 24.5742 35.1881C24.7514 34.8972 24.9352 34.6128 25.1266 34.3328C25.4689 33.8341 25.341 33.1538 24.8422 32.8125Z" fill="#FFA10B"/>
<path d="M51.2314 60.0076C50.9558 60.2044 50.6747 60.3926 50.3892 60.573C49.8784 60.8957 49.7253 61.5716 50.0479 62.0824C50.2558 62.4116 50.6112 62.5921 50.9743 62.5921C51.1745 62.5921 51.3758 62.5374 51.5573 62.4236C51.8767 62.2213 52.1917 62.0113 52.499 61.7925C52.9912 61.4425 53.1072 60.7601 52.7572 60.2668C52.4072 59.7735 51.7258 59.6565 51.2314 60.0076Z" fill="#FFA10B"/>
<path d="M54.9227 56.5414C54.7094 56.805 54.4885 57.0642 54.261 57.3147C53.8563 57.7631 53.8924 58.4554 54.3408 58.8601C54.5497 59.0482 54.8122 59.1412 55.0725 59.1412C55.3711 59.1412 55.6697 59.0198 55.8852 58.7803C56.1378 58.4992 56.3839 58.2126 56.6213 57.9195C57.0019 57.4492 56.9297 56.7601 56.4605 56.3806C55.9913 56.0022 55.3033 56.0743 54.9227 56.5414Z" fill="#FFA10B"/>
<path d="M52.4322 27.8503C51.9378 27.5003 51.2553 27.6195 50.9075 28.1117C50.5586 28.605 50.6756 29.2875 51.1689 29.6364C51.4456 29.8332 51.7168 30.0356 51.9837 30.2456C52.185 30.4053 52.4234 30.4818 52.6618 30.4818C52.9845 30.4818 53.3039 30.3397 53.5204 30.0662C53.8956 29.5926 53.8157 28.9047 53.3411 28.5306C53.0447 28.2943 52.7417 28.0679 52.4322 27.8503Z" fill="#FFA10B"/>
<path d="M58.9839 51.6414C58.4305 51.4019 57.7852 51.6578 57.5468 52.2112C57.4111 52.5229 57.2689 52.8314 57.118 53.1354C56.8489 53.6758 57.0699 54.3331 57.6113 54.6011C57.7677 54.6787 57.9329 54.7148 58.0969 54.7148C58.4994 54.7148 58.8866 54.4928 59.0769 54.1078C59.2443 53.7687 59.405 53.4264 59.5549 53.0786C59.7944 52.524 59.5396 51.8809 58.9839 51.6414Z" fill="#FFA10B"/>
<path d="M60.1258 46.397C59.5417 46.3193 58.9773 46.7382 58.8975 47.3365C58.8526 47.6723 58.799 48.0048 58.7356 48.3362C58.6219 48.9301 59.0101 49.5021 59.604 49.617C59.6729 49.6301 59.7429 49.6366 59.8108 49.6366C60.3248 49.6366 60.7842 49.2724 60.8837 48.7485C60.9548 48.3766 61.0161 48.0026 61.0664 47.6252C61.1451 47.027 60.7251 46.4768 60.1258 46.397Z" fill="#FFA10B"/>
<path d="M37.3351 24.2966C36.96 24.3545 36.5881 24.4202 36.2206 24.4967C35.6289 24.6203 35.2494 25.2 35.373 25.7906C35.4801 26.308 35.9351 26.6623 36.4426 26.6623C36.5159 26.6623 36.5914 26.6547 36.6669 26.6394C36.9972 26.5705 37.3308 26.5103 37.6676 26.4589C38.2648 26.3681 38.675 25.8092 38.5831 25.212C38.4901 24.6138 37.9279 24.2058 37.3351 24.2966Z" fill="#FFA10B"/>
<path d="M48.4651 25.6573C48.1162 25.5119 47.7619 25.3751 47.4031 25.2483C46.8344 25.0503 46.2087 25.3478 46.0086 25.9155C45.8073 26.4853 46.1059 27.1109 46.6758 27.3111C46.9951 27.4237 47.3112 27.5451 47.623 27.6753C47.7608 27.7333 47.9029 27.7595 48.0429 27.7595C48.4717 27.7595 48.8786 27.5069 49.0525 27.0869C49.2865 26.5301 49.0219 25.8892 48.4651 25.6573Z" fill="#FFA10B"/>
<path d="M36.7422 63.0636C36.4097 62.9958 36.0794 62.9192 35.7535 62.835C35.1683 62.6786 34.5712 63.0341 34.4202 63.6181C34.2682 64.2033 34.6193 64.8005 35.2033 64.9525C35.5676 65.0477 35.9351 65.133 36.308 65.2084C36.3813 65.2227 36.4546 65.2303 36.5268 65.2303C37.0365 65.2303 37.4926 64.8727 37.5976 64.3542C37.7168 63.7625 37.334 63.185 36.7422 63.0636Z" fill="#FFA10B"/>
<path d="M41.7966 63.3895C41.4608 63.4125 41.1218 63.4278 40.7816 63.4333C40.1778 63.442 39.6944 63.9397 39.7042 64.5434C39.713 65.1417 40.2008 65.6208 40.798 65.6208H40.8144C41.1961 65.6153 41.5724 65.5978 41.9486 65.5726C42.5513 65.5311 43.0063 65.0083 42.9647 64.4056C42.9221 63.803 42.4025 63.3666 41.7966 63.3895Z" fill="#FFA10B"/>
<path d="M42.9944 24.2157C42.6193 24.1687 42.2419 24.1337 41.8613 24.1085C41.251 24.0856 40.738 24.5263 40.6987 25.129C40.6593 25.7327 41.1165 26.2523 41.7191 26.2917C42.0582 26.3146 42.394 26.3452 42.7265 26.3857C42.7724 26.3923 42.8173 26.3945 42.8621 26.3945C43.4057 26.3945 43.8771 25.9887 43.946 25.4352C44.0193 24.8348 43.5938 24.289 42.9944 24.2157Z" fill="#FFA10B"/>
<path d="M46.747 62.3515C46.4299 62.4652 46.1083 62.5713 45.7835 62.6687C45.2049 62.8404 44.8746 63.4507 45.0474 64.0293C45.1885 64.504 45.6238 64.8102 46.0952 64.8102C46.1991 64.8102 46.3041 64.7949 46.408 64.7643C46.7711 64.656 47.131 64.5379 47.4864 64.411C48.0552 64.2065 48.3505 63.5808 48.147 63.0121C47.9414 62.4422 47.3136 62.1469 46.747 62.3515Z" fill="#FFA10B"/>
<path d="M45.9375 38.8281C45.9375 39.433 46.4275 39.9219 47.0312 39.9219C47.635 39.9219 48.125 39.433 48.125 38.8281C48.125 35.2538 45.267 32.2952 41.5625 31.7997V29.5312C41.5625 28.9264 41.0725 28.4375 40.4688 28.4375C39.865 28.4375 39.375 28.9264 39.375 29.5312V31.7997C35.6705 32.2952 32.8125 35.2538 32.8125 38.8281C32.8125 42.4025 35.6705 45.3611 39.375 45.8566V55.6817C36.8823 55.2245 35 53.2361 35 50.8594C35 50.2545 34.51 49.7656 33.9062 49.7656C33.3025 49.7656 32.8125 50.2545 32.8125 50.8594C32.8125 54.4338 35.6705 57.3923 39.375 57.8878V60.1562C39.375 60.7611 39.865 61.25 40.4688 61.25C41.0725 61.25 41.5625 60.7611 41.5625 60.1562V57.8878C45.267 57.3923 48.125 54.4338 48.125 50.8594C48.125 47.285 45.267 44.3264 41.5625 43.8309V34.0058C44.0552 34.463 45.9375 36.4514 45.9375 38.8281ZM35 38.8281C35 36.4514 36.8823 34.463 39.375 34.0058V43.6505C36.8823 43.1933 35 41.2048 35 38.8281ZM45.9375 50.8594C45.9375 53.2361 44.0552 55.2245 41.5625 55.6817V46.037C44.0552 46.4942 45.9375 48.4827 45.9375 50.8594Z" fill="#FFA300"/>
<path d="M47.0312 10.9375V18.5938C47.0312 19.1953 46.5391 19.6875 45.9375 19.6875H40.4688V9.84375H45.9375C46.5391 9.84375 47.0312 10.3359 47.0312 10.9375Z" fill="#FBDE08"/>
<path d="M40.4688 18.7031V19.6875H37.1875H33.9062V9.84375H40.4688V18.7031Z" fill="#FBDE08"/>
<path d="M33.9062 9.84375V19.6875H30.625H27.3438V9.84375H33.9062Z" fill="#FBDE08"/>
<path d="M27.3438 9.84375V19.6875H24.0625H20.7812V9.84375H27.3438Z" fill="#FBDE08"/>
<path d="M14.2188 9.84375H20.7812V19.6875H14.2188V9.84375Z" fill="#FBDE08"/>
<path d="M7.65625 9.84375H14.2188V19.6875H7.65625V9.84375Z" fill="#FBDE08"/>
<path d="M7.65625 9.84375V19.6875H5.46875H2.1875C1.58594 19.6875 1.09375 19.1953 1.09375 18.5938V10.9375C1.09375 10.3359 1.58594 9.84375 2.1875 9.84375H7.65625Z" fill="#FBDE08"/>
<path d="M37.1875 9.84375H40.4688V19.6875H37.1875V9.84375Z" fill="#FFC008"/>
<path d="M47.0312 10.9375V18.5938C47.0312 19.1953 46.5391 19.6875 45.9375 19.6875H43.75V9.84375H45.9375C46.5391 9.84375 47.0312 10.3359 47.0312 10.9375Z" fill="#FFC008"/>
<path d="M30.625 9.84375H33.9062V19.6875H30.625V9.84375Z" fill="#FFC008"/>
<path d="M24.0625 9.84375H27.3438V19.6875H24.0625V9.84375Z" fill="#FFC008"/>
<path d="M17.5 9.84375H20.7812V19.6875H17.5V9.84375Z" fill="#FFC008"/>
<path d="M10.9375 9.84375H14.2188V19.6875H10.9375V9.84375Z" fill="#FFC008"/>
<path d="M4.375 9.84375H7.65625V19.6875H4.375V9.84375Z" fill="#FFC008"/>
</svg>
