<svg width="70" height="70" viewBox="0 0 70 70" fill="none" xmlns="http://www.w3.org/2000/svg">
<path d="M45.165 20.5078H32.7117L32.2276 19.1422C30.2724 13.627 25.0385 12.6558 24.6094 12.4054V0.000244141L27.0681 0.499404C35.9607 2.30437 42.8683 9.19308 44.666 18.049L45.165 20.5078Z" fill="#6AA9FF"/>
<path d="M12.3047 22.5593C12.3047 14.4549 20.4582 12.4414 20.5078 12.4062V0.000976562L18.0491 0.500137C7.60047 2.62092 0 11.8051 0 22.5593C0 28.7788 2.52998 34.4184 6.61473 38.5032L14.2871 36.6413L15.3114 29.8065C13.4546 27.9498 12.3047 25.3864 12.3047 22.5593Z" fill="#FF641A"/>
<path d="M45.1648 24.6094L44.6658 27.0676C42.5672 37.4035 33.4234 45.1172 22.5584 45.1172C16.3391 45.1172 10.6994 42.5879 6.61426 38.5027L15.3109 29.8061C17.1676 31.6627 19.7311 32.8125 22.5584 32.8125C30.8559 32.8125 32.5457 24.8432 32.7111 24.6094H45.1648Z" fill="#FFE470"/>
<path d="M45.165 24.6094L44.666 27.0676C42.5674 37.4035 33.4236 45.1172 22.5586 45.1172V32.8125C30.8561 32.8125 32.5459 24.8432 32.7113 24.6094H45.165Z" fill="#FFB64C"/>
<path d="M53.457 33.0859H65.7617V67.9492H53.457V33.0859Z" fill="#FFB64C"/>
<path d="M37.0508 53.5938H49.3555V67.9492H37.0508V53.5938Z" fill="#6AA9FF"/>
<path d="M20.6445 49.4922H32.9492V67.9492H20.6445V49.4922Z" fill="#FFE470"/>
<path d="M4.23828 57.6953H16.543V67.9492H4.23828V57.6953Z" fill="#FF641A"/>
<path d="M0 65.8984H70V70H0V65.8984Z" fill="#61729B"/>
<path d="M35 65.8984H70V70H35V65.8984Z" fill="#47568C"/>
</svg>
