<svg width="70" height="70" viewBox="0 0 70 70" fill="none" xmlns="http://www.w3.org/2000/svg">
<g clip-path="url(#clip0_158_3749)">
<path d="M46.6889 46.6883L53.3308 36.6238L46.6889 34.9124C45.8188 32.3022 44.3394 29.8366 42.2512 27.7484C40.1918 25.689 37.7556 24.1807 35.0871 23.3106L35 23.3977L26.9079 23.0786L23.3112 23.3106C20.6429 24.1807 18.2066 25.689 16.1472 27.7484L5.39479 38.5008C-1.79826 45.6938 -1.79826 57.3843 5.39479 64.5774C12.7909 71.9735 24.4798 71.5965 31.4988 64.5774L42.2512 53.8524C44.3397 51.7638 45.819 49.2987 46.6889 46.6883ZM24.2478 57.3261C20.9992 60.5747 15.8076 60.4877 12.6459 57.3261C9.45547 54.1356 9.45547 48.9148 12.6459 45.7243L23.3112 35.0863L29.1412 40.8582L35.0001 46.6011L24.2478 57.3261Z" fill="#4A696F"/>
<path d="M42.2514 53.8523L31.499 64.5773C24.4799 71.5965 12.7911 71.9734 5.39502 64.5773L12.646 57.3262C15.8077 60.4878 20.9993 60.5747 24.2479 57.3262L35.0002 46.6013L29.1414 40.8583L42.2514 27.7483C44.3396 29.8365 45.8191 32.302 46.6892 34.9124L53.3311 36.6237L46.6892 46.6882C45.8191 49.2987 44.3398 51.7639 42.2514 53.8523Z" fill="#384949"/>
<path d="M56.7531 59.6533L53.8527 56.7528C53.0511 55.9513 53.0511 54.6539 53.8527 53.8524C54.6542 53.0509 55.9516 53.0508 56.7531 53.8524L59.6536 56.7528C60.4552 57.5544 60.4552 58.8518 59.6536 59.6533C58.8519 60.4549 57.5547 60.4549 56.7531 59.6533Z" fill="#D2C5C2"/>
<path d="M13.2464 16.1466L10.3458 13.2461C9.54423 12.4445 9.54423 11.1472 10.3458 10.3458C11.1474 9.54432 12.4447 9.54418 13.2462 10.3458L16.1465 13.2461C16.9481 14.0477 16.9481 15.345 16.1465 16.1465C15.3449 16.9479 14.0479 16.948 13.2464 16.1466Z" fill="#DFD7D5"/>
<path d="M60.7527 41.8994C61.0458 40.8046 62.1703 40.156 63.265 40.4491L67.2276 41.5113C68.3225 41.7988 68.9682 42.9289 68.678 44.0236C68.3848 45.1184 67.2603 45.767 66.1656 45.4739L62.203 44.4117C61.1154 44.1207 60.4593 43.0007 60.7527 41.8994Z" fill="#D2C5C2"/>
<path d="M1.32204 25.9751C1.61516 24.8802 2.73967 24.2316 3.83438 24.5248L7.79704 25.5871C8.88764 25.8731 9.53897 27.0033 9.24735 28.0994C8.95423 29.1943 7.82971 29.8429 6.73501 29.5497L2.77235 28.4874C1.68475 28.1964 1.0285 27.0764 1.32204 25.9751Z" fill="#DFD7D5"/>
<path d="M41.5116 67.2274L40.4493 63.2647C40.1562 62.1698 40.8048 61.0455 41.8996 60.7523C42.9945 60.4592 44.1175 61.1036 44.412 62.2027L45.4742 66.1653C45.7673 67.2602 45.1187 68.3845 44.0238 68.6777C42.9228 68.9711 41.8027 68.315 41.5116 67.2274Z" fill="#D2C5C2"/>
<path d="M25.5878 7.79643L24.5255 3.83378C24.2324 2.73893 24.881 1.61456 25.9758 1.32143C27.0707 1.03118 28.1964 1.67266 28.4882 2.77174L29.5505 6.7344C29.8436 7.82925 29.195 8.95362 28.1002 9.24675C26.999 9.53987 25.879 8.88376 25.5878 7.79643Z" fill="#DFD7D5"/>
<path d="M64.6053 5.42158C57.4122 -1.77147 45.7233 -1.80059 38.5013 5.42158L27.7489 16.1466C25.6607 18.2349 24.1814 20.7002 23.3111 23.3107C22.0349 27.1394 22.035 31.2579 23.3113 35.0865C24.1814 37.6968 25.6607 40.1625 27.7489 42.2507C29.7793 44.2812 32.2156 45.7892 34.9131 46.6884L35 46.6014C38.1906 43.4108 38.1905 38.1901 35 34.9996C31.8096 31.8091 31.8096 26.5882 35 23.3978L45.7524 12.6727C47.3188 11.1063 49.3491 10.2944 51.5535 10.2944C51.6114 10.2365 52.1044 10.2654 52.2206 10.3234C53.7868 10.3232 55.846 11.1643 57.3542 12.6727C60.5447 15.8632 60.5448 21.0839 57.3542 24.2745L46.6891 34.9124C47.9654 38.741 47.9654 42.8597 46.6891 46.6884C49.3283 45.7893 51.8229 44.281 53.8531 42.2506L64.6055 31.5256C71.7986 24.3324 71.7983 12.6146 64.6053 5.42158Z" fill="#FFD400"/>
<path d="M35.0002 46.6011L34.9132 46.688C32.2159 45.789 29.7793 44.2808 27.749 42.2504L35.0002 34.9993C38.1907 38.1899 38.1908 43.4106 35.0002 46.6011Z" fill="#FF9F00"/>
<path d="M64.6054 31.5256L53.853 42.2507C51.8228 44.2811 49.3283 45.7894 46.689 46.6884C47.9652 42.8597 47.9652 38.7411 46.689 34.9124L57.3541 24.2746C60.5447 21.084 60.5446 15.8633 57.3541 12.6728L64.6053 5.42163C71.7985 12.6145 71.7987 24.3323 64.6054 31.5256Z" fill="#FF9F00"/>
</g>
<defs>
<clipPath id="clip0_158_3749">
<rect width="70" height="70" fill="white"/>
</clipPath>
</defs>
</svg>
