<svg width="30" height="30" viewBox="0 0 30 30" fill="none" xmlns="http://www.w3.org/2000/svg">
<g clip-path="url(#clip0_151_475)">
<path d="M28.9437 17.3671C29.8387 9.83339 28.5137 5.07714 26.1237 2.92589L26.125 2.92464C22.2675 -0.749115 9.23999 -1.29287 4.62499 3.08964C2.55249 5.23339 1.82249 8.37964 1.74249 12.2746C1.66249 16.1709 1.56749 23.4696 8.36874 25.4496H8.37499L8.36874 28.4734C8.36874 28.4734 8.32249 29.6984 9.10499 29.9446C9.99999 30.2346 10.405 29.6659 13.1887 26.3409C17.8437 26.7446 21.4187 25.8196 21.825 25.6846C22.765 25.3696 28.0837 24.6659 28.9437 17.3671ZM13.6475 24.2134C13.6475 24.2134 10.7012 27.8871 9.78499 28.8409C9.48499 29.1509 9.15624 29.1221 9.16124 28.5071C9.16124 28.1034 9.18374 23.4871 9.18374 23.4871C3.41749 21.8346 3.75749 15.6196 3.81999 12.3684C3.88249 9.11589 4.47749 6.45214 6.23249 4.65839C10.2812 0.862136 21.7025 1.71089 24.6125 4.44589C28.17 7.59964 26.9037 16.5096 26.9112 16.8134C26.18 22.9059 21.87 23.2921 21.0775 23.5559C20.7387 23.6684 17.595 24.4771 13.6475 24.2134Z" fill="#8E24AA"/>
<path d="M15.2775 5.37305C14.7963 5.37305 14.7963 6.12305 15.2775 6.1293C19.0113 6.15805 22.0863 8.76055 22.12 13.5343C22.12 14.038 22.8575 14.0318 22.8513 13.528H22.85C22.81 8.3843 19.4525 5.4018 15.2775 5.37305Z" fill="#8E24AA"/>
<path d="M20.1888 12.7423C20.1775 13.2398 20.9138 13.2635 20.92 12.7598C20.9813 9.92352 19.2325 7.58727 15.9463 7.34102C15.465 7.30602 15.415 8.06227 15.895 8.09727C18.745 8.31352 20.2463 10.2585 20.1888 12.7423Z" fill="#8E24AA"/>
<path d="M19.4012 15.9681C18.7837 15.6106 18.155 15.8331 17.895 16.1844L17.3512 16.8881C17.075 17.2456 16.5587 17.1981 16.5587 17.1981C12.7912 16.2019 11.7837 12.2594 11.7837 12.2594C11.7837 12.2594 11.7375 11.7256 12.0825 11.4394L12.7625 10.8769C13.1025 10.6069 13.3175 9.95687 12.9712 9.31812C12.0462 7.64687 11.425 7.07062 11.1087 6.62812C10.7762 6.21187 10.2762 6.11812 9.75624 6.39937H9.74499C8.66374 7.03187 7.47999 8.21562 7.85874 9.43437C8.50499 10.7194 9.69249 14.8156 13.4775 17.9106C15.2562 19.3744 18.0712 20.8744 19.2662 21.2206L19.2775 21.2381C20.455 21.6306 21.6 20.4006 22.2112 19.2869V19.2781C22.4825 18.7394 22.3925 18.2294 21.9962 17.8956C21.2937 17.2106 20.2337 16.4544 19.4012 15.9681Z" fill="#8E24AA"/>
<path d="M16.4612 10.1301C17.6625 10.2001 18.245 10.8276 18.3075 12.1163C18.33 12.6201 19.0612 12.5851 19.0387 12.0813C18.9587 10.3988 18.0812 9.46135 16.5012 9.37385C16.02 9.3451 15.975 10.1013 16.4612 10.1301Z" fill="#8E24AA"/>
</g>
<defs>
<clipPath id="clip0_151_475">
<rect width="30" height="30" fill="white"/>
</clipPath>
</defs>
</svg>
