<svg width="30" height="30" viewBox="0 0 30 30" fill="none" xmlns="http://www.w3.org/2000/svg">
<path d="M27.5 3.75H2.50002C1.12119 3.75 0 4.87119 0 6.25002V23.75C0 25.1288 1.12119 26.25 2.50002 26.25H27.5C28.8788 26.25 30 25.1288 30 23.75V6.25002C30 4.87119 28.8788 3.75 27.5 3.75ZM2.50002 4.99998H27.5C27.5921 4.99998 27.6733 5.03355 27.7597 5.05254C25.5953 7.03342 18.4185 13.599 15.907 15.8618C15.7105 16.0388 15.3938 16.25 15.0001 16.25C14.6064 16.25 14.2896 16.0388 14.0924 15.8612C11.5812 13.5987 4.40396 7.03283 2.23992 5.05266C2.32652 5.03367 2.40785 4.99998 2.50002 4.99998ZM1.24998 23.75V6.25002C1.24998 6.12756 1.28689 6.01646 1.31994 5.90455C2.9765 7.42072 7.98416 12.0018 11.2312 14.9545C7.99471 17.7346 2.98576 22.4835 1.31602 24.0758C1.28654 23.9695 1.24998 23.8655 1.24998 23.75ZM27.5 25H2.50002C2.40018 25 2.31141 24.9652 2.21818 24.9429C3.94359 23.2981 8.98441 18.5219 12.164 15.8018C12.5785 16.1778 12.9571 16.5206 13.2556 16.7896C13.7708 17.2547 14.3737 17.5 15 17.5C15.6263 17.5 16.2292 17.2546 16.7438 16.7902C17.0423 16.5211 17.4213 16.178 17.836 15.8018C21.0158 18.5216 26.0559 23.2975 27.7818 24.9429C27.6886 24.9652 27.5999 25 27.5 25ZM28.75 23.75C28.75 23.8655 28.7135 23.9695 28.684 24.0758C27.0137 22.4827 22.0053 17.7343 18.7689 14.9546C22.016 12.0019 27.0229 7.42119 28.6801 5.90443C28.7131 6.01635 28.75 6.1275 28.75 6.24996V23.75Z" fill="#FF0A2D"/>
</svg>
