<svg width="70" height="70" viewBox="0 0 70 70" fill="none" xmlns="http://www.w3.org/2000/svg">
<g clip-path="url(#clip0_158_1132)">
<path d="M34.431 65.792C34.288 65.7846 34.148 65.7489 34.0189 65.687C33.8899 65.625 33.7744 65.5381 33.6792 65.4313C33.5839 65.3245 33.5108 65.1998 33.4641 65.0645C33.4173 64.9292 33.3979 64.786 33.4068 64.6432C33.4158 64.5003 33.453 64.3606 33.5163 64.2323C33.5796 64.1039 33.6677 63.9893 33.7756 63.8952C33.8834 63.8011 34.0089 63.7294 34.1446 63.6841C34.2804 63.6388 34.4238 63.6208 34.5666 63.6313C35.7227 63.7039 36.8823 63.705 38.0386 63.6347C38.3232 63.6205 38.6019 63.7191 38.8142 63.9091C39.0266 64.0991 39.1555 64.3652 39.1729 64.6496C39.1903 64.934 39.0949 65.2139 38.9074 65.4284C38.7198 65.6429 38.4553 65.7748 38.1711 65.7956C36.9255 65.8717 35.6764 65.8706 34.431 65.792ZM30.0372 65.169C29.8262 65.169 28.0799 64.7809 26.207 64.1166C25.9401 64.0179 25.7228 63.818 25.6021 63.5602C25.4815 63.3025 25.4672 63.0076 25.5623 62.7394C25.6575 62.4711 25.8544 62.2512 26.1105 62.1271C26.3667 62.003 26.6613 61.9847 26.9308 62.0763C28.0224 62.4628 29.1371 62.781 30.2682 63.029C30.5287 63.0864 30.7588 63.2379 30.9144 63.4544C31.07 63.671 31.1403 63.9374 31.1117 64.2025C31.0831 64.4677 30.9576 64.7129 30.7593 64.8913C30.561 65.0696 30.3039 65.1685 30.0372 65.169ZM41.51 64.3194C41.4466 64.0395 41.4969 63.7458 41.65 63.5029C41.8031 63.2601 42.0463 63.088 42.3263 63.0244C43.4514 62.7698 44.5578 62.4384 45.6376 62.0325C45.9052 61.9357 46.2003 61.9481 46.4588 62.0672C46.7173 62.1863 46.9186 62.4023 47.0189 62.6687C47.1193 62.935 47.1108 63.2302 46.9951 63.4903C46.8795 63.7503 46.6661 63.9544 46.4011 64.0583C45.2284 64.4988 44.0269 64.8585 42.8051 65.1349C42.5252 65.1984 42.2316 65.1482 41.9887 64.9952C41.7459 64.8423 41.5737 64.5992 41.51 64.3194ZM21.9354 62.1988C20.8378 61.5929 19.7839 60.9108 18.7816 60.1576C18.5567 59.9833 18.4094 59.7275 18.3717 59.4455C18.334 59.1635 18.4088 58.8779 18.5799 58.6506C18.7511 58.4234 19.0048 58.2726 19.2863 58.231C19.5678 58.1894 19.8543 58.2602 20.0839 58.4282C21.0051 59.1205 21.9737 59.7473 22.9826 60.3041C23.107 60.3728 23.2167 60.4654 23.3053 60.5765C23.394 60.6876 23.4598 60.8151 23.4992 60.9517C23.5385 61.0883 23.5506 61.2313 23.5347 61.3725C23.5188 61.5138 23.4752 61.6505 23.4065 61.7749C23.2588 62.042 22.672 62.6056 21.9354 62.1988ZM49.1455 61.6421C49.0717 61.5205 49.0227 61.3855 49.0011 61.2449C48.9796 61.1042 48.986 60.9608 49.0199 60.8226C49.0538 60.6845 49.1147 60.5544 49.1989 60.4397C49.2831 60.3251 49.3892 60.2282 49.5109 60.1546C50.492 59.5608 51.4256 58.8919 52.3034 58.1538C52.4121 58.0622 52.5378 57.993 52.6733 57.95C52.8088 57.907 52.9514 57.8911 53.093 57.9032C53.2347 57.9153 53.3725 57.9552 53.4988 58.0206C53.625 58.086 53.7371 58.1756 53.8287 58.2844C53.9202 58.3931 53.9895 58.5188 54.0325 58.6543C54.0755 58.7898 54.0914 58.9324 54.0793 59.0741C54.0672 59.2157 54.0273 59.3536 53.9619 59.4798C53.8965 59.606 53.8068 59.7181 53.6981 59.8097C52.7344 60.6202 51.7094 61.3547 50.6321 62.0066C50.3866 62.1554 50.0921 62.2005 49.8133 62.1321C49.5345 62.0637 49.2943 61.8874 49.1455 61.6419V61.6421ZM15.3017 56.9871C14.4545 56.0527 13.6835 55.052 12.9961 53.9946C12.8398 53.7538 12.7855 53.4608 12.8452 53.18C12.905 52.8992 13.0738 52.6536 13.3146 52.4973C13.5554 52.341 13.8484 52.2867 14.1292 52.3464C14.41 52.4062 14.6556 52.575 14.8119 52.8158C15.4363 53.776 16.1366 54.6847 16.9059 55.5332C17.0026 55.6383 17.0775 55.7616 17.1263 55.8958C17.1751 56.03 17.1969 56.1725 17.1904 56.3152C17.1839 56.4579 17.1492 56.5979 17.0883 56.7271C17.0275 56.8563 16.9417 56.9722 16.8358 57.0681C16.73 57.1639 16.6062 57.2379 16.4717 57.2858C16.3371 57.3337 16.1944 57.3544 16.0518 57.3469C15.9092 57.3393 15.7695 57.3036 15.6407 57.2419C15.5119 57.1801 15.3967 57.0934 15.3015 56.9869L15.3017 56.9871Z" fill="#D8CBC7"/>
<path d="M8.91982 34.455C8.86835 34.455 8.81695 34.4514 8.76599 34.4441C8.48177 34.4037 8.22525 34.252 8.05285 34.0224C7.88046 33.7929 7.80631 33.5042 7.84672 33.22C8.02307 31.9815 8.28028 30.7559 8.61672 29.551C8.69397 29.2745 8.87789 29.04 9.12802 28.8991C9.37815 28.7583 9.674 28.7225 9.95048 28.7998C10.227 28.877 10.4614 29.061 10.6023 29.3111C10.7432 29.5612 10.7789 29.8571 10.7017 30.1335C10.3911 31.2472 10.1537 32.3799 9.99099 33.5245C9.95434 33.7826 9.82583 34.0187 9.62906 34.1897C9.43229 34.3606 9.18046 34.4548 8.91982 34.455ZM10.7657 26.5991C10.637 26.5388 10.5214 26.4537 10.4255 26.3488C10.3297 26.2438 10.2554 26.121 10.207 25.9873C10.1586 25.8537 10.137 25.7118 10.1435 25.5698C10.1499 25.4278 10.1843 25.2884 10.2446 25.1597C10.7754 24.0268 11.3804 22.9303 12.0556 21.877C12.2135 21.642 12.4572 21.4782 12.7345 21.4207C13.0117 21.3632 13.3005 21.4167 13.5388 21.5695C13.7771 21.7224 13.946 21.9626 14.0094 22.2386C14.0727 22.5146 14.0254 22.8044 13.8776 23.0459C13.2539 24.0186 12.6951 25.0314 12.2047 26.0777C12.083 26.3376 11.863 26.5385 11.5931 26.6362C11.3233 26.7339 11.0257 26.7205 10.7657 26.5989V26.5991ZM14.9766 19.685C14.7635 19.4925 14.6356 19.2233 14.6211 18.9366C14.6065 18.6499 14.7064 18.3691 14.8989 18.156C15.7374 17.2283 16.6356 16.3563 17.5876 15.5455C17.6955 15.4511 17.8211 15.379 17.9571 15.3335C18.0931 15.288 18.2367 15.27 18.3798 15.2805C18.5228 15.291 18.6623 15.3298 18.7902 15.3946C18.9181 15.4595 19.0318 15.5491 19.1248 15.6583C19.2178 15.7675 19.2881 15.8941 19.3317 16.0307C19.3754 16.1673 19.3915 16.3112 19.379 16.4541C19.3666 16.5969 19.3259 16.7359 19.2593 16.8629C19.1927 16.9899 19.1015 17.1024 18.9911 17.1939C18.1112 17.9435 17.2811 18.7497 16.5061 19.6073C16.4108 19.7129 16.2957 19.7987 16.1672 19.8598C16.0387 19.9209 15.8995 19.9561 15.7574 19.9633C15.6154 19.9705 15.4733 19.9496 15.3393 19.9019C15.2053 19.8541 15.082 19.7804 14.9766 19.685Z" fill="#D8CBC7"/>
<path d="M63.4515 36.5206C63.1768 36.5203 62.9125 36.4156 62.7121 36.2277C62.5118 36.0398 62.3903 35.7827 62.3724 35.5086C62.3444 35.0788 62.3052 34.6436 62.2561 34.2148C62.2249 33.9304 62.3075 33.6452 62.486 33.4215C62.6645 33.1978 62.9243 33.0539 63.2086 33.0213C63.4929 32.9886 63.7786 33.0699 64.0031 33.2472C64.2277 33.4246 64.3729 33.6836 64.407 33.9677C64.4595 34.4317 64.5027 34.9028 64.533 35.3677C64.5422 35.5096 64.5234 35.6519 64.4777 35.7865C64.4319 35.9211 64.3601 36.0454 64.2663 36.1522C64.1726 36.2591 64.0587 36.3464 63.9311 36.4092C63.8036 36.472 63.6649 36.5091 63.5231 36.5184C63.4991 36.5199 63.4751 36.5206 63.4515 36.5206ZM61.4085 29.9746C61.0886 28.8646 60.6961 27.7768 60.2336 26.7182C60.1766 26.588 60.1459 26.4478 60.1431 26.3057C60.1404 26.1635 60.1656 26.0223 60.2174 25.8899C60.2692 25.7576 60.3466 25.6367 60.4452 25.5343C60.5437 25.4318 60.6614 25.3498 60.7917 25.2928C60.9219 25.2359 61.0621 25.2051 61.2042 25.2024C61.3463 25.1996 61.4876 25.2248 61.6199 25.2766C61.7523 25.3285 61.8731 25.4059 61.9756 25.5044C62.0781 25.6029 62.1601 25.7207 62.217 25.8509C62.7179 26.9967 63.1428 28.1742 63.4889 29.3757C63.5283 29.5123 63.5403 29.6554 63.5243 29.7966C63.5084 29.9379 63.4648 30.0746 63.396 30.199C63.3272 30.3234 63.2346 30.433 63.1234 30.5216C63.0123 30.6102 62.8848 30.676 62.7482 30.7154C62.4723 30.7948 62.1762 30.7613 61.9249 30.6224C61.6737 30.4835 61.488 30.2505 61.4085 29.9746ZM58.1801 22.9095C57.5498 21.9406 56.8572 21.0137 56.1066 20.1347C56.0142 20.0266 55.9441 19.9014 55.9001 19.7662C55.8562 19.6311 55.8393 19.4885 55.8504 19.3468C55.8615 19.2051 55.9004 19.067 55.9649 18.9403C56.0295 18.8137 56.1183 18.7009 56.2263 18.6086C56.3344 18.5163 56.4596 18.4461 56.5948 18.4022C56.73 18.3582 56.8725 18.3413 57.0142 18.3524C57.1559 18.3636 57.294 18.4025 57.4207 18.467C57.5474 18.5315 57.6601 18.6203 57.7524 18.7284C58.5643 19.6791 59.3134 20.6815 59.9951 21.7295C60.0745 21.8486 60.1295 21.9824 60.1568 22.1229C60.1842 22.2635 60.1834 22.4081 60.1545 22.5483C60.1256 22.6886 60.0692 22.8217 59.9885 22.94C59.9077 23.0583 59.8044 23.1594 59.6843 23.2374C59.5642 23.3155 59.4299 23.369 59.289 23.3947C59.1482 23.4205 59.0036 23.418 58.8637 23.3875C58.7237 23.357 58.5913 23.2991 58.4739 23.217C58.3566 23.135 58.2566 23.0304 58.18 22.9095H58.1801ZM53.0351 17.0844C52.1512 16.3399 51.2194 15.654 50.2458 15.0313C50.1247 14.9554 50.0199 14.8562 49.9373 14.7395C49.8548 14.6228 49.7961 14.4909 49.7648 14.3515C49.7335 14.212 49.7301 14.0677 49.7549 13.927C49.7796 13.7862 49.832 13.6517 49.9089 13.5313C49.9859 13.4108 50.086 13.3068 50.2034 13.2253C50.3208 13.1437 50.4531 13.0862 50.5929 13.0561C50.7326 13.0259 50.8769 13.0238 51.0175 13.0497C51.158 13.0756 51.2921 13.1291 51.4118 13.2071C52.4654 13.8813 53.4737 14.6237 54.4302 15.4296C54.5397 15.521 54.63 15.6331 54.696 15.7595C54.762 15.8859 54.8024 16.024 54.8148 16.1661C54.8273 16.3081 54.8115 16.4512 54.7685 16.5871C54.7255 16.723 54.6561 16.8491 54.5642 16.9582C54.4724 17.0672 54.3599 17.157 54.2332 17.2224C54.1065 17.2879 53.9682 17.3276 53.8261 17.3394C53.684 17.3512 53.541 17.3349 53.4053 17.2913C53.2695 17.2477 53.1438 17.1777 53.0351 17.0853V17.0844Z" fill="#D8CBC7"/>
<path d="M50.8293 5.16579V23.2286C50.8292 23.3621 50.8028 23.4942 50.7515 23.6175C50.7003 23.7407 50.6253 23.8527 50.5308 23.9469C50.4363 24.0412 50.3242 24.1159 50.2008 24.1668C50.0774 24.2177 49.9452 24.2438 49.8117 24.2436H40.4898L36.2844 32.0425C36.2647 32.0787 36.2354 32.1088 36.1998 32.1294C36.1641 32.1501 36.1235 32.1605 36.0823 32.1596C36.0411 32.1586 36.0009 32.1464 35.9663 32.1241C35.9316 32.1018 35.9037 32.0704 35.8857 32.0334L32.126 24.2445H22.3404C22.0709 24.2446 21.8124 24.1378 21.6216 23.9475C21.4308 23.7572 21.3233 23.4989 21.3228 23.2295V5.16579C21.3228 4.89586 21.4301 4.637 21.6209 4.44607C21.8117 4.25514 22.0705 4.14774 22.3404 4.14746H49.8117C50.0816 4.14774 50.3404 4.25514 50.5312 4.44607C50.722 4.637 50.8292 4.89586 50.8293 5.16579Z" fill="#72BAFD"/>
<path d="M42.3264 5.16579V23.2286C42.3264 23.3619 42.3002 23.4939 42.2492 23.617C42.1981 23.7402 42.1234 23.852 42.0291 23.9463C41.9349 24.0405 41.823 24.1153 41.6998 24.1663C41.5767 24.2173 41.4447 24.2436 41.3114 24.2436H22.3404C22.0709 24.2437 21.8124 24.1369 21.6216 23.9466C21.4308 23.7563 21.3233 23.4981 21.3228 23.2286V5.16579C21.3228 4.89586 21.4301 4.637 21.6209 4.44607C21.8117 4.25514 22.0705 4.14774 22.3404 4.14746H41.3104C41.4439 4.1476 41.5762 4.17405 41.6996 4.2253C41.8229 4.27655 41.935 4.3516 42.0293 4.44617C42.1237 4.54073 42.1985 4.65295 42.2494 4.77642C42.3004 4.8999 42.3266 5.0322 42.3264 5.16579Z" fill="#9CCEFD"/>
<path d="M69.9999 40.7036V49.7421C69.9999 52.6505 67.5807 55.0084 64.5924 55.0084L60.9776 62.0026L56.3051 55.0802L56.2564 55.0081H45.8987C42.9111 55.0081 40.49 52.6501 40.49 49.7418V40.7036C40.49 37.7952 42.9111 35.4392 45.8987 35.4392H64.5924C67.5807 35.4392 69.9999 37.7954 69.9999 40.7036Z" fill="#F76898"/>
<path d="M61.7515 40.7036V49.7421C61.7515 52.6505 59.3303 55.0084 56.3427 55.0084L56.3049 55.0805L56.2563 55.0084H45.8987C42.9111 55.0084 40.49 52.6505 40.49 49.7421V40.7036C40.49 37.7952 42.9111 35.4392 45.8987 35.4392H56.3429C59.3303 35.4392 61.7515 37.7954 61.7515 40.7036Z" fill="#F281AD"/>
<path d="M29.505 43.2056C29.5256 44.5379 29.281 45.8611 28.7853 47.0979C28.2896 48.3348 27.5528 49.4607 26.6177 50.41C25.6827 51.3593 24.5681 52.1132 23.3389 52.6275C22.1097 53.1419 20.7904 53.4066 19.4579 53.4062H11.4562C11.2331 53.406 11.0127 53.4546 10.8104 53.5488C10.6082 53.6429 10.429 53.7802 10.2854 53.9509L5.82556 59.2443L5.34204 53.4062L5.24107 52.1848V52.1794C3.28296 51.1129 1.73522 49.4254 0.84158 47.3827C-0.0520652 45.3399 -0.240844 43.0579 0.304972 40.896C0.850788 38.7342 2.10019 36.8153 3.85642 35.4416C5.61266 34.0678 7.77594 33.3173 10.0056 33.3081H19.2281C24.7579 33.3081 29.4234 37.6773 29.505 43.2056Z" fill="#6BC17F"/>
<path d="M20.2387 43.2056C20.2594 44.5379 20.0147 45.8611 19.519 47.0979C19.0233 48.3348 18.2865 49.4607 17.3515 50.41C16.4164 51.3593 15.3018 52.1131 14.0726 52.6275C12.8434 53.1419 11.5241 53.4066 10.1916 53.4062H5.34204L5.24107 52.1848V52.1794C3.28296 51.1129 1.73522 49.4254 0.84158 47.3827C-0.0520652 45.3399 -0.240844 43.0579 0.304972 40.896C0.850788 38.7342 2.10019 36.8153 3.85642 35.4416C5.61266 34.0678 7.77594 33.3173 10.0056 33.3081C15.5155 33.3298 20.1575 37.6922 20.2387 43.2056Z" fill="#7FD196"/>
<path d="M9.85061 43.5075C9.85044 43.8877 9.73752 44.2593 9.52613 44.5754C9.31475 44.8914 9.01439 45.1377 8.66305 45.283C8.3117 45.4283 7.92515 45.4662 7.55228 45.3919C7.1794 45.3175 6.83695 45.1342 6.56823 44.8653C6.29951 44.5963 6.11659 44.2536 6.04261 43.8807C5.96862 43.5077 6.00689 43.1212 6.15258 42.77C6.29826 42.4188 6.54482 42.1187 6.86108 41.9076C7.17733 41.6966 7.54907 41.584 7.92929 41.5842C8.43896 41.585 8.92752 41.7879 9.28773 42.1485C9.64794 42.509 9.85038 42.9978 9.85061 43.5075Z" fill="white"/>
<path d="M16.9896 43.5075C16.9896 43.8879 16.8768 44.2597 16.6654 44.576C16.4541 44.8923 16.1537 45.1388 15.8023 45.2843C15.4509 45.4299 15.0642 45.468 14.6911 45.3938C14.318 45.3196 13.9753 45.1364 13.7064 44.8674C13.4374 44.5984 13.2542 44.2558 13.18 43.8827C13.1058 43.5096 13.1439 43.1229 13.2895 42.7715C13.435 42.4201 13.6815 42.1197 13.9978 41.9084C14.3141 41.697 14.6859 41.5842 15.0663 41.5842C15.5763 41.5847 16.0652 41.7875 16.4258 42.148C16.7863 42.5086 16.9891 42.9975 16.9896 43.5075Z" fill="white"/>
<path d="M24.087 43.5075C24.087 43.8879 23.9742 44.2597 23.7629 44.576C23.5515 44.8923 23.2512 45.1388 22.8997 45.2843C22.5483 45.4299 22.1616 45.468 21.7885 45.3938C21.4154 45.3196 21.0728 45.1364 20.8038 44.8674C20.5348 44.5984 20.3516 44.2558 20.2774 43.8827C20.2032 43.5096 20.2413 43.1229 20.3869 42.7715C20.5324 42.4201 20.779 42.1197 21.0952 41.9084C21.4115 41.697 21.7833 41.5842 22.1637 41.5842C22.6737 41.5847 23.1626 41.7875 23.5232 42.148C23.8837 42.5086 24.0865 42.9975 24.087 43.5075Z" fill="white"/>
<path d="M44.7879 12.7543H27.3649C27.0802 12.7507 26.8084 12.635 26.6084 12.4324C26.4083 12.2298 26.2961 11.9565 26.2961 11.6718C26.2961 11.3871 26.4083 11.1138 26.6084 10.9112C26.8084 10.7086 27.0802 10.593 27.3649 10.5894H44.7879C45.0726 10.593 45.3444 10.7086 45.5445 10.9112C45.7445 11.1138 45.8567 11.3871 45.8567 11.6718C45.8567 11.9565 45.7445 12.2298 45.5445 12.4324C45.3444 12.635 45.0726 12.7507 44.7879 12.7543Z" fill="white"/>
<path d="M44.7879 17.6493H27.3649C27.0802 17.6457 26.8084 17.53 26.6084 17.3274C26.4083 17.1248 26.2961 16.8516 26.2961 16.5668C26.2961 16.2821 26.4083 16.0088 26.6084 15.8062C26.8084 15.6036 27.0802 15.488 27.3649 15.4844H44.7879C45.0726 15.488 45.3444 15.6036 45.5445 15.8062C45.7445 16.0088 45.8567 16.2821 45.8567 16.5668C45.8567 16.8516 45.7445 17.1248 45.5445 17.3274C45.3444 17.53 45.0726 17.6457 44.7879 17.6493Z" fill="white"/>
<path d="M65.008 42.8518H46.5258C46.3824 42.8536 46.2402 42.827 46.1073 42.7734C45.9743 42.7198 45.8534 42.6403 45.7514 42.5397C45.6494 42.439 45.5684 42.319 45.5132 42.1868C45.4579 42.0545 45.4294 41.9126 45.4294 41.7693C45.4294 41.626 45.4579 41.4841 45.5132 41.3519C45.5684 41.2196 45.6494 41.0997 45.7514 40.999C45.8534 40.8983 45.9743 40.8188 46.1073 40.7653C46.2402 40.7117 46.3824 40.685 46.5258 40.6869H65.008C65.1513 40.685 65.2936 40.7117 65.4265 40.7653C65.5594 40.8188 65.6804 40.8983 65.7824 40.999C65.8844 41.0997 65.9654 41.2196 66.0206 41.3519C66.0759 41.4841 66.1043 41.626 66.1043 41.7693C66.1043 41.9126 66.0759 42.0545 66.0206 42.1868C65.9654 42.319 65.8844 42.439 65.7824 42.5397C65.6804 42.6403 65.5594 42.7198 65.4265 42.7734C65.2936 42.827 65.1513 42.8536 65.008 42.8518Z" fill="white"/>
<path d="M65.0081 47.3595H55.767C55.4823 47.3559 55.2105 47.2403 55.0105 47.0376C54.8104 46.835 54.6982 46.5618 54.6982 46.277C54.6982 45.9923 54.8104 45.7191 55.0105 45.5164C55.2105 45.3138 55.4823 45.1982 55.767 45.1946H65.0081C65.2928 45.1982 65.5646 45.3138 65.7646 45.5164C65.9647 45.7191 66.0769 45.9923 66.0769 46.277C66.0769 46.5618 65.9647 46.835 65.7646 47.0376C65.5646 47.2403 65.2928 47.3559 65.0081 47.3595Z" fill="white"/>
</g>
<defs>
<clipPath id="clip0_158_1132">
<rect width="70" height="70" fill="white"/>
</clipPath>
</defs>
</svg>
