<svg width="70" height="70" viewBox="0 0 70 70" fill="none" xmlns="http://www.w3.org/2000/svg">
<path d="M35 11.9456L23.3055 27.0032L11.8008 12.1901C12.1625 12.031 12.5577 11.9456 12.9643 11.9456H35Z" fill="#B1E4F9"/>
<path d="M58.1993 12.1901L46.6944 27.0032L35 11.9456H57.0358C57.4424 11.9456 57.8375 12.0309 58.1993 12.1901Z" fill="#B1E4F9"/>
<path d="M69.9979 27.0033H46.6943L58.1992 12.1902H58.2007C58.6059 12.3682 58.9677 12.6388 59.2571 12.9862L69.3278 25.0467C69.801 25.6126 70.0239 26.3115 69.9979 27.0033Z" fill="#75CEF9"/>
<path d="M35.0001 11.9463L23.3052 27.0035H46.695L35.0001 11.9463Z" fill="#90D8F9"/>
<path d="M23.3055 27.0033H0.00205293C-0.0240603 26.3115 0.198928 25.6126 0.672112 25.0467L10.7428 12.9862C11.0322 12.6389 11.394 12.3682 11.7992 12.1902H11.8007L23.3055 27.0033Z" fill="#E4F6FF"/>
<path d="M46.6943 27.0029L35.4197 64.3524C35.1418 64.3929 34.8581 64.3929 34.5803 64.3524L23.3054 27.0029H46.6943Z" fill="#75CEF9"/>
<path d="M34.5803 64.3524C33.9537 64.2612 33.3516 63.9646 32.8843 63.4624C32.8828 63.4609 32.8799 63.458 32.8786 63.4567L0.771953 28.8712C0.767578 28.8668 0.764707 28.8624 0.760332 28.8582C0.278398 28.3329 0.0236914 27.6715 0.00195312 27.0029H23.3054L34.5803 64.3524Z" fill="#B1E4F9"/>
<path d="M69.9979 27.0029C69.9762 27.6715 69.7215 28.3329 69.2395 28.8582C69.2351 28.8626 69.2323 28.867 69.2279 28.8712L37.1214 63.4567C37.1199 63.4582 37.117 63.461 37.1157 63.4624C36.6482 63.9646 36.0463 64.2612 35.4197 64.3524L46.6945 27.0029H69.9979Z" fill="#6BBEF6"/>
<path d="M58.6669 42.1047L59.6933 41.5916C60.12 41.3783 60.12 40.7693 59.6933 40.5561L58.6669 40.043C58.1705 39.7948 57.7825 39.373 57.5765 38.8579L56.7344 36.7528C56.5404 36.2676 55.8535 36.2676 55.6595 36.7528L54.8175 38.8579C54.6113 39.3732 54.2233 39.7948 53.727 40.043L52.7006 40.5561C52.2739 40.7693 52.2739 41.3783 52.7006 41.5916L53.727 42.1047C54.2234 42.3528 54.6114 42.7746 54.8175 43.2897L55.6595 45.3948C55.8535 45.88 56.5404 45.88 56.7344 45.3948L57.5765 43.2897C57.7825 42.7746 58.1705 42.3528 58.6669 42.1047Z" fill="#FFE07D"/>
<path d="M24.0209 54.1652L25.0473 53.6521C25.474 53.4388 25.474 52.8299 25.0473 52.6166L24.0209 52.1035C23.5245 51.8554 23.1365 51.4336 22.9304 50.9184L22.0884 48.8134C21.8944 48.3282 21.2075 48.3282 21.0135 48.8134L20.1715 50.9184C19.9654 51.4337 19.5773 51.8554 19.081 52.1035L18.0546 52.6166C17.6279 52.8299 17.6279 53.4388 18.0546 53.6521L19.081 54.1652C19.5774 54.4134 19.9654 54.8351 20.1715 55.3503L21.0135 57.4554C21.2075 57.9406 21.8944 57.9406 22.0884 57.4554L22.9304 55.3503C23.1366 54.8351 23.5246 54.4134 24.0209 54.1652Z" fill="#FFE07D"/>
<path d="M16.5514 13.2766L18.1763 12.4641C18.603 12.2508 18.603 11.6419 18.1763 11.4286L16.5514 10.6161C15.9109 10.2959 15.4103 9.75172 15.1443 9.08686L13.9018 5.98061C13.7078 5.4954 13.021 5.4954 12.827 5.98061L11.5845 9.08686C11.3185 9.75172 10.8179 10.2959 10.1773 10.6161L8.55245 11.4286C8.12575 11.6419 8.12575 12.2508 8.55245 12.4641L10.1773 13.2766C10.8179 13.5968 11.3185 14.1409 11.5845 14.8058L12.827 17.912C13.021 18.3973 13.7078 18.3973 13.9018 17.912L15.1443 14.8058C15.4104 14.1409 15.9111 13.5968 16.5514 13.2766Z" fill="#FFE07D"/>
</svg>
