<svg width="15" height="15" viewBox="0 0 15 15" fill="none" xmlns="http://www.w3.org/2000/svg">
<path d="M2.04545 7.50004H0L2.72727 10.2273L5.45455 7.50004H3.40909C3.40909 5.25004 5.25 3.40914 7.5 3.40914C8.18182 3.40914 8.86364 3.61368 9.40909 3.88641L10.4318 2.86368C9.54545 2.38641 8.59091 2.0455 7.5 2.0455C4.5 2.0455 2.04545 4.50004 2.04545 7.50004ZM11.5909 7.50004C11.5909 9.75004 9.75 11.591 7.5 11.591C6.81818 11.591 6.13636 11.3864 5.59091 11.1137L4.56818 12.1364C5.45455 12.6137 6.40909 12.9546 7.5 12.9546C10.5 12.9546 12.9545 10.5 12.9545 7.50004H15L12.2727 4.77277L9.54545 7.50004H11.5909Z" fill="#FF0A2D"/>
</svg>
