<svg width="40" height="40" viewBox="0 0 40 40" fill="none" xmlns="http://www.w3.org/2000/svg">
<g clip-path="url(#clip0_74_399)">
<path d="M36.6666 8.33333H28.3334V6.66661C28.3334 4.82825 26.8384 3.33325 25 3.33325H15C13.1616 3.33325 11.6666 4.82817 11.6666 6.66661V8.33325H3.33336C1.49492 8.33333 0 9.82825 0 11.6666V33.3333C0 35.1716 1.49492 36.6666 3.33336 36.6666H36.6667C38.5051 36.6666 40.0001 35.1717 40.0001 33.3333V11.6666C40 9.82825 38.5051 8.33333 36.6666 8.33333ZM13.3334 6.66661C13.3334 5.74786 14.0813 4.99997 15 4.99997H25C25.9188 4.99997 26.6666 5.74786 26.6666 6.66661V8.33325H13.3334V6.66661ZM38.3334 33.3333C38.3334 34.2521 37.5855 35 36.6667 35H3.33336C2.41461 35 1.66672 34.2521 1.66672 33.3333V21.2031C2.15898 21.4901 2.72352 21.6667 3.33336 21.6667H16.6667V24.1667C16.6667 24.6273 17.0395 25 17.5001 25H22.5001C22.9607 25 23.3334 24.6273 23.3334 24.1667V21.6667H36.6668C37.2766 21.6667 37.8413 21.4902 38.3334 21.2031V33.3333H38.3334ZM18.3334 23.3333V20H21.6667V23.3333H18.3334ZM38.3334 18.3333C38.3334 19.2521 37.5855 20 36.6667 20H23.3334V19.1666C23.3334 18.706 22.9606 18.3333 22.5 18.3333H17.5C17.0394 18.3333 16.6666 18.706 16.6666 19.1666V20H3.33336C2.41461 20 1.66672 19.2521 1.66672 18.3333V11.6667C1.66672 10.7479 2.41461 10 3.33336 10H36.6667C37.5855 10 38.3334 10.7479 38.3334 11.6667V18.3333Z" fill="#FF0A2D"/>
</g>
<defs>
<clipPath id="clip0_74_399">
<rect width="40" height="40" fill="white"/>
</clipPath>
</defs>
</svg>
