<svg width="40" height="40" viewBox="0 0 40 40" fill="none" xmlns="http://www.w3.org/2000/svg">
<path d="M12.4531 19.375C14.6838 19.375 16.4922 17.5664 16.4922 15.3359C16.4922 13.1052 14.6838 11.2969 12.4531 11.2969C10.2224 11.2969 8.41406 13.1052 8.41406 15.3359C8.41699 17.5654 10.2236 19.3721 12.4531 19.375ZM12.4531 12.8672C13.8208 12.8672 14.9297 13.9758 14.9297 15.3438C14.9297 16.7114 13.8208 17.8203 12.4531 17.8203C11.0852 17.8203 9.97656 16.7114 9.97656 15.3438C9.97705 13.9761 11.0855 12.8677 12.4531 12.8672Z" fill="#FF0A2D"/>
<path d="M12.4531 20.8671C10.8005 20.8549 9.21436 21.5182 8.0625 22.703C6.89062 23.8984 6.25 25.5234 6.25 27.289C6.25122 27.7199 6.60034 28.069 7.03125 28.0702H17.875C18.3059 28.069 18.655 27.7199 18.6562 27.289C18.6562 25.5234 18.0156 23.8984 16.8438 22.703C15.6919 21.5182 14.106 20.8549 12.4531 20.8671ZM7.86719 26.5077C8.00098 25.4862 8.46143 24.5356 9.17969 23.7968C10.0442 22.922 11.2231 22.4296 12.4531 22.4296C13.6831 22.4296 14.8621 22.922 15.7266 23.7968C16.4434 24.5363 16.9038 25.4867 17.0391 26.5077H7.86719Z" fill="#FF0A2D"/>
<path d="M34.8438 5.85938H5.15625C2.99927 5.86035 1.25098 7.60864 1.25 9.76562V29.6094C1.25098 31.7664 2.99927 33.5146 5.15625 33.5156H34.8438C37.0007 33.5146 38.749 31.7664 38.75 29.6094V9.76562C38.749 7.60864 37.0007 5.86035 34.8438 5.85938ZM37.1875 29.6094C37.1838 30.9021 36.1365 31.9495 34.8438 31.9531H5.15625C3.86353 31.9495 2.81616 30.9021 2.8125 29.6094V9.76562C2.81616 8.4729 3.86353 7.42554 5.15625 7.42188H34.8438C36.1365 7.42554 37.1838 8.4729 37.1875 9.76562V29.6094Z" fill="#FF0A2D"/>
<path d="M32.9219 18.9062H23.8203C23.3889 18.9062 23.0391 19.2559 23.0391 19.6875C23.0391 20.1191 23.3889 20.4688 23.8203 20.4688H32.9219C33.3533 20.4688 33.7031 20.1191 33.7031 19.6875C33.7031 19.2559 33.3533 18.9062 32.9219 18.9062Z" fill="#FF0A2D"/>
<path d="M32.9219 23.9062H23.8203C23.3889 23.9062 23.0391 24.2559 23.0391 24.6875C23.0391 25.1191 23.3889 25.4688 23.8203 25.4688H32.9219C33.3533 25.4688 33.7031 25.1191 33.7031 24.6875C33.7031 24.2559 33.3533 23.9062 32.9219 23.9062Z" fill="#FF0A2D"/>
<path d="M32.9219 13.9062H23.8203C23.3889 13.9062 23.0391 14.2559 23.0391 14.6875C23.0391 15.1191 23.3889 15.4688 23.8203 15.4688H32.9219C33.3533 15.4688 33.7031 15.1191 33.7031 14.6875C33.7031 14.2559 33.3533 13.9062 32.9219 13.9062Z" fill="#FF0A2D"/>
</svg>
