<svg width="40" height="40" viewBox="0 0 40 40" fill="none" xmlns="http://www.w3.org/2000/svg">
<path d="M38.125 6.25H1.875C1.54348 6.25 1.22554 6.3817 0.991117 6.61612C0.756696 6.85054 0.625 7.16848 0.625 7.5V32.5C0.625 32.8315 0.756696 33.1495 0.991117 33.3839C1.22554 33.6183 1.54348 33.75 1.875 33.75H38.125C38.4565 33.75 38.7745 33.6183 39.0089 33.3839C39.2433 33.1495 39.375 32.8315 39.375 32.5V7.5C39.375 7.16848 39.2433 6.85054 39.0089 6.61612C38.7745 6.3817 38.4565 6.25 38.125 6.25ZM38.125 7.5V28.4919L24.8169 15.1831C24.6997 15.066 24.5407 15.0001 24.375 15.0001C24.2093 15.0001 24.0503 15.066 23.9331 15.1831L18.125 20.9912L14.8169 17.6831C14.6997 17.566 14.5407 17.5001 14.375 17.5001C14.2093 17.5001 14.0503 17.566 13.9331 17.6831L1.875 29.7412V7.5H38.125ZM1.875 32.5V31.5088L14.375 19.0087L21.4331 26.0669C21.551 26.1807 21.7089 26.2437 21.8728 26.2423C22.0366 26.2409 22.1934 26.1751 22.3093 26.0593C22.4251 25.9434 22.4909 25.7866 22.4923 25.6228C22.4937 25.4589 22.4307 25.301 22.3169 25.1831L19.0087 21.875L24.375 16.5087L38.125 30.2588V32.5H1.875Z" fill="#FF0A2D"/>
<path d="M23.5669 26.4333C23.449 26.3194 23.2911 26.2564 23.1273 26.2578C22.9634 26.2593 22.8066 26.325 22.6907 26.4409C22.5749 26.5567 22.5091 26.7135 22.5077 26.8774C22.5063 27.0413 22.5693 27.1991 22.6831 27.317L23.3081 27.942C23.426 28.0559 23.5839 28.1188 23.7478 28.1174C23.9116 28.116 24.0684 28.0503 24.1843 27.9344C24.3001 27.8185 24.3659 27.6618 24.3673 27.4979C24.3687 27.334 24.3057 27.1761 24.1919 27.0583L23.5669 26.4333Z" fill="#FF0A2D"/>
<path d="M14.375 15.625C14.9931 15.625 15.5972 15.4417 16.1112 15.0983C16.6251 14.755 17.0256 14.2669 17.2621 13.6959C17.4986 13.1249 17.5605 12.4965 17.4399 11.8903C17.3194 11.2842 17.0217 10.7273 16.5847 10.2903C16.1477 9.85325 15.5908 9.55563 14.9847 9.43505C14.3785 9.31447 13.7501 9.37635 13.1791 9.61288C12.6081 9.8494 12.12 10.2499 11.7767 10.7638C11.4333 11.2777 11.25 11.8819 11.25 12.5C11.251 13.3285 11.5806 14.1228 12.1664 14.7086C12.7522 15.2944 13.5465 15.624 14.375 15.625ZM14.375 10.625C14.7458 10.625 15.1083 10.735 15.4167 10.941C15.725 11.147 15.9654 11.4399 16.1073 11.7825C16.2492 12.1251 16.2863 12.5021 16.214 12.8658C16.1416 13.2295 15.963 13.5636 15.7008 13.8258C15.4386 14.088 15.1045 14.2666 14.7408 14.339C14.3771 14.4113 14.0001 14.3742 13.6575 14.2323C13.3149 14.0904 13.022 13.85 12.816 13.5417C12.61 13.2333 12.5 12.8708 12.5 12.5C12.5 12.0027 12.6975 11.5258 13.0492 11.1742C13.4008 10.8225 13.8777 10.625 14.375 10.625Z" fill="#FF0A2D"/>
<path d="M28.125 10H28.75C28.9158 10 29.0747 9.93415 29.1919 9.81694C29.3092 9.69973 29.375 9.54076 29.375 9.375C29.375 9.20924 29.3092 9.05027 29.1919 8.93306C29.0747 8.81585 28.9158 8.75 28.75 8.75H28.125C27.9592 8.75 27.8003 8.81585 27.6831 8.93306C27.5658 9.05027 27.5 9.20924 27.5 9.375C27.5 9.54076 27.5658 9.69973 27.6831 9.81694C27.8003 9.93415 27.9592 10 28.125 10Z" fill="#FF0A2D"/>
<path d="M30.625 10H36.25C36.4158 10 36.5747 9.93415 36.6919 9.81694C36.8092 9.69973 36.875 9.54076 36.875 9.375C36.875 9.20924 36.8092 9.05027 36.6919 8.93306C36.5747 8.81585 36.4158 8.75 36.25 8.75H30.625C30.4592 8.75 30.3003 8.81585 30.1831 8.93306C30.0658 9.05027 30 9.20924 30 9.375C30 9.54076 30.0658 9.69973 30.1831 9.81694C30.3003 9.93415 30.4592 10 30.625 10Z" fill="#FF0A2D"/>
</svg>
