<svg width="16" height="16" viewBox="0 0 16 16" fill="none" xmlns="http://www.w3.org/2000/svg">
<g clip-path="url(#clip0_154_479)">
<path d="M15.9583 6.13797C15.8536 5.81398 15.5662 5.58388 15.2262 5.55324L10.6082 5.13391L8.78209 0.859755C8.64744 0.546514 8.34079 0.34375 8.00009 0.34375C7.65938 0.34375 7.35273 0.546514 7.21808 0.860487L5.39199 5.13391L0.773212 5.55324C0.433847 5.58461 0.147219 5.81398 0.0418692 6.13797C-0.0634803 6.46195 0.0338123 6.81731 0.290533 7.04131L3.78123 10.1027L2.7519 14.6368C2.67658 14.9702 2.80598 15.3148 3.0826 15.5148C3.23128 15.6222 3.40524 15.6769 3.58066 15.6769C3.73191 15.6769 3.88194 15.6361 4.01658 15.5556L8.00009 13.1748L11.9821 15.5556C12.2735 15.7309 12.6408 15.7149 12.9168 15.5148C13.1936 15.3142 13.3229 14.9695 13.2475 14.6368L12.2182 10.1027L15.7089 7.04192C15.9656 6.81731 16.0637 6.46256 15.9583 6.13797V6.13797Z" fill="#FF0A2D"/>
</g>
<defs>
<clipPath id="clip0_154_479">
<rect width="16" height="16" fill="white"/>
</clipPath>
</defs>
</svg>
