<svg width="30" height="24" viewBox="0 0 30 24" fill="none" xmlns="http://www.w3.org/2000/svg">
<path d="M25.9863 21.4887L15.3614 13.9887C15.1452 13.836 14.8563 13.836 14.6401 13.9887L4.01514 21.4887C3.84891 21.6058 3.75 21.7965 3.75012 21.9999V22.6249C3.75006 22.9701 4.02991 23.2499 4.37508 23.2499H25.6251C25.9703 23.2499 26.2501 22.9701 26.2501 22.6249V21.9999C26.2505 21.7968 26.1521 21.6061 25.9863 21.4887Z" fill="#CFD8DC"/>
<path d="M15.3612 13.9886L4.73625 6.48862C4.45459 6.28911 4.06447 6.35573 3.86496 6.63739C3.7899 6.74333 3.74971 6.87001 3.75 6.99985V21.9998C3.7493 22.345 4.02861 22.6254 4.37379 22.6261C4.50363 22.6263 4.63031 22.5861 4.73625 22.5111L15.3612 15.0111C15.6432 14.8121 15.7105 14.4222 15.5115 14.1401C15.4703 14.0818 15.4195 14.031 15.3612 13.9899V13.9886Z" fill="#FAFAFA"/>
<path d="M25.9125 6.44508C25.7048 6.33891 25.4554 6.35573 25.2638 6.48885L14.6388 13.9888C14.3568 14.1879 14.2895 14.5778 14.4886 14.8598C14.5297 14.9181 14.5805 14.9689 14.6388 15.0101L25.2638 22.5101C25.5454 22.7096 25.9356 22.643 26.1351 22.3613C26.2099 22.2557 26.25 22.1295 26.25 22.0001V7.00008C26.25 6.76653 26.1199 6.55248 25.9125 6.44508Z" fill="#EEEEEE"/>
<path d="M27.4688 1.18002C27.3845 0.923437 27.1451 0.75 26.8751 0.75H3.12502C2.77984 0.75 2.5 1.02984 2.5 1.37502C2.5 1.57172 2.59264 1.75699 2.75002 1.875L14.625 10.625C14.8455 10.7873 15.1459 10.7873 15.3663 10.625L27.2413 1.875C27.4589 1.7165 27.5505 1.43648 27.4688 1.18002Z" fill="#ECEFF1"/>
<path d="M26.875 0.75C26.7398 0.75 26.6082 0.793887 26.5 0.874981L15 9.34875L3.49998 0.874981C3.39182 0.793887 3.26021 0.75 3.12498 0.75C1.3991 0.75 0 2.1491 0 3.87498V20.125C0 21.8509 1.3991 23.25 3.12498 23.25H4.37496C4.72014 23.25 4.99998 22.9702 4.99998 22.625V8.20623L14.6387 15.0112C14.8549 15.1639 15.1438 15.1639 15.3599 15.0112L25 8.20623V22.625C25 22.9702 25.2798 23.25 25.625 23.25H26.875C28.6009 23.25 30 21.8509 30 20.125V3.87498C30 2.1491 28.6009 0.75 26.875 0.75Z" fill="#F44336"/>
</svg>
