<svg width="5" height="8" viewBox="0 0 5 8" fill="none" xmlns="http://www.w3.org/2000/svg">
<path d="M4.55808 3.68786L1.52817 0.127819C1.45809 0.0454129 1.36454 1.49269e-05 1.26479 1.49269e-05C1.16504 1.49269e-05 1.07149 0.0454129 1.00142 0.127819L0.778283 0.38993C0.633089 0.560726 0.633089 0.838317 0.778283 1.00885L3.32258 3.99836L0.77546 6.99118C0.705382 7.07358 0.666689 7.18344 0.666689 7.30057C0.666689 7.41784 0.705382 7.52769 0.77546 7.61017L0.998593 7.87221C1.06873 7.95462 1.16222 8.00002 1.26197 8.00002C1.36172 8.00002 1.45526 7.95462 1.52534 7.87221L4.55808 4.30892C4.62833 4.22626 4.66691 4.11588 4.66669 3.99855C4.66691 3.88076 4.62833 3.77046 4.55808 3.68786Z" fill="#787878"/>
</svg>
