<svg width="70" height="70" viewBox="0 0 70 70" fill="none" xmlns="http://www.w3.org/2000/svg">
<path d="M43.021 53.5209C43.896 50.6043 45.646 47.9793 47.9794 45.9376C52.3544 42.2917 55.1253 36.7501 55.1253 30.6251C55.1253 19.2501 45.6461 9.91669 33.9794 10.5001C23.6251 10.9376 15.1667 19.6876 14.8751 30.0417C14.7292 36.4584 17.5001 42.1459 22.021 45.9376C24.5001 47.9792 26.2501 50.6042 27.1251 53.5209H43.021Z" fill="#FFD15C"/>
<path d="M33.1041 53.8125H34.4166L28.5832 32.0834C28.7291 32.0834 28.8748 32.0834 29.0207 32.0834C29.7498 32.0834 30.4791 31.7917 31.0623 31.2084C31.354 30.9167 31.6457 30.7709 32.0832 30.7709C32.5207 30.7709 32.8123 30.9167 33.1041 31.2084C34.125 32.375 35.875 32.375 36.8957 31.2084C37.1873 30.9167 37.4791 30.7709 37.9166 30.7709C38.2082 30.7709 38.6457 30.9167 38.9375 31.2084C39.5208 31.7917 40.1041 32.0834 40.9791 32.0834C41.125 32.0834 41.2707 32.0834 41.4166 32.0834L35.7291 53.8125H37.0416L43.0207 31.0625C43.0207 30.7709 43.0207 30.4791 42.7291 30.3334C42.4375 30.1875 42.1457 30.3334 42 30.4792C41.7083 30.7709 41.4166 30.9167 41.125 30.9167C40.6875 30.9167 40.3958 30.7709 39.9583 30.4792C39.375 29.8959 38.7917 29.6042 38.0625 29.6042C37.3332 29.6042 36.75 29.8959 36.1666 30.4792C35.5832 31.0626 34.7082 31.0626 34.125 30.4792C33.6875 29.8959 32.9584 29.6042 32.2291 29.6042C31.5 29.6042 30.7707 29.8959 30.3332 30.4792C30.0416 30.7709 29.6041 30.9167 29.1666 30.9167C28.875 30.9167 28.4375 30.7709 28.2916 30.4792C28.1457 30.3334 27.8541 30.1876 27.5625 30.3334C27.2709 30.4792 27.125 30.7709 27.2709 31.0625L33.1041 53.8125Z" fill="white"/>
<path d="M30.479 66.9375C31.2083 68.6875 32.9583 70 34.9999 70C37.0415 70 38.7915 68.6875 39.5208 66.9375H30.479Z" fill="#344A5E"/>
<path d="M40.3959 67.0834H29.75C28.2916 67.0834 27.125 65.9168 27.125 64.4584V53.375H43.0209V64.4584C43.0209 65.9166 41.8541 67.0834 40.3959 67.0834Z" fill="#344A5E"/>
<path d="M42.8751 58.9165H27.1251C26.2501 58.9165 25.521 58.1874 25.521 57.3124C25.521 56.4374 26.2501 55.7083 27.1251 55.7083H42.8751C43.7501 55.7083 44.4792 56.4374 44.4792 57.3124C44.4792 58.1874 43.7501 58.9165 42.8751 58.9165Z" fill="#415A6B"/>
<path d="M42.8751 64.0207H27.1251C26.2501 64.0207 25.521 63.2916 25.521 62.4166C25.521 61.5416 26.2501 60.8125 27.1251 60.8125H42.8751C43.7501 60.8125 44.4792 61.5416 44.4792 62.4166C44.4792 63.2915 43.7501 64.0207 42.8751 64.0207Z" fill="#415A6B"/>
<path d="M34.9999 0C34.2708 0 33.5415 0.583379 33.5415 1.45838V6.41676C33.5415 7.14588 34.1249 7.87514 34.9999 7.87514C35.8749 7.87514 36.4583 7.29176 36.4583 6.41676V1.45838C36.4583 0.583379 35.729 0 34.9999 0Z" fill="#FFD15C"/>
<path d="M15.4584 8.89579C14.875 8.31241 14 8.31241 13.4167 8.89579C12.8335 9.47916 12.8334 10.3542 13.4167 10.9374L16.9167 14.4374C17.5001 15.0208 18.3751 15.0208 18.9584 14.4374C19.5416 13.854 19.5417 12.979 18.9584 12.3958L15.4584 8.89579Z" fill="#FFD15C"/>
<path d="M10.9375 29.021H5.97913C5.25001 29.021 4.52075 29.6044 4.52075 30.4794C4.52075 31.2085 5.10413 31.9378 5.97913 31.9378H10.9375C11.6666 31.9378 12.3959 31.3544 12.3959 30.4794C12.3959 29.7501 11.6666 29.021 10.9375 29.021Z" fill="#FFD15C"/>
<path d="M16.9165 46.5207L13.4165 50.0207C12.8332 50.6041 12.8332 51.4791 13.4165 52.0624C13.9999 52.6456 14.8749 52.6457 15.4582 52.0624L18.9582 48.5624C19.5415 47.979 19.5415 47.104 18.9582 46.5207C18.3748 45.9375 17.4999 45.9374 16.9165 46.5207Z" fill="#FFD15C"/>
<path d="M53.0833 46.5208C52.4999 45.9374 51.6249 45.9374 51.0415 46.5208C50.4582 47.1042 50.4582 47.9792 51.0415 48.5624L54.5415 52.0624C55.1249 52.6458 55.9999 52.6458 56.5832 52.0624C57.1664 51.479 57.1665 50.604 56.5832 50.0208L53.0833 46.5208Z" fill="#FFD15C"/>
<path d="M64.021 29.021H59.0626C58.3335 29.021 57.6042 29.6044 57.6042 30.4794C57.6042 31.2085 58.1876 31.9378 59.0626 31.9378H64.021C64.7501 31.9378 65.4794 31.3544 65.4794 30.4794C65.4792 29.7501 64.896 29.021 64.021 29.021Z" fill="#FFD15C"/>
<path d="M54.5415 8.89598L51.0415 12.396C50.4582 12.9794 50.4582 13.8544 51.0415 14.4376C51.6249 15.021 52.4999 15.021 53.0832 14.4376L56.5831 10.9376C57.1665 10.3542 57.1665 9.47922 56.5831 8.89598C55.9998 8.31274 55.1249 8.3126 54.5415 8.89598Z" fill="#FFD15C"/>
</svg>
