<svg width="70" height="70" viewBox="0 0 70 70" fill="none" xmlns="http://www.w3.org/2000/svg">
<path d="M2.05078 16.543C0.918045 16.543 0 15.6249 0 14.4922V2.05078C0 0.918045 0.918045 0 2.05078 0H14.4922C15.6249 0 16.543 0.918045 16.543 2.05078C16.543 3.18352 15.6249 4.10156 14.4922 4.10156H4.10156V14.4922C4.10156 15.6249 3.18352 16.543 2.05078 16.543Z" fill="#FF3C5D"/>
<path d="M67.9492 16.543C66.8165 16.543 65.8984 15.6249 65.8984 14.4922V4.10156H55.5078C54.3751 4.10156 53.457 3.18352 53.457 2.05078C53.457 0.918045 54.3751 0 55.5078 0H67.9492C69.082 0 70 0.918045 70 2.05078V14.4922C70 15.6249 69.082 16.543 67.9492 16.543Z" fill="#FF3C5D"/>
<path d="M67.9492 70H55.5078C54.3751 70 53.457 69.082 53.457 67.9492C53.457 66.8165 54.3751 65.8984 55.5078 65.8984H65.8984V55.5078C65.8984 54.3751 66.8165 53.457 67.9492 53.457C69.082 53.457 70 54.3751 70 55.5078V67.9492C70 69.082 69.082 70 67.9492 70Z" fill="#FF3C5D"/>
<path d="M14.4922 70H2.05078C0.918045 70 0 69.082 0 67.9492V55.5078C0 54.3751 0.918045 53.457 2.05078 53.457C3.18352 53.457 4.10156 54.3751 4.10156 55.5078V65.8984H14.4922C15.6249 65.8984 16.543 66.8165 16.543 67.9492C16.543 69.082 15.6249 70 14.4922 70Z" fill="#FF3C5D"/>
<path d="M61.6602 10.3906C61.6602 11.5234 60.7421 12.4414 59.6094 12.4414C58.4766 12.4414 57.5586 11.5234 57.5586 10.3906C57.5586 9.25789 58.4766 8.33984 59.6094 8.33984C60.7421 8.33984 61.6602 9.25789 61.6602 10.3906Z" fill="#FF3C5D"/>
<path d="M35 53.457C24.823 53.457 16.543 45.177 16.543 35C16.543 24.823 24.823 16.543 35 16.543C45.177 16.543 53.457 24.823 53.457 35C53.457 45.177 45.177 53.457 35 53.457ZM35 20.6445C27.0842 20.6445 20.6445 27.0842 20.6445 35C20.6445 42.9158 27.0842 49.3555 35 49.3555C42.9158 49.3555 49.3555 42.9158 49.3555 35C49.3555 27.0842 42.9158 20.6445 35 20.6445Z" fill="#00CEFF"/>
<path d="M35.0001 53.457C27.174 53.457 18.7258 50.4957 10.5686 44.894C4.46804 40.7037 0.687443 36.5498 0.529362 36.3752C-0.176128 35.5944 -0.176128 34.4056 0.529362 33.6248C0.687443 33.4502 4.46804 29.2963 10.5691 25.1066C18.7258 19.5043 27.174 16.543 35.0001 16.543C42.8262 16.543 51.2744 19.5043 59.4316 25.1066C65.5322 29.2963 69.3128 33.4502 69.4709 33.6248C70.1763 34.4056 70.1763 35.5944 69.4709 36.3752C69.3128 36.5498 65.5322 40.7037 59.4316 44.8934C51.2744 50.4957 42.8262 53.457 35.0001 53.457ZM4.92679 35.0011C6.4809 36.5098 9.29645 39.053 12.9734 41.5689C18.1639 45.1209 26.1988 49.3555 35.0001 49.3555C48.986 49.3555 61.1187 38.8324 65.0734 34.9995C63.5188 33.4897 60.7038 30.9465 57.0268 28.4311C51.8363 24.8791 43.8014 20.6445 35.0001 20.6445C21.0142 20.6445 8.88149 31.1676 4.92679 35.0011Z" fill="#E8E8E8"/>
<path d="M35 41.1523C31.6077 41.1523 28.8477 38.3923 28.8477 35C28.8477 31.6077 31.6077 28.8477 35 28.8477C38.3923 28.8477 41.1523 31.6077 41.1523 35C41.1523 38.3923 38.3923 41.1523 35 41.1523ZM35 32.9492C33.8694 32.9492 32.9492 33.8694 32.9492 35C32.9492 36.1306 33.8694 37.0508 35 37.0508C36.1306 37.0508 37.0508 36.1306 37.0508 35C37.0508 33.8694 36.1306 32.9492 35 32.9492Z" fill="#606060"/>
</svg>
