<svg width="14" height="14" viewBox="0 0 14 14" fill="none" xmlns="http://www.w3.org/2000/svg">
<path d="M9.15381 2.02849C9.06762 1.94252 8.9554 1.89942 8.84275 1.89942C8.73009 1.89942 8.61765 1.94252 8.53168 2.02849C8.35997 2.2002 8.35997 2.47867 8.53168 2.65039L12.4265 6.54545L0.443186 6.54545C0.200154 6.54545 0.00327873 6.74233 0.00327873 6.98514C0.00327873 7.22795 0.199936 7.42505 0.443186 7.42505L12.4265 7.42505L8.53168 11.3203C8.35997 11.492 8.35997 11.7705 8.53168 11.9422C8.7034 12.114 8.98187 12.1142 9.15381 11.9422L13.7994 7.2962C13.9711 7.12427 13.9711 6.84602 13.7994 6.6743L9.15381 2.02849Z" fill="#1D1D1B"/>
</svg>
