<svg width="180" height="29" viewBox="0 0 180 29" fill="none" xmlns="http://www.w3.org/2000/svg">
<path d="M8 21.56H2L0.32 28H6.32L8 21.56ZM29.0003 12.48H37.5603C37.6003 12.24 37.6403 12.04 37.6403 11.84C37.6403 8.4 33.2803 8.36 30.0803 8.36C24.6803 8.36 20.5603 8.48 18.9603 14.72C18.7603 15.52 18.6403 16.24 18.6403 16.88C18.6403 19.32 20.5603 20.48 26.9603 20.48C28.8403 20.48 29.9203 20.48 29.9203 21.64C29.9203 21.84 29.8803 22.08 29.8003 22.4C29.4003 23.92 28.8403 24.12 26.0003 24.12H16.7603C16.7603 24.2 16.7603 24.24 16.7603 24.32C16.7603 28.16 20.3603 28.24 24.4403 28.24C24.6003 28.24 24.7603 28.24 24.9203 28.24C30.0403 28.24 34.6803 27.36 36.1603 21.68C36.4003 20.76 36.5203 20 36.5203 19.36C36.5203 16.12 33.6403 15.84 28.1603 15.72C25.7203 15.64 25.2003 15.24 25.2003 14.64C25.2003 14.44 25.2403 14.24 25.3203 14C25.6003 12.88 25.5603 12.48 29.0003 12.48ZM54.4066 14.04C56.3666 14.04 57.0866 14.28 57.0866 15.52C57.0866 16.16 56.8866 17.04 56.5666 18.32C55.5666 22.12 55.1666 22.52 52.2066 22.52C50.1666 22.52 49.3666 22.32 49.3666 21.08C49.3666 20.44 49.5666 19.56 49.8866 18.32C50.8466 14.56 51.3266 14.04 54.4066 14.04ZM55.7666 8.36C47.6466 8.36 45.5266 10.36 43.4866 18.32C42.9266 20.44 42.6066 22.12 42.6066 23.48C42.6066 27.08 44.8466 28.24 50.6066 28.24C58.6466 28.24 60.8466 26.28 62.9266 18.32C63.5266 16 63.8466 14.2 63.8466 12.84C63.8466 9.24 61.6066 8.36 55.7666 8.36ZM84.7197 8.56H80.3597L80.5197 7.88C81.0797 5.44 81.3597 4.92 84.1997 4.92C84.5997 4.92 84.9997 5 85.3197 5.08L86.5597 0.24C78.0797 0.24 75.7597 1.6 74.4797 6.68L73.9997 8.56H71.4397L70.1997 13.24H72.7597L68.9597 28H75.3197L79.1197 13.24H83.4797L84.7197 8.56ZM105.89 8.56H98.53L99.57 4.48H93.21L92.17 8.56H89.81L88.57 13.24H90.93L88.45 22.84C88.25 23.56 88.17 24.2 88.17 24.76C88.17 27.88 91.05 28.24 94.49 28.24C99.05 28.24 101.33 27.32 102.81 23.56H96.09C95.25 23.56 94.93 23.32 94.93 22.76C94.93 22.52 94.97 22.24 95.05 21.92L97.29 13.24H104.65L105.89 8.56ZM120.899 14.04C122.859 14.04 123.579 14.28 123.579 15.52C123.579 16.16 123.379 17.04 123.059 18.32C122.059 22.12 121.659 22.52 118.699 22.52C116.659 22.52 115.859 22.32 115.859 21.08C115.859 20.44 116.059 19.56 116.379 18.32C117.339 14.56 117.819 14.04 120.899 14.04ZM122.259 8.36C114.139 8.36 112.019 10.36 109.979 18.32C109.419 20.44 109.099 22.12 109.099 23.48C109.099 27.08 111.339 28.24 117.099 28.24C125.139 28.24 127.339 26.28 129.419 18.32C130.019 16 130.339 14.2 130.339 12.84C130.339 9.24 128.099 8.36 122.259 8.36ZM146.852 12.48H155.412C155.452 12.24 155.492 12.04 155.492 11.84C155.492 8.4 151.132 8.36 147.932 8.36C142.532 8.36 138.412 8.48 136.812 14.72C136.612 15.52 136.492 16.24 136.492 16.88C136.492 19.32 138.412 20.48 144.812 20.48C146.692 20.48 147.772 20.48 147.772 21.64C147.772 21.84 147.732 22.08 147.652 22.4C147.252 23.92 146.692 24.12 143.852 24.12H134.612C134.612 24.2 134.612 24.24 134.612 24.32C134.612 28.16 138.212 28.24 142.292 28.24C142.452 28.24 142.612 28.24 142.772 28.24C147.892 28.24 152.532 27.36 154.012 21.68C154.252 20.76 154.372 20 154.372 19.36C154.372 16.12 151.492 15.84 146.012 15.72C143.572 15.64 143.052 15.24 143.052 14.64C143.052 14.44 143.092 14.24 143.172 14C143.452 12.88 143.412 12.48 146.852 12.48ZM179.218 8.56H171.858L172.898 4.48H166.538L165.498 8.56H163.138L161.898 13.24H164.258L161.778 22.84C161.578 23.56 161.498 24.2 161.498 24.76C161.498 27.88 164.378 28.24 167.818 28.24C172.378 28.24 174.658 27.32 176.138 23.56H169.418C168.578 23.56 168.258 23.32 168.258 22.76C168.258 22.52 168.298 22.24 168.378 21.92L170.618 13.24H177.978L179.218 8.56Z" fill="#FF0A2D"/>
</svg>
