<svg width="123" height="29" viewBox="0 0 123 29" fill="none" xmlns="http://www.w3.org/2000/svg">
<path d="M8 21.56H2L0.32 28H6.32L8 21.56ZM29.4403 0.24H23.0803L21.8403 5.12H28.2003L29.4403 0.24ZM27.3203 8.56H20.9603L15.9203 28H22.2803L27.3203 8.56ZM49.4916 8.56H42.1316L43.1716 4.48H36.8116L35.7716 8.56H33.4116L32.1716 13.24H34.5316L32.0516 22.84C31.8516 23.56 31.7716 24.2 31.7716 24.76C31.7716 27.88 34.6516 28.24 38.0916 28.24C42.6516 28.24 44.9316 27.32 46.4116 23.56H39.6916C38.8516 23.56 38.5316 23.32 38.5316 22.76C38.5316 22.52 38.5716 22.24 38.6516 21.92L40.8916 13.24H48.2516L49.4916 8.56ZM64.5003 14.04C66.4603 14.04 67.1803 14.28 67.1803 15.52C67.1803 16.16 66.9803 17.04 66.6603 18.32C65.6603 22.12 65.2603 22.52 62.3003 22.52C60.2603 22.52 59.4603 22.32 59.4603 21.08C59.4603 20.44 59.6603 19.56 59.9803 18.32C60.9403 14.56 61.4203 14.04 64.5003 14.04ZM65.8603 8.36C57.7403 8.36 55.6203 10.36 53.5803 18.32C53.0203 20.44 52.7003 22.12 52.7003 23.48C52.7003 27.08 54.9403 28.24 60.7003 28.24C68.7403 28.24 70.9403 26.28 73.0203 18.32C73.6203 16 73.9403 14.2 73.9403 12.84C73.9403 9.24 71.7003 8.36 65.8603 8.36ZM90.4534 12.48H99.0134C99.0534 12.24 99.0934 12.04 99.0934 11.84C99.0934 8.4 94.7334 8.36 91.5334 8.36C86.1334 8.36 82.0134 8.48 80.4134 14.72C80.2134 15.52 80.0934 16.24 80.0934 16.88C80.0934 19.32 82.0134 20.48 88.4134 20.48C90.2934 20.48 91.3734 20.48 91.3734 21.64C91.3734 21.84 91.3334 22.08 91.2534 22.4C90.8534 23.92 90.2934 24.12 87.4534 24.12H78.2134C78.2134 24.2 78.2134 24.24 78.2134 24.32C78.2134 28.16 81.8134 28.24 85.8934 28.24C86.0534 28.24 86.2134 28.24 86.3734 28.24C91.4934 28.24 96.1334 27.36 97.6134 21.68C97.8534 20.76 97.9734 20 97.9734 19.36C97.9734 16.12 95.0934 15.84 89.6134 15.72C87.1734 15.64 86.6534 15.24 86.6534 14.64C86.6534 14.44 86.6934 14.24 86.7734 14C87.0534 12.88 87.0134 12.48 90.4534 12.48ZM122.82 8.56H115.46L116.5 4.48H110.14L109.1 8.56H106.74L105.5 13.24H107.86L105.38 22.84C105.18 23.56 105.1 24.2 105.1 24.76C105.1 27.88 107.98 28.24 111.42 28.24C115.98 28.24 118.26 27.32 119.74 23.56H113.02C112.18 23.56 111.86 23.32 111.86 22.76C111.86 22.52 111.9 22.24 111.98 21.92L114.22 13.24H121.58L122.82 8.56Z" fill="#FF0A2D"/>
</svg>
