<svg width="25" height="17" viewBox="0 0 25 17" fill="none" xmlns="http://www.w3.org/2000/svg">
<path d="M0.0582199 8.18755C0.0666523 8.16584 0.0758953 8.14447 0.0859451 8.12344C1.19457 5.82093 2.91995 3.87329 5.07529 2.491C7.28989 1.07071 9.85729 0.320068 12.4998 0.320068C15.1422 0.320068 17.7098 1.07082 19.9244 2.49123C22.0718 3.86844 23.7924 5.80707 24.9015 8.09849C25.0258 8.33657 25.035 8.62444 24.9142 8.87547C23.8057 11.1783 22.0803 13.1263 19.9247 14.5088C17.71 15.9294 15.1425 16.6801 12.4998 16.6801C9.85717 16.6801 7.28966 15.9294 5.07506 14.5089C2.91949 13.1265 1.19423 11.1787 0.085598 8.87604C-0.0181389 8.66037 -0.0278416 8.41074 0.0582199 8.18755ZM12.4998 14.9472C16.9568 14.9472 21.0966 12.4302 23.1635 8.49992C21.0966 4.56964 16.9568 2.05273 12.4998 2.05273C8.04284 2.05273 3.9029 4.56987 1.83605 8.50003C3.90301 12.43 8.04296 14.9472 12.4998 14.9472Z" fill="#FF0033"/>
<path d="M12.4999 4.69751C14.5965 4.69751 16.3024 6.40337 16.3024 8.50003C16.3024 10.5967 14.5965 12.3025 12.4999 12.3025C10.4032 12.3025 8.69737 10.5967 8.69737 8.50003C8.69737 6.40337 10.4032 4.69751 12.4999 4.69751ZM12.4999 10.5698C13.6411 10.5698 14.5696 9.64123 14.5696 8.50003C14.5696 7.35882 13.6411 6.43028 12.4999 6.43028C11.3587 6.43028 10.4301 7.35882 10.4301 8.50003C10.4301 9.64123 11.3587 10.5698 12.4999 10.5698Z" fill="#FF0033"/>
</svg>
