<svg width="30" height="10" viewBox="0 0 30 10" fill="none" xmlns="http://www.w3.org/2000/svg">
<path d="M11 9.30947L12.5238 0.738037H14.9048L13.4286 9.30947H11Z" fill="#3C58BF"/>
<path d="M11 9.30947L12.9524 0.738037H14.9048L13.4286 9.30947H11Z" fill="#293688"/>
<path d="M22.0476 0.833284C21.5714 0.642807 20.8095 0.452332 19.8571 0.452332C17.4762 0.452332 15.7619 1.64281 15.7619 3.35709C15.7619 4.64281 16.9524 5.30947 17.9048 5.73805C18.8571 6.16662 19.1429 6.45233 19.1429 6.83328C19.1429 7.40471 18.381 7.69043 17.7143 7.69043C16.7619 7.69043 16.2381 7.54757 15.4286 7.21424L15.0952 7.07138L14.7619 9.02376C15.3333 9.26186 16.381 9.49995 17.4762 9.49995C20 9.49995 21.6667 8.30947 21.6667 6.49995C21.6667 5.49995 21.0476 4.73805 19.619 4.119C18.7619 3.69043 18.2381 3.45233 18.2381 3.02376C18.2381 2.64281 18.6667 2.26186 19.619 2.26186C20.4286 2.26186 21 2.40471 21.4286 2.59519L21.6667 2.69043L22.0476 0.833284Z" fill="#3C58BF"/>
<path d="M22.0476 0.833284C21.5714 0.642807 20.8095 0.452332 19.8571 0.452332C17.4762 0.452332 16.1905 1.64281 16.1905 3.35709C16.1905 4.64281 16.9524 5.30947 17.9048 5.73805C18.8571 6.16662 19.1429 6.45233 19.1429 6.83328C19.1429 7.40471 18.381 7.69043 17.7143 7.69043C16.7619 7.69043 16.2381 7.54757 15.4286 7.21424L15.0952 7.07138L14.7619 9.02376C15.3333 9.26186 16.381 9.49995 17.4762 9.49995C20 9.49995 21.6667 8.30947 21.6667 6.49995C21.6667 5.49995 21.0476 4.73805 19.619 4.119C18.7619 3.69043 18.2381 3.45233 18.2381 3.02376C18.2381 2.64281 18.6667 2.26186 19.619 2.26186C20.4286 2.26186 21 2.40471 21.4286 2.59519L21.6667 2.69043L22.0476 0.833284Z" fill="#293688"/>
<path d="M26.1428 0.738037C25.5714 0.738037 25.1428 0.785657 24.9047 1.35709L21.3333 9.30947H23.9047L24.3809 7.8809H27.4286L27.7143 9.30947H30L28 0.738037H26.1428ZM25.0476 6.45232C25.1905 6.02375 26 3.92851 26 3.92851C26 3.92851 26.1905 3.40471 26.3333 3.07137L26.4762 3.8809C26.4762 3.8809 26.9524 6.02375 27.0476 6.49994H25.0476V6.45232Z" fill="#3C58BF"/>
<path d="M26.7143 0.738037C26.1428 0.738037 25.7143 0.785657 25.4762 1.35709L21.3333 9.30947H23.9047L24.3809 7.8809H27.4286L27.7143 9.30947H30L28 0.738037H26.7143ZM25.0476 6.45232C25.2381 5.97613 26 3.92851 26 3.92851C26 3.92851 26.1905 3.40471 26.3333 3.07137L26.4762 3.8809C26.4762 3.8809 26.9524 6.02375 27.0476 6.49994H25.0476V6.45232Z" fill="#293688"/>
<path d="M6.61904 6.73815L6.38094 5.50005C5.95237 4.07148 4.57142 2.50005 3.04761 1.73815L5.19046 9.3572H7.76189L11.619 0.785767H9.04761L6.61904 6.73815Z" fill="#3C58BF"/>
<path d="M6.61904 6.73815L6.38094 5.50005C5.95237 4.07148 4.57142 2.50005 3.04761 1.73815L5.19046 9.3572H7.76189L11.619 0.785767H9.5238L6.61904 6.73815Z" fill="#293688"/>
<path d="M0 0.738037L0.428571 0.833276C3.47619 1.54756 5.57143 3.35708 6.38095 5.49994L5.52381 1.45232C5.38095 0.880894 4.95238 0.738037 4.42857 0.738037H0Z" fill="#FFBC00"/>
<path d="M0 0.738037C3.04762 1.45232 5.57143 3.30947 6.38095 5.45233L5.57143 2.07137C5.42857 1.49994 4.95238 1.16661 4.42857 1.16661L0 0.738037Z" fill="#F7981D"/>
<path d="M0 0.738037C3.04762 1.45232 5.57143 3.30947 6.38095 5.45233L5.80952 3.59518C5.66667 3.02375 5.47619 2.45232 4.80952 2.21423L0 0.738037Z" fill="#ED7C00"/>
<path d="M8.99998 6.45233L7.38093 4.83329L6.61902 6.64281L6.42855 5.45233C5.99998 4.02376 4.61902 2.45233 3.09521 1.69043L5.23807 9.30948H7.8095L8.99998 6.45233Z" fill="#051244"/>
<path d="M13.4286 9.30953L11.381 7.21429L11 9.30953H13.4286Z" fill="#051244"/>
<path d="M18.9048 6.35706C19.0952 6.54753 19.1905 6.69039 19.1429 6.88087C19.1429 7.45229 18.381 7.73801 17.7143 7.73801C16.7619 7.73801 16.2381 7.59515 15.4286 7.26182L15.0952 7.11896L14.7619 9.07134C15.3333 9.30943 16.381 9.54753 17.4762 9.54753C19 9.54753 20.2381 9.11896 20.9524 8.35705L18.9048 6.35706Z" fill="#051244"/>
<path d="M21.6666 9.30957H23.9047L24.3809 7.881H27.4285L27.7142 9.30957H30L29.1904 5.83338L26.3333 3.07147L26.4761 3.83338C26.4761 3.83338 26.9523 5.97623 27.0476 6.45243H25.0476C25.2381 5.97623 26 3.92862 26 3.92862C26 3.92862 26.1904 3.40481 26.3333 3.07147" fill="#051244"/>
</svg>
