<svg width="40" height="40" viewBox="0 0 40 40" fill="none" xmlns="http://www.w3.org/2000/svg">
<g clip-path="url(#clip0_74_744)">
<path d="M18.0161 14.9834H9.02985C8.70618 14.9834 8.44376 15.2457 8.44376 15.5695C8.44376 15.8932 8.70618 16.1556 9.02985 16.1556H18.0161C18.3398 16.1556 18.6022 15.8932 18.6022 15.5695C18.6022 15.2457 18.3398 14.9834 18.0161 14.9834Z" fill="#FF0A2D"/>
<path d="M18.0161 18.042H9.02985C8.70618 18.042 8.44376 18.3043 8.44376 18.6281C8.44376 18.9518 8.70618 19.2142 9.02985 19.2142H18.0161C18.3398 19.2142 18.6022 18.9518 18.6022 18.6281C18.6022 18.3043 18.3398 18.042 18.0161 18.042Z" fill="#FF0A2D"/>
<path d="M18.0161 34.0762H9.02985C8.70618 34.0762 8.44376 34.3385 8.44376 34.6623C8.44376 34.986 8.70618 35.2484 9.02985 35.2484H18.0161C18.3398 35.2484 18.6022 34.986 18.6022 34.6623C18.6022 34.3386 18.3398 34.0762 18.0161 34.0762Z" fill="#FF0A2D"/>
<path d="M33.2082 14.9834H24.222C23.8983 14.9834 23.6359 15.2457 23.6359 15.5695C23.6359 15.8932 23.8983 16.1556 24.222 16.1556H33.2082C33.5319 16.1556 33.7943 15.8932 33.7943 15.5695C33.7943 15.2457 33.532 14.9834 33.2082 14.9834Z" fill="#FF0A2D"/>
<path d="M33.2082 18.042H31.7222C31.3985 18.042 31.1361 18.3043 31.1361 18.6281C31.1361 18.9518 31.3985 19.2142 31.7222 19.2142H33.2082C33.5319 19.2142 33.7943 18.9518 33.7943 18.6281C33.7943 18.3043 33.532 18.042 33.2082 18.042Z" fill="#FF0A2D"/>
<path d="M9.68178 12.1709H32.5561C33.2897 12.1709 33.8865 11.5741 33.8865 10.8406V4.71557C33.8865 3.98205 33.2897 3.38525 32.5561 3.38525H9.68178C8.94819 3.38525 8.35147 3.98205 8.35147 4.71557V6.43166C8.35147 6.75541 8.61389 7.01775 8.93756 7.01775C9.26124 7.01775 9.52366 6.75541 9.52366 6.43166V4.71564C9.52366 4.62846 9.5946 4.5576 9.68178 4.5576H32.5561C32.6433 4.5576 32.7142 4.62854 32.7142 4.71564V10.8406C32.7142 10.9278 32.6433 10.9987 32.5561 10.9987H9.68178C9.5946 10.9987 9.52366 10.9278 9.52366 10.8406V9.14822C9.52366 8.82447 9.26124 8.56213 8.93756 8.56213C8.61389 8.56213 8.35147 8.82447 8.35147 9.14822V10.8406C8.35147 11.5741 8.94827 12.1709 9.68178 12.1709Z" fill="#FF0A2D"/>
<path d="M31.835 27.8248C31.5206 27.7467 31.2029 27.938 31.1247 28.2521C30.5651 30.5012 28.5317 32.2017 26.0652 32.2017C24.6724 32.2017 23.3631 31.6593 22.3782 30.6744C21.3934 29.6896 20.8509 28.3802 20.8509 26.9875C20.8509 25.5947 21.3934 24.2852 22.3782 23.3005C24.4113 21.2673 27.7193 21.2673 29.7523 23.3005C30.4371 23.9852 30.9165 24.8426 31.1385 25.7798C31.2131 26.0948 31.5289 26.2896 31.844 26.2149C32.159 26.1403 32.3538 25.8244 32.2792 25.5095C32.007 24.3606 31.4198 23.3102 30.5811 22.4716C28.091 19.9815 24.0393 19.9815 21.5492 22.4716C19.0592 24.9617 19.0592 29.0134 21.5492 31.5035C22.7943 32.7486 24.4297 33.3711 26.0652 33.3711C29.0417 33.3711 31.5658 31.3346 32.2622 28.5352C32.3405 28.221 32.1492 27.903 31.835 27.8248Z" fill="#FF0A2D"/>
<path d="M38.4936 36.598L37.0641 35.1686V2.35359C37.0641 1.05578 36.0083 0 34.7105 0H7.67828C6.38055 0 5.32477 1.05578 5.32477 2.35359V11.8897H2.70602C1.7225 11.8897 0.922424 12.6898 0.922424 13.6733V37.2123C0.922424 38.7491 2.17282 39.9995 3.70977 39.9995H33.6738C34.3871 39.9995 35.0654 39.7801 35.6345 39.3745L35.6758 39.4159C36.4545 40.1946 37.7148 40.1948 38.4936 39.4159C39.2723 38.6372 39.2723 37.377 38.4936 36.598ZM3.90664 38.8273H3.70969C2.81914 38.8273 2.09461 38.1029 2.09461 37.2123V13.6733C2.09461 13.3362 2.36883 13.0619 2.70602 13.0619H5.32477V37.2252C5.32477 38.0448 4.71649 38.7291 3.90664 38.8273ZM33.6737 38.8273H5.99305C6.31172 38.3729 6.49703 37.8195 6.49703 37.2253V2.35359C6.49703 1.70219 7.02696 1.17227 7.67828 1.17227H34.7105C35.362 1.17227 35.8919 1.70219 35.8919 2.35359V33.9964L33.5292 31.6338C34.3922 30.2532 34.8544 28.656 34.8544 26.9876C34.8544 24.6399 33.9402 22.4328 32.2801 20.7727C28.8532 17.3459 23.2773 17.3459 19.8504 20.7727C19.1866 21.4365 18.6424 22.188 18.228 23.0007H9.02985C8.70617 23.0007 8.44375 23.2631 8.44375 23.5868C8.44375 23.9105 8.70617 24.1729 9.02985 24.1729H17.7348C17.5302 24.7803 17.3923 25.412 17.3248 26.0591H9.02985C8.70617 26.0591 8.44375 26.3215 8.44375 26.6452C8.44375 26.969 8.70617 27.2313 9.02985 27.2313H17.2797C17.3166 28.5948 17.6627 29.9056 18.2845 31.0832C18.204 31.0416 18.1129 31.0178 18.0161 31.0178H9.02985C8.70617 31.0178 8.44375 31.2802 8.44375 31.6039C8.44375 31.9277 8.70617 32.19 9.02985 32.19H18.0161C18.3301 32.19 18.5856 31.943 18.6008 31.6327C18.9523 32.1952 19.3698 32.7218 19.8504 33.2023C21.5638 34.9158 23.8145 35.7724 26.0652 35.7724C27.6796 35.7724 29.294 35.3316 30.7101 34.4501L34.7875 38.5274C34.4528 38.7228 34.0716 38.8273 33.6737 38.8273ZM26.0652 34.6009C24.115 34.6008 22.164 33.8584 20.6793 32.3736C19.2407 30.935 18.4484 29.0222 18.4484 26.9876C18.4484 24.953 19.2406 23.0402 20.6793 21.6016C22.1642 20.1167 24.1148 19.3743 26.0652 19.3743C28.0158 19.3743 29.9663 20.1167 31.4513 21.6016C32.8898 23.0402 33.6822 24.953 33.6822 26.9876C33.6822 28.5729 33.201 30.0843 32.308 31.3551C32.299 31.367 32.2902 31.3788 32.2822 31.3913C30.8484 33.4063 28.5508 34.6012 26.0652 34.6009ZM37.6646 38.587C37.3442 38.9075 36.8252 38.9077 36.5046 38.587C36.4735 38.5559 31.6728 33.7552 31.6728 33.7552C32.0834 33.4145 32.4653 33.038 32.8332 32.5956C33.7788 33.5411 36.822 36.5843 37.6646 37.4269C37.9852 37.7477 37.9853 38.2663 37.6646 38.587Z" fill="#FF0A2D"/>
</g>
<defs>
<clipPath id="clip0_74_744">
<rect width="40" height="40" fill="white"/>
</clipPath>
</defs>
</svg>
