<svg width="70" height="70" viewBox="0 0 70 70" fill="none" xmlns="http://www.w3.org/2000/svg">
<path d="M67.9492 4.23828H18.457C17.3085 4.23828 16.4063 5.14049 16.4063 6.28906V57.5586C16.4063 59.8145 14.5607 61.6602 12.3047 61.6602C11.1561 61.6602 10.2539 62.5624 10.2539 63.7109C10.2539 64.2852 7.62892 64.7773 5.0448 65.1053C6.02917 65.5566 7.09558 65.7617 8.20314 65.7617H59.7461C65.4063 65.7617 70 61.168 70 55.5078V6.28906C70 5.14049 69.0978 4.23828 67.9492 4.23828Z" fill="url(#paint0_linear_158_5290)"/>
<path d="M2.05078 45.2539C0.918203 45.2539 0 46.1721 0 47.3047V57.5586C0 60.9219 2.0918 63.8749 5.00377 65.1053C5.04479 65.1463 5.04479 65.1053 5.04479 65.1053C5.96996 65.5296 6.96773 65.7362 8.00406 65.7595C12.6237 65.8633 16.4062 61.7477 16.4062 57.1268V45.2539H2.05078ZM24.7461 37.0508H41.1523C42.2859 37.0508 43.2031 36.1335 43.2031 35V18.5938C43.2031 17.4602 42.2859 16.543 41.1523 16.543H24.7461C23.6126 16.543 22.6953 17.4602 22.6953 18.5938V35C22.6953 36.1335 23.6126 37.0508 24.7461 37.0508ZM49.4922 20.6445H61.7969C62.9304 20.6445 63.8477 19.7273 63.8477 18.5938C63.8477 17.4602 62.9304 16.543 61.7969 16.543H49.4922C48.3587 16.543 47.4414 17.4602 47.4414 18.5938C47.4414 19.7273 48.3587 20.6445 49.4922 20.6445ZM61.7969 24.7461H49.4922C48.3587 24.7461 47.4414 25.6633 47.4414 26.7969C47.4414 27.9304 48.3587 28.8477 49.4922 28.8477H61.7969C62.9304 28.8477 63.8477 27.9304 63.8477 26.7969C63.8477 25.6633 62.9304 24.7461 61.7969 24.7461ZM61.7969 32.9492H49.4922C48.3587 32.9492 47.4414 33.8665 47.4414 35C47.4414 36.1335 48.3587 37.0508 49.4922 37.0508H61.7969C62.9304 37.0508 63.8477 36.1335 63.8477 35C63.8477 33.8665 62.9304 32.9492 61.7969 32.9492ZM61.7969 41.1523H24.7461C23.6126 41.1523 22.6953 42.0696 22.6953 43.2031C22.6953 44.3367 23.6126 45.2539 24.7461 45.2539H61.7969C62.9304 45.2539 63.8477 44.3367 63.8477 43.2031C63.8477 42.0696 62.9304 41.1523 61.7969 41.1523ZM61.7969 49.3555H24.7461C23.6126 49.3555 22.6953 50.2727 22.6953 51.4062C22.6953 52.5398 23.6126 53.457 24.7461 53.457H61.7969C62.9304 53.457 63.8477 52.5398 63.8477 51.4062C63.8477 50.2727 62.9304 49.3555 61.7969 49.3555Z" fill="url(#paint1_linear_158_5290)"/>
<defs>
<linearGradient id="paint0_linear_158_5290" x1="37.5225" y1="65.7617" x2="37.5225" y2="4.23828" gradientUnits="userSpaceOnUse">
<stop stop-color="#5558FF"/>
<stop offset="1" stop-color="#00C0FF"/>
</linearGradient>
<linearGradient id="paint1_linear_158_5290" x1="31.9238" y1="65.7614" x2="31.9238" y2="16.543" gradientUnits="userSpaceOnUse">
<stop stop-color="#ADDCFF"/>
<stop offset="0.5028" stop-color="#EAF6FF"/>
<stop offset="1" stop-color="#EAF6FF"/>
</linearGradient>
</defs>
</svg>
