<svg width="70" height="70" viewBox="0 0 70 70" fill="none" xmlns="http://www.w3.org/2000/svg">
<path d="M34.0853 63.9844C19.611 63.9844 7.83533 52.2087 7.83533 37.7344C7.83533 23.2601 19.611 11.4844 34.0853 11.4844C48.5596 11.4844 60.3353 23.2601 60.3353 37.7344C60.3353 52.2087 48.5596 63.9844 34.0853 63.9844ZM34.0853 13.6719C20.8172 13.6719 10.0228 24.4662 10.0228 37.7344C10.0228 51.0025 20.8172 61.7969 34.0853 61.7969C47.3535 61.7969 58.1478 51.0025 58.1478 37.7344C58.1478 24.4662 47.3533 13.6719 34.0853 13.6719Z" fill="#289BC3"/>
<path d="M35.179 26.7969C41.8236 26.7969 47.2102 21.4103 47.2102 14.7656C47.2102 8.12095 41.8236 2.73438 35.179 2.73438C28.5343 2.73438 23.1477 8.12095 23.1477 14.7656C23.1477 21.4103 28.5343 26.7969 35.179 26.7969Z" fill="#289BC3"/>
<path d="M43.9289 22.4219C43.9289 19.4016 41.4805 16.9531 38.4602 16.9531H31.8977C28.8775 16.9531 26.429 19.4016 26.429 22.4219V23.0225C28.6225 25.3463 31.7312 26.7969 35.179 26.7969C38.6267 26.7969 41.7354 25.3463 43.9289 23.0225V22.4219Z" fill="#00D2D2"/>
<path d="M35.179 22.4219C33.3667 22.4219 31.8977 20.9528 31.8977 19.1406V16.9531H38.4602V19.1406C38.4602 20.9528 36.9912 22.4219 35.179 22.4219Z" fill="#D7E6F0"/>
<path d="M35.179 15.8594C38.1993 15.8594 40.6477 13.4109 40.6477 10.3906C40.6477 7.37032 38.1993 4.92188 35.179 4.92188C32.1586 4.92188 29.7102 7.37032 29.7102 10.3906C29.7102 13.4109 32.1586 15.8594 35.179 15.8594Z" fill="#FAB991"/>
<path d="M16.5852 67.2656C23.2299 67.2656 28.6165 61.8791 28.6165 55.2344C28.6165 48.5897 23.2299 43.2031 16.5852 43.2031C9.94053 43.2031 4.55396 48.5897 4.55396 55.2344C4.55396 61.8791 9.94053 67.2656 16.5852 67.2656Z" fill="#289BC3"/>
<path d="M25.3352 62.8906C25.3352 59.8704 22.8867 57.4219 19.8665 57.4219H13.304C10.2837 57.4219 7.83521 59.8704 7.83521 62.8906V63.4912C10.0289 65.815 13.1374 67.2656 16.5852 67.2656C20.033 67.2656 23.1417 65.815 25.3352 63.4912V62.8906Z" fill="#00D2D2"/>
<path d="M16.5852 62.8906C14.773 62.8906 13.304 61.4216 13.304 59.6094V57.4219H19.8665V59.6094C19.8665 61.4216 18.3974 62.8906 16.5852 62.8906Z" fill="#D7E6F0"/>
<path d="M16.5852 56.3281C19.6055 56.3281 22.054 53.8797 22.054 50.8594C22.054 47.8391 19.6055 45.3906 16.5852 45.3906C13.5649 45.3906 11.1165 47.8391 11.1165 50.8594C11.1165 53.8797 13.5649 56.3281 16.5852 56.3281Z" fill="#FAB991"/>
<path d="M53.7727 67.2656C60.4174 67.2656 65.804 61.8791 65.804 55.2344C65.804 48.5897 60.4174 43.2031 53.7727 43.2031C47.128 43.2031 41.7415 48.5897 41.7415 55.2344C41.7415 61.8791 47.128 67.2656 53.7727 67.2656Z" fill="#289BC3"/>
<path d="M62.5227 62.8906C62.5227 59.8704 60.0742 57.4219 57.054 57.4219H50.4915C47.4712 57.4219 45.0227 59.8704 45.0227 62.8906V63.4912C47.2162 65.815 50.3249 67.2656 53.7727 67.2656C57.2205 67.2656 60.3292 65.815 62.5227 63.4912V62.8906Z" fill="#00D2D2"/>
<path d="M53.7727 62.8906C51.9605 62.8906 50.4915 61.4216 50.4915 59.6094V57.4219H57.054V59.6094C57.054 61.4216 55.5849 62.8906 53.7727 62.8906Z" fill="#D7E6F0"/>
<path d="M53.7727 56.3281C56.793 56.3281 59.2415 53.8797 59.2415 50.8594C59.2415 47.8391 56.793 45.3906 53.7727 45.3906C50.7524 45.3906 48.304 47.8391 48.304 50.8594C48.304 53.8797 50.7524 56.3281 53.7727 56.3281Z" fill="#FAB991"/>
<path d="M34.0852 50.8594H36.2727C43.5214 50.8594 49.3977 44.9831 49.3977 37.7344C49.3977 30.4857 43.5214 24.6094 36.2727 24.6094H34.0852C26.8365 24.6094 20.9602 30.4857 20.9602 37.7344C20.9602 44.9831 26.8365 50.8594 34.0852 50.8594Z" fill="#E64178"/>
<path d="M34.0852 50.8594C41.3339 50.8594 47.2102 44.9831 47.2102 37.7344C47.2102 30.4856 41.3339 24.6094 34.0852 24.6094C26.8365 24.6094 20.9602 30.4856 20.9602 37.7344C20.9602 44.9831 26.8365 50.8594 34.0852 50.8594Z" fill="#FF6E91"/>
<path d="M34.0852 46.4844C38.9177 46.4844 42.8352 42.5669 42.8352 37.7344C42.8352 32.9019 38.9177 28.9844 34.0852 28.9844C29.2527 28.9844 25.3352 32.9019 25.3352 37.7344C25.3352 42.5669 29.2527 46.4844 34.0852 46.4844Z" fill="#D7E6F0"/>
<path d="M34.0852 42.1094C36.5014 42.1094 38.4602 40.1506 38.4602 37.7344C38.4602 35.3181 36.5014 33.3594 34.0852 33.3594C31.669 33.3594 29.7102 35.3181 29.7102 37.7344C29.7102 40.1506 31.669 42.1094 34.0852 42.1094Z" fill="#FF6E91"/>
<path d="M34.0852 35.5469H15.4914L13.9533 33.2397C13.5477 32.6311 12.8646 32.2656 12.1332 32.2656H6.31006C4.62446 32.2656 3.61903 34.1443 4.55405 35.5469V37.7344H13.2975H36.2728C36.2727 36.5263 35.2933 35.5469 34.0852 35.5469Z" fill="#555A6E"/>
<path d="M13.2974 37.7344H4.55392V39.9219C3.6189 41.3245 4.62433 43.2031 6.30994 43.2031H12.1332C12.8646 43.2031 13.5476 42.8375 13.9533 42.229L15.4914 39.9219H34.0852C35.2934 39.9219 36.2727 38.9424 36.2727 37.7344H13.2974Z" fill="#463C4B"/>
</svg>
