<svg width="30" height="30" viewBox="0 0 30 30" fill="none" xmlns="http://www.w3.org/2000/svg">
<g clip-path="url(#clip0_158_5263)">
<path d="M12.5066 2.00586C6.70984 2.00586 2.01062 6.70508 2.01062 12.5019C2.01062 18.2987 6.70984 22.9979 12.5066 22.9979C18.3034 22.9979 23.0027 18.2987 23.0027 12.5019C22.9964 6.7077 18.3008 2.01217 12.5066 2.00586ZM12.5066 3.00548C15.594 3.00792 18.4871 4.5126 20.2617 7.03895L19.0122 8.28848C18.7081 8.10448 18.36 8.00602 18.0046 8.00359C16.9004 8.00359 16.0053 8.89868 16.0053 10.0028C16.0071 10.3586 16.105 10.7073 16.2887 11.0119L13.0159 14.2847C12.3962 13.9068 11.6174 13.9068 10.9977 14.2847L8.72458 12.0116C8.90832 11.7069 9.00622 11.3583 9.00797 11.0024C9.00934 9.90049 8.11718 9.00608 7.01522 9.00471C6.10388 9.00358 5.30762 9.62003 5.08046 10.5026H3.22616C4.17249 6.13261 8.03534 3.01204 12.5066 3.00548ZM19.0042 10.0028C19.0042 10.5549 18.5567 11.0024 18.0046 11.0024C17.4525 11.0024 17.0049 10.5549 17.0049 10.0028C17.0049 9.45072 17.4525 9.00321 18.0046 9.00321C18.5567 9.00321 19.0042 9.45072 19.0042 10.0028ZM13.0065 16.0006C13.0065 16.5527 12.5589 17.0002 12.0068 17.0002C11.4547 17.0002 11.0072 16.5527 11.0072 16.0006C11.0072 15.4484 11.4547 15.0009 12.0068 15.0009C12.5589 15.0009 13.0065 15.4484 13.0065 16.0006ZM8.00835 11.0024C8.00835 11.5546 7.56083 12.0021 7.00873 12.0021C6.45662 12.0021 6.0091 11.5546 6.0091 11.0024C6.0091 10.4503 6.45662 10.0028 7.00873 10.0028C7.56083 10.0028 8.00835 10.4503 8.00835 11.0024ZM17.1208 20.8054C15.7093 21.5891 14.1212 21.9997 12.5066 21.9982C7.2655 22.0018 3.0138 17.7559 3.01024 12.5148C3.00999 12.1766 3.02786 11.8385 3.06372 11.5022H5.08046C5.30768 12.3822 6.09988 12.9982 7.00873 13.0016C7.36453 12.9999 7.71321 12.902 8.01784 12.7182L10.291 14.9914C10.1072 15.296 10.0093 15.6447 10.0076 16.0005C10.0076 17.1046 10.9027 17.9997 12.0068 17.9997C13.111 17.9997 14.0061 17.1046 14.0061 16.0005C14.0043 15.6447 13.9064 15.296 13.7227 14.9914L16.9954 11.7186C17.3001 11.9024 17.6488 12.0003 18.0046 12.002C19.1087 12.002 20.0038 11.1069 20.0038 10.0028C20.0021 9.64696 19.9042 9.29828 19.7204 8.99365L20.81 7.90456C23.3537 12.4858 21.702 18.2617 17.1208 20.8054Z" fill="#FF0A2D"/>
<path d="M25.0019 5.00459C25.9107 5.00116 26.7029 4.3852 26.9301 3.50516H30V2.50554H26.9301C26.7029 1.6255 25.9107 1.00955 25.0019 1.00611C23.8977 1.00611 23.0026 1.90121 23.0026 3.00535C23.0044 3.36115 23.1023 3.70983 23.286 4.01447L22.4079 4.89264C18.206 -0.581601 10.362 -1.61309 4.88775 2.58876C-0.586484 6.7906 -1.61797 14.6347 2.58388 20.1089C6.55012 25.2762 13.8206 26.5296 19.288 22.9888L20.7965 24.4972L21.5032 25.2039L25.5267 29.2274C26.55 30.2507 28.209 30.2507 29.2323 29.2274C30.2556 28.2041 30.2556 26.5451 29.2323 25.5218L25.2088 21.4983L24.5021 20.7916L22.9936 19.2832C25.6713 15.1587 25.6713 9.84482 22.9936 5.72032L23.9933 4.7207C24.2977 4.90451 24.6463 5.00259 25.0019 5.00459ZM25.0019 2.00573C25.554 2.00573 26.0015 2.45325 26.0015 3.00535C26.0015 3.55745 25.554 4.00497 25.0019 4.00497C24.4498 4.00497 24.0023 3.55745 24.0023 3.00535C24.0023 2.45325 24.4498 2.00573 25.0019 2.00573ZM28.5255 26.2285C29.1657 26.8543 29.1774 27.8805 28.5516 28.5207C27.9258 29.1608 26.8996 29.1725 26.2595 28.5467C26.2507 28.5382 26.242 28.5295 26.2334 28.5207L22.2099 24.4972L24.5021 22.2051L28.5255 26.2285ZM23.7953 21.4983L21.5032 23.7905L20.1197 22.407C20.1902 22.353 20.2562 22.2935 20.3256 22.2381C20.3951 22.1826 20.4756 22.1161 20.5501 22.0536C20.6595 21.9617 20.7675 21.8687 20.8734 21.7732C20.9279 21.7233 20.9799 21.6733 21.0334 21.6233C21.2383 21.4314 21.4367 21.2329 21.6287 21.028C21.6786 20.9745 21.7286 20.9226 21.7786 20.8681C21.8741 20.7621 21.967 20.6542 22.059 20.5447C22.1217 20.4707 22.1831 20.3959 22.2434 20.3203C22.2984 20.2513 22.3579 20.1853 22.4119 20.1149L23.7953 21.4983ZM21.8571 19.1767C21.6996 19.3966 21.5372 19.6121 21.3658 19.8195C21.3158 19.88 21.2623 19.9384 21.2108 19.9979C21.0579 20.1758 20.8999 20.3485 20.737 20.5157C20.666 20.589 20.5939 20.6612 20.5206 20.7321C20.354 20.8951 20.1814 21.053 20.0028 21.2059C19.9433 21.2559 19.8848 21.3104 19.8243 21.3609C19.6169 21.5323 19.4015 21.6948 19.1816 21.8522C14.0075 25.5486 6.81658 24.3508 3.12017 19.1767C-0.576238 14.0027 0.62162 6.81172 5.79566 3.11531C10.9697 -0.581102 18.1607 0.616694 21.8571 5.79079C24.7173 9.7944 24.7173 15.1731 21.8571 19.1767Z" fill="#FF0A2D"/>
</g>
<defs>
<clipPath id="clip0_158_5263">
<rect width="30" height="30" fill="white"/>
</clipPath>
</defs>
</svg>
