<svg width="70" height="70" viewBox="0 0 70 70" fill="none" xmlns="http://www.w3.org/2000/svg">
<g clip-path="url(#clip0_158_4621)">
<path d="M69.381 51.4279C68.5559 52.253 67.2182 52.253 66.3933 51.4279L52.5498 37.5844L55.5375 34.5967L69.3808 48.44C70.2061 49.2651 70.2061 50.6028 69.381 51.4279Z" fill="#484B63"/>
<path d="M43.8193 70.0001H0.546875C0.244863 70.0001 0 69.7552 0 69.4532V8.29346C0 7.99145 0.244863 7.74658 0.546875 7.74658H43.8193C44.1213 7.74658 44.3662 7.99145 44.3662 8.29346V69.4532C44.3662 69.7552 44.1213 70.0001 43.8193 70.0001Z" fill="#D8D5ED"/>
<path d="M12.4815 65.1023H5.12451C4.8225 65.1023 4.57764 64.8574 4.57764 64.5554V42.8323C4.57764 42.5303 4.8225 42.2854 5.12451 42.2854H12.4815C12.7835 42.2854 13.0284 42.5303 13.0284 42.8323V64.5554C13.0284 64.8575 12.7835 65.1023 12.4815 65.1023Z" fill="#FF2C5C"/>
<path d="M25.7207 65.1023H18.3638C18.0618 65.1023 17.8169 64.8574 17.8169 64.5554V34.3816C17.8169 34.0796 18.0618 33.8347 18.3638 33.8347H25.7207C26.0228 33.8347 26.2676 34.0796 26.2676 34.3816V64.5554C26.2676 64.8576 26.0228 65.1023 25.7207 65.1023Z" fill="#FFD659"/>
<path d="M39.2417 65.1023H31.8848C31.5828 65.1023 31.3379 64.8575 31.3379 64.5555V37.4802C31.3379 37.1782 31.5828 36.9333 31.8848 36.9333H39.2417C39.5438 36.9333 39.7886 37.1782 39.7886 37.4802V64.5555C39.7886 64.8576 39.5438 65.1023 39.2417 65.1023Z" fill="#4FC6F5"/>
<path d="M8.80273 42.2854V65.1023H12.4812C12.7832 65.1023 13.028 64.8574 13.028 64.5554V42.8323C13.028 42.5303 12.7832 42.2854 12.4812 42.2854H8.80273Z" fill="#E62753"/>
<path d="M22.042 33.8347V65.1023H25.7204C26.0224 65.1023 26.2673 64.8574 26.2673 64.5554V34.3816C26.2673 34.0796 26.0224 33.8347 25.7204 33.8347H22.042Z" fill="#FFBD54"/>
<path d="M35.5635 36.9333V65.1023H39.2419C39.5439 65.1023 39.7888 64.8575 39.7888 64.5555V37.4802C39.7888 37.1782 39.5439 36.9333 39.2419 36.9333H35.5635Z" fill="#3BB3E3"/>
<path d="M6.26758 14.4377H37.2535C37.8199 14.4377 38.2789 13.9786 38.2789 13.4124C38.2789 12.8461 37.8199 12.387 37.2535 12.387H6.26758C5.70115 12.387 5.24219 12.8461 5.24219 13.4124C5.24219 13.9786 5.70115 14.4377 6.26758 14.4377Z" fill="#50536E"/>
<path d="M37.2534 17.0818H6.26758C5.70115 17.0818 5.24219 17.5409 5.24219 18.1072C5.24219 18.6735 5.70115 19.1326 6.26758 19.1326H37.2535C37.8199 19.1326 38.2789 18.6735 38.2789 18.1072C38.2789 17.5409 37.8198 17.0818 37.2534 17.0818Z" fill="#50536E"/>
<path d="M37.2534 21.7766H6.26758C5.70115 21.7766 5.24219 22.2357 5.24219 22.802C5.24219 23.3683 5.70115 23.8274 6.26758 23.8274H37.2535C37.8199 23.8274 38.2789 23.3683 38.2789 22.802C38.2789 22.2357 37.8198 21.7766 37.2534 21.7766Z" fill="#50536E"/>
<path d="M14.1661 26.4714H6.26758C5.70115 26.4714 5.24219 26.9305 5.24219 27.4968C5.24219 28.0631 5.70115 28.5222 6.26758 28.5222H14.1661C14.7325 28.5222 15.1915 28.0631 15.1915 27.4968C15.1915 26.9305 14.7325 26.4714 14.1661 26.4714Z" fill="#50536E"/>
<path d="M56.4564 38.2296C65.2019 29.4841 65.2019 15.3049 56.4564 6.55946C47.7109 -2.18602 33.5317 -2.18602 24.7862 6.55945C16.0408 15.3049 16.0408 29.4841 24.7862 38.2296C33.5317 46.9751 47.7109 46.9751 56.4564 38.2296Z" fill="#50536E"/>
<path d="M53.469 35.2419C46.3849 42.326 34.8583 42.326 27.774 35.2419C20.6898 28.1578 20.69 16.6312 27.774 9.547C34.8581 2.46278 46.3848 2.46292 53.469 9.547C60.5532 16.6311 60.5531 28.1578 53.469 35.2419Z" fill="#B5FCFF"/>
<path d="M53.469 9.54682C49.3898 5.46768 43.8377 3.73805 38.5088 4.35656C42.4343 4.81225 46.2386 6.54188 49.2435 9.54682C56.3276 16.6309 56.3276 28.1575 49.2435 35.2417C46.2386 38.2467 42.4343 39.9763 38.5088 40.432C43.8377 41.0505 49.3898 39.3209 53.469 35.2417C60.553 28.1577 60.553 16.6309 53.469 9.54682Z" fill="#71F6FC"/>
</g>
<defs>
<clipPath id="clip0_158_4621">
<rect width="70" height="70" fill="white"/>
</clipPath>
</defs>
</svg>
