<svg width="30" height="30" viewBox="0 0 30 30" fill="none" xmlns="http://www.w3.org/2000/svg">
<g clip-path="url(#clip0_158_4615)">
<path d="M21.7186 27.2803C21.8475 28.7409 20.6942 30 19.2283 30H2.72183C1.25558 30 0.102703 28.7405 0.231516 27.2803L1.75358 10.0302C1.86827 8.73031 2.93883 7.75 4.24389 7.75H5.78758V5.1875C5.78758 2.32706 8.11464 0 10.9751 0C13.8355 0 16.1626 2.32706 16.1626 5.1875V7.75006H17.7063C19.0113 7.75006 20.082 8.73038 20.1966 10.0303L20.2326 10.4381C20.2568 10.7131 20.0535 10.9558 19.7784 10.9801C19.5031 11.0042 19.2606 10.8009 19.2364 10.5259L19.2005 10.1182C19.1316 9.33825 18.4893 8.75006 17.7063 8.75006H16.1625V11C16.1625 11.2761 15.9386 11.5 15.6625 11.5C15.3864 11.5 15.1625 11.2761 15.1625 11V8.75006L8.60002 8.75C8.32389 8.75 8.10002 8.52612 8.10002 8.25C8.10002 7.97388 8.32389 7.75 8.60002 7.75L15.1625 7.75006V5.1875C15.1625 2.8785 13.284 1 10.975 1C8.66602 1 6.78752 2.8785 6.78752 5.1875V11C6.78752 11.2761 6.56364 11.5 6.28752 11.5C6.01139 11.5 5.78752 11.2761 5.78752 11V8.75H4.24389C3.46102 8.75 2.81852 9.33806 2.7497 10.1182L1.22764 27.3682C1.15002 28.2471 1.84058 29 2.72183 29H19.2283C20.1106 29 20.8 28.246 20.7225 27.3682L20.6446 26.4851C20.6203 26.21 20.8236 25.9673 21.0987 25.9431C21.3738 25.9187 21.6165 26.1221 21.6407 26.3972L21.7186 27.2803ZM8.10008 25.6875H4.47508C4.19895 25.6875 3.97508 25.9114 3.97508 26.1875C3.97508 26.4636 4.19895 26.6875 4.47508 26.6875H8.10008C8.3762 26.6875 8.60008 26.4636 8.60008 26.1875C8.60008 25.9114 8.3762 25.6875 8.10008 25.6875ZM8.10008 23.1875H4.47508C4.19895 23.1875 3.97508 23.4114 3.97508 23.6875C3.97508 23.9636 4.19895 24.1875 4.47508 24.1875H8.10008C8.3762 24.1875 8.60008 23.9636 8.60008 23.6875C8.60008 23.4114 8.3762 23.1875 8.10008 23.1875ZM17.1064 15.3748C16.4475 15.7797 15.9327 16.3663 15.6178 17.0709C15.5051 17.323 15.6182 17.6187 15.8703 17.7314C16.1224 17.8441 16.4181 17.7311 16.5308 17.4789C16.7633 16.9588 17.1433 16.5258 17.63 16.2267C17.8653 16.0822 17.9388 15.7743 17.7942 15.539C17.6496 15.3037 17.3417 15.2302 17.1064 15.3748ZM28.0273 29.3014C27.5791 29.3014 27.131 29.1308 26.7898 28.7896L22.3338 24.3336C17.9931 26.8023 12.5376 23.6578 12.5376 18.625C12.5376 15.0064 15.4815 12.0625 19.1001 12.0625C22.7186 12.0625 25.6626 15.0064 25.6626 18.625C25.6626 20.7039 24.6906 22.5599 23.1776 23.7632L27.497 28.0826C27.7894 28.375 28.2652 28.375 28.5576 28.0826C28.8501 27.7901 28.8501 27.3143 28.5576 27.0219L25.5367 24.0009C25.3414 23.8057 25.3414 23.4891 25.5367 23.2939C25.732 23.0986 26.0485 23.0986 26.2438 23.2939L29.2647 26.3148C30.365 27.4151 29.579 29.3014 28.0273 29.3014ZM19.1001 24.1875C22.1673 24.1875 24.6626 21.6922 24.6626 18.625C24.6626 15.5578 22.1673 13.0625 19.1001 13.0625C16.0329 13.0625 13.5376 15.5578 13.5376 18.625C13.5376 21.6922 16.0329 24.1875 19.1001 24.1875Z" fill="#FF0A2D"/>
</g>
<defs>
<clipPath id="clip0_158_4615">
<rect width="30" height="30" fill="white"/>
</clipPath>
</defs>
</svg>
