<svg width="30" height="30" viewBox="0 0 30 30" fill="none" xmlns="http://www.w3.org/2000/svg">
<path d="M21.0519 9.64282H8.94812L15 14.8302L21.0519 9.64282Z" fill="#FF0A2D"/>
<path d="M15 16.0715C14.8721 16.0715 14.7484 16.0257 14.6513 15.9422L8.03571 10.2717V20.3572H21.9643V10.2717L15.3487 15.9422C15.2516 16.0257 15.1279 16.0715 15 16.0715Z" fill="#FF0A2D"/>
<path d="M15 0C6.71579 0 0 6.71579 0 15C0 23.2842 6.71579 30 15 30C23.2842 30 30 23.2842 30 15C29.9906 6.71971 23.2803 0.00941685 15 0ZM23.0357 20.8929C23.0357 21.1887 22.7958 21.4286 22.5 21.4286H7.5C7.20415 21.4286 6.96429 21.1887 6.96429 20.8929V9.10714C6.96429 8.8113 7.20415 8.57143 7.5 8.57143H22.5C22.7958 8.57143 23.0357 8.8113 23.0357 9.10714V20.8929Z" fill="#FF0A2D"/>
</svg>
