<svg width="30" height="30" viewBox="0 0 30 30" fill="none" xmlns="http://www.w3.org/2000/svg">
<path d="M15 30C23.2843 30 30 23.2843 30 15C30 6.71573 23.2843 0 15 0C6.71573 0 0 6.71573 0 15C0 23.2843 6.71573 30 15 30Z" fill="#80DD2E"/>
<path d="M14.5803 6.35425C10.0083 6.57175 6.40036 10.3794 6.41413 14.9565C6.41835 16.3505 6.75491 17.6664 7.3487 18.8292L6.43716 23.2539C6.38788 23.4933 6.60374 23.7029 6.84152 23.6465L11.1772 22.6194C12.2911 23.1743 13.5422 23.4947 14.8663 23.5149C19.5394 23.5863 23.4357 19.8759 23.5816 15.2046C23.7376 10.1973 19.6049 6.1149 14.5803 6.35425ZM19.7537 19.6837C18.484 20.9534 16.7957 21.6527 15 21.6527C13.9486 21.6527 12.9418 21.4167 12.0078 20.9515L11.4042 20.6507L8.74581 21.2804L9.30532 18.5643L9.00796 17.9817C8.52304 17.0321 8.27718 16.0054 8.27718 14.9299C8.27718 13.1341 8.9765 11.4459 10.2462 10.1761C11.5045 8.91767 13.2203 8.20717 15.0001 8.20717C16.7957 8.20717 18.484 8.90648 19.7536 10.1761C21.0233 11.4458 21.7226 13.1341 21.7226 14.9297C21.7227 16.7095 21.0121 18.4253 19.7537 19.6837Z" fill="white"/>
<path d="M19.1669 16.7918L17.5037 16.3143C17.2852 16.2517 17.0497 16.3138 16.8904 16.4761L16.4836 16.8903C16.3122 17.0652 16.052 17.1212 15.825 17.0294C15.0383 16.711 13.3833 15.2395 12.9609 14.5037C12.8388 14.2913 12.859 14.026 13.0088 13.8321L13.3637 13.3728C13.5028 13.1929 13.5321 12.9511 13.4402 12.7431L12.7405 11.1606C12.573 10.7816 12.0886 10.6712 11.7722 10.9388C11.308 11.3315 10.7573 11.9279 10.6905 12.5888C10.5724 13.7541 11.0722 15.2229 12.9617 16.9866C15.1447 19.0244 16.893 19.2934 18.0314 19.0177C18.677 18.8614 19.193 18.2346 19.5184 17.7212C19.7406 17.371 19.565 16.9063 19.1669 16.7918Z" fill="white"/>
<path d="M20.8596 8.65485L19.5575 9.98949C19.6238 10.0507 19.6897 10.1123 19.7538 10.1765C21.0236 11.4461 21.7228 13.1345 21.7228 14.93C21.7228 16.7098 21.0122 18.4255 19.7538 19.6839C18.4842 20.9536 16.7959 21.6529 15.0001 21.6529C13.9487 21.6529 12.942 21.417 12.008 20.9518L11.4043 20.651L8.74595 21.2807L8.80091 21.0139L6.44696 23.4263C6.49887 23.5824 6.66405 23.6885 6.84153 23.6465L11.1772 22.6194C12.2911 23.1743 13.5423 23.4947 14.8664 23.5149C19.5394 23.5864 23.4359 19.876 23.5816 15.2046C23.6622 12.6187 22.5988 10.2795 20.8596 8.65485Z" fill="white"/>
<path d="M19.1669 16.7921L17.5038 16.3146C17.2853 16.2519 17.0497 16.314 16.8904 16.4763L16.4837 16.8906C16.3122 17.0654 16.0521 17.1215 15.8251 17.0297C15.3706 16.8457 14.6268 16.277 13.9978 15.6876L12.8416 16.8727C12.8813 16.9106 12.9209 16.9486 12.9618 16.9868C15.1448 19.0246 16.893 19.2936 18.0315 19.0179C18.6771 18.8616 19.1931 18.2348 19.5185 17.7215C19.7406 17.3713 19.565 16.9065 19.1669 16.7921Z" fill="white"/>
</svg>
