<svg width="30" height="30" viewBox="0 0 30 30" fill="none" xmlns="http://www.w3.org/2000/svg">
<path d="M15 30C23.2843 30 30 23.2843 30 15C30 6.71573 23.2843 0 15 0C6.71573 0 0 6.71573 0 15C0 23.2843 6.71573 30 15 30Z" fill="#6F3FAA"/>
<path d="M22.9352 10.5425L22.9303 10.5227C22.5295 8.9024 20.7226 7.16381 19.0632 6.80211L19.0445 6.79824C16.3606 6.28625 13.6392 6.28625 10.9558 6.79824L10.9365 6.80211C9.27776 7.16381 7.47078 8.90252 7.06948 10.5227L7.06502 10.5425C6.56955 12.8052 6.56955 15.1 7.06502 17.3627L7.06948 17.3825C7.45373 18.9336 9.12606 20.5924 10.7235 21.0485V22.8572C10.7235 23.5119 11.5213 23.8334 11.9749 23.3609L13.8074 21.4561C14.2049 21.4783 14.6026 21.4907 15.0001 21.4907C16.3511 21.4907 17.7028 21.3629 19.0445 21.107L19.0631 21.1031C20.7225 20.7414 22.5294 19.0027 22.9302 17.3826L22.9351 17.3628C23.4306 15.1 23.4306 12.8053 22.9352 10.5425ZM21.4849 17.0346C21.2173 18.0917 19.8454 19.4059 18.7554 19.6487C17.3283 19.9201 15.8899 20.036 14.4529 19.9962C14.4243 19.9954 14.3969 20.0066 14.377 20.0271C14.173 20.2364 13.039 21.4006 13.039 21.4006L11.6159 22.8612C11.5118 22.9698 11.329 22.8959 11.329 22.7462V19.7499C11.329 19.7004 11.2937 19.6584 11.245 19.6488C11.2447 19.6487 11.2445 19.6487 11.2442 19.6486C10.1541 19.4058 8.7827 18.0917 8.51463 17.0346C8.06867 14.9893 8.06867 12.9159 8.51463 10.8706C8.7827 9.81353 10.1541 8.49939 11.2442 8.25658C13.7366 7.78256 16.2636 7.78256 18.7554 8.25658C19.846 8.49939 21.2174 9.81353 21.485 10.8706C21.9314 12.916 21.9314 14.9894 21.4849 17.0346Z" fill="white"/>
<path d="M17.3713 18.4176C17.2037 18.3667 17.0441 18.3325 16.8957 18.2711C15.3587 17.6334 13.9442 16.8107 12.8239 15.5497C12.1867 14.8327 11.688 14.0231 11.2665 13.1663C11.0666 12.76 10.8981 12.3379 10.7264 11.9183C10.5698 11.5358 10.8004 11.1407 11.0433 10.8524C11.2711 10.5819 11.5644 10.3749 11.882 10.2223C12.1298 10.1032 12.3743 10.1719 12.5553 10.3819C12.9466 10.8362 13.3061 11.3136 13.5971 11.8401C13.7761 12.1639 13.727 12.5598 13.4026 12.7802C13.3237 12.8337 13.2519 12.8967 13.1785 12.9571C13.114 13.0102 13.0534 13.0637 13.0093 13.1355C12.9286 13.2668 12.9247 13.4218 12.9766 13.5646C13.3766 14.6639 14.0509 15.5187 15.1574 15.9792C15.3345 16.0529 15.5123 16.1386 15.7163 16.1149C16.0579 16.075 16.1685 15.7002 16.4079 15.5044C16.6419 15.3131 16.941 15.3106 17.193 15.4701C17.4451 15.6297 17.6894 15.8009 17.9324 15.9741C18.1708 16.144 18.4082 16.3101 18.6281 16.5039C18.8396 16.6901 18.9125 16.9345 18.7933 17.1872C18.5754 17.6501 18.2581 18.0352 17.8005 18.281C17.6713 18.3503 17.517 18.3727 17.3713 18.4176C17.2037 18.3667 17.517 18.3727 17.3713 18.4176Z" fill="white"/>
<path d="M15.0042 9.69306C17.0145 9.74942 18.6657 11.0835 19.0196 13.071C19.0799 13.4097 19.1013 13.7559 19.1281 14.0997C19.1394 14.2442 19.0575 14.3816 18.9016 14.3835C18.7404 14.3854 18.6679 14.2505 18.6574 14.1061C18.6367 13.82 18.6224 13.5326 18.5829 13.2491C18.3749 11.7515 17.1807 10.5125 15.6901 10.2466C15.4657 10.2066 15.2363 10.1961 15.009 10.1723C14.8654 10.1572 14.6773 10.1486 14.6455 9.96997C14.6188 9.82026 14.7452 9.70108 14.8877 9.69341C14.9263 9.69112 14.9653 9.69294 15.0042 9.69306C17.0146 9.74942 14.9653 9.69294 15.0042 9.69306Z" fill="white"/>
<path d="M18.0593 13.6536C18.056 13.6787 18.0543 13.7377 18.0395 13.7933C17.9862 13.9951 17.6801 14.0203 17.6097 13.8167C17.5888 13.7563 17.5857 13.6875 17.5856 13.6225C17.5849 13.1967 17.4924 12.7714 17.2776 12.4009C17.0569 12.0201 16.7196 11.7001 16.3242 11.5063C16.085 11.3892 15.8264 11.3164 15.5643 11.2731C15.4497 11.2541 15.334 11.2427 15.2188 11.2266C15.0793 11.2073 15.0048 11.1184 15.0115 10.9809C15.0176 10.8521 15.1118 10.7594 15.2522 10.7674C15.7135 10.7935 16.1591 10.8934 16.5694 11.1105C17.4034 11.5523 17.8799 12.2494 18.019 13.1804C18.0252 13.2226 18.0353 13.2644 18.0385 13.3067C18.0464 13.4111 18.0514 13.5157 18.0593 13.6536C18.056 13.6786 18.0514 13.5157 18.0593 13.6536Z" fill="white"/>
<path d="M16.8089 13.6048C16.6408 13.6078 16.5508 13.5146 16.5334 13.3605C16.5214 13.2531 16.5117 13.1441 16.4861 13.0394C16.4356 12.8334 16.3261 12.6425 16.1527 12.5162C16.0709 12.4566 15.9782 12.4132 15.8811 12.3851C15.7578 12.3494 15.6296 12.3592 15.5066 12.3291C15.3729 12.2964 15.299 12.1881 15.32 12.0627C15.3391 11.9486 15.4501 11.8595 15.5748 11.8686C16.3542 11.9249 16.9113 12.3278 16.9908 13.2454C16.9965 13.3101 17.0031 13.3785 16.9887 13.4406C16.964 13.5465 16.8855 13.5996 16.8089 13.6048C16.6407 13.6077 16.8855 13.5996 16.8089 13.6048Z" fill="white"/>
<path d="M22.9352 10.5425L22.9302 10.5227C22.7056 9.61442 22.0389 8.66906 21.2042 7.94977L20.0757 8.94985C20.7467 9.48451 21.3217 10.2252 21.485 10.8705C21.9315 12.9159 21.9315 14.9892 21.485 17.0346C21.2174 18.0917 19.8455 19.4058 18.7554 19.6487C17.3284 19.9201 15.89 20.036 14.453 19.9962C14.4244 19.9954 14.3969 20.0065 14.3771 20.0271C14.1731 20.2363 13.0391 21.4006 13.0391 21.4006L11.616 22.8612C11.5119 22.9697 11.3291 22.896 11.3291 22.7462V19.7499C11.3291 19.7004 11.2938 19.6584 11.2451 19.6488C11.2448 19.6488 11.2446 19.6487 11.2443 19.6487C10.6248 19.5107 9.91469 19.0265 9.36766 18.4404L8.25262 19.4285C8.94901 20.186 9.84719 20.7984 10.7234 21.0486V22.8573C10.7234 23.512 11.5212 23.8335 11.9748 23.361L13.8073 21.4562C14.2048 21.4784 14.6024 21.4908 15 21.4908C16.351 21.4908 17.7027 21.363 19.0444 21.1071L19.0631 21.1033C20.7224 20.7416 22.5293 19.003 22.9301 17.3827L22.935 17.3629C23.4306 15.1 23.4306 12.8053 22.9352 10.5425Z" fill="white"/>
<path d="M17.3713 18.4176C17.517 18.3727 17.2037 18.3666 17.3713 18.4176V18.4176Z" fill="white"/>
<path d="M18.6282 16.5038C18.4083 16.3101 18.1708 16.1439 17.9325 15.9739C17.6895 15.8008 17.4452 15.6296 17.1931 15.47C16.941 15.3105 16.642 15.313 16.408 15.5043C16.1686 15.7001 16.058 16.0748 15.7164 16.1147C15.5124 16.1385 15.3346 16.0527 15.1575 15.9791C14.4767 15.6959 13.9601 15.2627 13.5697 14.7159L12.7401 15.4512C12.7682 15.4839 12.7951 15.5174 12.8238 15.5496C13.9442 16.8106 15.3587 17.6333 16.8956 18.2709C17.0439 18.3325 17.2037 18.3667 17.3712 18.4175C17.517 18.3727 17.2037 18.3666 17.3712 18.4175C17.517 18.3727 17.6712 18.3501 17.8006 18.2808C18.2582 18.035 18.5754 17.6499 18.7934 17.187C18.9126 16.9344 18.8397 16.69 18.6282 16.5038Z" fill="white"/>
<path d="M15.01 9.69434C15.0081 9.69434 15.0062 9.69414 15.0043 9.69414C15.0025 9.69401 15.0049 9.69414 15.01 9.69434Z" fill="white"/>
<path d="M15.0052 9.69293C15.0069 9.69293 15.0086 9.69311 15.0103 9.69311C15.1219 9.69709 16.9364 9.74708 15.0052 9.69293Z" fill="white"/>
<path d="M17.8879 10.8889L17.5341 11.2025C18.09 11.7433 18.4733 12.46 18.5829 13.2488C18.6223 13.5325 18.6367 13.8198 18.6574 14.1059C18.6679 14.2504 18.7403 14.3853 18.9016 14.3834C19.0576 14.3815 19.1395 14.2442 19.1282 14.0996C19.1013 13.7558 19.0799 13.4096 19.0196 13.0709C18.8647 12.2009 18.4612 11.4562 17.8879 10.8889Z" fill="white"/>
<path d="M18.0188 13.18C17.9175 12.5016 17.6361 11.948 17.1687 11.5262L16.8159 11.8388C16.9983 12.0007 17.1561 12.1909 17.2776 12.4006C17.4924 12.7711 17.5849 13.1965 17.5856 13.6222C17.5857 13.6872 17.5888 13.756 17.6097 13.8166C17.6802 14.0203 17.9862 13.995 18.0395 13.7931C18.0543 13.7375 18.056 13.6785 18.0593 13.6534C18.056 13.6786 18.0512 13.5156 18.0593 13.6534C18.0512 13.5156 18.0463 13.4109 18.0384 13.3064C18.0353 13.2639 18.0252 13.2222 18.0188 13.18Z" fill="white"/>
<path d="M18.0593 13.6535C18.0513 13.5156 18.0559 13.6785 18.0593 13.6535V13.6535Z" fill="white"/>
<path d="M16.8089 13.6047C16.8116 13.6045 16.8141 13.6032 16.8166 13.6029C16.8095 13.6029 16.7986 13.6031 16.7874 13.6035C16.7947 13.6037 16.8013 13.6048 16.8089 13.6047Z" fill="white"/>
<path d="M16.8089 13.6052C16.8013 13.6054 16.7947 13.6042 16.7874 13.604C16.751 13.605 16.7135 13.6069 16.8089 13.6052Z" fill="white"/>
<path d="M16.8166 13.6029C16.8139 13.6032 16.8114 13.6045 16.8089 13.6047C16.8286 13.6034 16.8269 13.6029 16.8166 13.6029Z" fill="white"/>
<path d="M16.4539 12.1597L16.0948 12.478C16.1147 12.49 16.134 12.5026 16.1529 12.5162C16.3262 12.6425 16.4357 12.8334 16.4862 13.0395C16.5119 13.1441 16.5214 13.253 16.5335 13.3605C16.5501 13.5078 16.6337 13.5983 16.7875 13.6036C16.7987 13.6033 16.8098 13.6031 16.8167 13.603C16.8908 13.5948 16.965 13.5429 16.9888 13.4405C17.0031 13.3785 16.9966 13.31 16.9909 13.2453C16.9462 12.7323 16.7523 12.3803 16.4539 12.1597Z" fill="white"/>
</svg>
