<svg width="14" height="12" viewBox="0 0 14 12" fill="none" xmlns="http://www.w3.org/2000/svg">
<path d="M9.77083 6.32975L5.10416 10.8298C5.00197 10.9291 4.85797 10.9896 4.70377 10.9981C4.54956 11.0065 4.39775 10.9622 4.28166 10.8748C4.16576 10.7872 4.09513 10.6637 4.08529 10.5316C4.07545 10.3994 4.12719 10.2693 4.22916 10.1698L8.55166 5.99975L4.22916 1.82975C4.13487 1.72942 4.08941 1.60176 4.10226 1.47339C4.1151 1.34503 4.18525 1.22587 4.29809 1.14076C4.41093 1.05565 4.55774 1.01115 4.70792 1.01655C4.85809 1.02196 5.00004 1.07684 5.10416 1.16975L9.77083 5.66975C9.86435 5.761 9.91592 5.8783 9.91592 5.99975C9.91592 6.12121 9.86435 6.23851 9.77083 6.32975Z" fill="#FF0A2D"/>
</svg>
