<svg width="12" height="8" viewBox="0 0 12 8" fill="none" xmlns="http://www.w3.org/2000/svg">
<path d="M6.06106 7.0442L11.065 2.10526C11.1808 1.99103 11.2446 1.83854 11.2446 1.67595C11.2446 1.51335 11.1808 1.36086 11.065 1.24663L10.6966 0.882912C10.4565 0.646238 10.0663 0.646238 9.82661 0.882912L5.62462 5.03026L1.41798 0.878311C1.30215 0.764079 1.14774 0.701008 0.983098 0.701008C0.81827 0.701008 0.663863 0.764079 0.547944 0.878311L0.179617 1.24203C0.0637894 1.35635 -2.09808e-05 1.50875 -2.09808e-05 1.67135C-2.09808e-05 1.83394 0.0637894 1.98643 0.179617 2.10066L5.1881 7.0442C5.30429 7.15871 5.45943 7.2216 5.62435 7.22124C5.78991 7.2216 5.94496 7.15871 6.06106 7.0442Z" fill="#F0F0F0"/>
</svg>
