<svg width="40" height="32" viewBox="0 0 40 32" fill="none" xmlns="http://www.w3.org/2000/svg">
<path d="M28 0.333344C26.5293 0.333344 25.3334 1.52936 25.3334 2.99998V3.48202L9.75205 9.71405C9.49939 9.81608 9.33337 10.0607 9.33337 10.3333V19.6667C9.33337 19.9394 9.49939 20.184 9.75205 20.2854L25.3334 26.5174V27.0001C25.3334 28.4708 26.5294 29.6667 28 29.6667C29.4706 29.6667 30.6667 28.4707 30.6667 27.0001V2.99998C30.6667 1.52928 29.4707 0.333344 28 0.333344ZM29.3334 27C29.3334 27.7353 28.7354 28.3333 28 28.3333C27.2646 28.3333 26.6667 27.7354 26.6667 27V26.0666C26.6667 25.7933 26.5006 25.5487 26.2474 25.4473L10.6667 19.2153V10.7847L26.2474 4.55264C26.5007 4.45061 26.6667 4.206 26.6667 3.93334V2.99998C26.6667 2.26467 27.2646 1.66662 28 1.66662C28.7354 1.66662 29.3334 2.26459 29.3334 2.99998V27Z" fill="#FF0A2D"/>
<path d="M10 9.6666H5.33336C2.39266 9.6666 0 12.0593 0 15C0 17.9407 2.39266 20.3333 5.33336 20.3333H10C10.368 20.3333 10.6666 20.0353 10.6666 19.6667V10.3333C10.6666 9.96527 10.368 9.6666 10 9.6666ZM9.33336 19H5.33336C3.12734 19 1.33336 17.206 1.33336 15C1.33336 12.7939 3.12734 11 5.33336 11H9.33336V19Z" fill="#FF0A2D"/>
<path d="M34.2107 12.3673L30.2107 11.034C30.0067 10.9666 29.7847 11.0006 29.61 11.126C29.436 11.2513 29.3334 11.4526 29.3334 11.6667V18.3333C29.3334 18.5473 29.436 18.7487 29.61 18.8747C29.7253 18.9573 29.862 19 30 19C30.0707 19 30.142 18.9887 30.2107 18.9653L34.2107 17.6319C34.4834 17.5419 34.6667 17.2873 34.6667 16.9999V12.9999C34.6666 12.7126 34.4834 12.4587 34.2107 12.3673ZM33.3334 16.5193L30.6667 17.408V12.5913L33.3334 13.48V16.5193Z" fill="#FF0A2D"/>
<path d="M13.2714 27.9953L12.6021 27.3253L10.6467 19.5053C10.5728 19.2087 10.306 19 10.0001 19H4.66667C4.46268 19 4.27065 19.0934 4.14401 19.252C4.01737 19.412 3.97065 19.6207 4.01737 19.8194L6.68401 31.1527C6.75667 31.4587 7.02932 31.6667 7.33268 31.6667C7.37472 31.6667 7.41667 31.6627 7.45932 31.6541L12.466 30.6874C12.4726 30.6861 12.4793 30.6848 12.486 30.6834C12.7793 30.6174 13.0473 30.4708 13.2607 30.2608C13.5646 29.9601 13.7333 29.5601 13.736 29.1321C13.7387 28.7047 13.5747 28.302 13.2714 27.9953ZM12.324 29.3113C12.29 29.3453 12.2474 29.3687 12.2007 29.3806L7.83597 30.224L5.50862 20.3333H9.47933L11.354 27.828C11.3833 27.9453 11.444 28.0527 11.5293 28.138L12.3267 28.9353C12.394 29.0027 12.4033 29.082 12.4033 29.124C12.4027 29.1647 12.3921 29.244 12.324 29.3113Z" fill="#FF0A2D"/>
<path d="M40 14.3334H36V15.6667H40V14.3334Z" fill="#FF0A2D"/>
<path d="M38.9886 6.42973L35.6556 8.43011L36.3417 9.57327L39.6747 7.57288L38.9886 6.42973Z" fill="#FF0A2D"/>
<path d="M36.3477 20.428L35.6617 21.5714L38.9951 23.5714L39.6811 22.428L36.3477 20.428Z" fill="#FF0A2D"/>
<path d="M26.6667 3.6666H25.3334V26.3332H26.6667V3.6666Z" fill="#FF0A2D"/>
<path d="M7.99999 12.3334H6.66663V15H7.99999V12.3334Z" fill="#FF0A2D"/>
<path d="M5.33336 12.3334H4V15H5.33336V12.3334Z" fill="#FF0A2D"/>
</svg>
