<svg width="40" height="40" viewBox="0 0 40 40" fill="none" xmlns="http://www.w3.org/2000/svg">
<path d="M7.03522 30.9335C6.47522 30.9335 5.93689 31.0733 5.45929 31.3358C2.94342 28.1107 1.5625 24.1043 1.5625 20C1.5625 9.83337 9.83337 1.5625 20 1.5625C21.236 1.5625 22.4713 1.68549 23.6719 1.9281C24.0942 2.01355 24.5068 1.74011 24.5923 1.31714C24.6777 0.894165 24.4043 0.482178 23.9813 0.396423C22.6791 0.133362 21.3397 0 20 0C14.6579 0 9.63531 2.08038 5.85785 5.85785C2.08038 9.63531 0 14.6579 0 20C0 24.4937 1.52588 28.8791 4.30389 32.3947C3.94623 32.9291 3.75397 33.5571 3.75397 34.2148C3.75397 35.0912 4.09546 35.9152 4.71527 36.5347C5.33478 37.1545 6.15875 37.496 7.03522 37.496C7.91168 37.496 8.73566 37.1545 9.35547 36.5347C9.97528 35.9152 10.3165 35.0909 10.3165 34.2145C10.3165 33.3383 9.97528 32.514 9.35547 31.8945C8.73566 31.2747 7.91168 30.9335 7.03522 30.9335ZM8.25043 35.43C7.92603 35.7547 7.4942 35.9335 7.03522 35.9335C6.57623 35.9335 6.14471 35.7547 5.82001 35.43C5.4953 35.1053 5.31647 34.6738 5.31647 34.2148C5.31647 33.7555 5.4953 33.324 5.82001 32.9993C6.14441 32.6746 6.57623 32.496 7.03522 32.496C7.4942 32.496 7.92572 32.6749 8.25043 32.9993C8.57513 33.324 8.75397 33.7555 8.75397 34.2148C8.75397 34.6738 8.57513 35.1053 8.25043 35.43Z" fill="#FF0A2D"/>
<path d="M35.6955 7.60439C36.5448 6.33028 36.4084 4.58833 35.285 3.46498C34.6652 2.84547 33.8412 2.50398 32.9648 2.50398C32.0883 2.50398 31.2643 2.84547 30.6445 3.46498C30.0247 4.08479 29.6835 4.90877 29.6835 5.78523C29.6835 6.6617 30.0247 7.48567 30.6445 8.10548C31.2643 8.7253 32.0883 9.06648 32.9648 9.06648C33.5248 9.06648 34.0631 8.92671 34.5407 8.66426C37.0566 11.8897 38.4375 15.8957 38.4375 20C38.4375 30.1666 30.1666 38.4375 20 38.4375C18.7762 38.4375 17.5525 38.317 16.3632 38.0789C15.9402 37.9944 15.5285 38.2688 15.4437 38.6917C15.3592 39.115 15.6335 39.5264 16.0565 39.6112C17.3465 39.8691 18.6734 40 20 40C25.3421 40 30.3647 37.9196 34.1421 34.1422C37.9196 30.3647 40 25.3421 40 20C40 15.506 38.4738 11.1203 35.6955 7.60439ZM31.7495 7.00075C31.4248 6.67604 31.246 6.24452 31.246 5.78523C31.246 5.32625 31.4248 4.89473 31.7495 4.57002C32.074 4.24532 32.5058 4.06648 32.9648 4.06648C33.4237 4.06648 33.8556 4.24532 34.1803 4.57002C34.8501 5.24019 34.8501 6.33058 34.1803 7.00075C33.8556 7.32515 33.4237 7.50398 32.9648 7.50398C32.5055 7.50398 32.074 7.32515 31.7495 7.00075Z" fill="#FF0A2D"/>
<path d="M16.7761 33.4375C16.7761 33.869 17.1262 34.2188 17.5574 34.2188H22.4423C22.8738 34.2188 23.2236 33.869 23.2236 33.4375V31.9229C24.2508 31.6464 25.2329 31.2393 26.1557 30.7077L27.225 31.777C27.3715 31.9235 27.5702 32.0059 27.7777 32.0059C27.9846 32.0059 28.1836 31.9235 28.3301 31.7767L31.7828 28.3215C32.0877 28.0164 32.0877 27.5217 31.7828 27.2168L30.7147 26.1487C31.2463 25.2258 31.6534 24.2438 31.9299 23.2166H33.4387C33.8702 23.2166 34.22 22.8668 34.22 22.4353V17.5504C34.22 17.1188 33.8702 16.7691 33.4387 16.7691H31.9296C31.6531 15.7422 31.2463 14.7601 30.7147 13.8373L31.777 12.775C31.9235 12.6285 32.0059 12.4295 32.0059 12.2223C32.0056 12.0151 31.9232 11.8161 31.7767 11.6696L28.3212 8.21686C28.0164 7.91199 27.5217 7.91199 27.2165 8.21716L26.1557 9.27826C25.2329 8.74664 24.2508 8.33954 23.2236 8.06305V6.5625C23.2236 6.13098 22.8738 5.78125 22.4423 5.78125H17.5574C17.1262 5.78125 16.7761 6.13098 16.7761 6.5625V8.06335C15.7492 8.33954 14.7672 8.74664 13.8443 9.27826L12.7832 8.21716C12.4783 7.91229 11.9836 7.91199 11.6785 8.21686L8.22327 11.6699C8.07648 11.8164 7.99408 12.0151 7.99408 12.2223C7.99408 12.4295 8.07648 12.6285 8.22296 12.775L9.28528 13.8373C8.75366 14.7601 8.34656 15.7419 8.07007 16.7691H6.56403C6.13251 16.7691 5.78278 17.1188 5.78278 17.55L5.78003 22.435C5.77972 22.6422 5.86212 22.8412 6.00861 22.9877C6.15509 23.1342 6.35376 23.2166 6.56128 23.2166H8.07007C8.34656 24.2438 8.75366 25.2258 9.28528 26.1487L8.21716 27.2168C7.91229 27.5217 7.91199 28.0164 8.21716 28.3215L11.6699 31.7767C11.8164 31.9232 12.0151 32.0059 12.2223 32.0059H12.2226C12.4298 32.0059 12.6285 31.9235 12.775 31.777L13.844 30.7077C14.7672 31.2393 15.7492 31.6464 16.7761 31.9229V33.4375ZM14.1504 29.0646C13.8412 28.8647 13.4344 28.9081 13.1738 29.1684L12.2226 30.1196L9.87427 27.7695L10.8246 26.8188C11.0849 26.5585 11.1282 26.1517 10.9283 25.8426C10.22 24.7464 9.72199 23.5449 9.44855 22.2711C9.37103 21.9113 9.05304 21.6541 8.68469 21.6541H7.34284L7.34467 18.3316H8.68469C9.05304 18.3316 9.37103 18.0746 9.44855 17.7145C9.72199 16.441 10.22 15.2396 10.9283 14.1434C11.1282 13.8342 11.0849 13.4274 10.8246 13.1671L9.88037 12.2226L12.2305 9.87427L13.1738 10.8179C13.4344 11.0782 13.8409 11.1212 14.1504 10.9216C15.2463 10.2133 16.4478 9.71527 17.7216 9.44183C18.0814 9.36432 18.3386 9.04602 18.3386 8.67798V7.34375H21.6611V8.67767C21.6611 9.04602 21.918 9.36432 22.2781 9.44153C23.5516 9.71527 24.7534 10.213 25.8493 10.9213C26.1584 11.1212 26.5652 11.0782 26.8256 10.8176L27.7692 9.87427L30.1193 12.2226L29.1751 13.1668C28.9145 13.4274 28.8715 13.8342 29.0714 14.1434C29.7797 15.2396 30.2774 16.441 30.5511 17.7145C30.6284 18.0746 30.9467 18.3316 31.315 18.3316H32.6575V21.6541H31.315C30.9467 21.6541 30.6287 21.9113 30.5511 22.2711C30.2777 23.5446 29.7797 24.7464 29.0714 25.8423C28.8715 26.1517 28.9148 26.5585 29.1751 26.8188L30.1254 27.7692L27.7771 30.1193L26.8259 29.1684C26.5652 28.9078 26.1584 28.8647 25.8493 29.0646C24.7531 29.7729 23.5516 30.2707 22.2781 30.5444C21.918 30.6219 21.6611 30.9399 21.6611 31.3083V32.6562H18.3386V31.3083C18.3386 30.9402 18.0814 30.6219 17.7216 30.5444C16.4481 30.271 15.2466 29.7729 14.1504 29.0646Z" fill="#FF0A2D"/>
<path d="M26.4554 20C26.4554 16.4405 23.5596 13.5446 20 13.5446C16.4404 13.5446 13.5446 16.4405 13.5446 20C13.5446 23.5596 16.4404 26.4554 20 26.4554C23.5596 26.4554 26.4554 23.5596 26.4554 20ZM15.1071 20C15.1071 17.302 17.3019 15.1071 20 15.1071C22.6981 15.1071 24.8929 17.3023 24.8929 20C24.8929 22.6978 22.6981 24.8929 20 24.8929C17.3019 24.8929 15.1071 22.6981 15.1071 20Z" fill="#FF0A2D"/>
<path d="M27.1936 2.95474C27.3993 2.95474 27.6007 2.87112 27.746 2.72586C27.8912 2.57968 27.9749 2.37827 27.9749 2.17258C27.9749 1.96811 27.8915 1.76639 27.746 1.62021C27.6007 1.47495 27.3993 1.39133 27.1936 1.39133C26.9873 1.39133 26.7868 1.47495 26.6415 1.62021C26.496 1.76639 26.4124 1.96719 26.4124 2.17258C26.4124 2.37888 26.496 2.57968 26.6415 2.72586C26.7868 2.87112 26.9873 2.95474 27.1936 2.95474Z" fill="#FF0A2D"/>
<path d="M12.8406 37.0593C12.6352 37.0593 12.4335 37.1429 12.2882 37.2882C12.1429 37.4334 12.0593 37.6351 12.0593 37.8405C12.0593 38.0468 12.1429 38.2476 12.2882 38.3929C12.4335 38.5382 12.6352 38.6218 12.8406 38.6218C13.046 38.6218 13.2477 38.5382 13.3929 38.3929C13.5382 38.2476 13.6218 38.0459 13.6218 37.8405C13.6218 37.6351 13.5382 37.4334 13.3929 37.2882C13.2477 37.1429 13.046 37.0593 12.8406 37.0593Z" fill="#FF0A2D"/>
</svg>
