<svg width="40" height="36" viewBox="0 0 40 36" fill="none" xmlns="http://www.w3.org/2000/svg">
<path d="M15.7819 26.0313C15.6308 26.0313 15.4786 25.9794 15.3545 25.8736L11.0812 22.2349C10.9338 22.1092 10.849 21.9257 10.849 21.7319C10.849 21.5384 10.9341 21.3549 11.0812 21.2292L15.3545 17.5905C15.6319 17.3539 16.0487 17.3875 16.2853 17.665C16.5215 17.9428 16.4884 18.3596 16.2105 18.5958L12.5279 21.7319L16.2105 24.8679C16.4884 25.1045 16.5215 25.5213 16.2853 25.7988C16.1545 25.9525 15.9688 26.0313 15.7819 26.0313Z" fill="#FF0A2D"/>
<path d="M24.2181 26.0313C24.0312 26.0313 23.8455 25.9525 23.7151 25.7988C23.4785 25.5213 23.512 25.1045 23.7895 24.8679L27.4721 21.7319L23.7895 18.5958C23.512 18.3596 23.4785 17.9428 23.7151 17.665C23.9513 17.3875 24.3684 17.3539 24.6456 17.5905L28.9188 21.2292C29.0662 21.3549 29.151 21.5384 29.151 21.7319C29.151 21.9257 29.0662 22.1092 28.9188 22.2349L24.6456 25.8736C24.5214 25.9794 24.3692 26.0313 24.2181 26.0313Z" fill="#FF0A2D"/>
<path d="M18.4872 28.7606C18.4419 28.7606 18.3962 28.7558 18.3501 28.7462C17.9934 28.671 17.7649 28.3206 17.8401 27.9638L20.5034 15.319C20.5785 14.9623 20.9286 14.7338 21.2857 14.809C21.6425 14.8842 21.8709 15.2343 21.7958 15.5914L19.1325 28.2362C19.0669 28.5472 18.7927 28.7606 18.4872 28.7606Z" fill="#FF0A2D"/>
<path d="M35.566 35.6496H4.43396C1.98924 35.6496 0 33.6607 0 31.2156V4.79244C0 2.34772 1.98924 0.358482 4.43396 0.358482H35.566C38.0108 0.358482 40 2.34772 40 4.79244V31.2156C40 33.6607 38.0108 35.6496 35.566 35.6496ZM4.43396 1.67924C2.71742 1.67924 1.32075 3.07591 1.32075 4.79244V31.2156C1.32075 32.9322 2.71742 34.3289 4.43396 34.3289H35.566C37.2826 34.3289 38.6792 32.9322 38.6792 31.2156V4.79244C38.6792 3.07591 37.2826 1.67924 35.566 1.67924H4.43396Z" fill="#FF0A2D"/>
<path d="M39.3396 10.933H0.660377C0.295548 10.933 0 10.6375 0 10.2726C0 9.90817 0.295548 9.61225 0.660377 9.61225H39.3396C39.7045 9.61225 40 9.90817 40 10.2726C40 10.6375 39.7045 10.933 39.3396 10.933Z" fill="#FF0A2D"/>
<path d="M11.2832 7.77303C10.1312 7.77303 9.19336 6.83517 9.19336 5.68319C9.19336 4.53085 10.1312 3.59335 11.2832 3.59335C12.4355 3.59335 13.373 4.53085 13.373 5.68319C13.373 6.83517 12.4355 7.77303 11.2832 7.77303ZM11.2832 4.9141C10.8594 4.9141 10.5141 5.25903 10.5141 5.68319C10.5141 6.10735 10.8594 6.45228 11.2832 6.45228C11.7074 6.45228 12.0523 6.10735 12.0523 5.68319C12.0523 5.25903 11.7074 4.9141 11.2832 4.9141Z" fill="#FF0A2D"/>
<path d="M4.86218 7.75275C3.70984 7.75275 2.77234 6.81525 2.77234 5.6629C2.77234 4.51056 3.70984 3.57306 4.86218 3.57306C6.01453 3.57306 6.95203 4.51056 6.95203 5.6629C6.95203 6.81525 6.01453 7.75275 4.86218 7.75275ZM4.86218 4.89381C4.43839 4.89381 4.09309 5.23911 4.09309 5.6629C4.09309 6.08706 4.43839 6.43199 4.86218 6.43199C5.28634 6.43199 5.63127 6.08706 5.63127 5.6629C5.63127 5.23911 5.28634 4.89381 4.86218 4.89381Z" fill="#FF0A2D"/>
<path d="M17.7041 7.79286C16.5521 7.79286 15.6146 6.85536 15.6146 5.70302C15.6146 4.55104 16.5521 3.61354 17.7041 3.61354C18.8564 3.61354 19.7939 4.55104 19.7939 5.70302C19.7939 6.85536 18.8564 7.79286 17.7041 7.79286ZM17.7041 4.93393C17.2803 4.93393 16.9354 5.27886 16.9354 5.70302C16.9354 6.12718 17.2803 6.47211 17.7041 6.47211C18.1283 6.47211 18.4732 6.12718 18.4732 5.70302C18.4732 5.27886 18.1283 4.93393 17.7041 4.93393Z" fill="#FF0A2D"/>
</svg>
