<svg width="40" height="40" viewBox="0 0 40 40" fill="none" xmlns="http://www.w3.org/2000/svg">
<path d="M38.75 0.234375V13.2855L37.5 12.6605V0.234375H36.25V12.7344L35.625 13.2031L35 12.7344V0.234375H33.75V12.6605L32.5 13.2855V0.234375H31.25V14.4781L35.625 21.405L40 14.4781V0.234375H38.75ZM35.625 19.0637L34.3906 17.1094H36.8594L35.625 19.0637ZM37.6486 15.8594H33.6014L32.7725 14.5468L34.3124 13.7787L35.625 14.7656L36.9376 13.7787L38.4775 14.5468L37.6486 15.8594Z" fill="#FF0A2D"/>
<path d="M17.637 13.9844L15.4495 22.7344H24.5505L22.363 13.9844H17.637ZM17.0505 21.4844L18.613 15.2344H21.387L22.9495 21.4844H17.0505Z" fill="#FF0A2D"/>
<path d="M24.375 8.26111V3.98438H26.875V2.73438H24.375V0.234375H23.125V2.73438H16.875V0.234375H15.625V2.73438H13.125V3.98438H15.625V8.26111L13.7686 13.9844H5V11.4844H3.75V13.9844H0V15.2344H3.75V21.4844H0V22.7344H3.75V25.2344H5V22.7344H10.9305L6.875 35.2344H3.75V36.4844H6.47125L5.52063 39.4162L6.70807 39.8026L7.78564 36.4844H11.6711L10.8276 39.4376L12.03 39.7812L12.9718 36.4844H16.25V35.2344H13.3289L15.4712 27.7344H24.5288L26.6711 35.2344H23.75V36.4844H27.0282L27.97 39.7812L29.1724 39.4376L28.3289 36.4844H32.2144L33.2907 39.8026L34.4781 39.4162L33.5287 36.4844H36.25V35.2344H33.125L24.375 8.26111ZM16.875 3.98438H23.125V7.73438H16.875V3.98438ZM5 21.4844V15.2344H13.363L11.3364 21.4844H5ZM12.0282 35.2344H8.19061L9.20441 32.1094H12.9211L12.0282 35.2344ZM26.7212 30.8594L25.4712 26.4844H14.5288L13.2788 30.8594H9.60999L16.7044 8.98438H23.2956L30.39 30.8594H26.7212ZM27.9712 35.2344L27.0782 32.1094H30.795L31.8124 35.2344H27.9712Z" fill="#FF0A2D"/>
</svg>
