<svg width="40" height="40" viewBox="0 0 40 40" fill="none" xmlns="http://www.w3.org/2000/svg">
<g clip-path="url(#clip0_74_1087)">
<path d="M8.26772 8.18896C8.26772 8.62384 7.9152 8.97636 7.48031 8.97636C7.04543 8.97636 6.69291 8.62384 6.69291 8.18896C6.69291 7.75408 7.04543 7.40156 7.48031 7.40156C7.9152 7.40156 8.26772 7.75408 8.26772 8.18896ZM3.93701 7.40156C3.50213 7.40156 3.14961 7.75408 3.14961 8.18896C3.14961 8.62384 3.50213 8.97636 3.93701 8.97636C4.37189 8.97636 4.72441 8.62384 4.72441 8.18896C4.72441 7.75408 4.37189 7.40156 3.93701 7.40156ZM40 6.61416V34.9606C40 35.3955 39.6475 35.748 39.2126 35.748H23.5433C23.0914 35.748 22.7265 35.3643 22.7578 34.906C22.7862 34.4882 23.1528 34.1732 23.5715 34.1732H26.7185L20.5604 28.4166C19.8267 27.7308 18.6772 27.7308 17.9435 28.4166L14.9678 31.1983C14.6615 31.4865 14.1205 31.498 13.8153 31.1149L7.41205 23.1102L1.5748 30.4068V34.1732H16.4575C16.9092 34.174 17.273 34.5564 17.2423 35.0146C17.2143 35.4326 16.8479 35.748 16.429 35.748H0.787402C0.35252 35.748 0 35.3955 0 34.9606V6.61416C0 5.30959 1.05756 4.25195 2.3622 4.25195H37.6378C38.9424 4.25195 40 5.30959 40 6.61416ZM20.7268 23.3279C21.2709 21.5875 22.7102 20.0634 24.5957 19.479L31.9614 12.126H1.5748V27.8858L6.18213 22.1267C6.8126 21.3386 8.0111 21.3386 8.64157 22.1267L14.5138 29.467L16.8681 27.2661C17.67 26.5166 18.7443 26.2172 19.7643 26.3669C20.0978 25.3148 20.5285 23.9625 20.7268 23.3279ZM30.6787 19.219L35.1194 14.7859C36.5633 13.3421 37.6513 11.6504 38.3553 9.75487C36.4599 10.4587 34.7681 11.5468 33.3239 12.9911L28.8835 17.4238L30.6787 19.219ZM27.7689 18.5364L26.125 20.1775L27.9202 21.9727L29.5641 20.3316L27.7689 18.5364ZM21.2709 26.8259C22.3209 26.4933 23.6613 26.062 24.2939 25.8685C25.7176 25.4331 26.6422 24.2901 27.0198 23.2994L24.7976 21.0771C23.5636 21.5368 22.5883 22.6137 22.2283 23.8031C22.0368 24.436 21.6035 25.776 21.2709 26.8259ZM38.4252 13.1547C37.8059 14.1409 37.074 15.0586 36.2326 15.8999L28.6176 23.5018C28.0848 25.2755 26.5609 26.8258 24.7689 27.3699C24.2828 27.5175 23.3806 27.8095 22.5116 28.0848L29.0246 34.1732H38.4252V13.1547ZM38.4252 6.61416C38.4252 6.17998 38.072 5.82676 37.6378 5.82676H2.3622C1.92803 5.82676 1.5748 6.17998 1.5748 6.61416V10.5512H33.7167C35.0205 9.5414 37.0205 8.43786 38.4252 8.11432V6.61416ZM19.0551 18.4252C19.0551 20.4223 17.4302 22.0472 15.4331 22.0472C13.4359 22.0472 11.811 20.4223 11.811 18.4252C11.811 16.428 13.4359 14.8031 15.4331 14.8031C17.4302 14.8031 19.0551 16.428 19.0551 18.4252ZM17.4803 18.4252C17.4803 17.2964 16.5619 16.3779 15.4331 16.3779C14.3043 16.3779 13.3858 17.2964 13.3858 18.4252C13.3858 19.554 14.3043 20.4724 15.4331 20.4724C16.5619 20.4724 17.4803 19.554 17.4803 18.4252ZM11.0236 7.40156C10.5887 7.40156 10.2362 7.75408 10.2362 8.18896C10.2362 8.62384 10.5887 8.97636 11.0236 8.97636C11.4585 8.97636 11.811 8.62384 11.811 8.18896C11.811 7.75408 11.4585 7.40156 11.0236 7.40156ZM20.7874 34.9606C20.7874 35.3945 20.4339 35.748 20 35.748C19.5661 35.748 19.2126 35.3945 19.2126 34.9606C19.2126 34.5268 19.5661 34.1732 20 34.1732C20.4339 34.1732 20.7874 34.5268 20.7874 34.9606Z" fill="#FF0A2D"/>
</g>
<defs>
<clipPath id="clip0_74_1087">
<rect width="40" height="40" fill="white"/>
</clipPath>
</defs>
</svg>
