<svg width="30" height="30" viewBox="0 0 30 30" fill="none" xmlns="http://www.w3.org/2000/svg">
<path d="M15.0037 0H14.9963C6.72563 0 0 6.7275 0 15C0 18.2812 1.0575 21.3225 2.85562 23.7919L0.98625 29.3644L6.75187 27.5213C9.12375 29.0925 11.9531 30 15.0037 30C23.2744 30 30 23.2706 30 15C30 6.72938 23.2744 0 15.0037 0Z" fill="#32C938"/>
<path d="M23.7319 21.1818C23.37 22.2037 21.9338 23.0512 20.7882 23.2987C20.0044 23.4655 18.9807 23.5987 15.5344 22.1699C11.1263 20.3437 8.28753 15.8643 8.06628 15.5737C7.85441 15.283 6.28503 13.2018 6.28503 11.0493C6.28503 8.89679 7.37816 7.84866 7.81878 7.39866C8.18066 7.02928 8.77878 6.86053 9.35253 6.86053C9.53816 6.86053 9.70503 6.86991 9.85503 6.87741C10.2957 6.89616 10.5169 6.92241 10.8075 7.61804C11.1694 8.48991 12.0507 10.6424 12.1557 10.8637C12.2625 11.0849 12.3694 11.3849 12.2194 11.6755C12.0788 11.9755 11.955 12.1087 11.7338 12.3637C11.5125 12.6187 11.3025 12.8137 11.0813 13.0874C10.8788 13.3255 10.65 13.5805 10.905 14.0212C11.16 14.4524 12.0413 15.8905 13.3388 17.0455C15.0132 18.5362 16.3707 19.0124 16.8563 19.2149C17.2182 19.3649 17.6494 19.3293 17.9138 19.048C18.2494 18.6862 18.6638 18.0862 19.0857 17.4955C19.3857 17.0718 19.7644 17.0193 20.1619 17.1693C20.5669 17.3099 22.71 18.3693 23.1507 18.5887C23.5913 18.8099 23.8819 18.9149 23.9888 19.1005C24.0938 19.2862 24.0938 20.158 23.7319 21.1818Z" fill="#FAFAFA"/>
</svg>
