<svg width="70" height="70" viewBox="0 0 70 70" fill="none" xmlns="http://www.w3.org/2000/svg">
<path opacity="0.2" d="M31.5048 63.3256H6.63977C5.50719 63.3256 4.58899 62.4074 4.58899 61.2748V12.9214C4.58899 11.7888 5.50719 10.8706 6.63977 10.8706H31.5048C32.6374 10.8706 33.5556 11.7888 33.5556 12.9214V61.2748C33.5556 62.4074 32.6374 63.3256 31.5048 63.3256Z" fill="#6583FE"/>
<path opacity="0.2" d="M63.3603 48.5629H38.4952C37.3627 48.5629 36.4445 47.6447 36.4445 46.5121V12.9214C36.4445 11.7888 37.3627 10.8706 38.4952 10.8706H63.3603C64.4929 10.8706 65.4111 11.7888 65.4111 12.9214V46.5121C65.4111 47.6447 64.4929 48.5629 63.3603 48.5629Z" fill="#6583FE"/>
<path d="M31.5048 60.5913H6.63977C5.50719 60.5913 4.58899 59.673 4.58899 58.5405V10.187C4.58899 9.05443 5.50719 8.13623 6.63977 8.13623H31.5048C32.6374 8.13623 33.5556 9.05443 33.5556 10.187V58.5405C33.5556 59.673 32.6374 60.5913 31.5048 60.5913Z" fill="white"/>
<path d="M4.58899 23.4512H33.5556V33.9048H4.58899V23.4512Z" fill="#FFDBED"/>
<path d="M33.5556 15.1562V10.187C33.5556 9.05443 32.6374 8.13623 31.5048 8.13623H6.63977C5.50719 8.13623 4.58899 9.05443 4.58899 10.187V15.1562H33.5556Z" fill="#FF7EB8"/>
<path d="M31.5048 61.2748H26.5235C26.146 61.2748 25.8399 60.9689 25.8399 60.5913C25.8399 60.2136 26.146 59.9077 26.5235 59.9077H31.5048C32.2587 59.9077 32.872 59.2943 32.872 58.5405V10.187C32.872 9.43314 32.2587 8.81982 31.5048 8.81982H6.63977C5.8859 8.81982 5.27258 9.43314 5.27258 10.187V58.5405C5.27258 59.2943 5.8859 59.9077 6.63977 59.9077H21.875C22.2525 59.9077 22.5586 60.2136 22.5586 60.5913C22.5586 60.9689 22.2525 61.2748 21.875 61.2748H6.63977C5.13204 61.2748 3.9054 60.0482 3.9054 58.5405V10.187C3.9054 8.67928 5.13204 7.45264 6.63977 7.45264H31.5048C33.0125 7.45264 34.2392 8.67928 34.2392 10.187V58.5405C34.2392 60.0482 33.0125 61.2748 31.5048 61.2748Z" fill="#2626BC"/>
<path d="M9.9502 12.3377C9.57271 12.3377 9.2666 12.0318 9.2666 11.6542V11.6384C9.2666 11.2608 9.57271 10.9548 9.9502 10.9548C10.3277 10.9548 10.6338 11.2608 10.6338 11.6384V11.6542C10.6338 12.0318 10.3278 12.3377 9.9502 12.3377Z" fill="white"/>
<path d="M12.7002 12.3377C12.3227 12.3377 12.0166 12.0318 12.0166 11.6542V11.6384C12.0166 11.2608 12.3227 10.9548 12.7002 10.9548C13.0777 10.9548 13.3838 11.2608 13.3838 11.6384V11.6542C13.3838 12.0318 13.0777 12.3377 12.7002 12.3377Z" fill="white"/>
<path d="M15.45 12.3377C15.0725 12.3377 14.7664 12.0318 14.7664 11.6542V11.6384C14.7664 11.2608 15.0725 10.9548 15.45 10.9548C15.8274 10.9548 16.1335 11.2608 16.1335 11.6384V11.6542C16.1335 12.0318 15.8274 12.3377 15.45 12.3377Z" fill="white"/>
<path d="M28.1943 12.3301H24.5685C24.1909 12.3301 23.8849 12.024 23.8849 11.6465C23.8849 11.269 24.1909 10.9629 24.5685 10.9629H28.1943C28.5719 10.9629 28.8779 11.269 28.8779 11.6465C28.8779 12.024 28.5717 12.3301 28.1943 12.3301Z" fill="white"/>
<path d="M22.2128 12.3301H21.3214C20.9438 12.3301 20.6378 12.024 20.6378 11.6465C20.6378 11.269 20.9438 10.9629 21.3214 10.9629H22.2128C22.5904 10.9629 22.8964 11.269 22.8964 11.6465C22.8964 12.024 22.5903 12.3301 22.2128 12.3301Z" fill="white"/>
<path d="M65.4103 10.1873V43.7777C65.4103 44.9111 64.4929 45.8285 63.3595 45.8285H38.4958C37.3625 45.8285 36.4451 44.9111 36.4451 43.7777V10.1873C36.4451 9.05386 37.3625 8.13647 38.4958 8.13647H63.3595C64.4929 8.13647 65.4103 9.05386 65.4103 10.1873Z" fill="#DCFDEE"/>
<path d="M65.4103 35.731V43.7775C65.4103 44.9109 64.4929 45.8283 63.3595 45.8283H38.4958C37.3625 45.8283 36.4451 44.9109 36.4451 43.7775V35.731H65.4103Z" fill="#97FFD2"/>
<path d="M65.4111 15.1562V10.187C65.4111 9.05443 64.4929 8.13623 63.3603 8.13623H38.4952C37.3627 8.13623 36.4445 9.05443 36.4445 10.187V15.1562H65.4111Z" fill="#FF7EB8"/>
<path d="M63.3603 46.5121H38.4952C36.9875 46.5121 35.7609 45.2854 35.7609 43.7777V36.276C35.7609 35.8983 36.067 35.5924 36.4445 35.5924C36.8219 35.5924 37.1281 35.8983 37.1281 36.276V43.7777C37.1281 44.5316 37.7414 45.1449 38.4952 45.1449H63.3603C64.1141 45.1449 64.7275 44.5316 64.7275 43.7777V10.187C64.7275 9.43314 64.1141 8.81982 63.3603 8.81982H38.4952C37.7414 8.81982 37.1281 9.43314 37.1281 10.187V31.6275C37.1281 32.0051 36.8219 32.3111 36.4445 32.3111C36.067 32.3111 35.7609 32.0051 35.7609 31.6275V10.187C35.7609 8.67928 36.9875 7.45264 38.4952 7.45264H63.3603C64.868 7.45264 66.0947 8.67928 66.0947 10.187V43.7777C66.0947 45.2854 64.868 46.5121 63.3603 46.5121Z" fill="#2626BC"/>
<path d="M41.8057 12.3377C41.4282 12.3377 41.1221 12.0318 41.1221 11.6542V11.6384C41.1221 11.2608 41.4282 10.9548 41.8057 10.9548C42.1831 10.9548 42.4893 11.2608 42.4893 11.6384V11.6542C42.4893 12.0318 42.1833 12.3377 41.8057 12.3377Z" fill="white"/>
<path d="M44.5557 12.3377C44.1782 12.3377 43.8721 12.0318 43.8721 11.6542V11.6384C43.8721 11.2608 44.1782 10.9548 44.5557 10.9548C44.9331 10.9548 45.2393 11.2608 45.2393 11.6384V11.6542C45.2393 12.0318 44.9331 12.3377 44.5557 12.3377Z" fill="white"/>
<path d="M47.3055 12.3377C46.9281 12.3377 46.6219 12.0318 46.6219 11.6542V11.6384C46.6219 11.2608 46.9281 10.9548 47.3055 10.9548C47.683 10.9548 47.9891 11.2608 47.9891 11.6384V11.6542C47.9891 12.0318 47.683 12.3377 47.3055 12.3377Z" fill="white"/>
<path d="M60.0497 12.3298H56.424C56.0463 12.3298 55.7404 12.0237 55.7404 11.6462C55.7404 11.2688 56.0463 10.9626 56.424 10.9626H60.0497C60.4274 10.9626 60.7333 11.2688 60.7333 11.6462C60.7333 12.0237 60.4272 12.3298 60.0497 12.3298Z" fill="white"/>
<path d="M54.0683 12.3298H53.1769C52.7993 12.3298 52.4933 12.0237 52.4933 11.6462C52.4933 11.2688 52.7993 10.9626 53.1769 10.9626H54.0683C54.4459 10.9626 54.7519 11.2688 54.7519 11.6462C54.7519 12.0237 54.4458 12.3298 54.0683 12.3298Z" fill="white"/>
<path opacity="0.2" d="M37.3149 62.835H47.9862C48.3639 62.835 48.6698 63.1411 48.6698 63.5186C48.6698 63.896 48.3639 64.2021 47.9862 64.2021H37.3149C36.9373 64.2021 36.6313 63.896 36.6313 63.5186C36.6313 63.1411 36.9375 62.835 37.3149 62.835Z" fill="#6583FE"/>
<path opacity="0.2" d="M41.4264 57.2844C41.4264 56.6667 41.1779 56.1066 40.7763 55.6967C41.1777 55.2868 41.4264 54.7267 41.4264 54.109C41.4264 52.8565 40.4074 51.8376 39.1551 51.8376C37.9028 51.8376 36.8838 52.8566 36.8838 54.109C36.8838 54.7267 37.1323 55.2868 37.5339 55.6967C37.1325 56.1066 36.8838 56.6667 36.8838 57.2844C36.8838 57.6619 37.1898 57.968 37.5674 57.968C37.945 57.968 38.251 57.6619 38.251 57.2844C38.251 56.7859 38.6566 56.3803 39.1551 56.3803C39.6536 56.3803 40.0592 56.7859 40.0592 57.2844C40.0592 57.6619 40.3652 57.968 40.7428 57.968C41.1204 57.968 41.4264 57.6619 41.4264 57.2844ZM40.0592 54.1088C40.0592 54.6073 39.6536 55.0129 39.1551 55.0129C38.6566 55.0129 38.251 54.6073 38.251 54.1088C38.251 53.6103 38.6566 53.2047 39.1551 53.2047C39.6536 53.2047 40.0592 53.6103 40.0592 54.1088Z" fill="#6583FE"/>
<path d="M37.3124 58.5405H38.8874C39.265 58.5405 39.571 58.2344 39.571 57.8569C39.571 57.4795 39.265 57.1733 38.8874 57.1733H37.3124C36.9348 57.1733 36.6288 57.4795 36.6288 57.8569C36.6288 58.2344 36.9348 58.5405 37.3124 58.5405Z" fill="#2626BC"/>
<path d="M41.6235 58.5405H47.9837C48.3613 58.5405 48.6673 58.2344 48.6673 57.8569C48.6673 57.4795 48.3613 57.1733 47.9837 57.1733H41.6235C41.2459 57.1733 40.9399 57.4795 40.9399 57.8569C40.9399 58.2344 41.2461 58.5405 41.6235 58.5405Z" fill="#2626BC"/>
<path d="M37.3124 61.457H47.9837C48.3613 61.457 48.6673 61.1509 48.6673 60.7734C48.6673 60.396 48.3613 60.0898 47.9837 60.0898H37.3124C36.9348 60.0898 36.6288 60.396 36.6288 60.7734C36.6288 61.1509 36.9348 61.457 37.3124 61.457Z" fill="#2626BC"/>
<path d="M37.5312 52.9516C37.1298 53.3614 36.8811 53.9216 36.8811 54.5393C36.8811 54.9167 37.1871 55.2229 37.5647 55.2229C37.9423 55.2229 38.2483 54.9167 38.2483 54.5393C38.2483 54.0408 38.6539 53.6351 39.1524 53.6351C39.6509 53.6351 40.0565 54.0408 40.0565 54.5393C40.0565 54.9167 40.3625 55.2229 40.7401 55.2229C41.1177 55.2229 41.4237 54.9167 41.4237 54.5393C41.4237 53.9216 41.1752 53.3614 40.7736 52.9516C41.175 52.5417 41.4237 51.9815 41.4237 51.3638C41.4237 50.1114 40.4048 49.0925 39.1524 49.0925C37.9001 49.0925 36.8811 50.1115 36.8811 51.3638C36.8812 51.9815 37.1298 52.5417 37.5312 52.9516ZM40.0567 51.3638C40.0567 51.8623 39.651 52.268 39.1525 52.268C38.6541 52.268 38.2484 51.8623 38.2484 51.3638C38.2484 50.8654 38.6541 50.4597 39.1525 50.4597C39.651 50.4597 40.0567 50.8652 40.0567 51.3638Z" fill="#2626BC"/>
<path d="M21.5344 41.427H9.70544C9.32783 41.427 9.02185 41.1209 9.02185 40.7434C9.02185 40.3659 9.32783 40.0598 9.70544 40.0598H21.5344C21.912 40.0598 22.2179 40.3659 22.2179 40.7434C22.2179 41.1209 21.912 41.427 21.5344 41.427Z" fill="#D2DEFF"/>
<path d="M28.3703 45.3235H9.70544C9.32783 45.3235 9.02185 45.0174 9.02185 44.6399C9.02185 44.2624 9.32783 43.9563 9.70544 43.9563H28.3703C28.7479 43.9563 29.0539 44.2624 29.0539 44.6399C29.0539 45.0174 28.7479 45.3235 28.3703 45.3235Z" fill="#D2DEFF"/>
<path d="M28.4393 41.427C28.8169 41.427 29.1229 41.1209 29.1229 40.7434C29.1229 40.3659 28.8169 40.0598 28.4393 40.0598C28.0618 40.0598 27.7557 40.3659 27.7557 40.7434C27.7557 41.1209 28.0618 41.427 28.4393 41.427Z" fill="#FF7EB8"/>
<path d="M28.3703 47.8528H9.70544C9.32783 47.8528 9.02185 47.5467 9.02185 47.1692C9.02185 46.7917 9.32783 46.4856 9.70544 46.4856H28.3703C28.7479 46.4856 29.0539 46.7917 29.0539 47.1692C29.0539 47.5467 28.7479 47.8528 28.3703 47.8528Z" fill="#D2DEFF"/>
<path d="M28.3703 50.3821H9.70544C9.32783 50.3821 9.02185 50.076 9.02185 49.6985C9.02185 49.321 9.32783 49.0149 9.70544 49.0149H28.3703C28.7479 49.0149 29.0539 49.321 29.0539 49.6985C29.0539 50.076 28.7479 50.3821 28.3703 50.3821Z" fill="#D2DEFF"/>
<path d="M28.3703 52.9114H9.70544C9.32783 52.9114 9.02185 52.6053 9.02185 52.2278C9.02185 51.8503 9.32783 51.5442 9.70544 51.5442H28.3703C28.7479 51.5442 29.0539 51.8503 29.0539 52.2278C29.0539 52.6053 28.7479 52.9114 28.3703 52.9114Z" fill="#D2DEFF"/>
<path d="M28.3703 55.4407H9.70544C9.32783 55.4407 9.02185 55.1346 9.02185 54.7571C9.02185 54.3796 9.32783 54.0735 9.70544 54.0735H28.3703C28.7479 54.0735 29.0539 54.3796 29.0539 54.7571C29.0539 55.1346 28.7479 55.4407 28.3703 55.4407Z" fill="#D2DEFF"/>
<path d="M25.1071 34.697C25.0572 34.519 24.8485 34.4375 24.6934 34.5383C24.4074 34.7242 24.1542 34.817 23.9338 34.817C23.6771 34.817 23.5045 34.7185 23.4157 34.521C23.3268 34.324 23.2825 33.9881 23.2825 33.5145V26.0143C23.2825 24.929 23.2084 24.0704 23.0605 23.4386C22.9124 22.8071 22.6209 22.2743 22.1871 21.84C21.7134 21.3662 21.1212 21.0309 20.4107 20.8334C18.8677 20.4046 17.22 20.414 15.6574 20.733C14.36 20.9978 12.924 21.4861 12.136 22.6246C11.13 24.078 12.0546 26.3105 13.8973 26.3105C16.1872 26.3107 17.0868 23.3608 15.1107 22.1368C15.6483 21.9212 16.6716 21.6233 17.6865 21.941C18.4757 22.1882 19.0174 22.9248 19.0193 23.752V23.7643V26.0735C19.0193 26.6064 18.7678 27.026 18.2644 27.3317C16.1827 28.5963 13.2658 28.6934 11.6624 30.7067C10.8652 31.7076 10.7427 33.1767 11.1997 34.3598C11.7838 35.872 13.1788 36.465 14.7265 36.465C16.6406 36.465 18.0913 35.6656 19.0785 34.067C19.0979 34.7975 19.325 35.3798 19.7594 35.8137C20.1933 36.2481 20.9533 36.465 22.039 36.465C23.2506 36.465 24.2863 36.1395 25.1458 35.4879C25.2366 35.419 25.2765 35.3017 25.2458 35.1919L25.1071 34.697ZM19.0193 32.2515C18.4466 33.061 17.9379 33.5279 17.095 33.7074C16.4922 33.8358 15.1707 33.6246 15.1707 32.2017C15.1707 30.835 16.7398 30.1883 17.5094 29.6947C18.2791 29.221 18.7825 28.7872 19.0193 28.3921V32.2515Z" fill="#9FB0FE"/>
<path d="M25.8361 22.5582C26.5946 22.5582 27.2094 21.9433 27.2094 21.1849C27.2094 20.4264 26.5946 19.8115 25.8361 19.8115C25.0776 19.8115 24.4628 20.4264 24.4628 21.1849C24.4628 21.9433 25.0776 22.5582 25.8361 22.5582Z" fill="#FF7EB8"/>
<path d="M53.3896 29.5667H41.5607C41.1831 29.5667 40.8771 29.2605 40.8771 28.8831C40.8771 28.5056 41.1831 28.1995 41.5607 28.1995H53.3896C53.7672 28.1995 54.0732 28.5056 54.0732 28.8831C54.0732 29.2605 53.7672 29.5667 53.3896 29.5667Z" fill="#9FB0FE"/>
<path d="M60.2946 29.5667C60.6721 29.5667 60.9781 29.2606 60.9781 28.8831C60.9781 28.5055 60.6721 28.1995 60.2946 28.1995C59.917 28.1995 59.611 28.5055 59.611 28.8831C59.611 29.2606 59.917 29.5667 60.2946 29.5667Z" fill="#02FFB3"/>
<path d="M60.2255 33.9417H41.5607C41.1831 33.9417 40.8771 33.6355 40.8771 33.2581C40.8771 32.8806 41.1831 32.5745 41.5607 32.5745H60.2255C60.6031 32.5745 60.9091 32.8806 60.9091 33.2581C60.9091 33.6355 60.6031 33.9417 60.2255 33.9417Z" fill="#9FB0FE"/>
<path d="M60.2255 36.4709H41.5607C41.1831 36.4709 40.8771 36.1648 40.8771 35.7874C40.8771 35.4099 41.1831 35.1038 41.5607 35.1038H60.2255C60.6031 35.1038 60.9091 35.4099 60.9091 35.7874C60.9091 36.1648 60.6031 36.4709 60.2255 36.4709Z" fill="#9FB0FE"/>
<path d="M60.2255 39.0002H41.5607C41.1831 39.0002 40.8771 38.6941 40.8771 38.3167C40.8771 37.9392 41.1831 37.6331 41.5607 37.6331H60.2255C60.6031 37.6331 60.9091 37.9392 60.9091 38.3167C60.9091 38.6941 60.6031 39.0002 60.2255 39.0002Z" fill="#9FB0FE"/>
<path d="M60.2255 41.5295H41.5607C41.1831 41.5295 40.8771 41.2234 40.8771 40.8459C40.8771 40.4685 41.1831 40.1624 41.5607 40.1624H60.2255C60.6031 40.1624 60.9091 40.4685 60.9091 40.8459C60.9091 41.2234 60.6031 41.5295 60.2255 41.5295Z" fill="#9FB0FE"/>
<path d="M47.2613 23.2468L44.5426 18.4386C44.2809 17.9759 43.6141 17.9759 43.3524 18.4386L40.6336 23.2468C40.3759 23.7025 40.7051 24.2668 41.2286 24.2668H46.6662C47.1897 24.2668 47.5189 23.7025 47.2613 23.2468Z" fill="#FFA8CF"/>
<path d="M50.7381 24.2787C52.4178 24.2787 53.7795 22.917 53.7795 21.2372C53.7795 19.5575 52.4178 18.1958 50.7381 18.1958C49.0584 18.1958 47.6967 19.5575 47.6967 21.2372C47.6967 22.917 49.0584 24.2787 50.7381 24.2787Z" fill="#9FB0FE"/>
<path d="M60.2256 24.2325H55.486C55.1085 24.2325 54.8024 23.9264 54.8024 23.549V18.8093C54.8024 18.4318 55.1085 18.1257 55.486 18.1257H60.2256C60.6031 18.1257 60.9092 18.4318 60.9092 18.8093V23.549C60.9092 23.9264 60.6032 24.2325 60.2256 24.2325Z" fill="#01ECA5"/>
<path d="M53.3848 56.4661C53.0073 56.4661 52.7012 56.1601 52.7012 55.7825C52.7012 55.3301 52.3333 54.9622 51.8809 54.9622C51.5034 54.9622 51.1973 54.6562 51.1973 54.2786C51.1973 53.9009 51.5034 53.595 51.8809 53.595C52.3333 53.595 52.7012 53.2271 52.7012 52.7747C52.7012 52.397 53.0073 52.0911 53.3848 52.0911C53.7622 52.0911 54.0684 52.397 54.0684 52.7747C54.0684 53.2271 54.4363 53.595 54.8887 53.595C55.2662 53.595 55.5723 53.9009 55.5723 54.2786C55.5723 54.6562 55.2662 54.9622 54.8887 54.9622C54.4363 54.9622 54.0684 55.3301 54.0684 55.7825C54.0684 56.1601 53.7622 56.4661 53.3848 56.4661Z" fill="#01ECA5"/>
<path d="M62.2614 67.21C61.8839 67.21 61.5778 66.904 61.5778 66.5264C61.5778 66.074 61.2098 65.7061 60.7574 65.7061C60.38 65.7061 60.0739 65.4001 60.0739 65.0225C60.0739 64.6448 60.38 64.3389 60.7574 64.3389C61.2098 64.3389 61.5778 63.971 61.5778 63.5186C61.5778 63.1409 61.8839 62.835 62.2614 62.835C62.6388 62.835 62.9449 63.1409 62.9449 63.5186C62.9449 63.971 63.3129 64.3389 63.7653 64.3389C64.1427 64.3389 64.4488 64.6448 64.4488 65.0225C64.4488 65.4001 64.1427 65.7061 63.7653 65.7061C63.3129 65.7061 62.9449 66.074 62.9449 66.5264C62.9449 66.9038 62.6388 67.21 62.2614 67.21Z" fill="#FF7EB8"/>
<path d="M61.5777 53.2046C61.4027 53.2046 61.2279 53.1378 61.0943 53.0043C60.8273 52.7374 60.8273 52.3045 61.0943 52.0377L62.4615 50.6705C62.7285 50.4035 63.1612 50.4035 63.4282 50.6705C63.6952 50.9373 63.6952 51.3702 63.4282 51.6371L62.061 53.0043C61.9276 53.1378 61.7527 53.2046 61.5777 53.2046Z" fill="#6583FE"/>
<path d="M30.624 67.3386C30.449 67.3386 30.2741 67.2719 30.1406 67.1383C29.8736 66.8714 29.8736 66.4386 30.1406 66.1717L31.5078 64.8045C31.7748 64.5375 32.2075 64.5375 32.4745 64.8045C32.7415 65.0714 32.7415 65.5042 32.4745 65.7711L31.1073 67.1383C30.9739 67.2719 30.7989 67.3386 30.624 67.3386Z" fill="#6583FE"/>
<path d="M14.9363 5.39572C14.7613 5.39572 14.5864 5.329 14.4528 5.19543C14.1858 4.92855 14.1858 4.4957 14.4528 4.22882L15.82 2.86164C16.087 2.59462 16.5197 2.59462 16.7868 2.86164C17.0538 3.12851 17.0538 3.56136 16.7868 3.82824L15.4196 5.19543C15.2861 5.329 15.1113 5.39572 14.9363 5.39572Z" fill="#FF7EB8"/>
</svg>
