<svg width="70" height="70" viewBox="0 0 70 70" fill="none" xmlns="http://www.w3.org/2000/svg">
<g clip-path="url(#clip0_158_2161)">
<path d="M68.8989 51.6091L38.6809 69.0438C36.4784 70.3149 33.76 70.3192 31.5544 69.0537L1.10689 51.6006C-0.355999 50.7621 -0.358733 48.6666 1.10129 47.8239L6.72972 44.5756L31.3191 30.3889C33.5217 29.1179 36.2401 29.1136 38.4456 30.3776L63.2957 44.6234L68.8931 47.8322C70.356 48.6708 70.3588 50.7663 68.8989 51.6091Z" fill="#FFF273"/>
<path d="M63.2958 44.6235L39.4532 58.3803C36.7883 59.9179 33.5006 59.922 30.833 58.393L6.72974 44.5756L31.3192 30.3889C33.5217 29.1179 36.2401 29.1136 38.4456 30.3776L63.2958 44.6235Z" fill="#FFDE1D"/>
<path d="M68.8989 36.8926L38.6809 54.3275C36.4784 55.5986 33.76 55.6028 31.5544 54.3373L1.10689 36.8841C-0.355999 36.0456 -0.358733 33.9501 1.10129 33.1074L7.03693 29.683L31.3193 15.6724C33.5218 14.4014 36.2402 14.3971 38.4457 15.6626L62.9873 29.7295L68.8933 33.1158C70.356 33.9543 70.3588 36.0498 68.8989 36.8926Z" fill="#FF92A6"/>
<path d="M62.9872 29.7295L39.3911 43.3439C36.7644 44.8603 33.5203 44.8645 30.8893 43.3566L7.03693 29.683L31.3193 15.6724C33.5218 14.4014 36.2402 14.3971 38.4457 15.6626L62.9872 29.7295Z" fill="#FF758E"/>
<path d="M68.8934 18.3997L38.4451 0.945605C36.2396 -0.31877 33.5212 -0.314942 31.3192 0.955586L1.10124 18.3913C-0.359053 19.2339 -0.356045 21.329 1.10657 22.1675L31.5548 39.6216C33.7603 40.8859 36.4787 40.8821 38.6807 39.6116L68.8987 22.1758C70.359 21.3332 70.356 19.2382 68.8934 18.3997Z" fill="#4972FF"/>
</g>
<defs>
<clipPath id="clip0_158_2161">
<rect width="70" height="70" fill="white"/>
</clipPath>
</defs>
</svg>
