<svg width="70" height="70" viewBox="0 0 70 70" fill="none" xmlns="http://www.w3.org/2000/svg">
<g clip-path="url(#clip0_158_2203)">
<path d="M68.8399 29.8384C68.6715 29.321 68.3618 28.861 67.9458 28.5104C67.5297 28.1598 67.0238 27.9325 66.4854 27.8543L46.5368 24.9555L37.6155 6.8795C37.3679 6.39923 36.9929 5.99639 36.5316 5.71516C36.0702 5.43393 35.5403 5.28516 35 5.28516C34.4597 5.28516 33.9298 5.43393 33.4684 5.71516C33.007 5.99639 32.632 6.39923 32.3845 6.8795L23.4631 24.9555L3.51456 27.8543C2.98166 27.9417 2.48308 28.174 2.0734 28.5258C1.66372 28.8777 1.35874 29.3354 1.19185 29.849C1.02497 30.3626 1.00261 30.9122 1.12722 31.4376C1.25183 31.963 1.51862 32.4441 1.89836 32.828L16.3333 46.8987L12.9255 66.7685C12.8437 67.3025 12.9104 67.8488 13.1184 68.3474C13.3265 68.846 13.6677 69.2777 14.1048 69.5953C14.5419 69.9128 15.058 70.1039 15.5964 70.1476C16.1349 70.1913 16.6751 70.0859 17.1576 69.843L35 60.4609L52.8423 69.8412C53.3249 70.0843 53.8651 70.1897 54.4036 70.1461C54.9421 70.1025 55.4583 69.9114 55.8954 69.5938C56.3326 69.2762 56.6738 68.8444 56.8818 68.3458C57.0897 67.8471 57.1564 67.3007 57.0744 66.7667L53.6666 46.8987L68.1016 32.828C68.4913 32.4482 68.767 31.9669 68.8974 31.4386C69.0279 30.9103 69.008 30.356 68.8399 29.8384Z" fill="url(#paint0_linear_158_2203)"/>
<path d="M69.0196 15.6164C68.0145 15.6147 67.051 15.2147 66.3403 14.504C65.6296 13.7933 65.2296 12.8298 65.2279 11.8247C65.2304 11.6944 65.207 11.5649 65.1588 11.4438C65.1107 11.3227 65.0389 11.2123 64.9476 11.1193C64.8564 11.0263 64.7475 10.9523 64.6273 10.9019C64.5071 10.8514 64.3781 10.8254 64.2478 10.8254C64.1174 10.8254 63.9884 10.8514 63.8682 10.9019C63.7481 10.9523 63.6391 11.0263 63.5479 11.1193C63.4566 11.2123 63.3848 11.3227 63.3367 11.4438C63.2886 11.5649 63.2651 11.6944 63.2676 11.8247C63.2659 12.8298 62.8659 13.7933 62.1552 14.504C61.4445 15.2147 60.481 15.6147 59.4759 15.6164C59.2159 15.6164 58.9665 15.7197 58.7827 15.9035C58.5988 16.0874 58.4955 16.3367 58.4955 16.5967C58.4955 16.8567 58.5988 17.1061 58.7827 17.29C58.9665 17.4738 59.2159 17.5771 59.4759 17.5771C60.4814 17.5782 61.4454 17.9779 62.1565 18.6887C62.8676 19.3995 63.2678 20.3633 63.2694 21.3688C63.2669 21.4991 63.2904 21.6286 63.3385 21.7497C63.3866 21.8708 63.4584 21.9811 63.5497 22.0742C63.641 22.1672 63.7499 22.2411 63.87 22.2916C63.9902 22.3421 64.1192 22.368 64.2496 22.368C64.3799 22.368 64.5089 22.3421 64.6291 22.2916C64.7493 22.2411 64.8582 22.1672 64.9494 22.0742C65.0407 21.9811 65.1125 21.8708 65.1606 21.7497C65.2088 21.6286 65.2323 21.4991 65.2298 21.3688C65.2313 20.3633 65.6315 19.3995 66.3427 18.6887C67.0538 17.9779 68.0178 17.5782 69.0232 17.5771C69.2833 17.5771 69.5326 17.4738 69.7165 17.29C69.9003 17.1061 70.0036 16.8567 70.0036 16.5967C70.0036 16.3367 69.9003 16.0874 69.7165 15.9035C69.5326 15.7197 69.2833 15.6164 69.0232 15.6164H69.0196Z" fill="#67D9FB"/>
<path d="M54.4363 5.04338C53.4312 5.04174 52.4677 4.64173 51.757 3.93101C51.0463 3.22029 50.6463 2.25682 50.6446 1.25171C50.6471 1.1214 50.6237 0.991898 50.5755 0.870776C50.5274 0.749654 50.4556 0.639345 50.3643 0.5463C50.2731 0.453255 50.1642 0.379343 50.044 0.328886C49.9238 0.27843 49.7948 0.252441 49.6645 0.252441C49.5341 0.252441 49.4051 0.27843 49.2849 0.328886C49.1648 0.379343 49.0558 0.453255 48.9646 0.5463C48.8733 0.639345 48.8015 0.749654 48.7534 0.870776C48.7053 0.991898 48.6818 1.1214 48.6843 1.25171C48.6826 2.25682 48.2826 3.22029 47.5719 3.93101C46.8612 4.64173 45.8977 5.04174 44.8926 5.04338C44.7639 5.04338 44.6364 5.06874 44.5174 5.118C44.3985 5.16727 44.2904 5.23948 44.1994 5.33052C44.1083 5.42156 44.0361 5.52963 43.9869 5.64857C43.9376 5.76752 43.9122 5.895 43.9122 6.02374C43.9122 6.15248 43.9376 6.27997 43.9869 6.39891C44.0361 6.51785 44.1083 6.62593 44.1994 6.71696C44.2904 6.808 44.3985 6.88021 44.5174 6.92948C44.6364 6.97875 44.7639 7.00411 44.8926 7.00411C45.8981 7.00517 46.8621 7.40493 47.5732 8.11572C48.2843 8.82652 48.6845 9.79032 48.6861 10.7958C48.6836 10.9261 48.7071 11.0556 48.7552 11.1767C48.8033 11.2978 48.8751 11.4081 48.9664 11.5012C49.0577 11.5942 49.1666 11.6681 49.2867 11.7186C49.4069 11.7691 49.5359 11.795 49.6663 11.795C49.7966 11.795 49.9256 11.7691 50.0458 11.7186C50.166 11.6681 50.2749 11.5942 50.3662 11.5012C50.4574 11.4081 50.5292 11.2978 50.5773 11.1767C50.6255 11.0556 50.649 10.9261 50.6465 10.7958C50.648 9.79032 51.0482 8.82652 51.7594 8.11572C52.4705 7.40493 53.4345 7.00517 54.44 7.00411C54.7 7.00411 54.9493 6.90082 55.1332 6.71696C55.317 6.53311 55.4203 6.28375 55.4203 6.02374C55.4203 5.76373 55.317 5.51437 55.1332 5.33052C54.9493 5.14667 54.7 5.04338 54.44 5.04338H54.4363Z" fill="#CCF2FE"/>
<path d="M22.3529 13.7934C21.3478 13.7917 20.3843 13.3917 19.6736 12.681C18.9629 11.9703 18.5629 11.0068 18.5613 10.0017C18.5638 9.8714 18.5403 9.7419 18.4921 9.62078C18.444 9.49965 18.3722 9.38934 18.2809 9.2963C18.1897 9.20326 18.0808 9.12934 17.9606 9.07889C17.8404 9.02843 17.7114 9.00244 17.5811 9.00244C17.4507 9.00244 17.3217 9.02843 17.2015 9.07889C17.0814 9.12934 16.9725 9.20326 16.8812 9.2963C16.7899 9.38934 16.7181 9.49965 16.67 9.62078C16.6219 9.7419 16.5984 9.8714 16.6009 10.0017C16.5993 11.0068 16.1992 11.9703 15.4885 12.681C14.7778 13.3917 13.8143 13.7917 12.8092 13.7934C12.5492 13.7934 12.2999 13.8967 12.116 14.0805C11.9321 14.2644 11.8289 14.5137 11.8289 14.7737C11.8289 15.0338 11.9321 15.2831 12.116 15.467C12.2999 15.6508 12.5492 15.7541 12.8092 15.7541C13.8147 15.7552 14.7787 16.1549 15.4898 16.8657C16.2009 17.5765 16.6012 18.5403 16.6027 19.5458C16.6002 19.6761 16.6237 19.8056 16.6718 19.9267C16.72 20.0478 16.7918 20.1581 16.883 20.2512C16.9743 20.3442 17.0832 20.4181 17.2034 20.4686C17.3235 20.5191 17.4526 20.545 17.5829 20.545C17.7132 20.545 17.8423 20.5191 17.9624 20.4686C18.0826 20.4181 18.1915 20.3442 18.2828 20.2512C18.374 20.1581 18.4458 20.0478 18.494 19.9267C18.5421 19.8056 18.5656 19.6761 18.5631 19.5458C18.5646 18.5403 18.9648 17.5765 19.676 16.8657C20.3871 16.1549 21.3511 15.7552 22.3566 15.7541C22.6166 15.7541 22.8659 15.6508 23.0498 15.467C23.2336 15.2831 23.3369 15.0338 23.3369 14.7737C23.3369 14.5137 23.2336 14.2644 23.0498 14.0805C22.8659 13.8967 22.6166 13.7934 22.3566 13.7934H22.3529Z" fill="#34CDFA"/>
</g>
<defs>
<linearGradient id="paint0_linear_158_2203" x1="11.2569" y1="66.7991" x2="58.7537" y2="19.3027" gradientUnits="userSpaceOnUse">
<stop stop-color="#34CDFA"/>
<stop offset="1" stop-color="#E8D9F1"/>
</linearGradient>
<clipPath id="clip0_158_2203">
<rect width="70" height="70" fill="white"/>
</clipPath>
</defs>
</svg>
