<svg width="70" height="70" viewBox="0 0 70 70" fill="none" xmlns="http://www.w3.org/2000/svg">
<path d="M35 0L32.2634 15.0413L70 12.3047V0H35Z" fill="#CDE1E6"/>
<path d="M35 0H0V12.3047L35 15.0413V0Z" fill="#E1EBF0"/>
<path d="M35 70H70V12.3047H35L32.2634 41.1523L35 70Z" fill="#E1EBF0"/>
<path d="M0 12.3047H35V70H0V12.3047Z" fill="#FFF5F5"/>
<path d="M35 53.1656C32.7555 52.4732 30.6024 51.1337 28.984 49.4033C27.125 47.416 26.1013 45.0762 26.1013 42.8151V35.4707L35 33.0437L43.8987 35.4706V42.815C43.8987 45.0761 42.875 47.4159 41.016 49.4032C39.3976 51.1337 37.2445 52.4731 35 53.1656Z" fill="#E1EBF0"/>
<path d="M4.10156 4.10156H8.20312V8.20312H4.10156V4.10156Z" fill="#FF415B"/>
<path d="M12.3113 4.10156H16.4128V8.20312H12.3113V4.10156Z" fill="#FFC477"/>
<path d="M20.5209 4.10156H24.6225V8.20312H20.5209V4.10156Z" fill="#00CC76"/>
<path d="M35 24.541L32.2634 41.1523L35 61.5969L35.4022 61.5165C39.7776 60.6413 43.8989 58.3297 47.0068 55.0072C50.2924 51.4946 52.1019 47.1647 52.1019 42.8151V29.2052L35 24.541Z" fill="#FF415B"/>
<path d="M17.8981 29.2052V42.8151C17.8981 47.1645 19.7076 51.4944 22.9932 55.0072C26.101 58.3297 30.2222 60.6413 34.5978 61.5165L35 61.5969V24.541L17.8981 29.2052Z" fill="#FF946A"/>
<path d="M35 28.7925L32.2634 41.1524L35 57.4087C38.3514 56.647 41.6161 54.766 44.0114 52.2053C46.5836 49.4553 48.0003 46.1205 48.0003 42.8152V32.338L35 28.7925Z" fill="#FFC477"/>
<path d="M21.9997 32.338V42.8152C21.9997 46.1205 23.4164 49.4553 25.9886 52.2053C28.3839 54.7659 31.6485 56.647 35 57.4087V28.7925L21.9997 32.338Z" fill="#FFF68E"/>
<path d="M35 33.0437L32.2634 41.1523L35 53.19L35.7123 52.9261C37.7229 52.1814 39.5568 50.9633 41.0159 49.4033C42.0925 48.2523 43.8986 45.8659 43.8986 42.8151V35.4706L35 33.0437Z" fill="#07485E"/>
<path d="M26.1013 35.4706V42.8151C26.1013 45.866 27.9074 48.2524 28.984 49.4033C30.4432 50.9633 32.2771 52.1814 34.2876 52.9261L34.9999 53.19V33.0437L26.1013 35.4706Z" fill="#0B799D"/>
</svg>
