<svg width="70" height="70" viewBox="0 0 70 70" fill="none" xmlns="http://www.w3.org/2000/svg">
<path d="M35 0C15.7637 0 0 15.7637 0 35C0 54.2363 15.7637 70 35 70C54.2363 70 70 54.2363 70 35C70 15.7637 54.2363 0 35 0Z" fill="#FF6C6C"/>
<path d="M70 35C70 54.2363 54.2363 70 35 70V0C54.2363 0 70 15.7637 70 35Z" fill="#E63950"/>
<path d="M65.8984 35C65.8984 51.9805 51.9805 65.7617 35 65.7617C18.0195 65.7617 4.10156 52.3451 4.10156 35C4.10156 18.0195 18.0195 4.10156 35 4.10156C51.9805 4.10156 65.8984 18.0195 65.8984 35Z" fill="#DCF2EA"/>
<path d="M65.8984 35C65.8984 51.9805 51.9805 65.7617 35 65.7617V4.10156C51.9805 4.10156 65.8984 18.0195 65.8984 35Z" fill="#B5E5D3"/>
<path d="M10.8848 23.449L12.9359 19.8964L16.4884 21.9476L14.4373 25.5001L10.8848 23.449Z" fill="#44446B"/>
<path d="M53.5122 48.0632L55.5633 44.5107L59.1159 46.5618L57.0647 50.1144L53.5122 48.0632Z" fill="#35355E"/>
<path d="M44.5059 14.4424L46.557 10.8898L50.1095 12.941L48.0584 16.4935L44.5059 14.4424Z" fill="#35355E"/>
<path d="M19.8911 57.0696L21.9422 53.517L25.4948 55.5682L23.4437 59.1207L19.8911 57.0696Z" fill="#44446B"/>
<path d="M19.8931 12.9336L23.4456 10.8825L25.4967 14.435L21.9442 16.4861L19.8931 12.9336Z" fill="#44446B"/>
<path d="M44.5039 55.5544L48.0564 53.5033L50.1076 57.0559L46.555 59.107L44.5039 55.5544Z" fill="#35355E"/>
<path d="M53.5088 21.9385L57.0613 19.8874L59.1124 23.4399L55.5599 25.491L53.5088 21.9385Z" fill="#35355E"/>
<path d="M10.8882 46.5496L14.4407 44.4984L16.4918 48.051L12.9393 50.1021L10.8882 46.5496Z" fill="#44446B"/>
<path d="M8.33984 32.9492H12.4414V37.0508H8.33984V32.9492Z" fill="#44446B"/>
<path d="M57.5586 32.9492H61.6602V37.0508H57.5586V32.9492Z" fill="#35355E"/>
<path d="M32.9492 8.33984H37.0508V12.4414H32.9492V8.33984Z" fill="#44446B"/>
<path d="M32.9492 57.5586H37.0508V61.6602H32.9492V57.5586Z" fill="#44446B"/>
<path d="M28.8477 32.9492H49.3555V37.0508H28.8477V32.9492Z" fill="#44446B"/>
<path d="M35 8.33984H37.0508V12.4414H35V8.33984Z" fill="#35355E"/>
<path d="M35 57.5586H37.0508V61.6602H35V57.5586Z" fill="#35355E"/>
<path d="M35 32.9492H49.3555V37.0508H35V32.9492Z" fill="#35355E"/>
<path d="M32.9492 16.543H37.0508V41.1523H32.9492V16.543Z" fill="#44446B"/>
<path d="M35 16.543H37.0508V41.1523H35V16.543Z" fill="#35355E"/>
</svg>
