<svg width="70" height="70" viewBox="0 0 70 70" fill="none" xmlns="http://www.w3.org/2000/svg">
<path d="M21 46.9095V52.5824L17.727 54.0863V64.838C17.727 65.2014 17.4316 65.4964 17.068 65.4964H10.932C10.5684 65.4964 10.273 65.2014 10.273 64.838V54.0863L7 52.5824V46.9095C7 44.7144 8.78145 42.9346 10.9771 42.9346H17.0229C19.2186 42.9344 21 44.7144 21 46.9095Z" fill="#0DBFA9"/>
<path d="M18.152 38.7859C18.152 41.0766 16.2926 42.9344 13.9998 42.9344C13.4215 42.9344 12.8719 42.8169 12.3715 42.6024C10.8881 41.97 9.84766 40.4987 9.84766 38.7859C9.84766 37.0716 10.8881 35.6005 12.3715 34.9694C12.8719 34.7549 13.4215 34.6375 13.9998 34.6375C16.2926 34.6375 18.152 36.4938 18.152 38.7859Z" fill="#FFD9C0"/>
<path d="M18.1521 38.7859C18.1521 41.0766 16.2927 42.9344 13.9999 42.9344C13.4216 42.9344 12.872 42.8169 12.3716 42.6024C13.855 41.97 14.8954 40.4987 14.8954 38.7859C14.8954 37.0716 13.855 35.6005 12.3716 34.9694C12.872 34.7549 13.4216 34.6375 13.9999 34.6375C16.2927 34.6375 18.1521 36.4938 18.1521 38.7859Z" fill="#FFBCA1"/>
<path d="M35 46.9095V52.5824L31.727 54.0863V64.838C31.727 65.2017 31.4319 65.4964 31.068 65.4964H24.932C24.5681 65.4964 24.273 65.2017 24.273 64.838V54.0863L21 52.5824V46.9095C21 44.7144 22.7814 42.9346 24.9771 42.9346H31.0229C33.2186 42.9344 35 44.7144 35 46.9095Z" fill="#4390FF"/>
<path d="M32.1383 39.1272C31.9731 41.1937 30.2607 42.8395 28.1878 42.9303C27.5406 42.9586 26.9257 42.84 26.3715 42.6024C24.8881 41.9699 23.8477 40.4987 23.8477 38.7859C23.8477 37.0716 24.8881 35.6005 26.3715 34.9694C26.8719 34.7549 27.4215 34.6375 27.9998 34.6375C30.4054 34.6375 32.3338 36.681 32.1383 39.1272Z" fill="#FFD9C0"/>
<path d="M32.1384 39.1272C31.9732 41.1937 30.2608 42.8395 28.1879 42.9303C27.5407 42.9586 26.9258 42.84 26.3716 42.6024C27.855 41.9699 28.8954 40.4987 28.8954 38.7859C28.8954 37.0716 27.855 35.6005 26.3716 34.9694C26.872 34.7549 27.4216 34.6375 27.9999 34.6375C30.4055 34.6375 32.3339 36.681 32.1384 39.1272Z" fill="#FFBCA1"/>
<path d="M49 46.9095V52.5824L45.727 54.0863V64.838C45.727 65.2017 45.4319 65.4964 45.068 65.4964H38.932C38.5681 65.4964 38.273 65.2017 38.273 64.838V54.0863L35 52.5824V46.9095C35 44.7144 36.7814 42.9346 38.9771 42.9346H45.0229C47.2186 42.9344 49 44.7144 49 46.9095Z" fill="#0DBFA9"/>
<path d="M46.1383 39.1272C45.9731 41.1937 44.2607 42.8395 42.1878 42.9303C41.5406 42.9586 40.9257 42.84 40.3715 42.6024C38.8881 41.9699 37.8477 40.4987 37.8477 38.7859C37.8477 37.0716 38.8881 35.6005 40.3715 34.9694C40.8719 34.7549 41.4215 34.6375 41.9998 34.6375C44.4054 34.6375 46.3338 36.681 46.1383 39.1272Z" fill="#FFD9C0"/>
<path d="M46.1384 39.1272C45.9732 41.1937 44.2608 42.8395 42.1879 42.9303C41.5407 42.9586 40.9258 42.84 40.3716 42.6024C41.855 41.9699 42.8954 40.4987 42.8954 38.7859C42.8954 37.0716 41.855 35.6005 40.3716 34.9694C40.872 34.7549 41.4216 34.6375 41.9999 34.6375C44.4055 34.6375 46.3339 36.681 46.1384 39.1272Z" fill="#FFBCA1"/>
<path d="M63 46.9095V52.5824L59.727 54.0863V64.838C59.727 65.2017 59.4319 65.4964 59.068 65.4964H52.932C52.5681 65.4964 52.273 65.2017 52.273 64.838V54.0863L49 52.5824V46.9095C49 44.7144 50.7814 42.9346 52.9771 42.9346H59.0229C61.2186 42.9344 63 44.7144 63 46.9095Z" fill="#4390FF"/>
<path d="M60.1383 39.1272C59.9731 41.1937 58.2607 42.8395 56.1878 42.9303C55.5406 42.9586 54.9257 42.84 54.3715 42.6024C52.8881 41.9699 51.8477 40.4987 51.8477 38.7859C51.8477 37.0716 52.8881 35.6005 54.3715 34.9694C54.8719 34.7549 55.4215 34.6375 55.9998 34.6375C58.4054 34.6375 60.3338 36.681 60.1383 39.1272Z" fill="#FFD9C0"/>
<path d="M60.1384 39.1272C59.9732 41.1937 58.2608 42.8395 56.1879 42.9303C55.5407 42.9586 54.9258 42.84 54.3716 42.6024C55.855 41.9699 56.8954 40.4987 56.8954 38.7859C56.8954 37.0716 55.855 35.6005 54.3716 34.9694C54.872 34.7549 55.4216 34.6375 55.9999 34.6375C58.4055 34.6375 60.3339 36.681 60.1384 39.1272Z" fill="#FFBCA1"/>
<path d="M14 51.415V57.0858L10.727 58.5897V69.3414C10.727 69.7051 10.4322 69.9999 10.0685 69.9999H3.93203C3.56809 69.9999 3.27305 69.7048 3.27305 69.3409V58.5897L0.314043 57.2301C0.122637 57.1421 0 56.9509 0 56.7402V51.4129C0 49.2177 1.77967 47.438 3.97496 47.438H10.0229C12.2194 47.4379 14 49.2185 14 51.415Z" fill="#3EB1FF"/>
<path d="M14.0001 51.4129V57.0858L10.7271 58.5897V69.3414C10.7271 69.7048 10.4317 69.9999 10.0681 69.9999H7.60713C7.9708 69.9999 8.26611 69.7048 8.26611 69.3414V58.6704L11.5392 57.1679V51.4129C11.5392 49.2178 9.75772 47.438 7.56201 47.438H10.0229C12.2187 47.4379 14.0001 49.2178 14.0001 51.4129Z" fill="#4390FF"/>
<path d="M11.152 43.2896C11.152 45.5803 9.29258 47.438 6.9998 47.438C6.42148 47.438 5.87188 47.3206 5.37148 47.1061C3.88809 46.4736 2.84766 45.0025 2.84766 43.2896C2.84766 41.5753 3.88809 40.1042 5.37148 39.4731C5.87188 39.2586 6.42148 39.1411 6.9998 39.1411C9.29258 39.1411 11.152 40.9975 11.152 43.2896Z" fill="#FFD9C0"/>
<path d="M11.1521 43.2896C11.1521 45.5803 9.29268 47.438 6.9999 47.438C6.42158 47.438 5.87197 47.3206 5.37158 47.1061C6.85498 46.4736 7.89541 45.0025 7.89541 43.2896C7.89541 41.5753 6.85498 40.1042 5.37158 39.4731C5.87197 39.2586 6.42158 39.1411 6.9999 39.1411C9.29268 39.1411 11.1521 40.9975 11.1521 43.2896Z" fill="#FFBCA1"/>
<path d="M28 51.4129V57.0858L24.727 58.5897V69.3414C24.727 69.7048 24.4316 69.9999 24.068 69.9999H17.932C17.5684 69.9999 17.273 69.7048 17.273 69.3414V58.5897L14 57.0858V51.4129C14 49.2178 15.7814 47.438 17.9771 47.438H24.0229C26.2186 47.4379 28 49.2178 28 51.4129Z" fill="#44E0AC"/>
<path d="M28.0001 51.4129V57.0858L24.727 58.5897V69.3414C24.727 69.7048 24.4317 69.9999 24.0681 69.9999H21.6071C21.9708 69.9999 22.2661 69.7048 22.2661 69.3414V58.6704L25.5392 57.1679V51.4129C25.5392 49.2178 23.7577 47.438 21.562 47.438H24.0229C26.2187 47.4379 28.0001 49.2178 28.0001 51.4129Z" fill="#0DBFA9"/>
<path d="M25.152 43.2896C25.152 45.5803 23.2926 47.438 20.9998 47.438C20.4215 47.438 19.8719 47.3206 19.3715 47.1061C17.8881 46.4736 16.8477 45.0025 16.8477 43.2896C16.8477 41.5753 17.8881 40.1042 19.3715 39.4731C19.8719 39.2586 20.4215 39.1411 20.9998 39.1411C23.2926 39.1411 25.152 40.9975 25.152 43.2896Z" fill="#FFD9C0"/>
<path d="M25.1521 43.2896C25.1521 45.5803 23.2927 47.438 20.9999 47.438C20.4216 47.438 19.872 47.3206 19.3716 47.1061C20.855 46.4736 21.8954 45.0025 21.8954 43.2896C21.8954 41.5753 20.855 40.1042 19.3716 39.4731C19.872 39.2586 20.4216 39.1411 20.9999 39.1411C23.2927 39.1411 25.1521 40.9975 25.1521 43.2896Z" fill="#FFBCA1"/>
<path d="M42 51.4129V57.0858L38.7269 58.5897V69.3414C38.7269 69.7048 38.4316 69.9999 38.068 69.9999H31.932C31.5684 69.9999 31.273 69.7048 31.273 69.3414V58.5897L28 57.0858V51.4129C28 49.2178 29.7814 47.438 31.9771 47.438H38.0228C40.2185 47.4379 42 49.2178 42 51.4129Z" fill="#FFC73B"/>
<path d="M42.0001 51.4129V57.0858L38.7271 58.5897V69.3414C38.7271 69.7048 38.4317 69.9999 38.0681 69.9999H35.6071C35.9708 69.9999 36.2661 69.7048 36.2661 69.3414V58.6704L39.5392 57.1679V51.4129C39.5392 49.2178 37.7577 47.438 35.562 47.438H38.0229C40.2187 47.4379 42.0001 49.2178 42.0001 51.4129Z" fill="#FFA73E"/>
<path d="M39.152 43.2896C39.152 45.5803 37.2926 47.438 34.9998 47.438C34.4215 47.438 33.8719 47.3206 33.3715 47.1061C31.8881 46.4736 30.8477 45.0025 30.8477 43.2896C30.8477 41.5753 31.8881 40.1042 33.3715 39.4731C33.8719 39.2586 34.4215 39.1411 34.9998 39.1411C37.2926 39.1411 39.152 40.9975 39.152 43.2896Z" fill="#FFD9C0"/>
<path d="M39.152 43.2896C39.152 45.5803 37.2927 47.438 34.9999 47.438C34.4216 47.438 33.872 47.3206 33.3716 47.1061C34.855 46.4736 35.8954 45.0025 35.8954 43.2896C35.8954 41.5753 34.855 40.1042 33.3716 39.4731C33.872 39.2586 34.4216 39.1411 34.9999 39.1411C37.2927 39.1411 39.152 40.9975 39.152 43.2896Z" fill="#FFBCA1"/>
<path d="M56 51.4129V57.0858L52.727 58.5897V69.3414C52.727 69.7048 52.4316 69.9999 52.068 69.9999H45.932C45.5684 69.9999 45.273 69.7048 45.273 69.3414V58.5897L42 57.0858V51.4129C42 49.2178 43.7814 47.438 45.9771 47.438H52.0229C54.2186 47.4379 56 49.2178 56 51.4129Z" fill="#44E0AC"/>
<path d="M56.0001 51.4129V57.0858L52.727 58.5897V69.3414C52.727 69.7048 52.4317 69.9999 52.0681 69.9999H49.6071C49.9708 69.9999 50.2661 69.7048 50.2661 69.3414V58.6704L53.5392 57.1679V51.4129C53.5392 49.2178 51.7577 47.438 49.562 47.438H52.0229C54.2187 47.4379 56.0001 49.2178 56.0001 51.4129Z" fill="#0DBFA9"/>
<path d="M53.152 43.2896C53.152 45.5803 51.2926 47.438 48.9998 47.438C48.4215 47.438 47.8719 47.3206 47.3715 47.1061C45.8881 46.4736 44.8477 45.0025 44.8477 43.2896C44.8477 41.5753 45.8881 40.1042 47.3715 39.4731C47.8719 39.2586 48.4215 39.1411 48.9998 39.1411C51.2926 39.1411 53.152 40.9975 53.152 43.2896Z" fill="#FFD9C0"/>
<path d="M53.1521 43.2896C53.1521 45.5803 51.2927 47.438 48.9999 47.438C48.4216 47.438 47.872 47.3206 47.3716 47.1061C48.855 46.4736 49.8954 45.0025 49.8954 43.2896C49.8954 41.5753 48.855 40.1042 47.3716 39.4731C47.872 39.2586 48.4216 39.1411 48.9999 39.1411C51.2927 39.1411 53.1521 40.9975 53.1521 43.2896Z" fill="#FFBCA1"/>
<path d="M70 51.415V56.7401C70 56.9507 69.8774 57.1421 69.686 57.2301L66.727 58.5897V69.3414C66.727 69.7051 66.4322 69.9999 66.0685 69.9999H59.932C59.5681 69.9999 59.273 69.7048 59.273 69.3409V58.5897L56 57.0858V51.4129C56 49.2177 57.7797 47.438 59.975 47.438H66.0229C68.2194 47.4379 70 49.2185 70 51.415Z" fill="#3EB1FF"/>
<path d="M70.0001 51.415V56.7401C70.0001 56.9507 69.8775 57.1421 69.6861 57.2301L66.727 58.5897V69.3414C66.727 69.7051 66.4323 69.9999 66.0686 69.9999H63.6071C63.9708 69.9999 64.2661 69.7048 64.2661 69.3414V58.6704L67.5392 57.1679V51.4129C67.5392 49.2178 65.7577 47.438 63.562 47.438H66.0229C68.2195 47.4379 70.0001 49.2185 70.0001 51.415Z" fill="#4390FF"/>
<path d="M67.152 43.2896C67.152 45.5803 65.2926 47.438 62.9998 47.438C62.4215 47.438 61.8719 47.3206 61.3715 47.1061C59.8881 46.4736 58.8477 45.0025 58.8477 43.2896C58.8477 41.5753 59.8881 40.1042 61.3715 39.4731C61.8719 39.2586 62.4215 39.1411 62.9998 39.1411C65.2926 39.1411 67.152 40.9975 67.152 43.2896Z" fill="#FFD9C0"/>
<path d="M67.1521 43.2896C67.1521 45.5803 65.2927 47.438 62.9999 47.438C62.4216 47.438 61.872 47.3206 61.3716 47.1061C62.855 46.4736 63.8954 45.0025 63.8954 43.2896C63.8954 41.5753 62.855 40.1042 61.3716 39.4731C61.872 39.2586 62.4216 39.1411 62.9999 39.1411C65.2927 39.1411 67.1521 40.9975 67.1521 43.2896Z" fill="#FFBCA1"/>
<path d="M37.5343 26.454L36.1131 27.874V19.2581C36.1131 18.6923 35.6542 18.2336 35.0877 18.2336C34.5214 18.2336 34.0623 18.6923 34.0623 19.2581V27.874L32.641 26.454C32.2406 26.054 31.5913 26.054 31.191 26.454C30.7905 26.854 30.7905 27.5028 31.191 27.9028L34.3627 31.0717C34.5629 31.2717 34.8254 31.3718 35.0877 31.3718C35.3501 31.3718 35.6126 31.2717 35.8129 31.0717L38.9845 27.9028C39.3849 27.5028 39.3849 26.854 38.9845 26.454C38.584 26.054 37.9349 26.054 37.5343 26.454Z" fill="#4C7889"/>
<path d="M16.6749 26.4547L15.2537 27.8747V19.2588C15.2537 18.6931 14.7946 18.2344 14.2283 18.2344C13.6621 18.2344 13.203 18.6931 13.203 19.2588V27.8747L11.7816 26.4547C11.3812 26.0547 10.7319 26.0547 10.3316 26.4547C9.93114 26.8548 9.93114 27.5035 10.3316 27.9035L13.5033 31.0724C13.7035 31.2724 13.966 31.3725 14.2283 31.3725C14.4907 31.3725 14.7532 31.2724 14.9534 31.0724L18.125 27.9035C18.5254 27.5035 18.5254 26.8548 18.125 26.4547C17.7247 26.0547 17.0754 26.0547 16.6749 26.4547Z" fill="#4C7889"/>
<path d="M60.2794 26.4539C59.879 26.0538 59.2297 26.0537 58.8294 26.4539L57.408 27.8738V19.2578C57.408 18.6921 56.9491 18.2334 56.3826 18.2334C55.8162 18.2334 55.3573 18.6921 55.3573 19.2578V27.8737L53.9361 26.4537C53.5355 26.0537 52.8863 26.0537 52.4859 26.4537C52.0854 26.8538 52.0854 27.5025 52.4859 27.9026L55.6575 31.0714C55.8578 31.2716 56.1201 31.3715 56.3826 31.3715C56.645 31.3715 56.9075 31.2714 57.1077 31.0714L60.2794 27.9026C60.6799 27.5027 60.6799 26.8541 60.2794 26.4539Z" fill="#4C7889"/>
<path d="M22.0069 1.02443V14.519C22.0069 15.0845 21.5476 15.5434 20.9815 15.5434H7.4751C6.90908 15.5434 6.44971 15.0845 6.44971 14.519V1.02443C6.44971 0.458965 6.90908 0 7.4751 0H20.9815C21.5476 0 22.0069 0.458965 22.0069 1.02443Z" fill="#FFC73B"/>
<path d="M17.4636 0V7.226C17.4636 7.63438 17.2202 8.00461 16.8456 8.1658C16.7144 8.22322 16.5763 8.25043 16.4396 8.25043C16.1825 8.25043 15.9296 8.1535 15.7354 7.97043C14.8905 7.17404 13.5657 7.17404 12.7208 7.97043C12.4241 8.2518 11.988 8.32836 11.612 8.1658C11.236 8.00461 10.9927 7.63438 10.9927 7.226V0H17.4636Z" fill="#FF5A39"/>
<path d="M22.0069 9.32837V14.5192C22.0069 15.0846 21.5476 15.5436 20.9815 15.5436H7.4751C6.90908 15.5436 6.44971 15.0846 6.44971 14.5192V9.32837C6.44971 9.89384 6.90908 10.3528 7.4751 10.3528H20.9815C21.5476 10.3528 22.0069 9.89384 22.0069 9.32837Z" fill="#FFA73E"/>
<path d="M42.8663 1.0342V14.5287C42.8663 15.0942 42.4069 15.5532 41.8409 15.5532H28.3345C27.7685 15.5532 27.3091 15.0942 27.3091 14.5287V1.0342C27.3091 0.46873 27.7685 0.00976562 28.3345 0.00976562H41.8409C42.4069 0.00976562 42.8663 0.46873 42.8663 1.0342Z" fill="#FFC73B"/>
<path d="M38.3229 0.00976562V7.23576C38.3229 7.64414 38.0796 8.01437 37.705 8.17557C37.5737 8.23299 37.4356 8.2602 37.2989 8.2602C37.0419 8.2602 36.789 8.16326 36.5948 7.9802C35.7499 7.18381 34.4251 7.18381 33.5802 7.9802C33.2835 8.26156 32.8474 8.33813 32.4714 8.17557C32.0954 8.01437 31.8521 7.64414 31.8521 7.23576V0.00976562H38.3229Z" fill="#FF5A39"/>
<path d="M42.8663 9.33813V14.5289C42.8663 15.0944 42.4069 15.5534 41.8409 15.5534H28.3345C27.7685 15.5534 27.3091 15.0944 27.3091 14.5289V9.33813C27.3091 9.9036 27.7685 10.3626 28.3345 10.3626H41.8409C42.4069 10.3626 42.8663 9.9036 42.8663 9.33813Z" fill="#FFA73E"/>
<path d="M64.1612 1.0342V14.5287C64.1612 15.0942 63.7019 15.5532 63.1358 15.5532H49.6294C49.0634 15.5532 48.604 15.0942 48.604 14.5287V1.0342C48.604 0.46873 49.0634 0.00976562 49.6294 0.00976562H63.1358C63.7019 0.00976562 64.1612 0.46873 64.1612 1.0342Z" fill="#FFC73B"/>
<path d="M59.6179 0.00976562V7.23576C59.6179 7.64414 59.3745 8.01437 58.9999 8.17557C58.8687 8.23299 58.7306 8.2602 58.5938 8.2602C58.3368 8.2602 58.0839 8.16326 57.8897 7.9802C57.0448 7.18381 55.72 7.18381 54.8751 7.9802C54.5784 8.26156 54.1423 8.33813 53.7663 8.17557C53.3903 8.01437 53.147 7.64414 53.147 7.23576V0.00976562H59.6179Z" fill="#FF5A39"/>
<path d="M64.1612 9.33813V14.5289C64.1612 15.0944 63.7019 15.5534 63.1358 15.5534H49.6294C49.0634 15.5534 48.604 15.0944 48.604 14.5289V9.33813C48.604 9.9036 49.0634 10.3626 49.6294 10.3626H63.1358C63.7019 10.3626 64.1612 9.9036 64.1612 9.33813Z" fill="#FFA73E"/>
</svg>
