<svg width="70" height="70" viewBox="0 0 70 70" fill="none" xmlns="http://www.w3.org/2000/svg">
<path d="M3.28125 12.0312V62.3438C3.28125 63.5041 3.74219 64.6169 4.56266 65.4373C5.38313 66.2578 6.49593 66.7188 7.65625 66.7188H62.3438C63.5041 66.7188 64.6169 66.2578 65.4373 65.4373C66.2578 64.6169 66.7188 63.5041 66.7188 62.3438V12.0312H3.28125Z" fill="#FFEB99"/>
<path d="M62.3438 3.28125H7.65625C6.49593 3.28125 5.38313 3.74219 4.56266 4.56266C3.74219 5.38313 3.28125 6.49593 3.28125 7.65625V12.0312H66.7188V7.65625C66.7188 6.49593 66.2578 5.38313 65.4373 4.56266C64.6169 3.74219 63.5041 3.28125 62.3438 3.28125Z" fill="#004FAC"/>
<path d="M3.28126 32.8125V62.3437C3.28126 63.5041 3.74219 64.6169 4.56266 65.4373C5.38314 66.2578 6.49593 66.7187 7.65626 66.7187H37.1875C32.7342 66.7213 28.324 65.8461 24.2091 64.143C20.0942 62.44 16.3554 59.9426 13.2064 56.7936C10.0574 53.6446 7.55998 49.9058 5.85695 45.7909C4.15391 41.6761 3.27867 37.2659 3.28126 32.8125Z" fill="#FFDE55"/>
<path d="M6.5625 6.5625H8.75V8.75H6.5625V6.5625Z" fill="#F1F2F2"/>
<path d="M10.9375 6.5625H13.125V8.75H10.9375V6.5625Z" fill="#F1F2F2"/>
<path d="M15.3125 6.5625H17.5V8.75H15.3125V6.5625Z" fill="#F1F2F2"/>
<path d="M12.0312 61.25C11.7412 61.25 11.463 61.1348 11.2579 60.9296C11.0527 60.7245 10.9375 60.4463 10.9375 60.1562V18.5938C10.9375 18.3037 11.0527 18.0255 11.2579 17.8204C11.463 17.6152 11.7412 17.5 12.0312 17.5C12.3213 17.5 12.5995 17.6152 12.8046 17.8204C13.0098 18.0255 13.125 18.3037 13.125 18.5938V60.1562C13.125 60.4463 13.0098 60.7245 12.8046 60.9296C12.5995 61.1348 12.3213 61.25 12.0312 61.25Z" fill="#FFCD00"/>
<path d="M21.8748 26.25C21.5847 26.2499 21.3066 26.1346 21.1015 25.9295L17.8202 22.6483C17.6152 22.4432 17.5 22.165 17.5 21.875C17.5 21.585 17.6152 21.3068 17.8202 21.1017L21.1015 17.8205C21.3078 17.6212 21.5841 17.511 21.8708 17.5135C22.1576 17.516 22.4319 17.631 22.6347 17.8338C22.8375 18.0366 22.9525 18.3109 22.955 18.5977C22.9575 18.8845 22.8473 19.1607 22.6481 19.367L20.1401 21.875L22.6481 24.383C22.801 24.5359 22.9051 24.7308 22.9473 24.9429C22.9895 25.1551 22.9678 25.3749 22.885 25.5748C22.8023 25.7746 22.6621 25.9454 22.4823 26.0656C22.3025 26.1858 22.0911 26.2499 21.8748 26.25Z" fill="#FFCD00"/>
<path d="M30.6248 26.25C30.4085 26.2499 30.1971 26.1858 30.0172 26.0656C29.8374 25.9454 29.6973 25.7746 29.6145 25.5748C29.5317 25.3749 29.5101 25.1551 29.5523 24.9429C29.5944 24.7308 29.6986 24.5359 29.8515 24.383L32.3595 21.875L29.8515 19.367C29.6522 19.1607 29.542 18.8845 29.5445 18.5977C29.547 18.3109 29.662 18.0366 29.8648 17.8338C30.0676 17.631 30.3419 17.516 30.6287 17.5135C30.9155 17.511 31.1918 17.6212 31.398 17.8205L34.6793 21.1017C34.8843 21.3068 34.9995 21.585 34.9995 21.875C34.9995 22.165 34.8843 22.4432 34.6793 22.6483L31.398 25.9295C31.193 26.1346 30.9148 26.2499 30.6248 26.25Z" fill="#FFCD00"/>
<path d="M25.1563 27.3437C25.0666 27.3441 24.9773 27.3331 24.8905 27.3109C24.7511 27.2761 24.6199 27.2142 24.5044 27.1287C24.3889 27.0432 24.2914 26.9358 24.2175 26.8126C24.1435 26.6893 24.0946 26.5528 24.0734 26.4106C24.0523 26.2685 24.0594 26.1236 24.0942 25.9842L26.2817 17.2342C26.3539 16.9546 26.5337 16.715 26.7819 16.5674C27.03 16.4199 27.3265 16.3764 27.6066 16.4466C27.8866 16.5168 28.1276 16.6948 28.2769 16.942C28.4262 17.1891 28.4718 17.4852 28.4036 17.7658L26.2161 26.5158C26.1569 26.7521 26.0205 26.9619 25.8285 27.1119C25.6365 27.2619 25.3999 27.3435 25.1563 27.3437Z" fill="#FFCD00"/>
<path d="M20.7812 31.7188H25.1562V33.9062H20.7812V31.7188Z" fill="#FFCD00"/>
<path d="M27.3438 31.7188H33.9062V33.9062H27.3438V31.7188Z" fill="#FFCD00"/>
<path d="M25.1562 36.0938H45.9375V38.2812H25.1562V36.0938Z" fill="#FFCD00"/>
<path d="M49.2188 36.0938H59.0625V38.2812H49.2188V36.0938Z" fill="#FFCD00"/>
<path d="M25.1562 40.4688H27.3438V42.6562H25.1562V40.4688Z" fill="#FFCD00"/>
<path d="M29.5312 40.4688H49.2188V42.6562H29.5312V40.4688Z" fill="#FFCD00"/>
<path d="M51.4062 40.4688H59.0625V42.6562H51.4062V40.4688Z" fill="#FFCD00"/>
<path d="M20.7812 44.8438H25.1562V47.0312H20.7812V44.8438Z" fill="#FFCD00"/>
<path d="M27.3438 44.8438H33.9062V47.0312H27.3438V44.8438Z" fill="#FFCD00"/>
<path d="M25.1562 49.2188H45.9375V51.4062H25.1562V49.2188Z" fill="#FFCD00"/>
<path d="M49.2188 49.2188H59.0625V51.4062H49.2188V49.2188Z" fill="#FFCD00"/>
<path d="M25.1562 53.5938H37.1875V55.7812H25.1562V53.5938Z" fill="#FFCD00"/>
<path d="M39.375 53.5938H41.5625V55.7812H39.375V53.5938Z" fill="#FFCD00"/>
<path d="M45.9375 53.5938H54.6875V55.7812H45.9375V53.5938Z" fill="#FFCD00"/>
<path d="M20.7812 59.0625H25.1562V61.25H20.7812V59.0625Z" fill="#FFCD00"/>
<path d="M27.3438 59.0625H33.9062V61.25H27.3438V59.0625Z" fill="#FFCD00"/>
</svg>
