<svg width="30" height="30" viewBox="0 0 30 30" fill="none" xmlns="http://www.w3.org/2000/svg">
<g clip-path="url(#clip0_151_516)">
<path d="M29.9867 10.9437V25.1263C29.9867 26.9446 28.5075 28.4238 26.6893 28.4238H3.29748C1.47923 28.4239 0 26.9446 0 25.1263V8.70243C0 6.88419 1.47923 5.40496 3.29748 5.40496H16.6178C16.9272 5.40496 17.1779 5.65572 17.1779 5.96511C17.1779 6.2745 16.9272 6.52526 16.6178 6.52526H3.29748C2.09695 6.5252 1.1203 7.50191 1.1203 8.70243V10.3633L13.9246 16.5815C14.6028 16.9109 15.3799 16.9089 16.0563 16.5761L23.3413 12.9929C23.619 12.8564 23.9546 12.9708 24.0912 13.2484C24.2277 13.526 24.1134 13.8617 23.8358 13.9983L16.5508 17.5814C15.5628 18.0674 14.4273 18.071 13.4353 17.5893L1.1203 11.6087V25.1263C1.1203 26.3269 2.09695 27.3035 3.29748 27.3035H26.6892C27.8897 27.3035 28.8663 26.3269 28.8663 25.1263V10.9437C28.8663 10.6343 29.1171 10.3836 29.4265 10.3836C29.7359 10.3836 29.9867 10.6344 29.9867 10.9437ZM8.74936 18.8823L3.29026 24.3414C2.93618 24.6955 3.19186 25.2977 3.68635 25.2977C3.82968 25.2977 3.97302 25.243 4.08244 25.1336L9.54153 19.6745C9.7603 19.4558 9.7603 19.1011 9.54153 18.8823C9.32276 18.6636 8.96806 18.6636 8.74936 18.8823ZM21.2374 18.8823C21.0186 18.6636 20.664 18.6636 20.4452 18.8823C20.2264 19.1011 20.2264 19.4558 20.4452 19.6746L25.9043 25.1337C26.1232 25.3524 26.4777 25.3524 26.6965 25.1337C26.9153 24.9149 26.9153 24.5602 26.6965 24.3414L21.2374 18.8823ZM19.7874 4.79271L29.2604 1.60627C29.6983 1.45895 30.1173 1.87751 29.9699 2.31573L26.7834 11.7888C26.6268 12.2547 25.9862 12.3063 25.757 11.8714L23.6682 7.90789L19.7048 5.81916C19.2708 5.59049 19.3208 4.94962 19.7874 4.79271ZM21.3839 5.43776L23.9787 6.80527L25.8561 4.9279C26.0749 4.70919 26.4295 4.70919 26.6483 4.9279C26.8671 5.14667 26.8671 5.50137 26.6483 5.72014L24.771 7.59751L26.1385 10.1924L28.5485 3.02781L21.3839 5.43776Z" fill="#FF0A2D"/>
</g>
<defs>
<clipPath id="clip0_151_516">
<rect width="30" height="30" fill="white"/>
</clipPath>
</defs>
</svg>
