<svg width="30" height="30" viewBox="0 0 30 30" fill="none" xmlns="http://www.w3.org/2000/svg">
<path d="M15 0C6.71582 0 0 6.71582 0 15C0 23.2842 6.71582 30 15 30C23.2842 30 30 23.2842 30 15C29.9907 6.71973 23.2803 0.00927738 15 0ZM15 29C7.26807 29 1 22.7319 1 15C1 7.26807 7.26807 1 15 1C22.7319 1 29 7.26807 29 15C28.9912 22.7283 22.7283 28.9912 15 29Z" fill="#FF0A2D"/>
<path d="M21.5735 16.8292L17.3296 16.0792C17.1147 16.0413 16.9004 16.1468 16.7996 16.3401L15.7705 18.3121C13.9497 17.5057 12.4946 16.0499 11.689 14.2286L13.6589 13.1995C13.8523 13.0987 13.9578 12.8843 13.9199 12.6695L13.1699 8.42609C13.1465 8.29254 13.0698 8.17438 12.9575 8.09845C11.8845 7.37482 10.4998 7.30206 9.35693 7.90948C8.21411 8.51715 7.5 9.70587 7.5 11.0001C7.50708 17.3484 12.6516 22.493 19 22.5001C20.2944 22.4998 21.4832 21.7852 22.0906 20.6422C22.6978 19.4988 22.6245 18.1138 21.8999 17.0411C21.8242 16.9293 21.7065 16.8526 21.5735 16.8292ZM19 21.5001C13.2039 21.4935 8.50659 16.7962 8.5 11.0001C8.49976 10.1119 8.97095 9.29034 9.73755 8.84161C10.5042 8.39313 11.4514 8.38507 12.2256 8.82062L12.8721 12.4835L10.822 13.5535C10.5974 13.6707 10.4958 13.9371 10.5854 14.1741C11.4995 16.5921 13.4077 18.5015 15.8254 19.4166C16.0625 19.5062 16.3289 19.4046 16.446 19.18L17.5166 17.1299L21.1794 17.7767C21.614 18.5506 21.6052 19.4969 21.157 20.263C20.7085 21.0289 19.8877 21.4998 19 21.5001Z" fill="#FF0A2D"/>
</svg>
