<svg width="30" height="30" viewBox="0 0 30 30" fill="none" xmlns="http://www.w3.org/2000/svg">
<path d="M14.992 0.00781971C6.71259 0.00957648 0.00223691 6.72278 0.00399369 15.0022C0.00457928 17.869 0.827277 20.6756 2.37441 23.0892L0.0420571 29.1406C-0.0821468 29.4624 0.078071 29.824 0.399912 29.9482C0.471881 29.976 0.548301 29.9902 0.625423 29.9901C0.696983 29.9905 0.768015 29.9782 0.835299 29.9539L7.08163 27.7239C14.1094 32.1009 23.3549 29.952 27.7318 22.9241C32.1088 15.8963 29.9599 6.65093 22.932 2.274C20.5497 0.790227 17.7987 0.00506744 14.992 0.00781971Z" fill="#4CAF50"/>
<path d="M22.139 17.5617C22.139 17.5617 20.6086 16.8121 19.6504 16.3124C18.5661 15.754 17.2918 16.7996 16.6922 17.3943C15.7589 17.0358 14.9066 16.4947 14.1849 15.8027C13.4928 15.0812 12.9517 14.2288 12.5934 13.2955C13.188 12.6946 14.2311 11.4216 13.6752 10.3372C13.1818 9.3778 12.426 7.8487 12.426 7.84747C12.3199 7.63701 12.1045 7.50414 11.8688 7.50391H10.6196C8.80026 7.81813 7.47747 9.40555 7.49644 11.2517C7.49644 13.213 9.84378 16.9808 11.4266 18.5648C13.0095 20.1489 16.7772 22.495 18.7398 22.495C20.5859 22.514 22.1733 21.1912 22.4876 19.3719V18.1227C22.4877 17.8844 22.3526 17.6669 22.139 17.5617Z" fill="#FAFAFA"/>
</svg>
