<svg width="30" height="30" viewBox="0 0 30 30" fill="none" xmlns="http://www.w3.org/2000/svg">
<g clip-path="url(#clip0_158_1036)">
<path d="M27.5 6.25006H21.25V5.00002C21.25 3.62125 20.1288 2.5 18.75 2.5H11.25C9.87123 2.5 8.74998 3.62119 8.74998 5.00002V6.25H2.50002C1.12119 6.25006 0 7.37125 0 8.75002V25C0 26.3788 1.12119 27.5 2.50002 27.5H27.5C28.8788 27.5 30.0001 26.3788 30.0001 25V8.75002C30 7.37125 28.8788 6.25006 27.5 6.25006ZM10 5.00002C10 4.31096 10.5609 3.75004 11.25 3.75004H18.75C19.4391 3.75004 20 4.31096 20 5.00002V6.25H10V5.00002ZM28.75 25.0001C28.75 25.6891 28.1891 26.25 27.5 26.25H2.50002C1.81096 26.25 1.25004 25.6891 1.25004 25.0001V15.9024C1.61924 16.1177 2.04264 16.2501 2.50002 16.2501H12.5V18.1251C12.5 18.4705 12.7796 18.7501 13.1251 18.7501H16.8751C17.2205 18.7501 17.5001 18.4705 17.5001 18.1251V16.2501H27.5001C27.9575 16.2501 28.3809 16.1177 28.7501 15.9024V25.0001H28.75ZM13.75 17.5001V15H16.25V17.5001H13.75ZM28.75 13.7501C28.75 14.4391 28.1891 15 27.5 15H17.5V14.375C17.5 14.0296 17.2205 13.75 16.875 13.75H13.125C12.7795 13.75 12.5 14.0296 12.5 14.375V15H2.50002C1.81096 15 1.25004 14.4391 1.25004 13.7501V8.75008C1.25004 8.06102 1.81096 7.5001 2.50002 7.5001H27.5C28.1891 7.5001 28.75 8.06102 28.75 8.75008V13.7501Z" fill="#FF0A2D"/>
</g>
<defs>
<clipPath id="clip0_158_1036">
<rect width="30" height="30" fill="white"/>
</clipPath>
</defs>
</svg>
