<svg width="70" height="70" viewBox="0 0 70 70" fill="none" xmlns="http://www.w3.org/2000/svg">
<path d="M41.9119 61.0564H45.6241V64.2383H41.9119V61.0564Z" fill="#E87B31"/>
<path d="M24.6711 55.0864H28.2241V65.37H24.6711V55.0864Z" fill="#E87B31"/>
<path d="M23.4055 62.7996H10.6423C9.94332 62.7996 9.37671 63.3662 9.37671 64.0651V66.6759C9.37671 67.3749 9.94332 67.9415 10.6423 67.9415H23.4055C24.1045 67.9415 24.6711 67.3749 24.6711 66.6759V64.0651C24.6711 63.3662 24.1045 62.7996 23.4055 62.7996Z" fill="#FFB655"/>
<path d="M23.4055 57.6577H10.6423C9.94332 57.6577 9.37671 58.2243 9.37671 58.9233V61.5341C9.37671 62.233 9.94332 62.7996 10.6423 62.7996H23.4055C24.1045 62.7996 24.6711 62.233 24.6711 61.5341V58.9233C24.6711 58.2243 24.1045 57.6577 23.4055 57.6577Z" fill="#FFB655"/>
<path d="M23.4055 52.5159H10.6423C9.94332 52.5159 9.37671 53.0825 9.37671 53.7814V56.3922C9.37671 57.0912 9.94332 57.6578 10.6423 57.6578H23.4055C24.1045 57.6578 24.6711 57.0912 24.6711 56.3922V53.7814C24.6711 53.0825 24.1045 52.5159 23.4055 52.5159Z" fill="#FFB655"/>
<path d="M57.7699 62.7996H45.0336C44.3347 62.7996 43.7681 63.3662 43.7681 64.0651V66.6759C43.7681 67.3749 44.3347 67.9415 45.0336 67.9415H57.7699C58.4689 67.9415 59.0355 67.3749 59.0355 66.6759V64.0651C59.0355 63.3662 58.4689 62.7996 57.7699 62.7996Z" fill="#FFB655"/>
<path d="M57.7699 57.6577H45.0336C44.3347 57.6577 43.7681 58.2243 43.7681 58.9233V61.5341C43.7681 62.233 44.3347 62.7996 45.0336 62.7996H57.7699C58.4689 62.7996 59.0355 62.233 59.0355 61.5341V58.9233C59.0355 58.2243 58.4689 57.6577 57.7699 57.6577Z" fill="#FFB655"/>
<path d="M41.0615 62.7996H27.8381C27.1391 62.7996 26.5725 63.3662 26.5725 64.0651V66.6759C26.5725 67.3749 27.1391 67.9415 27.8381 67.9415H41.0615C41.7604 67.9415 42.3271 67.3749 42.3271 66.6759V64.0651C42.3271 63.3662 41.7604 62.7996 41.0615 62.7996Z" fill="#FFB655"/>
<path d="M41.0615 57.6577H27.8381C27.1391 57.6577 26.5725 58.2243 26.5725 58.9233V61.5341C26.5725 62.233 27.1391 62.7996 27.8381 62.7996H41.0615C41.7604 62.7996 42.3271 62.233 42.3271 61.5341V58.9233C42.3271 58.2243 41.7604 57.6577 41.0615 57.6577Z" fill="#FFB655"/>
<path d="M41.0615 52.5159H27.8381C27.1391 52.5159 26.5725 53.0825 26.5725 53.7814V56.3922C26.5725 57.0912 27.1391 57.6578 27.8381 57.6578H41.0615C41.7604 57.6578 42.3271 57.0912 42.3271 56.3922V53.7814C42.3271 53.0825 41.7604 52.5159 41.0615 52.5159Z" fill="#FFB655"/>
<path d="M41.0615 47.3738H27.8381C27.1391 47.3738 26.5725 47.9404 26.5725 48.6393V51.2501C26.5725 51.9491 27.1391 52.5157 27.8381 52.5157H41.0615C41.7604 52.5157 42.3271 51.9491 42.3271 51.2501V48.6393C42.3271 47.9404 41.7604 47.3738 41.0615 47.3738Z" fill="#FFB655"/>
<path d="M41.0615 42.2322H27.8381C27.1391 42.2322 26.5725 42.7988 26.5725 43.4977V46.1085C26.5725 46.8075 27.1391 47.3741 27.8381 47.3741H41.0615C41.7604 47.3741 42.3271 46.8075 42.3271 46.1085V43.4977C42.3271 42.7988 41.7604 42.2322 41.0615 42.2322Z" fill="#FFB655"/>
<path d="M25.3068 52.5159H22.7705V67.9414H25.3076C25.6432 67.9414 25.9651 67.8081 26.2025 67.5707C26.4398 67.3334 26.5732 67.0115 26.5732 66.6758V64.065C26.5732 63.7294 26.4398 63.4075 26.2025 63.1702C25.9651 62.9328 25.6432 62.7995 25.3076 62.7995C25.6432 62.7995 25.9651 62.6662 26.2025 62.4288C26.4398 62.1915 26.5732 61.8696 26.5732 61.5339V58.9238C26.5732 58.5881 26.4398 58.2662 26.2025 58.0289C25.9651 57.7915 25.6432 57.6582 25.3076 57.6582C25.6432 57.6582 25.9651 57.5249 26.2025 57.2875C26.4398 57.0502 26.5732 56.7283 26.5732 56.3926V53.7814C26.5732 53.6152 26.5404 53.4505 26.4767 53.2969C26.4131 53.1433 26.3198 53.0038 26.2022 52.8863C26.0846 52.7687 25.945 52.6755 25.7913 52.612C25.6377 52.5484 25.473 52.5158 25.3068 52.5159Z" fill="#E87B31"/>
<path d="M42.5026 42.2322H40.019V67.9413H42.5026C42.8382 67.9413 43.1601 67.808 43.3975 67.5706C43.6348 67.3333 43.7681 67.0114 43.7681 66.6757V64.065C43.7681 63.7293 43.6348 63.4074 43.3975 63.1701C43.1601 62.9327 42.8382 62.7994 42.5026 62.7994C42.8382 62.7994 43.1601 62.6661 43.3975 62.4287C43.6348 62.1914 43.7681 61.8695 43.7681 61.5338V58.9237C43.7681 58.588 43.6348 58.2661 43.3975 58.0288C43.1601 57.7914 42.8382 57.6581 42.5026 57.6581C42.8382 57.6581 43.1601 57.5248 43.3975 57.2874C43.6348 57.0501 43.7681 56.7282 43.7681 56.3926V53.7813C43.7681 53.4457 43.6348 53.1238 43.3975 52.8865C43.1601 52.6491 42.8382 52.5158 42.5026 52.5158C42.8382 52.5158 43.1601 52.3825 43.3975 52.1451C43.6348 51.9078 43.7681 51.5859 43.7681 51.2502V48.6394C43.7681 48.3038 43.6347 47.9819 43.3974 47.7446C43.1601 47.5073 42.8382 47.3739 42.5026 47.3739C42.8382 47.3739 43.1601 47.2405 43.3975 47.0032C43.6348 46.7659 43.7681 46.444 43.7681 46.1083V43.4977C43.7681 43.1621 43.6348 42.8402 43.3975 42.6029C43.1601 42.3655 42.8382 42.2322 42.5026 42.2322Z" fill="#E87B31"/>
<path d="M59.6983 57.6577H56.8516V67.9413H59.6983C60.0339 67.9413 60.3558 67.808 60.5932 67.5707C60.8305 67.3333 60.9639 67.0114 60.9639 66.6758V64.065C60.9639 63.7293 60.8305 63.4074 60.5932 63.1701C60.3558 62.9328 60.0339 62.7994 59.6983 62.7994C60.0339 62.7994 60.3558 62.6661 60.5932 62.4288C60.8305 62.1914 60.9639 61.8695 60.9639 61.5339V58.9237C60.9639 58.7575 60.9312 58.5928 60.8676 58.4393C60.8041 58.2857 60.7109 58.1461 60.5933 58.0285C60.4758 57.911 60.3363 57.8177 60.1827 57.7541C60.0291 57.6905 59.8645 57.6577 59.6983 57.6577Z" fill="#E87B31"/>
<path d="M35.1703 42.232C39.6903 42.232 43.3545 38.5678 43.3545 34.0478C43.3545 29.5277 39.6903 25.8635 35.1703 25.8635C30.6503 25.8635 26.9861 29.5277 26.9861 34.0478C26.9861 38.5678 30.6503 42.232 35.1703 42.232Z" fill="#FFB655"/>
<path d="M10.5492 16.8496L2.69336 25.4524H6.62036V41.2949H14.4783V25.4524H18.4053L10.5492 16.8496Z" fill="#3D4056"/>
<path d="M35.2325 2.05908L27.3765 10.6619H31.3037V20.6095H39.1614V10.6619H43.0886L35.2325 2.05908Z" fill="#F74F73"/>
<path d="M59.4508 24.8762L51.5947 33.4788H55.5217V50.6922H63.3796V33.4788H67.3066L59.4508 24.8762Z" fill="#71D884"/>
<path d="M49.3499 15.3779C49.6999 17.1996 50.7203 19.9329 53.6899 20.9845C53.7385 21.0021 53.7804 21.0343 53.8099 21.0768C53.8393 21.1193 53.8547 21.1699 53.854 21.2215C53.8534 21.2732 53.8366 21.3234 53.8061 21.3651C53.7755 21.4067 53.7328 21.4379 53.6837 21.4541C52.5105 21.8136 51.4587 22.4889 50.6435 23.4061C49.8283 24.3232 49.281 25.447 49.0617 26.6543C49.0504 26.7087 49.0213 26.7578 48.9789 26.7937C48.9366 26.8296 48.8834 26.8502 48.8279 26.8524C48.7724 26.8546 48.7178 26.8381 48.6727 26.8057C48.6277 26.7732 48.5948 26.7266 48.5793 26.6733C48.1274 25.0799 47.0088 22.6997 44.2632 21.491C44.2169 21.4714 44.1778 21.4382 44.1509 21.3957C44.124 21.3533 44.1107 21.3037 44.1128 21.2535C44.1148 21.2033 44.1321 21.155 44.1623 21.1149C44.1925 21.0747 44.2343 21.0448 44.2819 21.029C45.4966 20.6061 47.9024 19.2901 48.8636 15.3639C48.8773 15.3088 48.9094 15.2599 48.9547 15.2255C48.9999 15.1911 49.0556 15.1733 49.1124 15.1749C49.1692 15.1765 49.2238 15.1976 49.267 15.2345C49.3102 15.2715 49.3395 15.3221 49.3499 15.3779Z" fill="#BDDEFF"/>
<path d="M17.4523 3.80611C17.8023 5.62796 18.8227 8.36126 21.7923 9.4129C21.841 9.43039 21.8829 9.46262 21.9124 9.50508C21.9418 9.54755 21.9573 9.59814 21.9566 9.64981C21.9559 9.70148 21.9391 9.75165 21.9086 9.79333C21.878 9.835 21.8352 9.86611 21.7862 9.88232C20.613 10.242 19.5614 10.9173 18.7463 11.8345C17.9312 12.7517 17.3841 13.8754 17.1647 15.0827C17.1535 15.1371 17.1243 15.1861 17.082 15.222C17.0396 15.2579 16.9864 15.2786 16.9309 15.2808C16.8755 15.283 16.8208 15.2665 16.7758 15.2341C16.7307 15.2016 16.6978 15.155 16.6823 15.1016C16.2306 13.5083 15.1121 11.1281 12.3662 9.91937C12.3205 9.89933 12.2818 9.86594 12.2553 9.82356C12.2288 9.78119 12.2157 9.73181 12.2177 9.68187C12.2198 9.63194 12.2368 9.58378 12.2666 9.54369C12.2965 9.5036 12.3377 9.47344 12.385 9.45717C13.5997 9.03449 16.0054 7.71849 16.9667 3.79232C16.9806 3.73745 17.0127 3.68896 17.0579 3.65483C17.103 3.62071 17.1585 3.60299 17.215 3.60459C17.2716 3.6062 17.3259 3.62704 17.3691 3.66367C17.4122 3.7003 17.4416 3.75055 17.4523 3.80611Z" fill="#BDDEFF"/>
<path d="M35.9484 38.1578H34.4676C34.0024 38.1584 33.5473 38.0216 33.1595 37.7645C32.7716 37.5074 32.4684 37.1415 32.2878 36.7127C32.2498 36.6254 32.2295 36.5314 32.2281 36.4362C32.2266 36.3409 32.2441 36.2463 32.2794 36.1579C32.3148 36.0695 32.3673 35.9889 32.434 35.9209C32.5007 35.8529 32.5802 35.7988 32.6679 35.7617C32.7557 35.7246 32.8499 35.7052 32.9451 35.7048C33.0404 35.7043 33.1348 35.7228 33.2228 35.759C33.3109 35.7953 33.3909 35.8486 33.4583 35.916C33.5256 35.9834 33.5789 36.0634 33.6151 36.1515C33.6857 36.3192 33.8043 36.4623 33.956 36.5629C34.1077 36.6634 34.2857 36.7169 34.4676 36.7167H35.9484C36.0763 36.7167 36.2029 36.6915 36.3211 36.6425C36.4393 36.5936 36.5467 36.5218 36.6371 36.4314C36.7275 36.3409 36.7993 36.2336 36.8482 36.1154C36.8972 35.9972 36.9224 35.8705 36.9224 35.7426C36.9224 35.6147 36.8972 35.4881 36.8482 35.3699C36.7993 35.2517 36.7275 35.1443 36.6371 35.0539C36.5467 34.9634 36.4393 34.8917 36.3211 34.8427C36.2029 34.7938 36.0763 34.7686 35.9484 34.7686H34.5166C33.8799 34.7627 33.2713 34.5057 32.8231 34.0533C32.375 33.601 32.1235 32.99 32.1235 32.3533C32.1235 31.7166 32.375 31.1056 32.8231 30.6532C33.2713 30.2009 33.8799 29.9439 34.5166 29.938H35.9974C36.4862 29.9385 36.963 30.0902 37.3624 30.3722C37.7617 30.6543 38.0641 31.0528 38.2281 31.5134C38.292 31.6936 38.2817 31.8918 38.1994 32.0644C38.1172 32.237 37.9698 32.3698 37.7896 32.4337C37.7003 32.4653 37.6058 32.4791 37.5112 32.4742C37.4167 32.4692 37.3241 32.4457 37.2386 32.405C37.066 32.3228 36.9332 32.1754 36.8693 31.9952C36.8052 31.815 36.6869 31.6591 36.5307 31.5488C36.3745 31.4385 36.188 31.3792 35.9967 31.3792H34.516C34.2601 31.3829 34.016 31.4872 33.8363 31.6694C33.6567 31.8517 33.556 32.0974 33.556 32.3533C33.556 32.6092 33.6567 32.8549 33.8363 33.0372C34.016 33.2194 34.2601 33.3237 34.516 33.3274H35.9477C36.2649 33.3274 36.579 33.3899 36.872 33.5113C37.165 33.6327 37.4313 33.8106 37.6555 34.0348C37.8798 34.2591 38.0577 34.5253 38.1791 34.8184C38.3005 35.1114 38.3629 35.4255 38.3629 35.7426C38.3629 36.0598 38.3005 36.3739 38.1791 36.6669C38.0577 36.9599 37.8798 37.2262 37.6555 37.4504C37.4313 37.6747 37.165 37.8526 36.872 37.974C36.579 38.0954 36.2649 38.1578 35.9477 38.1578H35.9484Z" fill="white"/>
<path d="M35.2326 31.379C35.0414 31.379 34.8582 31.3031 34.723 31.1679C34.5879 31.0328 34.512 30.8495 34.512 30.6584V29.5355C34.512 29.3444 34.5879 29.1611 34.723 29.026C34.8582 28.8909 35.0414 28.8149 35.2326 28.8149C35.4237 28.8149 35.607 28.8909 35.7421 29.026C35.8772 29.1611 35.9531 29.3444 35.9531 29.5355V30.6584C35.9531 30.8495 35.8772 31.0328 35.7421 31.1679C35.607 31.3031 35.4237 31.379 35.2326 31.379Z" fill="white"/>
<path d="M35.2326 39.2804C35.0414 39.2804 34.8582 39.2045 34.723 39.0693C34.5879 38.9342 34.512 38.7509 34.512 38.5598V37.4369C34.512 37.2458 34.5879 37.0625 34.723 36.9274C34.8582 36.7922 35.0414 36.7163 35.2326 36.7163C35.4237 36.7163 35.607 36.7922 35.7421 36.9274C35.8772 37.0625 35.9531 37.2458 35.9531 37.4369V38.5598C35.9531 38.7509 35.8772 38.9342 35.7421 39.0693C35.607 39.2045 35.4237 39.2804 35.2326 39.2804Z" fill="white"/>
<path d="M58.1971 20.5H58.1886L57.866 20.5037C57.7714 20.5042 57.6778 20.5234 57.5906 20.5601C57.5033 20.5968 57.4242 20.6503 57.3576 20.7176C57.2911 20.7849 57.2385 20.8646 57.2027 20.9523C57.167 21.0399 57.1489 21.1337 57.1494 21.2283C57.15 21.3229 57.1691 21.4165 57.2058 21.5038C57.2425 21.591 57.296 21.6701 57.3633 21.7367C57.4306 21.8032 57.5103 21.8558 57.598 21.8916C57.6856 21.9273 57.7794 21.9454 57.874 21.9449H57.8825L58.2051 21.9412C58.3962 21.9401 58.5791 21.8632 58.7135 21.7273C58.8478 21.5914 58.9227 21.4077 58.9217 21.2166C58.9206 21.0255 58.8437 20.8426 58.7078 20.7082C58.5719 20.5738 58.3882 20.4989 58.1971 20.5Z" fill="#BDDEFF"/>
<path d="M29.6702 62.2708H41.547V63.3278H29.6696C29.6002 63.3278 29.5315 63.3141 29.4674 63.2875C29.4032 63.261 29.345 63.222 29.2959 63.173C29.2468 63.1239 29.2079 63.0656 29.1813 63.0015C29.1548 62.9374 29.1411 62.8687 29.1411 62.7993C29.1411 62.7298 29.1548 62.661 29.1814 62.5969C29.208 62.5327 29.247 62.4744 29.2961 62.4253C29.3453 62.3762 29.4036 62.3373 29.4678 62.3108C29.532 62.2843 29.6008 62.2707 29.6702 62.2708Z" fill="#E87B31"/>
<path d="M29.6702 57.1289H41.547V58.1859H29.6696C29.6002 58.1859 29.5315 58.1722 29.4674 58.1457C29.4032 58.1191 29.345 58.0802 29.2959 58.0311C29.2468 57.982 29.2079 57.9238 29.1813 57.8597C29.1548 57.7955 29.1411 57.7268 29.1411 57.6574C29.1411 57.5879 29.1548 57.5192 29.1814 57.455C29.208 57.3909 29.247 57.3326 29.2961 57.2835C29.3453 57.2344 29.4036 57.1955 29.4678 57.169C29.532 57.1424 29.6008 57.1288 29.6702 57.1289Z" fill="#E87B31"/>
<path d="M29.6702 51.9871H41.547V53.0441H29.6696C29.6002 53.0441 29.5315 53.0304 29.4674 53.0038C29.4032 52.9773 29.345 52.9383 29.2959 52.8893C29.2468 52.8402 29.2079 52.7819 29.1813 52.7178C29.1548 52.6537 29.1411 52.585 29.1411 52.5156C29.1411 52.4462 29.1548 52.3774 29.1813 52.3133C29.2079 52.2492 29.2468 52.1909 29.2959 52.1419C29.345 52.0928 29.4032 52.0539 29.4674 52.0273C29.5315 52.0007 29.6002 51.9871 29.6696 51.9871H29.6702Z" fill="#E87B31"/>
<path d="M29.6702 46.845H41.547V47.902H29.6696C29.6002 47.902 29.5315 47.8883 29.4674 47.8617C29.4032 47.8352 29.345 47.7963 29.2959 47.7472C29.2468 47.6981 29.2079 47.6398 29.1813 47.5757C29.1548 47.5116 29.1411 47.4429 29.1411 47.3735C29.1411 47.304 29.1548 47.2352 29.1814 47.1711C29.208 47.1069 29.247 47.0486 29.2961 46.9995C29.3453 46.9505 29.4036 46.9115 29.4678 46.885C29.532 46.8585 29.6008 46.8449 29.6702 46.845Z" fill="#E87B31"/>
<path d="M12.3735 62.2708H24.2508V63.3278H12.3735C12.2333 63.3278 12.0989 63.2721 11.9998 63.173C11.9007 63.0738 11.845 62.9394 11.845 62.7993C11.845 62.6591 11.9007 62.5247 11.9998 62.4255C12.0989 62.3264 12.2333 62.2708 12.3735 62.2708Z" fill="#E87B31"/>
<path d="M12.3735 57.1289H24.2508V58.1859H12.3735C12.2333 58.1859 12.0989 58.1302 11.9998 58.0311C11.9007 57.932 11.845 57.7976 11.845 57.6574C11.845 57.588 11.8586 57.5193 11.8852 57.4552C11.9118 57.391 11.9507 57.3328 11.9998 57.2837C12.0488 57.2346 12.1071 57.1957 12.1712 57.1691C12.2353 57.1426 12.3041 57.1289 12.3735 57.1289Z" fill="#E87B31"/>
<path d="M47.0302 62.2708H58.9076V63.3278H47.0302C46.89 63.3278 46.7556 63.2721 46.6565 63.173C46.5574 63.0738 46.5017 62.9394 46.5017 62.7993C46.5017 62.6591 46.5574 62.5247 46.6565 62.4255C46.7556 62.3264 46.89 62.2708 47.0302 62.2708Z" fill="#E87B31"/>
</svg>
