<svg width="70" height="70" viewBox="0 0 70 70" fill="none" xmlns="http://www.w3.org/2000/svg">
<path d="M26.25 1.09375C30.625 1.09375 30.625 5.46875 30.625 5.46875V9.84375H1.09375V5.46875C1.09375 4.30843 1.55469 3.19563 2.37516 2.37516C3.19563 1.55469 4.30843 1.09375 5.46875 1.09375H26.25Z" fill="#F2F2F2"/>
<path d="M64.5312 1.09375C65.6916 1.09375 66.8044 1.55469 67.6248 2.37516C68.4453 3.19563 68.9062 4.30843 68.9062 5.46875V9.84375H30.625V5.46875C30.625 5.46875 30.625 1.09375 26.25 1.09375H64.5312Z" fill="#3DB6FD"/>
<path d="M68.9062 9.84375V64.5312C68.9062 65.6916 68.4453 66.8044 67.6248 67.6248C66.8044 68.4453 65.6916 68.9062 64.5312 68.9062H5.46875C4.30843 68.9062 3.19563 68.4453 2.37516 67.6248C1.55469 66.8044 1.09375 65.6916 1.09375 64.5312V9.84375H68.9062Z" fill="#DEDEDE"/>
<path d="M35 3.82812C35 4.55333 35.2881 5.24883 35.8009 5.76162C36.3137 6.27442 37.0092 6.5625 37.7344 6.5625H68.9062V5.46875C68.9062 4.30843 68.4453 3.19563 67.6248 2.37516C66.8044 1.55469 65.6916 1.09375 64.5312 1.09375H32.2656C32.9908 1.09375 33.6863 1.38184 34.1991 1.89463C34.7119 2.40742 35 3.10292 35 3.82812Z" fill="#5ACAFA"/>
<path d="M55.7812 6.5625C56.3853 6.5625 56.875 6.07281 56.875 5.46875C56.875 4.86469 56.3853 4.375 55.7812 4.375C55.1772 4.375 54.6875 4.86469 54.6875 5.46875C54.6875 6.07281 55.1772 6.5625 55.7812 6.5625Z" fill="#FD5F53"/>
<path d="M55.7812 5.46875C55.5925 5.46677 55.4075 5.4152 55.2449 5.31922C55.0823 5.22324 54.9478 5.08621 54.8548 4.92188C54.7504 5.08558 54.6926 5.27464 54.6875 5.46875C54.6875 5.75883 54.8027 6.03703 55.0079 6.24215C55.213 6.44727 55.4912 6.5625 55.7812 6.5625C56.0713 6.5625 56.3495 6.44727 56.5546 6.24215C56.7598 6.03703 56.875 5.75883 56.875 5.46875C56.8699 5.27464 56.8121 5.08558 56.7077 4.92188C56.6147 5.08621 56.4802 5.22324 56.3176 5.31922C56.155 5.4152 55.97 5.46677 55.7812 5.46875Z" fill="#DB392B"/>
<path d="M55.7812 6.5625C55.5925 6.56052 55.4075 6.50895 55.2449 6.41297C55.0823 6.31699 54.9478 6.17996 54.8548 6.01562C54.7504 6.17933 54.6926 6.36839 54.6875 6.5625C54.6875 6.85258 54.8027 7.13078 55.0079 7.3359C55.213 7.54102 55.4912 7.65625 55.7812 7.65625C56.0713 7.65625 56.3495 7.54102 56.5546 7.3359C56.7598 7.13078 56.875 6.85258 56.875 6.5625C56.8699 6.36839 56.8121 6.17933 56.7077 6.01562C56.6147 6.17996 56.4802 6.31699 56.3176 6.41297C56.155 6.50895 55.97 6.56052 55.7812 6.5625Z" fill="#3DB6FD"/>
<path d="M60.1562 6.5625C59.9675 6.56052 59.7825 6.50895 59.6199 6.41297C59.4573 6.31699 59.3228 6.17996 59.2298 6.01562C59.1254 6.17933 59.0676 6.36839 59.0625 6.5625C59.0625 6.85258 59.1777 7.13078 59.3829 7.3359C59.588 7.54102 59.8662 7.65625 60.1562 7.65625C60.4463 7.65625 60.7245 7.54102 60.9296 7.3359C61.1348 7.13078 61.25 6.85258 61.25 6.5625C61.2449 6.36839 61.1871 6.17933 61.0827 6.01562C60.9897 6.17996 60.8552 6.31699 60.6926 6.41297C60.53 6.50895 60.345 6.56052 60.1562 6.5625Z" fill="#3DB6FD"/>
<path d="M64.5312 6.5625C64.3425 6.56052 64.1575 6.50895 63.9949 6.41297C63.8323 6.31699 63.6978 6.17996 63.6048 6.01562C63.5004 6.17933 63.4426 6.36839 63.4375 6.5625C63.4375 6.85258 63.5527 7.13078 63.7579 7.3359C63.963 7.54102 64.2412 7.65625 64.5312 7.65625C64.8213 7.65625 65.0995 7.54102 65.3046 7.3359C65.5098 7.13078 65.625 6.85258 65.625 6.5625C65.6199 6.36839 65.5621 6.17933 65.4577 6.01562C65.3647 6.17996 65.2302 6.31699 65.0676 6.41297C64.905 6.50895 64.72 6.56052 64.5312 6.5625Z" fill="#3DB6FD"/>
<path d="M60.1562 6.5625C60.7603 6.5625 61.25 6.07281 61.25 5.46875C61.25 4.86469 60.7603 4.375 60.1562 4.375C59.5522 4.375 59.0625 4.86469 59.0625 5.46875C59.0625 6.07281 59.5522 6.5625 60.1562 6.5625Z" fill="#FCD22B"/>
<path d="M64.5312 6.5625C65.1353 6.5625 65.625 6.07281 65.625 5.46875C65.625 4.86469 65.1353 4.375 64.5312 4.375C63.9272 4.375 63.4375 4.86469 63.4375 5.46875C63.4375 6.07281 63.9272 6.5625 64.5312 6.5625Z" fill="#16CD37"/>
<path d="M60.1562 5.46875C59.9675 5.46677 59.7825 5.4152 59.6199 5.31922C59.4573 5.22324 59.3228 5.08621 59.2298 4.92188C59.1254 5.08558 59.0676 5.27464 59.0625 5.46875C59.0625 5.75883 59.1777 6.03703 59.3829 6.24215C59.588 6.44727 59.8662 6.5625 60.1562 6.5625C60.4463 6.5625 60.7245 6.44727 60.9296 6.24215C61.1348 6.03703 61.25 5.75883 61.25 5.46875C61.2449 5.27464 61.1871 5.08558 61.0827 4.92188C60.9897 5.08621 60.8552 5.22324 60.6926 5.31922C60.53 5.4152 60.345 5.46677 60.1562 5.46875Z" fill="#EBAD00"/>
<path d="M64.5312 5.46875C64.3425 5.46677 64.1575 5.4152 63.9949 5.31922C63.8323 5.22324 63.6978 5.08621 63.6048 4.92188C63.5004 5.08558 63.4426 5.27464 63.4375 5.46875C63.4375 5.75883 63.5527 6.03703 63.7579 6.24215C63.963 6.44727 64.2412 6.5625 64.5312 6.5625C64.8213 6.5625 65.0995 6.44727 65.3046 6.24215C65.5098 6.03703 65.625 5.75883 65.625 5.46875C65.6199 5.27464 65.5621 5.08558 65.4577 4.92188C65.3647 5.08621 65.2302 5.22324 65.0676 5.31922C64.905 5.4152 64.72 5.46677 64.5312 5.46875Z" fill="#12A32C"/>
<path d="M21.875 4.375H5.46875C4.86469 4.375 4.375 4.86469 4.375 5.46875C4.375 6.07281 4.86469 6.5625 5.46875 6.5625H21.875C22.4791 6.5625 22.9688 6.07281 22.9688 5.46875C22.9688 4.86469 22.4791 4.375 21.875 4.375Z" fill="#DEDEDE"/>
<path d="M26.25 4.375H25.1562C24.5522 4.375 24.0625 4.86469 24.0625 5.46875C24.0625 6.07281 24.5522 6.5625 25.1562 6.5625H26.25C26.8541 6.5625 27.3438 6.07281 27.3438 5.46875C27.3438 4.86469 26.8541 4.375 26.25 4.375Z" fill="#DEDEDE"/>
<path d="M32.8125 8.75V5.46875C32.8125 5.46875 32.8125 1.09375 28.4375 1.09375H26.25C30.625 1.09375 30.625 5.46875 30.625 5.46875V9.84375H68.9062V8.75H32.8125Z" fill="#1C99EB"/>
<path d="M64.5312 66.7188H5.46875C4.88859 66.7188 4.33219 66.4883 3.92195 66.078C3.51172 65.6678 3.28125 65.1114 3.28125 64.5312V9.84375H66.7188V64.5312C66.7188 65.1114 66.4883 65.6678 66.078 66.078C65.6678 66.4883 65.1114 66.7188 64.5312 66.7188Z" fill="#F2F2F2"/>
<path d="M63.4375 62.3438H66.7188V9.84375H10.9375C10.9375 23.7676 16.4687 37.1212 26.3144 46.9669C36.1601 56.8125 49.5136 62.3438 63.4375 62.3438Z" fill="white"/>
<path d="M30.625 5.46875C30.625 5.46875 30.625 1.09375 26.25 1.09375H5.46875C4.30843 1.09375 3.19563 1.55469 2.37516 2.37516C1.55469 3.19563 1.09375 4.30843 1.09375 5.46875V9.84375H3.28125V5.46875C3.28125 4.88859 3.51172 4.33219 3.92195 3.92195C4.33219 3.51172 4.88859 3.28125 5.46875 3.28125H26.25C26.8302 3.28125 27.3866 3.51172 27.7968 3.92195C28.207 4.33219 28.4375 4.88859 28.4375 5.46875V9.84375H30.625V5.46875Z" fill="#DEDEDE"/>
<path d="M48.125 14.2188V36.0938L27.3438 25.1562L48.125 14.2188Z" fill="#D9D9D9"/>
<path d="M27.3438 25.1562L6.5625 36.0938V14.2188L27.3438 25.1562Z" fill="#D9D9D9"/>
<path d="M52.5 14.2188H64.5312V36.0938H52.5V14.2188Z" fill="#5ACAFA"/>
<path d="M48.125 14.2188L27.3438 25.1562L6.5625 14.2188H48.125Z" fill="#C9C9C9"/>
<path d="M48.125 36.0938H6.5625L27.3438 25.1562L48.125 36.0938Z" fill="#C9C9C9"/>
<path d="M18.5938 56.875L24.0625 51.4062L28.4375 55.7812V64.5312H6.5625V57.9688L13.125 51.4062L18.5938 56.875Z" fill="#16CD37"/>
<path d="M28.4375 40.4688V55.7812L24.0625 51.4062L18.5938 56.875L13.125 51.4062L6.5625 57.9688V40.4688H28.4375Z" fill="#5ACAFA"/>
<path d="M12.0312 45.9375H9.84375C9.55367 45.9375 9.27547 45.8223 9.07035 45.6171C8.86523 45.412 8.75 45.1338 8.75 44.8438C8.75 44.5537 8.86523 44.2755 9.07035 44.0704C9.27547 43.8652 9.55367 43.75 9.84375 43.75H12.0312C12.3213 43.75 12.5995 43.8652 12.8046 44.0704C13.0098 44.2755 13.125 44.5537 13.125 44.8438C13.125 45.1338 13.0098 45.412 12.8046 45.6171C12.5995 45.8223 12.3213 45.9375 12.0312 45.9375Z" fill="#3DB6FD"/>
<path d="M25.1562 45.9375H15.3125C15.0224 45.9375 14.7442 45.8223 14.5391 45.6171C14.334 45.412 14.2188 45.1338 14.2188 44.8438C14.2188 44.5537 14.334 44.2755 14.5391 44.0704C14.7442 43.8652 15.0224 43.75 15.3125 43.75H25.1562C25.4463 43.75 25.7245 43.8652 25.9296 44.0704C26.1348 44.2755 26.25 44.5537 26.25 44.8438C26.25 45.1338 26.1348 45.412 25.9296 45.6171C25.7245 45.8223 25.4463 45.9375 25.1562 45.9375Z" fill="#3DB6FD"/>
<path d="M33.9062 47.0312H31.7188C31.4287 47.0312 31.1505 46.916 30.9454 46.7109C30.7402 46.5058 30.625 46.2276 30.625 45.9375C30.625 45.6474 30.7402 45.3692 30.9454 45.1641C31.1505 44.959 31.4287 44.8438 31.7188 44.8438H33.9062C34.1963 44.8438 34.4745 44.959 34.6796 45.1641C34.8848 45.3692 35 45.6474 35 45.9375C35 46.2276 34.8848 46.5058 34.6796 46.7109C34.4745 46.916 34.1963 47.0312 33.9062 47.0312Z" fill="#D9D9D9"/>
<path d="M63.4375 47.0312H38.2812C37.9912 47.0312 37.713 46.916 37.5079 46.7109C37.3027 46.5058 37.1875 46.2276 37.1875 45.9375C37.1875 45.6474 37.3027 45.3692 37.5079 45.1641C37.713 44.959 37.9912 44.8438 38.2812 44.8438H63.4375C63.7276 44.8438 64.0058 44.959 64.2109 45.1641C64.416 45.3692 64.5312 45.6474 64.5312 45.9375C64.5312 46.2276 64.416 46.5058 64.2109 46.7109C64.0058 46.916 63.7276 47.0312 63.4375 47.0312Z" fill="#D9D9D9"/>
<path d="M63.4375 51.4062H31.7188C31.4287 51.4062 31.1505 51.291 30.9454 51.0859C30.7402 50.8808 30.625 50.6026 30.625 50.3125C30.625 50.0224 30.7402 49.7442 30.9454 49.5391C31.1505 49.334 31.4287 49.2188 31.7188 49.2188H63.4375C63.7276 49.2188 64.0058 49.334 64.2109 49.5391C64.416 49.7442 64.5312 50.0224 64.5312 50.3125C64.5312 50.6026 64.416 50.8808 64.2109 51.0859C64.0058 51.291 63.7276 51.4062 63.4375 51.4062Z" fill="#D9D9D9"/>
<path d="M63.4375 55.7812H31.7188C31.4287 55.7812 31.1505 55.666 30.9454 55.4609C30.7402 55.2558 30.625 54.9776 30.625 54.6875C30.625 54.3974 30.7402 54.1192 30.9454 53.9141C31.1505 53.709 31.4287 53.5938 31.7188 53.5938H63.4375C63.7276 53.5938 64.0058 53.709 64.2109 53.9141C64.416 54.1192 64.5312 54.3974 64.5312 54.6875C64.5312 54.9776 64.416 55.2558 64.2109 55.4609C64.0058 55.666 63.7276 55.7812 63.4375 55.7812Z" fill="#D9D9D9"/>
<path d="M59.0625 60.1562H31.7188C31.4287 60.1562 31.1505 60.041 30.9454 59.8359C30.7402 59.6308 30.625 59.3526 30.625 59.0625C30.625 58.7724 30.7402 58.4942 30.9454 58.2891C31.1505 58.084 31.4287 57.9688 31.7188 57.9688H59.0625C59.3526 57.9688 59.6308 58.084 59.8359 58.2891C60.041 58.4942 60.1562 58.7724 60.1562 59.0625C60.1562 59.3526 60.041 59.6308 59.8359 59.8359C59.6308 60.041 59.3526 60.1562 59.0625 60.1562Z" fill="#D9D9D9"/>
<path d="M64.5312 13.125H52.5C52.2099 13.125 51.9317 13.2402 51.7266 13.4454C51.5215 13.6505 51.4062 13.9287 51.4062 14.2188V36.0938C51.4062 36.3838 51.5215 36.662 51.7266 36.8671C51.9317 37.0723 52.2099 37.1875 52.5 37.1875H64.5312C64.8213 37.1875 65.0995 37.0723 65.3046 36.8671C65.5098 36.662 65.625 36.3838 65.625 36.0938V14.2188C65.625 13.9287 65.5098 13.6505 65.3046 13.4454C65.0995 13.2402 64.8213 13.125 64.5312 13.125ZM64.5312 36.0938H52.5V14.2188H64.5312V36.0938Z" fill="#B5B5B5"/>
<path d="M48.125 13.125H6.5625C6.27242 13.125 5.99422 13.2402 5.7891 13.4454C5.58398 13.6505 5.46875 13.9287 5.46875 14.2188V36.0938C5.46875 36.3838 5.58398 36.662 5.7891 36.8671C5.99422 37.0723 6.27242 37.1875 6.5625 37.1875H48.125C48.4151 37.1875 48.6933 37.0723 48.8984 36.8671C49.1035 36.662 49.2188 36.3838 49.2188 36.0938V14.2188C49.2188 13.9287 49.1035 13.6505 48.8984 13.4454C48.6933 13.2402 48.4151 13.125 48.125 13.125ZM48.125 36.0938H6.5625V14.2188H48.125V36.0938Z" fill="#B5B5B5"/>
<path d="M28.4375 39.375H6.5625C6.27242 39.375 5.99422 39.4902 5.7891 39.6954C5.58398 39.9005 5.46875 40.1787 5.46875 40.4688V64.5312C5.46875 64.8213 5.58398 65.0995 5.7891 65.3046C5.99422 65.5098 6.27242 65.625 6.5625 65.625H28.4375C28.7276 65.625 29.0058 65.5098 29.2109 65.3046C29.416 65.0995 29.5312 64.8213 29.5312 64.5312V40.4688C29.5312 40.1787 29.416 39.9005 29.2109 39.6954C29.0058 39.4902 28.7276 39.375 28.4375 39.375ZM28.4375 64.5312H6.5625V40.4688H28.4375V64.5312Z" fill="#DEDEDE"/>
</svg>
