<svg width="70" height="70" viewBox="0 0 70 70" fill="none" xmlns="http://www.w3.org/2000/svg">
<g clip-path="url(#clip0_158_1248)">
<path d="M52.5451 9.5658L48.5834 9.97213L49.0019 14.0522L59.666 12.9585L58.5723 2.29441L54.492 2.71291L54.8467 6.17066C49.0391 2.16795 42.1377 0 34.9999 0L33.5415 1.45838L34.9999 4.10156C41.3115 4.10156 47.4135 6.0215 52.5451 9.5658Z" fill="#12B0FF"/>
<path d="M0 35C0 41.9989 2.05953 48.7546 5.95588 54.5364L9.35717 52.2443C5.91883 47.1423 4.10156 41.1793 4.10156 35C4.10156 26.7467 7.31555 18.9875 13.1515 13.1515C18.9875 7.31555 26.7467 4.10156 35 4.10156V0C25.6512 0 16.8619 3.64068 10.2513 10.2513C3.64068 16.8619 0 25.6512 0 35Z" fill="#36CFF5"/>
<path d="M64.0441 15.4636L60.6427 17.7557C64.0809 22.8578 65.8983 28.8208 65.8983 35C65.8983 43.2533 62.6843 51.0125 56.8484 56.8485C51.0125 62.6845 43.2533 65.8985 34.9999 65.8985L33.5415 67.9493L34.9999 70C44.3487 70 53.1379 66.3594 59.7487 59.7487C66.3593 53.1381 69.9999 44.3489 69.9999 35C69.9999 28.0011 67.9405 21.2455 64.0441 15.4636Z" fill="#12B0FF"/>
<path d="M17.4548 60.4347L21.4165 60.0283L20.998 55.9482L10.334 57.042L11.4277 67.7061L15.508 67.2876L15.1533 63.8298C20.9609 67.8324 27.8623 70.0003 35 70.0003V65.8988C28.6885 65.8988 22.5866 63.9788 17.4548 60.4347Z" fill="#36CFF5"/>
<path d="M22.5183 39.3044V42.4623H11.5561V39.9682L16.8261 35.0402C17.9525 33.9943 18.1134 33.3506 18.1134 32.7672C18.1134 31.8621 17.5099 31.3189 16.3031 31.3189C15.2773 31.3189 14.352 31.7816 13.7889 32.6867L10.832 31.0373C11.898 29.2672 13.8893 28.1006 16.6651 28.1006C19.9036 28.1006 22.1362 29.7701 22.1362 32.3849C22.1362 33.7527 21.7541 34.9998 19.7425 36.8503L17.0875 39.3043H22.5183V39.3044Z" fill="#FC7100"/>
<path d="M44.1223 25.5261H47.5215L40.884 44.4737H37.4846L44.1223 25.5261Z" fill="#FD4B00"/>
<path d="M59.1679 28.3823V30.8765L54.1998 42.4623H49.8551L54.6021 31.5403H50.9011V33.7126H47.5017V28.3823H59.1679Z" fill="#FD4B00"/>
<path d="M35.1711 36.6091L33.5415 37.9167L35.1711 39.7671H37.2629V36.6091H35.1711Z" fill="#FD4B00"/>
<path d="M31.4097 34.2156V36.6091H28.5535L34.286 28.3823H30.1625L23.8467 37.1723V39.767H31.289V42.4623H35.1711V34.2156H31.4097Z" fill="#FC7100"/>
</g>
<defs>
<clipPath id="clip0_158_1248">
<rect width="70" height="70" fill="white"/>
</clipPath>
</defs>
</svg>
