<svg width="70" height="70" viewBox="0 0 70 70" fill="none" xmlns="http://www.w3.org/2000/svg">
<path d="M55.5078 53.5938C50.9838 53.5938 47.3047 49.9146 47.3047 45.3906C47.3047 40.8666 50.9838 37.0508 55.5078 37.0508C60.0318 37.0508 63.7109 40.8666 63.7109 45.3906C63.7109 49.9146 60.0318 53.5938 55.5078 53.5938Z" fill="#F6A96C"/>
<path d="M55.5079 53.5938C52.3858 53.5938 49.5179 54.6165 47.1622 56.3089L44.1506 63.1117L49.3556 70H70.0001V67.9492C70.0001 60.0211 63.436 53.5938 55.5079 53.5938Z" fill="#32DDF9"/>
<path d="M10.3906 17.3243L4.03801 20.6445L5.24391 13.3616L0 8.38097L7.27066 7.35558L10.3906 0L13.587 7.35558L20.6445 8.38097L15.5373 13.3616L16.7432 20.6445L10.3906 17.3243Z" fill="#FFDA2D"/>
<path d="M40.127 13.3434L41.3574 20.6445L35 17.3222L28.6426 20.6445L29.873 13.3434L24.7461 8.38097L31.8827 7.35558L35 0L38.1995 7.35558L45.2539 8.38097L40.127 13.3434Z" fill="#FFDA2D"/>
<path d="M59.6094 17.3243L53.2568 20.6445L54.4627 13.3616L49.3555 8.38097L56.4894 7.35558L59.6094 0L62.8057 7.35558L70 8.38097L64.7561 13.3616L65.962 20.6445L59.6094 17.3243Z" fill="#FDBF00"/>
<path d="M14.4922 53.5938C9.96819 53.5938 6.28906 49.9146 6.28906 45.3906C6.28906 40.8666 9.96819 37.0508 14.4922 37.0508C19.0162 37.0508 22.6953 40.8666 22.6953 45.3906C22.6953 49.9146 19.0162 53.5938 14.4922 53.5938Z" fill="#FFBD86"/>
<path d="M14.4922 53.5938C6.5641 53.5938 0 60.0211 0 67.9492V70H20.6445L25.732 63.8477L22.8379 56.3094C20.4822 54.6165 17.6143 53.5938 14.4922 53.5938Z" fill="#84ECF7"/>
<path d="M41.3574 20.6445L35 17.3222V0L38.1995 7.35558L45.2539 8.38097L40.127 13.3434L41.3574 20.6445Z" fill="#FDBF00"/>
<path d="M35 32.9492C30.4883 32.9492 26.7969 36.6406 26.7969 41.1523C26.7969 45.6641 30.4883 49.4922 35 49.4922C39.5117 49.4922 43.2031 45.6641 43.2031 41.1523C43.2031 36.6406 39.5117 32.9492 35 32.9492Z" fill="#FED2A4"/>
<path d="M49.3555 63.8477V70H20.6445V63.8477C20.6445 61.0588 21.4648 58.5156 22.8187 56.3009C25.3613 52.2399 29.873 49.4922 35 49.4922C40.127 49.4922 44.6387 52.2399 47.1813 56.3009C48.5352 58.5156 49.3555 61.0588 49.3555 63.8477Z" fill="#FF637B"/>
<path d="M35 49.4922V32.9492C39.5117 32.9492 43.2031 36.6406 43.2031 41.1523C43.2031 45.6641 39.5117 49.4922 35 49.4922Z" fill="#F6A96C"/>
<path d="M49.3555 63.8477V70H35V49.4922C40.127 49.4922 44.6387 52.2399 47.1813 56.3009C48.5352 58.5156 49.3555 61.0588 49.3555 63.8477Z" fill="#E63950"/>
</svg>
