<svg width="30" height="30" viewBox="0 0 30 30" fill="none" xmlns="http://www.w3.org/2000/svg">
<g clip-path="url(#clip0_158_1844)">
<path d="M26.8898 3.90733H25.0065V2.41475C25.0065 1.98495 24.6549 1.6333 24.2251 1.6333C23.7953 1.6333 23.4436 1.98495 23.4436 2.41475V3.90733H15.7854V2.41475C15.7854 1.98495 15.4337 1.6333 15.0039 1.6333C14.5741 1.6333 14.2225 1.98495 14.2225 2.41475V3.90733H6.48606V2.41475C6.48606 1.98495 6.13441 1.6333 5.70461 1.6333C5.27481 1.6333 4.92316 1.98495 4.92316 2.41475V3.90733H3.118C1.3988 3.90733 0 5.35302 0 7.07222V25.241C0 26.968 1.39099 28.3668 3.118 28.3668H26.882C28.609 28.3668 30 26.968 30 25.2488V7.07222C30.0078 5.35302 28.609 3.90733 26.8898 3.90733ZM28.4449 25.241C28.4449 26.1006 27.7572 26.7961 26.8976 26.8039H26.8898H3.118C2.2584 26.8039 1.56291 26.1084 1.56291 25.2488V25.241V7.07222C1.56291 6.2048 2.2584 5.47024 3.118 5.47024H4.92316V6.60335C4.92316 7.03314 5.27481 7.3848 5.70461 7.3848C6.13441 7.3848 6.48606 7.03314 6.48606 6.60335V5.47024H14.2225V6.60335C14.2225 7.03314 14.5741 7.3848 15.0039 7.3848C15.4337 7.3848 15.7854 7.03314 15.7854 6.60335V5.47024H23.4436V6.60335C23.4436 7.03314 23.7953 7.3848 24.2251 7.3848C24.6549 7.3848 25.0065 7.03314 25.0065 6.60335V5.47024H26.8898C27.7572 5.47024 28.4449 6.21262 28.4449 7.07222V25.241Z" fill="#FF0A2D"/>
<path d="M12.9487 10.5498H11.5811C11.1513 10.5498 10.7997 10.9015 10.7997 11.3313C10.7997 11.7611 11.1513 12.1127 11.5811 12.1127H12.9487C13.3785 12.1127 13.7301 11.7611 13.7301 11.3313C13.7301 10.9015 13.3785 10.5498 12.9487 10.5498Z" fill="#FF0A2D"/>
<path d="M18.3876 10.5498H17.0201C16.5903 10.5498 16.2386 10.9015 16.2386 11.3313C16.2386 11.7611 16.5903 12.1127 17.0201 12.1127H18.3876C18.8174 12.1127 19.1691 11.7611 19.1691 11.3313C19.1691 10.9015 18.8253 10.5498 18.3876 10.5498Z" fill="#FF0A2D"/>
<path d="M23.8734 10.5498H22.5058C22.076 10.5498 21.7244 10.9015 21.7244 11.3313C21.7244 11.7611 22.076 12.1127 22.5058 12.1127H23.8734C24.3032 12.1127 24.6548 11.7611 24.6548 11.3313C24.6548 10.9015 24.3032 10.5498 23.8734 10.5498Z" fill="#FF0A2D"/>
<path d="M12.9487 15.9417H11.5811C11.1513 15.9417 10.7997 16.2933 10.7997 16.7231C10.7997 17.1529 11.1513 17.5046 11.5811 17.5046H12.9487C13.3785 17.5046 13.7301 17.1529 13.7301 16.7231C13.7301 16.2933 13.3785 15.9417 12.9487 15.9417Z" fill="#FF0A2D"/>
<path d="M7.47065 15.9417H6.09529C5.6655 15.9417 5.31384 16.2933 5.31384 16.7231C5.31384 17.1529 5.6655 17.5046 6.09529 17.5046H7.46283C7.89263 17.5046 8.24429 17.1529 8.24429 16.7231C8.24429 16.2933 7.90045 15.9417 7.47065 15.9417Z" fill="#FF0A2D"/>
<path d="M18.3876 15.9417H17.0201C16.5903 15.9417 16.2386 16.2933 16.2386 16.7231C16.2386 17.1529 16.5903 17.5046 17.0201 17.5046H18.3876C18.8174 17.5046 19.1691 17.1529 19.1691 16.7231C19.1691 16.2933 18.8253 15.9417 18.3876 15.9417Z" fill="#FF0A2D"/>
<path d="M23.8734 15.9417H22.5058C22.076 15.9417 21.7244 16.2933 21.7244 16.7231C21.7244 17.1529 22.076 17.5046 22.5058 17.5046H23.8734C24.3032 17.5046 24.6548 17.1529 24.6548 16.7231C24.6548 16.2933 24.3032 15.9417 23.8734 15.9417Z" fill="#FF0A2D"/>
<path d="M12.9487 21.2556H11.5811C11.1513 21.2556 10.7997 21.6073 10.7997 22.0371C10.7997 22.4669 11.1513 22.8185 11.5811 22.8185H12.9487C13.3785 22.8185 13.7301 22.4669 13.7301 22.0371C13.7301 21.6073 13.3785 21.2556 12.9487 21.2556Z" fill="#FF0A2D"/>
<path d="M7.47065 21.2556H6.09529C5.6655 21.2556 5.31384 21.6073 5.31384 22.0371C5.31384 22.4669 5.6655 22.8185 6.09529 22.8185H7.46283C7.89263 22.8185 8.24429 22.4669 8.24429 22.0371C8.24429 21.6073 7.90045 21.2556 7.47065 21.2556Z" fill="#FF0A2D"/>
<path d="M18.3876 21.2556H17.0201C16.5903 21.2556 16.2386 21.6073 16.2386 22.0371C16.2386 22.4669 16.5903 22.8185 17.0201 22.8185H18.3876C18.8174 22.8185 19.1691 22.4669 19.1691 22.0371C19.1691 21.6073 18.8253 21.2556 18.3876 21.2556Z" fill="#FF0A2D"/>
</g>
<defs>
<clipPath id="clip0_158_1844">
<rect width="30" height="30" fill="white"/>
</clipPath>
</defs>
</svg>
