<svg width="30" height="30" viewBox="0 0 30 30" fill="none" xmlns="http://www.w3.org/2000/svg">
<path d="M9.33985 14.5313C11.0129 14.5313 12.3691 13.1748 12.3691 11.502C12.3691 9.82892 11.0129 8.47266 9.33985 8.47266C7.66681 8.47266 6.31055 9.82892 6.31055 11.502C6.31274 13.1741 7.66773 14.5291 9.33985 14.5313ZM9.33985 9.65039C10.3656 9.65039 11.1973 10.4819 11.1973 11.5078C11.1973 12.5336 10.3656 13.3652 9.33985 13.3652C8.31391 13.3652 7.48242 12.5336 7.48242 11.5078C7.48279 10.4821 8.31409 9.65076 9.33985 9.65039Z" fill="#FF0A2D"/>
<path d="M9.33984 15.6503C8.1004 15.6411 6.91077 16.1386 6.04688 17.0272C5.16797 17.9237 4.6875 19.1425 4.6875 20.4667C4.68842 20.7899 4.95026 21.0517 5.27344 21.0526H13.4062C13.7294 21.0517 13.9913 20.7899 13.9922 20.4667C13.9922 19.1425 13.5117 17.9237 12.6328 17.0272C11.7689 16.1386 10.5795 15.6411 9.33984 15.6503ZM5.90039 19.8807C6.00073 19.1146 6.34607 18.4016 6.88477 17.8475C7.53314 17.1915 8.41736 16.8221 9.33984 16.8221C10.2623 16.8221 11.1465 17.1915 11.7949 17.8475C12.3325 18.4022 12.6779 19.115 12.7793 19.8807H5.90039Z" fill="#FF0A2D"/>
<path d="M26.1328 4.39453H3.86719C2.24945 4.39526 0.938232 5.70648 0.9375 7.32422V22.207C0.938232 23.8248 2.24945 25.136 3.86719 25.1367H26.1328C27.7505 25.136 29.0618 23.8248 29.0625 22.207V7.32422C29.0618 5.70648 27.7505 4.39526 26.1328 4.39453ZM27.8906 22.207C27.8879 23.1766 27.1024 23.9621 26.1328 23.9648H3.86719C2.89764 23.9621 2.11212 23.1766 2.10938 22.207V7.32422C2.11212 6.35468 2.89764 5.56915 3.86719 5.56641H26.1328C27.1024 5.56915 27.8879 6.35468 27.8906 7.32422V22.207Z" fill="#FF0A2D"/>
<path d="M24.6914 14.1797H17.8652C17.5417 14.1797 17.2793 14.4419 17.2793 14.7656C17.2793 15.0894 17.5417 15.3516 17.8652 15.3516H24.6914C25.015 15.3516 25.2773 15.0894 25.2773 14.7656C25.2773 14.4419 25.015 14.1797 24.6914 14.1797Z" fill="#FF0A2D"/>
<path d="M24.6914 17.9297H17.8652C17.5417 17.9297 17.2793 18.1919 17.2793 18.5156C17.2793 18.8394 17.5417 19.1016 17.8652 19.1016H24.6914C25.015 19.1016 25.2773 18.8394 25.2773 18.5156C25.2773 18.1919 25.015 17.9297 24.6914 17.9297Z" fill="#FF0A2D"/>
<path d="M24.6914 10.4297H17.8652C17.5417 10.4297 17.2793 10.6919 17.2793 11.0156C17.2793 11.3394 17.5417 11.6016 17.8652 11.6016H24.6914C25.015 11.6016 25.2773 11.3394 25.2773 11.0156C25.2773 10.6919 25.015 10.4297 24.6914 10.4297Z" fill="#FF0A2D"/>
</svg>
