<svg width="40" height="40" viewBox="0 0 40 40" fill="none" xmlns="http://www.w3.org/2000/svg">
<g clip-path="url(#clip0_74_432)">
<path d="M28.9583 36.3737C29.1301 38.3212 27.5924 40 25.6379 40H3.62919C1.67419 40 0.137019 38.3207 0.308769 36.3737L2.33819 13.3737C2.4911 11.6404 3.91852 10.3333 5.6586 10.3333H7.71685V6.91667C7.71685 3.10275 10.8196 0 14.6335 0C18.4474 0 21.5502 3.10275 21.5502 6.91667V10.3334H23.6085C25.3485 10.3334 26.776 11.6405 26.9289 13.3738L26.9769 13.9174C27.0092 14.2842 26.7381 14.6077 26.3713 14.6401C26.0043 14.6723 25.6809 14.4012 25.6486 14.0345L25.6007 13.4909C25.5089 12.451 24.6524 11.6668 23.6084 11.6668H21.5501V14.6667C21.5501 15.0348 21.2516 15.3333 20.8834 15.3333C20.5153 15.3333 20.2168 15.0348 20.2168 14.6667V11.6668L11.4668 11.6667C11.0986 11.6667 10.8001 11.3682 10.8001 11C10.8001 10.6318 11.0986 10.3333 11.4668 10.3333L20.2168 10.3334V6.91667C20.2168 3.838 17.7121 1.33333 14.6334 1.33333C11.5548 1.33333 9.0501 3.838 9.0501 6.91667V14.6667C9.0501 15.0348 8.7516 15.3333 8.38344 15.3333C8.01527 15.3333 7.71677 15.0348 7.71677 14.6667V11.6667H5.6586C4.61477 11.6667 3.7581 12.4508 3.66635 13.4909L1.63694 36.4909C1.53344 37.6628 2.45419 38.6667 3.62919 38.6667H25.6379C26.8143 38.6667 27.7334 37.6613 27.6301 36.4909L27.5262 35.3134C27.4939 34.9467 27.7649 34.6231 28.1317 34.5908C28.4985 34.5583 28.822 34.8295 28.8544 35.1963L28.9583 36.3737ZM10.8002 34.25H5.96685C5.59869 34.25 5.30019 34.5485 5.30019 34.9167C5.30019 35.2848 5.59869 35.5833 5.96685 35.5833H10.8002C11.1684 35.5833 11.4669 35.2848 11.4669 34.9167C11.4669 34.5485 11.1684 34.25 10.8002 34.25ZM10.8002 30.9167H5.96685C5.59869 30.9167 5.30019 31.2152 5.30019 31.5833C5.30019 31.9515 5.59869 32.25 5.96685 32.25H10.8002C11.1684 32.25 11.4669 31.9515 11.4669 31.5833C11.4669 31.2152 11.1684 30.9167 10.8002 30.9167ZM22.8086 20.4998C21.93 21.0397 21.2437 21.8217 20.8239 22.7612C20.6736 23.0973 20.8244 23.4916 21.1605 23.6418C21.4966 23.7921 21.8909 23.6414 22.0412 23.3052C22.3511 22.6117 22.8579 22.0344 23.5068 21.6357C23.8205 21.4429 23.9184 21.0323 23.7257 20.7187C23.5329 20.4049 23.1224 20.3069 22.8086 20.4998ZM37.3698 39.0685C36.7723 39.0685 36.1748 38.8411 35.7199 38.3862L29.7785 32.4448C23.9909 35.7364 16.7169 31.5438 16.7169 24.8333C16.7169 20.0086 20.6421 16.0833 25.4669 16.0833C30.2916 16.0833 34.2169 20.0086 34.2169 24.8333C34.2169 27.6053 32.9209 30.0799 30.9035 31.6842L36.6627 37.4434C37.0526 37.8333 37.687 37.8333 38.0769 37.4434C38.4669 37.0535 38.4669 36.4191 38.0769 36.0292L34.049 32.0013C33.7886 31.7409 33.7886 31.3188 34.049 31.0585C34.3094 30.7982 34.7314 30.7982 34.9918 31.0585L39.0197 35.0864C40.4868 36.5534 39.4387 39.0685 37.3698 39.0685ZM25.4669 32.25C29.5564 32.25 32.8835 28.9229 32.8835 24.8333C32.8835 20.7437 29.5564 17.4167 25.4669 17.4167C21.3773 17.4167 18.0502 20.7437 18.0502 24.8333C18.0502 28.9229 21.3773 32.25 25.4669 32.25Z" fill="#FF0A2D"/>
</g>
<defs>
<clipPath id="clip0_74_432">
<rect width="40" height="40" fill="white"/>
</clipPath>
</defs>
</svg>
