<svg width="40" height="40" viewBox="0 0 40 40" fill="none" xmlns="http://www.w3.org/2000/svg">
<g clip-path="url(#clip0_74_435)">
<path d="M38.4106 31.2115L37.2444 20.499C37.0968 19.1434 35.9571 18.1211 34.5934 18.1211H33.7438V16.1714C33.7438 13.5958 31.6483 11.5004 29.0728 11.5004C26.4972 11.5004 24.4017 13.5959 24.4017 16.1714V18.121H23.5521C22.1885 18.121 21.0488 19.1433 20.9011 20.499L19.7349 31.2115C19.5632 32.7884 20.8005 34.1667 22.3859 34.1667H35.7597C37.3433 34.1668 38.5825 32.7904 38.4106 31.2115ZM35.7598 32.8334H22.386C21.5907 32.8334 20.9744 32.1453 21.0605 31.3558L22.2268 20.6434C22.3006 19.9656 22.8704 19.4544 23.5522 19.4544H24.4018V21.1369C24.4018 21.5051 24.7003 21.8036 25.0685 21.8036C25.4366 21.8036 25.7351 21.5051 25.7351 21.1369V16.1715C25.7351 14.3311 27.2324 12.8338 29.0729 12.8338C30.9133 12.8338 32.4106 14.3311 32.4106 16.1715V18.1211H28.1909C27.8227 18.1211 27.5242 18.4195 27.5242 18.7877C27.5242 19.1559 27.8227 19.4544 28.1909 19.4544H32.4106V21.1369C32.4106 21.5051 32.7091 21.8036 33.0772 21.8036C33.4454 21.8036 33.7439 21.5051 33.7439 21.1369V19.4544H34.5934C35.2753 19.4544 35.8452 19.9655 35.9189 20.6433L37.0851 31.3557C37.1713 32.1464 36.554 32.8334 35.7598 32.8334ZM31.4062 36.6667C31.038 36.6667 30.7395 36.9652 30.7395 37.3334C30.7395 38.0685 30.1414 38.6667 29.4062 38.6667H4.24001C3.50486 38.6667 2.9067 38.0685 2.9067 37.3334V2.66734C2.9067 1.93219 3.50486 1.33403 4.24001 1.33403H22.9897V6.41727C22.9897 7.88766 24.1859 9.08389 25.6563 9.08389H31.4062C31.9988 9.08389 32.2964 8.36465 31.8776 7.94583C23.5317 -0.400017 24.072 0.0702244 23.7867 0.0136421C23.6946 -0.00460754 24.7564 0.000725691 4.24001 0.000725691C2.76962 0.000725691 1.57339 1.19695 1.57339 2.66734V37.3334C1.57339 38.8037 2.76962 40 4.24001 40H29.4062C30.8766 40 32.0728 38.8037 32.0728 37.3334C32.0728 36.9651 31.7743 36.6667 31.4062 36.6667ZM25.6563 7.75058C24.9211 7.75058 24.323 7.15243 24.323 6.41727V2.27677L29.7968 7.75058H25.6563ZM12.1661 9.83421C12.1683 8.72723 11.2732 7.83033 10.1662 7.83033H8.82067C7.71795 7.83033 6.82071 8.72748 6.82071 9.83029V11.1707C6.82071 12.2735 7.71795 13.1706 8.82067 13.1706H10.1636C11.2643 13.1706 12.1615 12.2752 12.1635 11.1745L12.1661 9.83421ZM10.8302 11.172C10.8296 11.5389 10.5305 11.8373 10.1636 11.8373H8.82067C8.4531 11.8373 8.15402 11.5383 8.15402 11.1707V9.83029C8.15402 9.46272 8.4531 9.16364 8.82067 9.16364H10.1662C10.5352 9.16364 10.8335 9.46255 10.8328 9.83154L10.8302 11.172ZM12.1565 19.8337C12.1565 18.7309 11.2593 17.8337 10.1566 17.8337H8.82326C7.72053 17.8337 6.8233 18.7309 6.8233 19.8337V21.167C6.8233 22.2698 7.72053 23.167 8.82326 23.167H10.1566C11.2593 23.167 12.1565 22.2698 12.1565 21.167V19.8337ZM10.8232 21.167C10.8232 21.5346 10.5241 21.8337 10.1566 21.8337H8.82326C8.45568 21.8337 8.1566 21.5346 8.1566 21.167V19.8337C8.1566 19.4661 8.45568 19.167 8.82326 19.167H10.1566C10.5241 19.167 10.8232 19.4661 10.8232 19.8337V21.167ZM10.1566 27.8335H8.82326C7.72053 27.8335 6.8233 28.7307 6.8233 29.8335V31.1668C6.8233 32.2696 7.72053 33.1668 8.82326 33.1668H10.1566C11.2593 33.1668 12.1565 32.2696 12.1565 31.1668V29.8335C12.1565 28.7307 11.2593 27.8335 10.1566 27.8335ZM10.8232 31.1668C10.8232 31.5344 10.5241 31.8335 10.1566 31.8335H8.82326C8.45568 31.8335 8.1566 31.5344 8.1566 31.1668V29.8335C8.1566 29.4659 8.45568 29.1668 8.82326 29.1668H10.1566C10.5241 29.1668 10.8232 29.4659 10.8232 29.8335V31.1668ZM20 11.1672H15.4167C15.0486 11.1672 14.7501 10.8687 14.7501 10.5005C14.7501 10.1324 15.0486 9.83388 15.4167 9.83388H20C20.3681 9.83388 20.6666 10.1324 20.6666 10.5005C20.6666 10.8687 20.3681 11.1672 20 11.1672ZM18.0833 21.167H15.4167C15.0486 21.167 14.7501 20.8685 14.7501 20.5003C14.7501 20.1322 15.0486 19.8337 15.4167 19.8337H18.0833C18.4515 19.8337 18.75 20.1322 18.75 20.5003C18.75 20.8685 18.4515 21.167 18.0833 21.167ZM17.0834 29.8335C17.4515 29.8335 17.75 30.132 17.75 30.5002C17.75 30.8683 17.4515 31.1668 17.0834 31.1668H15.4167C15.0486 31.1668 14.7501 30.8683 14.7501 30.5002C14.7501 30.132 15.0486 29.8335 15.4167 29.8335H17.0834Z" fill="#FF0A2D"/>
</g>
<defs>
<clipPath id="clip0_74_435">
<rect width="40" height="40" fill="white"/>
</clipPath>
</defs>
</svg>
