<svg width="40" height="40" viewBox="0 0 40 40" fill="none" xmlns="http://www.w3.org/2000/svg">
<path d="M32.5 40H7.5C3.3575 40 0 36.6425 0 32.5V7.5C0 3.3575 3.3575 0 7.5 0H32.5C36.6425 0 40 3.3575 40 7.5V32.5C40 36.6425 36.6425 40 32.5 40Z" fill="white"/>
<path d="M22.7087 10H12.2913C11.025 10 10 11.025 10 12.2912V26.0412C10 27.3075 11.025 28.3325 12.2913 28.3325H20.9575C20.8738 27.9325 20.8325 27.5075 20.8325 27.0825V22.7075C20.8325 22.6412 20.8325 22.5662 20.8413 22.4987H13.3325C12.875 22.5 12.5 22.125 12.5 21.6662C12.5 21.2075 12.875 20.8325 13.3337 20.8325H21.1838C21.8088 19.1987 23.25 17.9575 25 17.6075V12.2912C25 11.025 23.975 10 22.7087 10ZM13.3337 14.1662H17.5C17.9587 14.1662 18.3337 14.5412 18.3337 15C18.3337 15.4587 17.9587 15.8337 17.5 15.8337H13.3337C12.875 15.8337 12.5 15.4587 12.5 15C12.5 14.5412 12.875 14.1662 13.3337 14.1662ZM21.6663 19.1662H13.3325C12.8738 19.1662 12.4987 18.7912 12.4987 18.3325C12.5 17.875 12.875 17.5 13.3337 17.5H21.6675C22.125 17.5 22.5 17.875 22.5 18.3337C22.5 18.7912 22.125 19.1662 21.6663 19.1662Z" fill="#FF0A2D"/>
<path d="M27.0837 30C25.4762 30 24.1675 28.6912 24.1675 27.0837V22.7087C24.1675 21.675 25.0087 20.8337 26.0425 20.8337C27.0762 20.8337 27.9175 21.675 27.9175 22.7087V26.875C27.9175 27.22 27.6375 27.5 27.2925 27.5C26.9475 27.5 26.6675 27.22 26.6675 26.875V22.7087C26.6675 22.3637 26.3862 22.0837 26.0425 22.0837C25.6987 22.0837 25.4175 22.3637 25.4175 22.7087V27.0837C25.4175 28.0025 26.165 28.75 27.0837 28.75C28.0025 28.75 28.75 28.0025 28.75 27.0837V21.4587C28.75 21.1137 29.03 20.8337 29.375 20.8337C29.72 20.8337 30 21.1137 30 21.4587V27.0837C30 28.6912 28.6912 30 27.0837 30Z" fill="#FF0A2D"/>
</svg>
