<svg width="20" height="21" viewBox="0 0 20 21" fill="none" xmlns="http://www.w3.org/2000/svg">
<g clip-path="url(#clip0_46_338)">
<path d="M10 20.532C4.47715 20.532 0 16.1131 0 10.662C0 5.21096 4.47715 0.792007 10 0.792007C15.5228 0.792007 20 5.21096 20 10.662C20 16.1131 15.5228 20.532 10 20.532Z" fill="#039BE5"/>
<path d="M15.4242 10.4482L5.78249 6.77898C5.33499 6.61942 4.94416 6.88673 5.08916 7.5546L5.08833 7.55378L6.72999 15.1874C6.85166 15.7286 7.1775 15.8602 7.63333 15.6052L10.1333 13.7867L11.3392 14.9333C11.4725 15.0649 11.585 15.1759 11.8433 15.1759L11.6658 12.6648L7.0325 8.53338C6.83083 8.35818 7.0775 8.25948 7.34333 8.43385L13.0692 11.992L15.5375 11.232C16.0733 11.0642 16.085 10.7031 15.4242 10.4482Z" fill="white"/>
</g>
<defs>
<clipPath id="clip0_46_338">
<rect width="20" height="19.74" fill="white" transform="matrix(-1 0 0 1 20 0.792007)"/>
</clipPath>
</defs>
</svg>
