<svg width="70" height="70" viewBox="0 0 70 70" fill="none" xmlns="http://www.w3.org/2000/svg">
<path d="M70 28.711L35 70L34.7906 69.7538L0 28.711L15.516 13.438H54.484L70 28.711Z" fill="#00E8F2"/>
<path d="M70 28.711L35 70V13.438H54.484L70 28.711Z" fill="#00CEF5"/>
<path d="M46.7236 28.6768H23.2764L34.7906 13.7104L35 13.438L46.7236 28.6768Z" fill="#9CFDFF"/>
<path d="M54.4835 13.438L46.5527 28.6768H70L54.4835 13.438Z" fill="#00F8FE"/>
<path d="M15.5165 13.438L23.4473 28.6768H0L15.5165 13.438Z" fill="#9CFDFF"/>
<path d="M32.9492 0H37.0508V8.49846H32.9492V0Z" fill="#9CFDFF"/>
<path d="M43.3188 8.68216L46.6444 0.715088L50.4293 2.29536L47.1037 10.2619L43.3188 8.68216Z" fill="#00F8FE"/>
<path d="M19.5693 2.29439L23.3542 0.714111L26.6798 8.68118L22.8949 10.2609L19.5693 2.29439Z" fill="#9CFDFF"/>
<path d="M46.5527 28.6768L35 70L34.7906 69.2523L23.4473 28.6768H46.5527Z" fill="#00F8FE"/>
<path d="M35 0H37.0508V8.49846H35V0Z" fill="#00F8FE"/>
<path d="M46.7236 28.6768H46.5527L35 70V13.438L46.7236 28.6768Z" fill="#9CFDFF"/>
<path d="M46.7236 28.6768H35V13.438L46.7236 28.6768Z" fill="#00F8FE"/>
</svg>
