<svg width="70" height="70" viewBox="0 0 70 70" fill="none" xmlns="http://www.w3.org/2000/svg">
<path d="M65.7617 2.05078V24.7461L61.6602 28.9844H8.33984L4.23828 24.7461V2.05078C4.23828 0.902023 5.1403 0 6.28906 0H63.7109C64.8597 0 65.7617 0.902023 65.7617 2.05078Z" fill="#FDBF00"/>
<path d="M65.7617 2.05078V24.7461L61.6602 28.9844H35V0H63.7109C64.8597 0 65.7617 0.902023 65.7617 2.05078Z" fill="#FF9F00"/>
<path d="M61.0449 28.3691C60.6759 28.7793 60.1424 28.9844 59.6094 28.9844L35 28.6971L8.95508 28.3691C8.13477 27.59 8.13477 26.1405 8.95508 25.3613L25.3613 8.95508C26.1405 8.13477 27.4532 8.13477 28.2324 8.95508L35 15.6815L39.1016 19.7831L45.8697 13.0566C46.6489 12.2363 47.961 12.2363 48.7402 13.0566L61.0449 25.3613C61.8652 26.1405 61.8652 27.59 61.0449 28.3691Z" fill="#FF7816"/>
<path d="M61.0449 28.3691C60.6759 28.7793 60.1424 28.9844 59.6094 28.9844L35 28.6971V15.6815L39.1016 19.7831L45.8691 13.0566C46.6483 12.2363 47.961 12.2363 48.7402 13.0566L61.0449 25.3613C61.8652 26.1405 61.8652 27.59 61.0449 28.3691Z" fill="#FF4B00"/>
<path d="M65.7617 24.7461V67.9492C65.7617 69.0974 64.8597 70 63.7109 70H6.28906C5.1403 70 4.23828 69.0974 4.23828 67.9492V24.7461H65.7617Z" fill="#ECECF1"/>
<path d="M65.7617 24.7461V67.9492C65.7617 69.0974 64.8597 70 63.7109 70H35V24.7461H65.7617Z" fill="#E2E2E7"/>
<path d="M22.6953 61.7969H14.4922C13.3589 61.7969 12.4414 60.8794 12.4414 59.7461V51.543C12.4414 50.4097 13.3589 49.4922 14.4922 49.4922H22.6953C23.8286 49.4922 24.7461 50.4097 24.7461 51.543V59.7461C24.7461 60.8794 23.8286 61.7969 22.6953 61.7969Z" fill="#FF9F00"/>
<path d="M39.1016 49.4922H30.8984C29.7497 49.4922 28.8477 50.3942 28.8477 51.543V59.7461C28.8477 60.8943 29.7497 61.7969 30.8984 61.7969H39.1016C40.2503 61.7969 41.1523 60.8943 41.1523 59.7461V51.543C41.1523 50.3942 40.2503 49.4922 39.1016 49.4922Z" fill="#FF9F00"/>
<path d="M55.5078 61.7969H47.3047C46.1714 61.7969 45.2539 60.8794 45.2539 59.7461V51.543C45.2539 50.4097 46.1714 49.4922 47.3047 49.4922H55.5078C56.6411 49.4922 57.5586 50.4097 57.5586 51.543V59.7461C57.5586 60.8794 56.6411 61.7969 55.5078 61.7969Z" fill="#FF7816"/>
<path d="M55.5078 33.0859H14.4922C13.3434 33.0859 12.4414 33.988 12.4414 35.1367V43.3398C12.4414 44.4881 13.3434 45.3906 14.4922 45.3906H55.5078C56.6566 45.3906 57.5586 44.4881 57.5586 43.3398V35.1367C57.5586 33.988 56.6566 33.0859 55.5078 33.0859Z" fill="#FDBF00"/>
<path d="M41.1523 51.543V59.7461C41.1523 60.8943 40.2503 61.7969 39.1016 61.7969H35V49.4922H39.1016C40.2503 49.4922 41.1523 50.3942 41.1523 51.543Z" fill="#FF7816"/>
<path d="M57.5586 35.1367V43.3398C57.5586 44.4881 56.6566 45.3906 55.5078 45.3906H35V33.0859H55.5078C56.6566 33.0859 57.5586 33.988 57.5586 35.1367Z" fill="#FF9F00"/>
</svg>
