<svg width="70" height="70" viewBox="0 0 70 70" fill="none" xmlns="http://www.w3.org/2000/svg">
<path d="M63.4375 3.28125H6.5625C4.75032 3.28125 3.28125 4.75032 3.28125 6.5625V63.4375C3.28125 65.2497 4.75032 66.7188 6.5625 66.7188H63.4375C65.2497 66.7188 66.7188 65.2497 66.7188 63.4375V6.5625C66.7188 4.75032 65.2497 3.28125 63.4375 3.28125Z" fill="#548AFF"/>
<path d="M18.5938 22.9688V3.28125H6.5625C5.69226 3.28125 4.85766 3.62695 4.24231 4.24231C3.62695 4.85766 3.28125 5.69226 3.28125 6.5625V22.9688H18.5938Z" fill="#7DAFFF"/>
<path d="M66.7188 49.2188H22.9688V66.7188H63.4375C64.3077 66.7188 65.1423 66.373 65.7577 65.7577C66.373 65.1423 66.7188 64.3077 66.7188 63.4375V49.2188Z" fill="#4976F2"/>
<path d="M28.4375 52.5H42.6562V54.6875H28.4375V52.5Z" fill="#7DAFFF"/>
<path d="M39.375 56.875H59.0625V59.0625H39.375V56.875Z" fill="#7DAFFF"/>
<path d="M33.9062 61.25H40.4688V63.4375H33.9062V61.25Z" fill="#7DAFFF"/>
<path d="M43.75 61.25H47.0312V63.4375H43.75V61.25Z" fill="#7DAFFF"/>
<path d="M51.4062 52.5H59.0625V54.6875H51.4062V52.5Z" fill="#7DAFFF"/>
<path d="M22.9688 66.7188V49.2188H3.28125V63.4375C3.28125 64.3077 3.62695 65.1423 4.24231 65.7577C4.85766 66.373 5.69226 66.7188 6.5625 66.7188H22.9688Z" fill="#7DAFFF"/>
<path d="M22.9688 54.6875V52.5H10.9375V49.2188H8.75V52.5H3.28125V54.6875H8.75V56.875H3.28125V59.0625H8.75V61.25H3.28125V63.4375H8.75V66.7188H10.9375V63.4375H22.9688V61.25H10.9375V59.0625H22.9688V56.875H10.9375V54.6875H22.9688Z" fill="#639AFF"/>
<path d="M7.65625 8.75C8.26031 8.75 8.75 8.26031 8.75 7.65625C8.75 7.05219 8.26031 6.5625 7.65625 6.5625C7.05219 6.5625 6.5625 7.05219 6.5625 7.65625C6.5625 8.26031 7.05219 8.75 7.65625 8.75Z" fill="#639AFF"/>
<path d="M10.9375 8.75C11.5416 8.75 12.0312 8.26031 12.0312 7.65625C12.0312 7.05219 11.5416 6.5625 10.9375 6.5625C10.3334 6.5625 9.84375 7.05219 9.84375 7.65625C9.84375 8.26031 10.3334 8.75 10.9375 8.75Z" fill="#639AFF"/>
<path d="M14.2188 8.75C14.8228 8.75 15.3125 8.26031 15.3125 7.65625C15.3125 7.05219 14.8228 6.5625 14.2188 6.5625C13.6147 6.5625 13.125 7.05219 13.125 7.65625C13.125 8.26031 13.6147 8.75 14.2188 8.75Z" fill="#639AFF"/>
<path d="M52.5 42.6562H63.4375V44.8438H52.5V42.6562Z" fill="#4976F2"/>
<path d="M21.875 42.6562H47.0312V44.8438H21.875V42.6562Z" fill="#4976F2"/>
<path d="M47.0312 44.8438L44.8438 42.6562V39.375H49.2188V42.6562L47.0312 44.8438Z" fill="#91C0FF"/>
<path d="M3.28125 22.9688H18.5938V49.2188H3.28125V22.9688Z" fill="#639AFF"/>
<path d="M6.5625 26.25H13.125V28.4375H6.5625V26.25Z" fill="#91C0FF"/>
<path d="M6.5625 30.625H10.9375V32.8125H6.5625V30.625Z" fill="#91C0FF"/>
<path d="M6.5625 35H13.125V37.1875H6.5625V35Z" fill="#91C0FF"/>
<path d="M10.9375 39.375H15.3125V41.5625H10.9375V39.375Z" fill="#91C0FF"/>
<path d="M10.9375 43.75H15.3125V45.9375H10.9375V43.75Z" fill="#91C0FF"/>
<path d="M44.8438 13.125H38.2812L32.8125 15.3125V17.5H40.4688L39.375 21.875L44.8438 24.0625L48.125 20.7812H53.5938L57.9688 17.5L56.875 15.3125L52.5 16.4062L47.0312 14.2188L44.8438 13.125Z" fill="#FFB401"/>
<path d="M43.75 10.9375H48.125V13.125C48.125 13.7052 47.8945 14.2616 47.4843 14.6718C47.0741 15.082 46.5177 15.3125 45.9375 15.3125C45.3573 15.3125 44.8009 15.082 44.3907 14.6718C43.9805 14.2616 43.75 13.7052 43.75 13.125V10.9375Z" fill="#FFCEB6"/>
<path d="M43.75 10.9375V8.75L45.5638 7.84308C45.8096 7.72022 46.0805 7.65625 46.3553 7.65625C46.5877 7.65625 46.8178 7.70203 47.0325 7.79096C47.2472 7.8799 47.4423 8.01026 47.6067 8.17459C47.771 8.33892 47.9014 8.53402 47.9903 8.74873C48.0792 8.96344 48.125 9.19357 48.125 9.42597V10.9375H43.75Z" fill="#B1712C"/>
<path d="M39.375 21.875L36.0938 29.5312L29.5312 31.7188V33.9062L39.375 32.8125L43.75 28.4375L39.375 21.875Z" fill="#7DAFFF"/>
<path d="M38.2812 17.5V13.125L32.8125 15.3125V17.5H38.2812Z" fill="#FFCEB6"/>
<path d="M53.5938 20.7812L52.5 16.4062L56.875 15.3125L57.9688 17.5L53.5938 20.7812Z" fill="#FFCEB6"/>
<path d="M39.3751 21.875L38.8768 23.3698C38.6914 23.9261 38.6354 24.5173 38.7133 25.0984C38.7911 25.6795 39.0006 26.2352 39.3258 26.723C39.6774 27.2504 40.1538 27.6828 40.7126 27.9819C41.2715 28.281 41.8955 28.4375 42.5293 28.4375H48.1251L47.0313 35L49.2188 36.0938L51.9727 29.668C52.3124 28.8753 52.3494 27.9856 52.0767 27.1675C51.8743 26.5603 51.5103 26.0198 51.0237 25.604C50.5371 25.1882 49.9464 24.9129 49.3151 24.8077L44.8438 24.0625L39.3751 21.875Z" fill="#91C0FF"/>
</svg>
