<svg width="70" height="70" viewBox="0 0 70 70" fill="none" xmlns="http://www.w3.org/2000/svg">
<path d="M35.0001 69.9999C24.1795 69.9999 15.3765 61.1967 15.3765 50.3762C15.3765 49.2436 16.2947 48.3254 17.4272 48.3254H26.2137C27.3463 48.3254 28.2645 49.2436 28.2645 50.3762C28.2645 54.0903 31.2861 57.112 35.0003 57.112C38.7144 57.112 41.736 54.0903 41.736 50.3762C41.736 49.2436 42.6542 48.3254 43.7868 48.3254H52.5733C53.7058 48.3254 54.624 49.2436 54.624 50.3762C54.6238 61.1967 45.8207 69.9999 35.0001 69.9999Z" fill="#FAF0FA"/>
<path d="M35 70V57.1119C38.7141 57.1119 41.7357 54.0903 41.7357 50.3762C41.7357 49.2436 42.6539 48.3254 43.7865 48.3254H52.573C53.7056 48.3254 54.6238 49.2436 54.6238 50.3762C54.6236 61.1968 45.8206 70 35 70Z" fill="#E1E6F5"/>
<path d="M41.7358 50.3764V41.5898C41.7358 40.4573 42.654 39.5391 43.7866 39.5391H52.5731C53.7057 39.5391 54.6239 40.4573 54.6239 41.5898V50.3764H41.7358Z" fill="#3C8CFF"/>
<path d="M15.3765 50.3764V41.5898C15.3765 40.4573 16.2947 39.5391 17.4272 39.5391H26.2137C27.3463 39.5391 28.2645 40.4573 28.2645 41.5898V50.3764H15.3765Z" fill="#FF3053"/>
<path d="M13.0337 24.1649C10.0051 24.1649 7.54102 21.701 7.54102 18.6722C7.54102 15.6435 10.0051 13.1797 13.0337 13.1797C16.0623 13.1797 18.5262 15.6436 18.5262 18.6724C18.5262 21.7011 16.0623 24.1649 13.0337 24.1649Z" fill="#FFD7BE"/>
<path d="M13.0338 24.1648C8.26847 24.1648 4.39331 28.04 4.39331 32.8032C4.39331 33.9358 5.31151 34.854 6.44409 34.854H19.6235C20.7561 34.854 21.6743 33.9358 21.6743 32.8032C21.6743 28.04 17.7993 24.1648 13.0338 24.1648Z" fill="#06E664"/>
<path d="M18.5262 18.6721C18.5262 15.6435 16.0623 13.1794 13.0337 13.1794V24.1647C16.0623 24.1648 18.5262 21.7008 18.5262 18.6721Z" fill="#FFBEB4"/>
<path d="M19.6234 34.854C20.756 34.854 21.6742 33.9358 21.6742 32.8032C21.6742 28.04 17.799 24.1648 13.0337 24.1648V34.854H19.6234Z" fill="#00A06E"/>
<path d="M35 10.9852C31.9714 10.9852 29.5073 8.52127 29.5073 5.49254C29.5073 2.46381 31.9714 0 35 0C38.0286 0 40.4926 2.46395 40.4926 5.49268C40.4926 8.52141 38.0286 10.9852 35 10.9852Z" fill="#FFD7BE"/>
<path d="M35.0001 10.9851C30.2348 10.9851 26.3596 14.8603 26.3596 19.6235C26.3596 20.7561 27.2778 21.6743 28.4104 21.6743H41.5898C42.7224 21.6743 43.6406 20.7561 43.6406 19.6235C43.6406 14.8603 39.7654 10.9851 35.0001 10.9851Z" fill="#3C8CFF"/>
<path d="M40.4925 5.49268C40.4925 2.46395 38.0286 0 35 0V10.9852C38.0286 10.9852 40.4925 8.52127 40.4925 5.49268Z" fill="#FFBEB4"/>
<path d="M41.5897 21.6743C42.7223 21.6743 43.6405 20.7561 43.6405 19.6235C43.6405 14.8603 39.7653 10.9851 35 10.9851V21.6743H41.5897Z" fill="#5A5AFF"/>
<path d="M56.9663 24.1649C53.9377 24.1649 51.4736 21.701 51.4736 18.6722C51.4736 15.6435 53.9377 13.1797 56.9663 13.1797C59.9949 13.1797 62.4589 15.6436 62.4589 18.6724C62.4589 21.7011 59.9949 24.1649 56.9663 24.1649Z" fill="#FFD7BE"/>
<path d="M56.9662 24.1648C52.2008 24.1648 48.3257 28.04 48.3257 32.8032C48.3257 33.9358 49.2439 34.854 50.3765 34.854H63.5559C64.6885 34.854 65.6067 33.9358 65.6067 32.8032C65.6067 28.04 61.7315 24.1648 56.9662 24.1648Z" fill="#FF645A"/>
<path d="M62.4589 18.6721C62.4589 15.6435 59.9949 13.1794 56.9663 13.1794V24.1647C59.9949 24.1648 62.4589 21.7008 62.4589 18.6721Z" fill="#FFBEB4"/>
<path d="M63.556 34.854C64.6886 34.854 65.6068 33.9358 65.6068 32.8032C65.6068 28.04 61.7316 24.1648 56.9663 24.1648V34.854H63.556Z" fill="#FF3053"/>
<path d="M33.5498 38.6468C34.3505 39.4474 35.649 39.4478 36.45 38.6468L38.6465 36.4501C39.4474 35.6492 39.4474 34.3508 38.6465 33.5499L35.7035 30.6068L36.45 29.8603C37.2509 29.0594 37.2509 27.7609 36.45 26.96C35.6492 26.1592 34.3507 26.1592 33.5498 26.96L31.3531 29.1567C30.5522 29.9576 30.5522 31.256 31.3531 32.0569L34.2963 34.9999L33.5498 35.7464C32.7489 36.5473 32.7489 37.8459 33.5498 38.6468Z" fill="#FFE600"/>
</svg>
