<svg width="30" height="30" viewBox="0 0 30 30" fill="none" xmlns="http://www.w3.org/2000/svg">
<path d="M28.5938 4.6875H1.40625C1.15761 4.6875 0.919153 4.78627 0.743337 4.96209C0.567522 5.1379 0.46875 5.37636 0.46875 5.625V24.375C0.46875 24.6236 0.567522 24.8621 0.743337 25.0379C0.919153 25.2137 1.15761 25.3125 1.40625 25.3125H28.5938C28.8424 25.3125 29.0808 25.2137 29.2567 25.0379C29.4325 24.8621 29.5312 24.6236 29.5312 24.375V5.625C29.5312 5.37636 29.4325 5.1379 29.2567 4.96209C29.0808 4.78627 28.8424 4.6875 28.5938 4.6875ZM28.5938 5.625V21.3689L18.6127 11.3873C18.5248 11.2995 18.4055 11.2501 18.2812 11.2501C18.157 11.2501 18.0377 11.2995 17.9498 11.3873L13.5938 15.7434L11.1127 13.2623C11.0248 13.1745 10.9055 13.1251 10.7812 13.1251C10.657 13.1251 10.5377 13.1745 10.4498 13.2623L1.40625 22.3059V5.625H28.5938ZM1.40625 24.375V23.6316L10.7812 14.2566L16.0748 19.5502C16.1633 19.6355 16.2817 19.6828 16.4046 19.6817C16.5275 19.6807 16.645 19.6314 16.7319 19.5444C16.8189 19.4575 16.8682 19.34 16.8692 19.2171C16.8703 19.0942 16.823 18.9758 16.7377 18.8873L14.2566 16.4062L18.2812 12.3816L28.5938 22.6941V24.375H1.40625Z" fill="#FF0A2D"/>
<path d="M17.6753 19.8249C17.5868 19.7396 17.4684 19.6923 17.3455 19.6934C17.2226 19.6944 17.1051 19.7437 17.0182 19.8307C16.9312 19.9176 16.8819 20.0351 16.8809 20.158C16.8798 20.2809 16.9271 20.3993 17.0124 20.4878L17.4812 20.9565C17.5696 21.0419 17.688 21.0891 17.8109 21.0881C17.9338 21.087 18.0514 21.0377 18.1383 20.9508C18.2252 20.8639 18.2745 20.7463 18.2756 20.6234C18.2766 20.5005 18.2294 20.3821 18.144 20.2937L17.6753 19.8249Z" fill="#FF0A2D"/>
<path d="M10.7812 11.7187C11.2448 11.7187 11.6979 11.5813 12.0834 11.3238C12.4688 11.0662 12.7692 10.7002 12.9466 10.2719C13.124 9.84365 13.1704 9.3724 13.08 8.91776C12.9895 8.46311 12.7663 8.0455 12.4385 7.71772C12.1107 7.38994 11.6931 7.16672 11.2385 7.07629C10.7838 6.98585 10.3126 7.03227 9.88433 7.20966C9.45607 7.38705 9.09003 7.68746 8.83249 8.07288C8.57496 8.45831 8.4375 8.91145 8.4375 9.375C8.43824 9.99637 8.68541 10.5921 9.12479 11.0315C9.56417 11.4708 10.1599 11.718 10.7812 11.7187ZM10.7812 7.96875C11.0594 7.96875 11.3313 8.05122 11.5625 8.20575C11.7938 8.36027 11.974 8.57989 12.0805 8.83685C12.1869 9.09381 12.2147 9.37656 12.1605 9.64934C12.1062 9.92213 11.9723 10.1727 11.7756 10.3694C11.5789 10.566 11.3284 10.7 11.0556 10.7542C10.7828 10.8085 10.5001 10.7806 10.2431 10.6742C9.98614 10.5678 9.76651 10.3875 9.61199 10.1563C9.45747 9.92501 9.375 9.65313 9.375 9.375C9.375 9.00204 9.52316 8.64435 9.78688 8.38063C10.0506 8.11691 10.4083 7.96875 10.7812 7.96875Z" fill="#FF0A2D"/>
<path d="M21.0938 7.5H21.5625C21.6868 7.5 21.806 7.45061 21.894 7.36271C21.9819 7.2748 22.0312 7.15557 22.0312 7.03125C22.0312 6.90693 21.9819 6.7877 21.894 6.69979C21.806 6.61189 21.6868 6.5625 21.5625 6.5625H21.0938C20.9694 6.5625 20.8502 6.61189 20.7623 6.69979C20.6744 6.7877 20.625 6.90693 20.625 7.03125C20.625 7.15557 20.6744 7.2748 20.7623 7.36271C20.8502 7.45061 20.9694 7.5 21.0938 7.5Z" fill="#FF0A2D"/>
<path d="M22.9688 7.5H27.1875C27.3118 7.5 27.431 7.45061 27.519 7.36271C27.6069 7.2748 27.6562 7.15557 27.6562 7.03125C27.6562 6.90693 27.6069 6.7877 27.519 6.69979C27.431 6.61189 27.3118 6.5625 27.1875 6.5625H22.9688C22.8444 6.5625 22.7252 6.61189 22.6373 6.69979C22.5494 6.7877 22.5 6.90693 22.5 7.03125C22.5 7.15557 22.5494 7.2748 22.6373 7.36271C22.7252 7.45061 22.8444 7.5 22.9688 7.5Z" fill="#FF0A2D"/>
</svg>
