<svg width="157" height="21" viewBox="0 0 157 21" fill="none" xmlns="http://www.w3.org/2000/svg">
<path d="M7.25 16.17L7.22 21H11.75C17.54 21 20.06 18.3 21.53 12.63L22.67 8.25C23 6.99 23.15 5.88 23.15 4.95C23.15 1.53 20.93 0.18 16.37 0.18H5.81L0.44 21H5.99L10.13 5.01H14.99C16.43 5.01 17.21 5.34 17.21 6.6C17.21 7.05 17.12 7.59 16.94 8.25L15.8 12.63C15.23 14.82 14.15 16.17 12.11 16.17H7.25ZM28.8739 21H40.4839L41.6539 16.44H31.9939L35.0239 4.74H44.5039L45.6739 0.18H34.2439C32.2639 0.18 30.2539 1.68 29.7439 3.66L26.1739 17.52C26.0839 17.82 26.0539 18.09 26.0539 18.36C26.0539 19.89 27.1939 21 28.8739 21ZM34.0339 8.55H42.2839V12.39H34.0339V8.55ZM53.9225 21H59.4125L70.8425 0.18H65.1125L56.3825 16.23H56.2325L55.8725 0.18H50.2325L50.6525 17.16C50.7125 19.32 51.7025 21 53.9225 21ZM73.4286 21H85.0386L86.2086 16.44H76.5486L79.5786 4.74H89.0586L90.2286 0.18H78.7986C76.8186 0.18 74.8086 1.68 74.2986 3.66L70.7286 17.52C70.6386 17.82 70.6086 18.09 70.6086 18.36C70.6086 19.89 71.7486 21 73.4286 21ZM78.5886 8.55H86.8386V12.39H78.5886V8.55ZM95.0872 21H105.707L106.967 16.17H98.2972L102.407 0.18H96.8572L92.3872 17.52C92.2972 17.82 92.2672 18.09 92.2672 18.36C92.2672 19.89 93.4072 21 95.0872 21ZM114.468 21H126.078L127.248 16.44H117.588L120.618 4.74H130.098L131.268 0.18H119.838C117.858 0.18 115.848 1.68 115.338 3.66L111.768 17.52C111.678 17.82 111.648 18.09 111.648 18.36C111.648 19.89 112.788 21 114.468 21ZM119.628 8.55H127.878V12.39H119.628V8.55ZM156.616 0.18H150.226L144.496 7.83L142.726 0.18H136.216L139.456 10.29L130.456 21H136.996L143.146 12.99L145.216 21H151.696L148.276 10.29L156.616 0.18Z" fill="#FF0A2D"/>
</svg>
