<svg width="30" height="18" viewBox="0 0 30 18" fill="none" xmlns="http://www.w3.org/2000/svg">
<path d="M30 8.99994C30 13.9523 26 17.9999 21 17.9999C16.0476 17.9999 12 13.9523 12 8.99994C12 4.04756 16 -6.10352e-05 20.9524 -6.10352e-05C26 -6.10352e-05 30 4.04756 30 8.99994Z" fill="#FFB600"/>
<path d="M21 -6.10352e-05C25.9524 -6.10352e-05 30 4.04756 30 8.99994C30 13.9523 26 17.9999 21 17.9999C16.0476 17.9999 12 13.9523 12 8.99994" fill="#F7981D"/>
<path d="M21 -6.10352e-05C25.9524 -6.10352e-05 30 4.04756 30 8.99994C30 13.9523 26 17.9999 21 17.9999" fill="#FF8500"/>
<path d="M8.90476 -6.10352e-05C4 0.047558 0 4.04756 0 8.99994C0 13.9523 4 17.9999 9 17.9999C11.3333 17.9999 13.4286 17.0952 15.0476 15.6666C15.381 15.3809 15.6667 15.0476 15.9524 14.7142H14.0952C13.8571 14.4285 13.619 14.0952 13.4286 13.8095H16.619C16.8095 13.5237 17 13.1904 17.1429 12.8571H12.9048C12.7619 12.5714 12.619 12.238 12.5238 11.9047H17.4762C17.7619 10.9999 17.9524 10.0476 17.9524 9.04756C17.9524 8.38089 17.8571 7.76184 17.7619 7.14279H12.2381C12.2857 6.80946 12.381 6.52375 12.4762 6.19041H17.4286C17.3333 5.85708 17.1905 5.52375 17.0476 5.23803H12.8571C13 4.9047 13.1905 4.61899 13.381 4.28565H16.5714C16.381 3.95232 16.1429 3.61899 15.8571 3.33327H14.0952C14.381 2.99994 14.6667 2.71422 15 2.42851C13.4286 0.95232 11.2857 0.095177 8.95238 0.095177C8.95238 -6.11274e-05 8.95238 -6.10352e-05 8.90476 -6.10352e-05Z" fill="#FF5050"/>
<path d="M0 9.00004C0 13.9524 4 18 9 18C11.3333 18 13.4286 17.0953 15.0476 15.6667C15.381 15.381 15.6667 15.0477 15.9524 14.7143H14.0952C13.8571 14.4286 13.619 14.0953 13.4286 13.8096H16.619C16.8095 13.5238 17 13.1905 17.1429 12.8572H12.9048C12.7619 12.5715 12.619 12.2381 12.5238 11.9048H17.4762C17.7619 11 17.9524 10.0477 17.9524 9.04765C17.9524 8.38099 17.8571 7.76194 17.7619 7.14289H12.2381C12.2857 6.80956 12.381 6.52385 12.4762 6.19051H17.4286C17.3333 5.85718 17.1905 5.52385 17.0476 5.23813H12.8571C13 4.9048 13.1905 4.61908 13.381 4.28575H16.5714C16.381 3.95242 16.1429 3.61908 15.8571 3.33337H14.0952C14.381 3.00004 14.6667 2.71432 15 2.42861C13.4286 0.952419 11.2857 0.0952759 8.95238 0.0952759H8.90476" fill="#E52836"/>
<path d="M9.00002 18C11.3334 18 13.4286 17.0953 15.0476 15.6667C15.381 15.381 15.6667 15.0477 15.9524 14.7143H14.0953C13.8572 14.4286 13.6191 14.0953 13.4286 13.8096H16.6191C16.8095 13.5238 17 13.1905 17.1429 12.8572H12.9048C12.7619 12.5715 12.6191 12.2381 12.5238 11.9048H17.4762C17.7619 11 17.9524 10.0477 17.9524 9.04765C17.9524 8.38099 17.8572 7.76194 17.7619 7.14289H12.2381C12.2857 6.80956 12.381 6.52385 12.4762 6.19051H17.4286C17.3334 5.85718 17.1905 5.52385 17.0476 5.23813H12.8572C13 4.9048 13.1905 4.61908 13.381 4.28575H16.5715C16.381 3.95242 16.1429 3.61908 15.8572 3.33337H14.0953C14.381 3.00004 14.6667 2.71432 15 2.42861C13.4286 0.952419 11.2857 0.0952759 8.9524 0.0952759H8.90479" fill="#CB2026"/>
<path d="M12.1905 11.2858L12.3333 10.4763C12.2857 10.4763 12.1905 10.5239 12.0952 10.5239C11.7619 10.5239 11.7143 10.3334 11.7619 10.2382L12.0476 8.57153H12.5714L12.7143 7.66677H12.2381L12.3333 7.09534H11.3809C11.3809 7.09534 10.8095 10.2382 10.8095 10.6191C10.8095 11.1906 11.1428 11.4287 11.5714 11.4287C11.8571 11.4287 12.0952 11.3334 12.1905 11.2858Z" fill="white"/>
<path d="M12.5238 9.76192C12.5238 11.0953 13.4286 11.4286 14.1905 11.4286C14.9048 11.4286 15.1905 11.2857 15.1905 11.2857L15.3809 10.381C15.3809 10.381 14.8571 10.6191 14.3809 10.6191C13.3333 10.6191 13.5238 9.85716 13.5238 9.85716H15.4762C15.4762 9.85716 15.619 9.23811 15.619 9.00002C15.619 8.38097 15.2857 7.61906 14.2381 7.61906C13.2381 7.52383 12.5238 8.57144 12.5238 9.76192ZM14.1905 8.38097C14.7143 8.38097 14.619 9.00002 14.619 9.04764H13.5714C13.5714 9.00002 13.6667 8.38097 14.1905 8.38097Z" fill="white"/>
<path d="M20.2381 11.2857L20.4285 10.2381C20.4285 10.2381 19.9524 10.4762 19.619 10.4762C18.9524 10.4762 18.6666 9.9524 18.6666 9.38097C18.6666 8.23811 19.2381 7.61907 19.9047 7.61907C20.3809 7.61907 20.7619 7.90478 20.7619 7.90478L20.9047 6.90478C20.9047 6.90478 20.3333 6.66669 19.8095 6.66669C18.7143 6.66669 17.619 7.61907 17.619 9.42859C17.619 10.6191 18.1904 11.4286 19.3333 11.4286C19.7143 11.4286 20.2381 11.2857 20.2381 11.2857Z" fill="white"/>
<path d="M6.95234 7.5238C6.28568 7.5238 5.80949 7.71428 5.80949 7.71428L5.66663 8.5238C5.66663 8.5238 6.0952 8.33333 6.71425 8.33333C7.04758 8.33333 7.3333 8.38095 7.3333 8.66666C7.3333 8.85714 7.28568 8.90475 7.28568 8.90475C7.28568 8.90475 6.99996 8.90475 6.85711 8.90475C6.04758 8.90475 5.14282 9.23809 5.14282 10.3333C5.14282 11.1905 5.71425 11.3809 6.04758 11.3809C6.71425 11.3809 6.99996 10.9524 7.04758 10.9524L6.99996 11.3333H7.8571L8.23806 8.71428C8.23806 7.57142 7.28568 7.5238 6.95234 7.5238ZM7.14282 9.66666C7.14282 9.80952 7.04758 10.5714 6.47615 10.5714C6.19044 10.5714 6.0952 10.3333 6.0952 10.1905C6.0952 9.95237 6.23806 9.61904 6.95234 9.61904C7.0952 9.66666 7.14282 9.66666 7.14282 9.66666Z" fill="white"/>
<path d="M9.14285 11.381C9.38094 11.381 10.5714 11.4286 10.5714 10.1429C10.5714 8.95245 9.42856 9.19054 9.42856 8.71435C9.42856 8.47626 9.61904 8.38102 9.95237 8.38102C10.0952 8.38102 10.619 8.42864 10.619 8.42864L10.7619 7.5715C10.7619 7.5715 10.4286 7.47626 9.85713 7.47626C9.14285 7.47626 8.42856 7.76197 8.42856 8.71435C8.42856 9.80959 9.61904 9.71435 9.61904 10.1429C9.61904 10.4286 9.2857 10.4763 9.04761 10.4763C8.61904 10.4763 8.19047 10.3334 8.19047 10.3334L8.04761 11.1905C8.09523 11.2858 8.33332 11.381 9.14285 11.381Z" fill="white"/>
<path d="M28.1428 6.76196L27.9523 8.04768C27.9523 8.04768 27.5714 7.57149 27.0476 7.57149C26.1904 7.57149 25.4285 8.61911 25.4285 9.8572C25.4285 10.6191 25.8095 11.4286 26.619 11.4286C27.1904 11.4286 27.5238 11.0477 27.5238 11.0477L27.4761 11.381H28.4285L29.1428 6.80958L28.1428 6.76196ZM27.7142 9.28577C27.7142 9.80958 27.4761 10.4762 26.9523 10.4762C26.619 10.4762 26.4285 10.1905 26.4285 9.71434C26.4285 8.95244 26.7619 8.47625 27.1904 8.47625C27.5238 8.47625 27.7142 8.71434 27.7142 9.28577Z" fill="white"/>
<path d="M1.76188 11.3334L2.33331 7.90482L2.42855 11.3334H3.09521L4.33331 7.90482L3.8095 11.3334H4.8095L5.5714 6.76196H3.99997L3.04759 9.57149L2.99997 6.76196H1.61902L0.857117 11.3334H1.76188Z" fill="white"/>
<path d="M16.5238 11.3334C16.8095 9.76194 16.8571 8.47622 17.5238 8.71432C17.619 8.09527 17.7618 7.85717 17.8571 7.61908C17.8571 7.61908 17.8095 7.61908 17.6666 7.61908C17.238 7.61908 16.9047 8.19051 16.9047 8.19051L16.9999 7.6667H16.0952L15.4761 11.381H16.5238V11.3334Z" fill="white"/>
<path d="M22.4285 7.5238C21.7619 7.5238 21.2857 7.71428 21.2857 7.71428L21.1428 8.5238C21.1428 8.5238 21.5714 8.33333 22.1904 8.33333C22.5238 8.33333 22.8095 8.38095 22.8095 8.66666C22.8095 8.85714 22.7619 8.90475 22.7619 8.90475C22.7619 8.90475 22.4762 8.90475 22.3333 8.90475C21.5238 8.90475 20.619 9.23809 20.619 10.3333C20.619 11.1905 21.1904 11.3809 21.5238 11.3809C22.1904 11.3809 22.4762 10.9524 22.5238 10.9524L22.4762 11.3333H23.3333L23.7143 8.71428C23.7619 7.57142 22.7619 7.5238 22.4285 7.5238ZM22.6666 9.66666C22.6666 9.80952 22.5714 10.5714 22 10.5714C21.7143 10.5714 21.619 10.3333 21.619 10.1905C21.619 9.95237 21.7619 9.61904 22.4762 9.61904C22.619 9.66666 22.619 9.66666 22.6666 9.66666Z" fill="white"/>
<path d="M24.5238 11.3334C24.8095 9.76194 24.8571 8.47622 25.5238 8.71432C25.6191 8.09527 25.7619 7.85717 25.8571 7.61908C25.8571 7.61908 25.8095 7.61908 25.6667 7.61908C25.2381 7.61908 24.9048 8.19051 24.9048 8.19051L25 7.6667H24.0952L23.4762 11.381H24.5238V11.3334Z" fill="white"/>
<path d="M10.7142 10.6191C10.7142 11.1906 11.0476 11.4287 11.4761 11.4287C11.8095 11.4287 12.0952 11.3334 12.1904 11.2858L12.3333 10.4763C12.2857 10.4763 12.1904 10.5239 12.0952 10.5239C11.7619 10.5239 11.7142 10.3334 11.7619 10.2382L12.0476 8.57153H12.5714L12.7142 7.66677H12.238L12.3333 7.09534" fill="#DCE5E5"/>
<path d="M13 9.76192C13 11.0953 13.4286 11.4286 14.1905 11.4286C14.9048 11.4286 15.1905 11.2857 15.1905 11.2857L15.381 10.381C15.381 10.381 14.8571 10.6191 14.381 10.6191C13.3333 10.6191 13.5238 9.85716 13.5238 9.85716H15.4762C15.4762 9.85716 15.619 9.23811 15.619 9.00002C15.619 8.38097 15.2857 7.61906 14.2381 7.61906C13.2381 7.52383 13 8.57144 13 9.76192ZM14.1905 8.38097C14.7143 8.38097 14.8095 9.00002 14.8095 9.04764H13.5714C13.5714 9.00002 13.6667 8.38097 14.1905 8.38097Z" fill="#DCE5E5"/>
<path d="M20.2381 11.2857L20.4285 10.2381C20.4285 10.2381 19.9524 10.4762 19.619 10.4762C18.9524 10.4762 18.6666 9.9524 18.6666 9.38097C18.6666 8.23811 19.2381 7.61907 19.9047 7.61907C20.3809 7.61907 20.7619 7.90478 20.7619 7.90478L20.9047 6.90478C20.9047 6.90478 20.3333 6.66669 19.8095 6.66669C18.7143 6.66669 18.0952 7.61907 18.0952 9.42859C18.0952 10.6191 18.1905 11.4286 19.3333 11.4286C19.7143 11.4286 20.2381 11.2857 20.2381 11.2857Z" fill="#DCE5E5"/>
<path d="M5.66663 8.57146C5.66663 8.57146 6.0952 8.38098 6.71425 8.38098C7.04758 8.38098 7.3333 8.4286 7.3333 8.71432C7.3333 8.90479 7.28568 8.95241 7.28568 8.95241C7.28568 8.95241 6.99996 8.95241 6.85711 8.95241C6.04758 8.95241 5.14282 9.28575 5.14282 10.381C5.14282 11.2381 5.71425 11.4286 6.04758 11.4286C6.71425 11.4286 6.99996 11 7.04758 11L6.99996 11.381H7.8571L8.23806 8.76194C8.23806 7.6667 7.28568 7.61908 6.90472 7.61908L5.66663 8.57146ZM7.61901 9.6667C7.61901 9.80956 7.04758 10.5715 6.47615 10.5715C6.19044 10.5715 6.0952 10.3334 6.0952 10.1905C6.0952 9.95241 6.23806 9.61908 6.95234 9.61908C7.0952 9.6667 7.61901 9.6667 7.61901 9.6667Z" fill="#DCE5E5"/>
<path d="M8.09521 11.2858C8.09521 11.2858 8.38093 11.381 9.19045 11.381C9.42855 11.381 10.619 11.4286 10.619 10.1429C10.619 8.95245 9.47617 9.19054 9.47617 8.71435C9.47617 8.47626 9.66664 8.38102 9.99998 8.38102C10.1428 8.38102 10.6666 8.42864 10.6666 8.42864L10.8095 7.5715C10.8095 7.5715 10.4762 7.47626 9.90474 7.47626C9.19045 7.47626 8.95236 7.76197 8.95236 8.71435C8.95236 9.80959 9.66664 9.71435 9.66664 10.1429C9.66664 10.4286 9.33331 10.4763 9.09521 10.4763" fill="#DCE5E5"/>
<path d="M27.9524 8.0476C27.9524 8.0476 27.5714 7.57141 27.0476 7.57141C26.1905 7.57141 25.9048 8.61903 25.9048 9.85712C25.9048 10.619 25.8095 11.4286 26.619 11.4286C27.1905 11.4286 27.5238 11.0476 27.5238 11.0476L27.4762 11.3809H28.4286L29.1429 6.80951L27.9524 8.0476ZM27.9048 9.2857C27.9048 9.8095 27.4762 10.4762 26.9524 10.4762C26.619 10.4762 26.4286 10.1905 26.4286 9.71427C26.4286 8.95236 26.7619 8.47617 27.1905 8.47617C27.5238 8.47617 27.9048 8.71427 27.9048 9.2857Z" fill="#DCE5E5"/>
<path d="M1.76188 11.3334L2.33331 7.90482L2.42855 11.3334H3.09521L4.33331 7.90482L3.8095 11.3334H4.8095L5.5714 6.76196H4.38093L3.04759 9.57149L2.99997 6.76196H2.47616L0.857117 11.3334H1.76188Z" fill="#DCE5E5"/>
<path d="M15.5238 11.3334H16.5238C16.8095 9.76193 16.8571 8.47622 17.5238 8.71432C17.619 8.09527 17.7619 7.85717 17.8571 7.61908C17.8571 7.61908 17.8095 7.61908 17.6667 7.61908C17.2381 7.61908 16.9048 8.19051 16.9048 8.19051L17 7.6667" fill="#DCE5E5"/>
<path d="M21.1428 8.57146C21.1428 8.57146 21.5714 8.38098 22.1904 8.38098C22.5238 8.38098 22.8095 8.4286 22.8095 8.71432C22.8095 8.90479 22.7619 8.95241 22.7619 8.95241C22.7619 8.95241 22.4762 8.95241 22.3333 8.95241C21.5238 8.95241 20.619 9.28575 20.619 10.381C20.619 11.2381 21.1904 11.4286 21.5238 11.4286C22.1904 11.4286 22.4762 11 22.5238 11L22.4762 11.381H23.3333L23.7143 8.76194C23.7143 7.6667 22.7619 7.61908 22.3809 7.61908L21.1428 8.57146ZM23.0952 9.6667C23.0952 9.80956 22.5238 10.5715 21.9524 10.5715C21.6666 10.5715 21.5714 10.3334 21.5714 10.1905C21.5714 9.95241 21.7143 9.61908 22.4285 9.61908C22.619 9.6667 23.0952 9.6667 23.0952 9.6667Z" fill="#DCE5E5"/>
<path d="M23.5238 11.3334H24.5238C24.8095 9.76193 24.8571 8.47622 25.5238 8.71432C25.619 8.09527 25.7619 7.85717 25.8571 7.61908C25.8571 7.61908 25.8095 7.61908 25.6667 7.61908C25.2381 7.61908 24.9048 8.19051 24.9048 8.19051L25 7.6667" fill="#DCE5E5"/>
</svg>
