<svg width="50" height="14" viewBox="0 0 50 14" fill="none" xmlns="http://www.w3.org/2000/svg">
<path d="M38.6508 3.94446H35.9524C35.7936 3.94446 35.6349 4.10319 35.5555 4.26192L34.4444 11.246C34.4444 11.4048 34.5238 11.4841 34.6825 11.4841H36.1111C36.2698 11.4841 36.3492 11.4048 36.3492 11.246L36.6667 9.26192C36.6667 9.10319 36.8254 8.94446 37.0635 8.94446H37.9365C39.7619 8.94446 40.7936 8.07144 41.0317 6.32541C41.1905 5.61113 41.0317 4.97621 40.7143 4.57938C40.2381 4.18255 39.5238 3.94446 38.6508 3.94446ZM38.9682 6.56351C38.8095 7.51589 38.0952 7.51589 37.3809 7.51589H36.9047L37.2222 5.69049C37.2222 5.61113 37.3016 5.53176 37.4603 5.53176H37.619C38.0952 5.53176 38.5714 5.53176 38.8095 5.84922C38.9682 5.92859 38.9682 6.16668 38.9682 6.56351Z" fill="#139AD6"/>
<path d="M19.2063 3.94446H16.5079C16.3492 3.94446 16.1905 4.10319 16.1111 4.26192L15 11.246C15 11.4048 15.0794 11.4841 15.2381 11.4841H16.5079C16.6667 11.4841 16.8254 11.3254 16.9048 11.1667L17.2222 9.26192C17.2222 9.10319 17.381 8.94446 17.619 8.94446H18.4921C20.3175 8.94446 21.3492 8.07144 21.5873 6.32541C21.746 5.61113 21.5873 4.97621 21.2698 4.57938C20.7936 4.18255 20.1587 3.94446 19.2063 3.94446ZM19.5238 6.56351C19.3651 7.51589 18.6508 7.51589 17.9365 7.51589H17.5397L17.8571 5.69049C17.8571 5.61113 17.9365 5.53176 18.0952 5.53176H18.254C18.7302 5.53176 19.2063 5.53176 19.4444 5.84922C19.5238 5.92859 19.6032 6.16668 19.5238 6.56351Z" fill="#263B80"/>
<path d="M27.3809 6.48405H26.1111C26.0317 6.48405 25.873 6.56341 25.873 6.64278L25.7936 7.0396L25.7143 6.88087C25.3968 6.48405 24.8412 6.32532 24.2063 6.32532C22.7777 6.32532 21.5079 7.43643 21.2698 8.94437C21.1111 9.73802 21.3492 10.4523 21.746 10.9285C22.1428 11.4047 22.6984 11.5634 23.4127 11.5634C24.6031 11.5634 25.2381 10.8491 25.2381 10.8491L25.1587 11.246C25.1587 11.4047 25.2381 11.4841 25.3968 11.4841H26.5873C26.746 11.4841 26.9047 11.3253 26.9841 11.1666L27.6984 6.72214C27.619 6.64278 27.4603 6.48405 27.3809 6.48405ZM25.5555 9.02373C25.3968 9.73802 24.8412 10.2936 24.0476 10.2936C23.6508 10.2936 23.3333 10.1348 23.1746 9.97612C23.0158 9.73802 22.9365 9.42056 22.9365 9.02373C23.0158 8.30945 23.6508 7.75389 24.365 7.75389C24.7619 7.75389 25 7.91262 25.2381 8.07135C25.4762 8.30945 25.5555 8.70627 25.5555 9.02373Z" fill="#263B80"/>
<path d="M46.746 6.48423H45.4762C45.3968 6.48423 45.2381 6.5636 45.2381 6.64296L45.1587 7.03979L45.0794 6.88106C44.7619 6.48423 44.2064 6.3255 43.5714 6.3255C42.1429 6.3255 40.873 7.43661 40.6349 8.94455C40.4762 9.7382 40.7143 10.4525 41.1111 10.9287C41.5079 11.4049 42.0635 11.5636 42.7778 11.5636C43.9683 11.5636 44.6032 10.8493 44.6032 10.8493L44.5238 11.2461C44.5238 11.4049 44.6032 11.4842 44.7619 11.4842H45.9524C46.1111 11.4842 46.2698 11.3255 46.3492 11.1668L47.0635 6.72233C46.9841 6.64296 46.9048 6.48423 46.746 6.48423ZM44.9206 9.02392C44.7619 9.7382 44.2064 10.2938 43.4127 10.2938C43.0159 10.2938 42.6984 10.135 42.5397 9.9763C42.381 9.7382 42.3016 9.42074 42.3016 9.02392C42.381 8.30963 43.0159 7.75407 43.7302 7.75407C44.127 7.75407 44.3651 7.9128 44.6032 8.07153C44.9206 8.30963 45 8.70646 44.9206 9.02392Z" fill="#139AD6"/>
<path d="M34.2857 6.48413H32.9365C32.7778 6.48413 32.6984 6.5635 32.619 6.64286L30.873 9.34127L30.0794 6.80159C30 6.64286 29.9206 6.5635 29.6825 6.5635H28.4127C28.254 6.5635 28.1746 6.72223 28.1746 6.88096L29.6032 11.0873L28.254 12.9921C28.1746 13.1508 28.254 13.3889 28.4127 13.3889H29.6825C29.8413 13.3889 29.9206 13.3095 30 13.2302L34.3651 6.96032C34.6032 6.72223 34.4444 6.48413 34.2857 6.48413Z" fill="#263B80"/>
<path d="M48.2539 4.18254L47.1428 11.3254C47.1428 11.4841 47.2222 11.5635 47.3809 11.5635H48.492C48.6508 11.5635 48.8095 11.4048 48.8889 11.246L50 4.26191C50 4.10318 49.9206 4.02381 49.7619 4.02381H48.492C48.4127 3.94445 48.3333 4.02381 48.2539 4.18254Z" fill="#139AD6"/>
<path d="M9.12698 1.56359C8.57143 0.928666 7.53968 0.611206 6.11111 0.611206H2.14286C1.90476 0.611206 1.66667 0.8493 1.5873 1.0874L0 11.4842C0 11.7223 0.15873 11.8811 0.31746 11.8811H2.77778L3.4127 7.99216V8.15089C3.49206 7.9128 3.73016 7.6747 3.96825 7.6747H5.15873C7.46032 7.6747 9.20635 6.72232 9.7619 4.10327C9.7619 4.02391 9.7619 3.94454 9.7619 3.86517C9.68254 3.86517 9.68254 3.86517 9.7619 3.86517C9.84127 2.83343 9.68254 2.19851 9.12698 1.56359Z" fill="#263B80"/>
<path d="M9.68253 3.86493C9.68253 3.94429 9.68253 4.02366 9.68253 4.10303C9.12697 6.80144 7.38094 7.67445 5.07936 7.67445H3.88888C3.65078 7.67445 3.41269 7.91255 3.33332 8.15064L2.53967 12.9919C2.53967 13.1506 2.61904 13.3094 2.85713 13.3094H4.92062C5.15872 13.3094 5.39682 13.1506 5.39682 12.9125V12.8332L5.79364 10.3729V10.2141C5.79364 9.97604 6.03174 9.81731 6.26983 9.81731H6.58729C8.57142 9.81731 10.1587 9.02366 10.5555 6.64271C10.7143 5.69033 10.6349 4.81731 10.1587 4.26175C10.0794 4.10302 9.92062 3.94429 9.68253 3.86493Z" fill="#139AD6"/>
<path d="M9.12701 3.62701C9.04764 3.62701 8.96827 3.54765 8.88891 3.54765C8.80954 3.54765 8.73018 3.54764 8.65081 3.46828C8.33335 3.38891 8.01589 3.38892 7.61907 3.38892H4.52383C4.44447 3.38892 4.3651 3.38891 4.28574 3.46828C4.12701 3.54764 4.04764 3.70638 4.04764 3.86511L3.41272 7.99209V8.15082C3.49208 7.91272 3.73018 7.67463 3.96828 7.67463H5.15875C7.46034 7.67463 9.20637 6.72225 9.76193 4.1032C9.76193 4.02384 9.76193 3.94447 9.84129 3.86511C9.68256 3.78574 9.6032 3.70638 9.44447 3.70638C9.20637 3.62701 9.20637 3.62701 9.12701 3.62701Z" fill="#232C65"/>
</svg>
