<svg width="24" height="24" viewBox="0 0 24 24" fill="none" xmlns="http://www.w3.org/2000/svg">
<path d="M12.9426 12.0586L23.7701 1.23102C24.0142 0.986953 24.0142 0.59125 23.7701 0.347187C23.526 0.103125 23.1304 0.103125 22.8862 0.347187L12.0587 11.1747L1.23107 0.347109C0.987011 0.103047 0.591309 0.103047 0.347246 0.347109C0.103105 0.591172 0.103105 0.986875 0.347246 1.23094L11.1747 12.0586L0.347168 22.8862C0.103027 23.1303 0.103027 23.5259 0.347168 23.7701C0.469199 23.8921 0.629121 23.9531 0.789121 23.9531C0.949121 23.9531 1.10904 23.8921 1.23107 23.7701L12.0587 12.9425L22.8862 23.7701C23.0083 23.8921 23.1682 23.9531 23.3282 23.9531C23.4882 23.9531 23.6481 23.8921 23.7701 23.7701C24.0142 23.5259 24.0142 23.1303 23.7701 22.8862L12.9426 12.0586Z" fill="#014EA8"/>
</svg>
