<svg width="40" height="40" viewBox="0 0 40 40" fill="none" xmlns="http://www.w3.org/2000/svg">
<path d="M37.9073 15.2125C39.5606 13.1908 40.2837 10.5653 39.8987 7.98216C39.1515 2.88362 34.4127 -0.643927 29.3141 0.103251C27.0154 0.440144 24.925 1.62243 23.4519 3.41894C22.2891 4.90414 20.3616 5.56651 18.5315 5.10974C16.9927 4.68221 15.3838 4.56708 13.7997 4.77118C8.44414 5.49428 4.2179 9.68195 3.44565 15.0306C3.11417 17.4184 3.51429 19.8506 4.59328 22.0064C2.0196 22.0435 -0.0366591 24.16 0.000495686 26.7336C0.0339017 29.0496 1.76318 30.9897 4.06012 31.2881L4.77922 38.6637C4.77922 39.3999 5.37595 39.9966 6.11213 39.9966H10.0009C10.39 39.9963 10.7596 39.8258 11.0126 39.5301C11.2758 39.2158 11.3835 38.7997 11.3058 38.3971L9.52371 31.3327H9.85694C10.594 31.3367 11.3301 31.3897 12.0602 31.4913C14.4522 36.677 19.6419 39.9977 25.3527 39.9966C25.7925 39.9966 26.2368 39.9769 26.6856 39.9373C33.7559 39.2393 39.3275 33.6064 39.948 26.5289C40.2093 23.3882 39.4438 20.2474 37.7667 17.5791C37.3013 16.8418 37.3578 15.8896 37.9073 15.2125ZM4.0028 29.9332C2.19921 29.5669 1.03408 27.808 1.4003 26.0044C1.66655 24.6931 2.69147 23.6682 4.0028 23.4019V29.9332ZM10.0009 38.6637L6.1088 38.5971L5.40236 31.3327H8.14748L10.0009 38.6637ZM5.33571 29.9998V23.3353H6.66862V29.9998H5.33571ZM9.85494 29.9998H8.00153V23.3353H9.85494C11.7891 23.3359 13.7105 23.024 15.5451 22.4116L18.6648 21.3719V31.9632L15.5451 30.9235C13.7105 30.3111 11.7891 29.9991 9.85494 29.9998ZM38.6151 26.4216C38.0264 33.7477 31.6103 39.2094 24.2842 38.6207C19.8329 38.263 15.8579 35.6967 13.6997 31.7872C14.1782 31.9012 14.6541 32.0312 15.1239 32.1871L22.4549 34.6303C22.5222 34.6528 22.5926 34.6645 22.6635 34.665C23.0316 34.665 23.33 34.3666 23.33 33.9985V30.6663C24.8023 30.6663 25.9958 29.4727 25.9958 28.0004V25.3346C25.9958 23.8623 24.8023 22.6688 23.33 22.6688V19.3365C23.3301 18.9685 23.0317 18.67 22.6637 18.6699C22.592 18.6699 22.5209 18.6814 22.4529 18.7041L15.1219 21.1473C13.4237 21.7138 11.6452 22.0025 9.85494 22.0024H6.11213C4.91393 19.9514 4.44 17.5573 4.76656 15.2045C5.57197 9.37446 10.9511 5.3011 16.7811 6.10642C17.2505 6.17123 17.715 6.26737 18.1716 6.394C20.5108 6.99389 22.9838 6.15965 24.4816 4.26534C27.2718 0.844515 32.3068 0.333262 35.7277 3.12337C39.1486 5.91348 39.6599 10.9485 36.8697 14.3695C35.96 15.4893 35.8649 17.0643 36.6331 18.2855C38.1572 20.7114 38.8528 23.5665 38.6151 26.4216ZM19.9977 32.4077V20.9274L21.9971 20.2609V33.0742L19.9977 32.4077ZM23.33 29.3334V24.0017C24.0662 24.0017 24.6629 24.5984 24.6629 25.3346V28.0004C24.6629 28.7366 24.0661 29.3334 23.33 29.3334Z" fill="#FF0A2D"/>
<path d="M12.0003 27.334H9.33447V28.6669H12.0003V27.334Z" fill="#FF0A2D"/>
<path d="M12.0003 24.668H9.33447V26.0009H12.0003V24.668Z" fill="#FF0A2D"/>
<path d="M33.8815 8.96957C33.8326 8.89642 33.7699 8.83361 33.6967 8.78479L29.698 6.11897C29.3918 5.91471 28.9779 5.99726 28.7737 6.3035C28.7006 6.41305 28.6616 6.54176 28.6616 6.67346V12.0051C28.6615 12.2509 28.7967 12.4769 29.0135 12.5929C29.2304 12.709 29.4934 12.6961 29.698 12.5596L33.6967 9.89377C34.0029 9.68959 34.0856 9.2758 33.8815 8.96957ZM29.9945 10.7595V7.91907L32.1272 9.33928L29.9945 10.7595Z" fill="#FF0A2D"/>
<path d="M30.661 3.3418C27.3484 3.3418 24.6629 6.02719 24.6629 9.33989C24.6666 12.651 27.3499 15.3343 30.661 15.338C33.9737 15.338 36.6591 12.6525 36.6591 9.33989C36.6591 6.02727 33.9736 3.3418 30.661 3.3418ZM30.661 14.0051C28.0845 14.0051 25.9958 11.9164 25.9958 9.33989C25.9987 6.76462 28.0857 4.67762 30.661 4.67471C33.2375 4.67471 35.3262 6.76337 35.3262 9.33989C35.3262 11.9164 33.2375 14.0051 30.661 14.0051Z" fill="#FF0A2D"/>
<path d="M17.3319 12.006H16.6654C16.2974 12.006 15.999 11.7076 15.999 11.3395V9.34018C15.999 8.23595 15.1039 7.34082 13.9996 7.34082C12.8954 7.34082 12.0003 8.23595 12.0003 9.34018V11.3395C12.0003 11.7076 11.7019 12.006 11.3338 12.006C11.3338 11.638 11.0354 11.3395 10.6674 11.3395H8.00154C7.63349 11.3395 7.33508 11.638 7.33508 12.006V19.337C7.33508 19.705 7.63349 20.0035 8.00154 20.0035H10.6674C11.0354 20.0035 11.3338 19.705 11.3338 19.337H17.3319C18.4361 19.337 19.3313 18.4419 19.3313 17.3376V14.0054C19.3313 12.9012 18.4361 12.006 17.3319 12.006ZM10.0009 18.6705H8.66799V12.6725H10.0009V18.6705ZM17.9984 17.3376C17.9984 17.7057 17.6999 18.0041 17.3319 18.0041H11.3338V13.3389C12.438 13.3389 13.3332 12.4438 13.3332 11.3395V9.34018C13.3332 8.97213 13.6316 8.67373 13.9996 8.67373C14.3677 8.67373 14.6661 8.97213 14.6661 9.34018V11.3395C14.6661 12.4438 15.5612 13.3389 16.6654 13.3389H17.3319C17.6999 13.3389 17.9984 13.6373 17.9984 14.0054V17.3376Z" fill="#FF0A2D"/>
<path d="M36.739 24.2027L36.4551 23.9175C35.7798 23.2466 34.7261 23.1425 33.9326 23.6682L33.2122 24.1487L32.4917 23.6682C31.6983 23.142 30.6442 23.2461 29.9692 23.9175L29.6839 24.2027C28.9034 24.9835 28.9034 26.2491 29.6839 27.0298L32.7403 30.0855C33.0006 30.3457 33.4224 30.3457 33.6827 30.0855L36.739 27.0298C37.5195 26.2491 37.5195 24.9835 36.739 24.2027ZM35.7978 26.0869C35.7977 26.0871 35.7975 26.0873 35.7973 26.0874L33.2122 28.6719L30.6276 26.0901C30.3675 25.8299 30.3675 25.408 30.6276 25.1477L30.9122 24.8632C31.1369 24.6384 31.489 24.6036 31.7533 24.7799L32.8429 25.5063C33.0669 25.6557 33.3588 25.6557 33.5827 25.5063L34.673 24.7799C34.9371 24.6037 35.2887 24.6383 35.5134 24.8625V24.8598L35.7973 25.1444C36.0578 25.4046 36.058 25.8265 35.7978 26.0869Z" fill="#FF0A2D"/>
<path d="M26.0174 17.8431L25.3502 20.5088L26.6426 20.8323L27.3098 18.1666L26.0174 17.8431Z" fill="#FF0A2D"/>
<path d="M29.6957 20.0734L27.03 21.4062L27.6261 22.5984L30.2917 21.2656L29.6957 20.0734Z" fill="#FF0A2D"/>
<path d="M26.6391 33.1701L25.3467 33.4932L26.013 36.1588L27.3054 35.8357L26.6391 33.1701Z" fill="#FF0A2D"/>
<path d="M27.6258 31.4026L27.0297 32.5947L29.6954 33.9276L30.2915 32.7354L27.6258 31.4026Z" fill="#FF0A2D"/>
<path d="M0.670532 18.0037H2.00344C2.00344 8.95991 7.3664 3.3417 15.999 3.3417V2.00879C6.54399 2.00879 0.670532 8.14017 0.670532 18.0037Z" fill="#FF0A2D"/>
</svg>
