<svg width="40" height="40" viewBox="0 0 40 40" fill="none" xmlns="http://www.w3.org/2000/svg">
<g clip-path="url(#clip0_74_736)">
<path d="M16.6755 2.6748C8.94647 2.6748 2.68085 8.94043 2.68085 16.6695C2.68085 24.3986 8.94647 30.6642 16.6755 30.6642C24.4046 30.6642 30.6702 24.3986 30.6702 16.6695C30.6618 8.94393 24.4011 2.68322 16.6755 2.6748ZM16.6755 4.00763C20.792 4.01088 24.6494 6.01712 27.0156 9.38559L25.3496 11.0516C24.9442 10.8063 24.48 10.675 24.0061 10.6718C22.5339 10.6718 21.3404 11.8652 21.3404 13.3374C21.3428 13.8118 21.4733 14.2767 21.7183 14.6829L17.3546 19.0466C16.5283 18.5428 15.4899 18.5428 14.6636 19.0466L11.6328 16.0157C11.8778 15.6096 12.0083 15.1447 12.0106 14.6703C12.0125 13.201 10.8229 12.0084 9.35365 12.0066C8.13853 12.0051 7.07685 12.827 6.77396 14.0038H4.30157C5.56334 8.17713 10.7138 4.01638 16.6755 4.00763ZM25.3389 13.3374C25.3389 14.0736 24.7422 14.6703 24.0061 14.6703C23.27 14.6703 22.6733 14.0736 22.6733 13.3374C22.6733 12.6013 23.27 12.0046 24.0061 12.0046C24.7422 12.0046 25.3389 12.6013 25.3389 13.3374ZM17.342 21.3344C17.342 22.0705 16.7453 22.6672 16.0091 22.6672C15.273 22.6672 14.6763 22.0705 14.6763 21.3344C14.6763 20.5983 15.273 20.0016 16.0091 20.0016C16.7453 20.0016 17.342 20.5983 17.342 21.3344ZM10.6778 14.6703C10.6778 15.4064 10.0811 16.0031 9.34499 16.0031C8.60885 16.0031 8.01216 15.4064 8.01216 14.6703C8.01216 13.9341 8.60885 13.3374 9.34499 13.3374C10.0811 13.3374 10.6778 13.9341 10.6778 14.6703ZM22.8277 27.7408C20.9458 28.7857 18.8282 29.3332 16.6755 29.3313C9.68736 29.336 4.01842 23.6749 4.01368 16.6867C4.01334 16.2357 4.03717 15.785 4.08498 15.3366H6.77396C7.07693 16.5099 8.1332 17.3312 9.34499 17.3358C9.81939 17.3335 10.2843 17.203 10.6905 16.958L13.7213 19.9888C13.4763 20.395 13.3458 20.8599 13.3435 21.3343C13.3435 22.8065 14.5369 24 16.0091 24C17.4813 24 18.6748 22.8065 18.6748 21.3343C18.6725 20.8599 18.5419 20.395 18.2969 19.9888L22.6606 15.6251C23.0668 15.8701 23.5317 16.0007 24.0061 16.003C25.4783 16.003 26.6718 14.8095 26.6718 13.3373C26.6694 12.8629 26.5389 12.398 26.2939 11.9919L27.7467 10.5397C31.1383 16.6481 28.936 24.3493 22.8277 27.7408Z" fill="#FF0A2D"/>
<path d="M33.3359 6.67312C34.5477 6.66853 35.604 5.84726 35.9069 4.67387H40V3.34105H35.9069C35.604 2.16766 34.5477 1.34639 33.3359 1.3418C31.8637 1.3418 30.6702 2.53527 30.6702 4.00746C30.6726 4.48186 30.8031 4.94677 31.0481 5.35295L29.8772 6.52384C24.2747 -0.775143 13.816 -2.15045 6.51706 3.452C-0.781918 9.05446 -2.15723 19.5132 3.44523 26.8122C8.73356 33.7019 18.4275 35.3731 25.7175 30.652L27.7287 32.6633L28.671 33.6056L34.0356 38.9702C35.4 40.3346 37.612 40.3346 38.9764 38.9702C40.3408 37.6058 40.3408 35.3938 38.9764 34.0294L33.6118 28.6648L32.6695 27.7225L30.6582 25.7112C34.2285 20.212 34.2285 13.1268 30.6582 7.62742L31.9911 6.29459C32.397 6.53967 32.8617 6.67045 33.3359 6.67312ZM33.3359 2.67463C34.072 2.67463 34.6687 3.27132 34.6687 4.00746C34.6687 4.7436 34.072 5.34029 33.3359 5.34029C32.5998 5.34029 32.0031 4.7436 32.0031 4.00746C32.0031 3.27132 32.5998 2.67463 33.3359 2.67463ZM38.0341 34.9717C38.8876 35.8061 38.9032 37.1744 38.0688 38.0279C37.2345 38.8814 35.8662 38.897 35.0127 38.0626C35.0009 38.0512 34.9894 38.0396 34.9779 38.0279L29.6133 32.6633L32.6695 29.6071L38.0341 34.9717ZM31.7272 28.6648L28.671 31.721L26.8264 29.8763C26.9203 29.8043 27.0083 29.725 27.1009 29.6511C27.1936 29.5771 27.3008 29.4885 27.4001 29.4052C27.5461 29.2825 27.69 29.1586 27.8313 29.0313C27.904 28.9647 27.9733 28.898 28.0446 28.8314C28.3178 28.5755 28.5824 28.3109 28.8383 28.0377C28.9049 27.9664 28.9715 27.8971 29.0382 27.8244C29.1655 27.6832 29.2894 27.5392 29.4121 27.3933C29.4956 27.2946 29.5776 27.1949 29.658 27.094C29.7313 27.0021 29.8106 26.9141 29.8825 26.8201L31.7272 28.6648ZM29.1428 25.5693C28.9329 25.8625 28.7163 26.1497 28.4877 26.4263C28.4211 26.5069 28.3498 26.5849 28.2811 26.6642C28.0772 26.9014 27.8666 27.1316 27.6494 27.3546C27.5548 27.4523 27.4585 27.5485 27.3608 27.6432C27.1387 27.8604 26.9086 28.071 26.6704 28.2749C26.5911 28.3416 26.5131 28.4142 26.4325 28.4815C26.156 28.7101 25.8687 28.9267 25.5755 29.1366C18.6768 34.0651 9.08884 32.468 4.16029 25.5693C-0.768256 18.6706 0.828888 9.08262 7.72761 4.15407C14.6263 -0.774477 24.2143 0.822584 29.1428 7.72139C32.9565 13.0595 32.9565 20.2311 29.1428 25.5693Z" fill="#FF0A2D"/>
</g>
<defs>
<clipPath id="clip0_74_736">
<rect width="40" height="40" fill="white"/>
</clipPath>
</defs>
</svg>
