<svg width="70" height="70" viewBox="0 0 70 70" fill="none" xmlns="http://www.w3.org/2000/svg">
<g clip-path="url(#clip0_158_5386)">
<path d="M52.0333 9.8875C48.65 3.85 42.1167 0 35 0C25.9875 0 18.1417 6.18333 16.0708 14.6708C9.47917 15.4583 4.375 21 4.375 27.7083C4.375 34.9417 10.3542 40.8333 17.7042 40.8333H49.8458C58.5375 40.8333 65.625 33.8625 65.625 25.2875C65.625 17.4708 59.7625 10.9375 52.0333 9.8875Z" fill="#2196F3"/>
<path d="M35 26.2497C38.217 26.2497 40.8333 23.6334 40.8333 20.4163C40.8333 17.1993 38.217 14.583 35 14.583C31.7829 14.583 29.1666 17.1993 29.1666 20.4163C29.1666 23.6334 31.7829 26.2497 35 26.2497Z" fill="#FAFAFA"/>
<path d="M46.6667 37.1878V40.8337H23.3334V37.1878C23.3334 32.7545 26.9209 29.167 31.3542 29.167H38.6459C43.0792 29.167 46.6667 32.7545 46.6667 37.1878Z" fill="#FAFAFA"/>
<path d="M35 0C25.9875 0 18.1417 6.18333 16.0708 14.6708C9.47917 15.4583 4.375 21 4.375 27.7083C4.375 34.9417 10.3542 40.8333 17.7042 40.8333H35H23.3333V37.1875C23.3333 32.7542 26.9208 29.1667 31.3542 29.1667H35V26.25C31.7829 26.25 29.1667 23.6338 29.1667 20.4167C29.1667 17.1996 31.7829 14.5833 35 14.5833V0Z" fill="#1D83D4"/>
<path d="M35 14.583C31.7829 14.583 29.1666 17.1993 29.1666 20.4163C29.1666 23.6334 31.7829 26.2497 35 26.2497V14.583Z" fill="#DADADA"/>
<path d="M35 29.167H31.3542C26.9209 29.167 23.3334 32.7545 23.3334 37.1878V40.8337H35V29.167Z" fill="#DADADA"/>
<path d="M11.6667 55.4167C14.8838 55.4167 17.5 52.8004 17.5 49.5833C17.5 46.3662 14.8838 43.75 11.6667 43.75C8.44963 43.75 5.83337 46.3662 5.83337 49.5833C5.83337 52.8004 8.44963 55.4167 11.6667 55.4167Z" fill="#4CAF50"/>
<path d="M15.3125 58.333H8.02083C3.59625 58.333 0 61.9293 0 66.3539V67.8122C0 69.0197 0.98 69.9997 2.1875 69.9997H21.1458C22.3533 69.9997 23.3333 69.0197 23.3333 67.8122V66.3539C23.3333 61.9293 19.7371 58.333 15.3125 58.333Z" fill="#4CAF50"/>
<path d="M58.3333 55.4167C61.5504 55.4167 64.1667 52.8004 64.1667 49.5833C64.1667 46.3662 61.5504 43.75 58.3333 43.75C55.1162 43.75 52.5 46.3662 52.5 49.5833C52.5 52.8004 55.1162 55.4167 58.3333 55.4167Z" fill="#4CAF50"/>
<path d="M61.9791 58.333H54.6875C50.2629 58.333 46.6666 61.9293 46.6666 66.3539V67.8122C46.6666 69.0197 47.6466 69.9997 48.8541 69.9997H67.8125C69.02 69.9997 70 69.0197 70 67.8122V66.3539C70 61.9293 66.4037 58.333 61.9791 58.333Z" fill="#4CAF50"/>
<path d="M11.6667 43.75C8.44962 43.75 5.83337 46.3662 5.83337 49.5833C5.83337 52.8004 8.44962 55.4167 11.6667 55.4167V43.75Z" fill="#429846"/>
<path d="M11.6667 58.333H8.02083C3.59625 58.333 0 61.9293 0 66.3539V67.8122C0 69.0197 0.98 69.9997 2.1875 69.9997H11.6667V58.333Z" fill="#429846"/>
<path d="M58.3333 43.75C55.1163 43.75 52.5 46.3662 52.5 49.5833C52.5 52.8004 55.1163 55.4167 58.3333 55.4167V43.75Z" fill="#429846"/>
<path d="M58.3333 58.333H54.6875C50.2629 58.333 46.6666 61.9293 46.6666 66.3539V67.8122C46.6666 69.0197 47.6466 69.9997 48.8541 69.9997H58.3333V58.333Z" fill="#429846"/>
</g>
<defs>
<clipPath id="clip0_158_5386">
<rect width="70" height="70" fill="white"/>
</clipPath>
</defs>
</svg>
