<svg width="70" height="70" viewBox="0 0 70 70" fill="none" xmlns="http://www.w3.org/2000/svg">
<path d="M58.73 56.4469L48.2596 45.9766L40.6458 53.5918L51.116 64.062C53.2187 66.1647 56.6272 66.1647 58.73 64.062C59.7827 63.0108 60.3077 61.6323 60.3077 60.2539C60.3077 58.8754 59.7827 57.4983 58.73 56.4469ZM55.0308 62.0039C54.0657 62.0039 53.2808 61.2188 53.2808 60.2539C53.2808 59.2889 54.0657 58.5039 55.0308 58.5039C55.9958 58.5039 56.7808 59.2889 56.7808 60.2539C56.7808 61.2188 55.9958 62.0039 55.0308 62.0039Z" fill="#2D2C2E"/>
<path d="M40.7804 53.7264L39.3521 55.1533L34.6204 50.4216L34.5599 50.2924C39.1287 48.1547 42.824 44.4595 44.9617 39.8906L45.0909 39.9512L49.8226 44.6828L48.3944 46.1111L40.7804 53.7264Z" fill="#3C3B3D"/>
<path d="M46.5432 25.9591C46.3874 25.2944 46.1739 24.5509 45.9264 23.8375C43.0264 15.4641 35.0374 9.36914 25.5769 9.36914C20.8788 9.36914 16.533 10.8743 12.993 13.4271C12.9928 13.4269 12.9925 13.4266 12.9921 13.4263C0.527797 22.4112 1.21743 41.17 14.2505 49.232C16.6495 50.7188 19.3159 51.7134 22.1145 52.1667V52.1674C37.1972 54.6169 50.0724 40.9519 46.5432 25.9591Z" fill="#57606F"/>
<path d="M65.1525 19.496V22.7725L60.2633 23.8642C59.9456 25.2965 59.3815 26.6279 58.621 27.8287L61.3052 32.0664L58.9898 34.3817L54.7522 31.6975C53.5582 32.4581 52.22 33.0221 50.7878 33.3398L49.6961 38.229H45.8394H45.838C46.6647 35.9433 47.1155 33.4785 47.1155 30.9073C47.1155 29.2044 46.9176 27.5473 46.5434 25.9589L46.6444 25.9346C47.0953 26.0679 47.5705 26.1406 48.0632 26.1406C50.812 26.1406 53.0642 23.8885 53.0642 21.1396C53.0642 18.3787 50.812 16.1265 48.0632 16.1265C46.1019 16.1265 44.3976 17.264 43.5751 18.9131L43.5011 18.9615C41.1761 15.479 37.8619 12.7114 33.9608 11.061L33.9688 11.0421L37.1242 7.88674L41.3631 10.5764C42.564 9.81039 43.894 9.25309 45.3262 8.92732L46.4194 4.03809H49.696L50.7877 8.92732C52.22 9.25309 53.5512 9.81039 54.7521 10.5764L58.9897 7.88674L61.3051 10.2008L58.6208 14.4398C59.3814 15.6406 59.9454 16.9706 60.2631 18.4029L65.1525 19.496Z" fill="#F14742"/>
<path d="M27.37 63.0154V65.9608H17.5H6.18964V63.0154C6.53829 62.5631 6.91656 62.1256 7.33117 61.711C9.94002 59.1021 13.3606 57.7979 16.7798 57.7979C20.2004 57.7979 23.6196 59.1021 26.2285 61.711C26.6431 62.1256 27.0214 62.5631 27.37 63.0154Z" fill="#65B2FE"/>
<path d="M13.1721 48.5166C15.2681 46.5955 18.5258 46.6495 20.5571 48.6795C21.5263 49.6487 22.0459 50.8978 22.1146 52.1673C22.1927 53.6291 21.6744 55.1168 20.5571 56.2341C19.5138 57.276 18.1461 57.7983 16.7798 57.7983C15.4135 57.7983 14.0458 57.276 13.0025 56.2341C10.9173 54.1475 10.9173 50.766 13.0025 48.6795C13.0577 48.6243 13.1142 48.5704 13.1721 48.5166Z" fill="#FFD8A8"/>
<path d="M8.75003 4.03809C10.6091 4.03809 12.1154 5.54443 12.1154 7.40347C12.1154 9.26251 10.6091 10.7689 8.75003 10.7689C6.89099 10.7689 5.38464 9.26251 5.38464 7.40347C5.38464 5.54443 6.89099 4.03809 8.75003 4.03809Z" fill="#74829C"/>
<path d="M60.5769 40.3838C62.0644 40.3838 63.2692 41.5886 63.2692 43.0761C63.2692 44.5636 62.0644 45.7684 60.5769 45.7684C59.0894 45.7684 57.8846 44.5636 57.8846 43.0761C57.8846 41.5886 59.0894 40.3838 60.5769 40.3838Z" fill="#74829C"/>
<path d="M25.5769 44.3684C33.0115 44.3684 39.0385 38.3414 39.0385 30.9068C39.0385 23.4722 33.0115 17.4453 25.5769 17.4453C18.1424 17.4453 12.1154 23.4722 12.1154 30.9068C12.1154 38.3414 18.1424 44.3684 25.5769 44.3684Z" fill="#D8F2F1"/>
<path d="M64.6154 13.4609C65.3584 13.4609 65.9615 14.064 65.9615 14.8071C65.9615 15.5502 65.3584 16.1532 64.6154 16.1532C63.8723 16.1532 63.2692 15.5502 63.2692 14.8071C63.2692 14.064 63.8723 13.4609 64.6154 13.4609Z" fill="#74829C"/>
<path d="M61.9231 49.8076C62.6661 49.8076 63.2692 50.4107 63.2692 51.1538C63.2692 51.8968 62.6661 52.4999 61.9231 52.4999C61.18 52.4999 60.5769 51.8968 60.5769 51.1538C60.5769 50.4107 61.18 49.8076 61.9231 49.8076Z" fill="#74829C"/>
<path d="M55.1923 4.03809C55.9354 4.03809 56.5384 4.64116 56.5384 5.38424C56.5384 6.12732 55.9354 6.7304 55.1923 6.7304C54.4492 6.7304 53.8461 6.12732 53.8461 5.38424C53.8461 4.64116 54.4492 4.03809 55.1923 4.03809Z" fill="#74829C"/>
<path d="M39.0384 61.9229C39.7815 61.9229 40.3846 62.5259 40.3846 63.269C40.3846 64.0121 39.7815 64.6152 39.0384 64.6152C38.2953 64.6152 37.6923 64.0121 37.6923 63.269C37.6923 62.5259 38.2953 61.9229 39.0384 61.9229Z" fill="#74829C"/>
<path d="M32.3076 55.1914C33.0507 55.1914 33.6538 55.7945 33.6538 56.5376C33.6538 57.2806 33.0507 57.8837 32.3076 57.8837C31.5646 57.8837 30.9615 57.2806 30.9615 56.5376C30.9615 55.7945 31.5646 55.1914 32.3076 55.1914Z" fill="#74829C"/>
<path d="M29.6154 36.3457H32.3077V39.038H29.6154V36.3457Z" fill="#65B2FE"/>
<path d="M25.5769 36.3457H28.2692V39.038H25.5769V36.3457Z" fill="#65B2FE"/>
<path d="M25.5769 25.5762H28.2692V28.2685H25.5769V25.5762Z" fill="#65B2FE"/>
<path d="M21.5385 36.3457H24.2308V39.038H21.5385V36.3457Z" fill="#65B2FE"/>
<path d="M21.5385 25.5762H24.2308V28.2685H21.5385V25.5762Z" fill="#65B2FE"/>
<path d="M17.5 25.5762H20.1923V28.2685H17.5V25.5762Z" fill="#65B2FE"/>
<path d="M16.1538 4.03809C16.8969 4.03809 17.5 4.64116 17.5 5.38424C17.5 6.12732 16.8969 6.7304 16.1538 6.7304C15.4108 6.7304 14.8077 6.12732 14.8077 5.38424C14.8077 4.64116 15.4108 4.03809 16.1538 4.03809Z" fill="#74829C"/>
<path d="M5.38461 48.4609C6.12768 48.4609 6.73076 49.064 6.73076 49.8071C6.73076 50.5502 6.12768 51.1532 5.38461 51.1532C4.64153 51.1532 4.03845 50.5502 4.03845 49.8071C4.03845 49.064 4.64153 48.4609 5.38461 48.4609Z" fill="#74829C"/>
<path d="M17.5011 35.0002C17.0073 35.0002 16.5318 34.7276 16.296 34.2558C15.9635 33.5908 16.233 32.7821 16.898 32.4496L22.2826 29.7573C22.9477 29.425 23.7562 29.6945 24.0887 30.3593L24.7984 31.7789L32.986 27.1003C33.6316 26.7317 34.4539 26.9558 34.8227 27.6012C35.1916 28.2467 34.9673 29.069 34.3218 29.4379L24.8987 34.8225C24.5775 35.0059 24.1951 35.0493 23.8408 34.9422C23.4867 34.8349 23.1923 34.5867 23.0269 34.2558L22.2827 32.7675L18.1021 34.8578C17.9088 34.9544 17.7033 35.0002 17.5011 35.0002Z" fill="#EA7E23"/>
</svg>
