<svg width="70" height="70" viewBox="0 0 70 70" fill="none" xmlns="http://www.w3.org/2000/svg">
<g clip-path="url(#clip0_158_5368)">
<path d="M67.9145 0.136719H2.08549C0.933533 0.136719 0 1.07025 0 2.22221V67.8451C0 68.997 0.933533 69.9306 2.08549 69.9306H67.9145C69.0665 69.9306 70 68.997 70 67.8451V2.22221C70 1.07025 69.0665 0.136719 67.9145 0.136719V0.136719Z" fill="#5ECEF4"/>
<path d="M70 2.22221V67.8451C70 68.9965 69.067 69.9306 67.9145 69.9306H47.2347V0.136719H67.9145C69.067 0.136719 70 1.07079 70 2.22221Z" fill="#2FC0F0"/>
<path d="M70 10.0472V67.7201C70 68.941 69.0104 69.9306 67.7895 69.9306H2.21046C0.989609 69.9306 0 68.941 0 67.7201V2.34718C0 1.12633 0.989609 0.136719 2.21046 0.136719H24.2168C25.1055 0.136719 25.8959 0.699616 26.1875 1.53862L28.6239 8.56148C28.9326 9.45068 29.771 10.0472 30.7126 10.0472H70Z" fill="#EDF0F5"/>
<path d="M70 10.0469V67.7203C70 68.9411 69.0099 69.9308 67.789 69.9308H35V10.0469H70Z" fill="#D8DCEB"/>
<path d="M46.6948 27.455C46.6713 27.5762 46.9378 31.8706 43.5 35.5064C38.8815 40.3915 31.1136 40.3888 26.4988 35.5059C22.2429 31.0033 22.2344 23.9537 26.4988 19.442C29.4346 16.3354 33.714 15.1556 37.682 16.0881C39.156 16.4336 39.9021 18.0839 39.2009 19.426C38.7929 20.2073 37.9896 20.673 37.1357 20.673C36.9589 20.673 36.7795 20.6532 36.6016 20.6116C34.2117 20.0551 31.6408 20.7707 29.8789 22.6356C27.3106 25.3508 27.3133 29.6003 29.8789 32.3128C32.6592 35.256 37.3413 35.2544 40.12 32.3128C40.8394 31.5523 41.391 30.6316 41.7157 29.6094H37.8257C36.7154 29.6094 35.8149 28.7089 35.8149 27.5986C35.8149 26.4883 36.7148 25.5879 37.8257 25.5879H44.8106C45.8445 25.5879 46.6932 26.421 46.6948 27.455Z" fill="#FFDA44"/>
<path d="M46.6948 27.4555V27.4747C46.6948 30.4708 45.5599 33.328 43.5001 35.5069C41.3035 37.8306 38.1921 39.2325 34.7607 39.1674V34.5157C36.8751 34.583 38.7833 33.7285 40.1205 32.3127C40.8399 31.5528 41.3911 30.6321 41.7158 29.6099H37.8257C36.7154 29.6099 35.815 28.7095 35.815 27.5991C35.815 26.4888 36.7149 25.5879 37.8257 25.5879H44.8112C45.8446 25.5884 46.6932 26.4216 46.6948 27.4555Z" fill="#0FA9DD"/>
<path d="M39.2015 19.4258C38.7085 20.3695 37.6388 20.8523 36.6017 20.6115C34.2192 20.0571 31.6477 20.7631 29.8784 22.6355L26.4984 19.4419C29.441 16.3288 33.7215 15.1577 37.6821 16.088C39.1555 16.4341 39.9021 18.0838 39.2015 19.4258Z" fill="#FF6426"/>
<path d="M43.5001 35.5067C38.8805 40.3928 31.1137 40.3896 26.4984 35.5062L29.8789 32.3125C32.6603 35.2562 37.3408 35.2552 40.12 32.3125L43.5001 35.5067Z" fill="#6FBF6B"/>
<path d="M10.0846 7.00148C10.0846 8.22234 9.095 9.21194 7.87415 9.21194C6.65329 9.21194 5.66315 8.22234 5.66315 7.00148C5.66315 5.78062 6.65329 4.79102 7.87415 4.79102C9.095 4.79102 10.0846 5.78062 10.0846 7.00148Z" fill="#5ECEF4"/>
<path d="M20.4598 9.21194H14.1226C12.9018 9.21194 11.9122 8.22234 11.9122 7.00148C11.9122 5.78116 12.9023 4.79102 14.1226 4.79102H20.4598C21.6806 4.79102 22.6702 5.78116 22.6702 7.00148C22.6702 8.22234 21.6806 9.21194 20.4598 9.21194Z" fill="#5ECEF4"/>
<path d="M56.782 46.2037C56.782 47.3562 55.848 48.2892 54.6965 48.2892H15.3034C14.1525 48.2892 13.2179 47.3562 13.2179 46.2037C13.2179 45.0522 14.1525 44.1182 15.3034 44.1182H54.6965C55.848 44.1182 56.782 45.0522 56.782 46.2037Z" fill="#5ECEF4"/>
<path d="M54.6966 48.2892H35V44.1182H54.6966C55.848 44.1182 56.7821 45.0522 56.7821 46.2037C56.7821 47.3562 55.848 48.2892 54.6966 48.2892Z" fill="#2FC0F0"/>
<path d="M56.782 54.5923C56.782 55.7438 55.848 56.6778 54.6965 56.6778H15.3034C14.1525 56.6778 13.2179 55.7438 13.2179 54.5923C13.2179 53.4398 14.1525 52.5068 15.3034 52.5068H54.6965C55.848 52.5068 56.782 53.4398 56.782 54.5923Z" fill="#5ECEF4"/>
<path d="M56.782 62.98C56.782 64.1309 55.848 65.0655 54.6965 65.0655H15.3034C14.1525 65.0655 13.2179 64.1309 13.2179 62.98C13.2179 61.8286 14.1525 60.8945 15.3034 60.8945H54.6965C55.848 60.8945 56.782 61.8286 56.782 62.98Z" fill="#5ECEF4"/>
<path d="M56.7821 62.98C56.7821 64.1309 55.848 65.0655 54.6966 65.0655H35V60.8945H54.6966C55.848 60.8945 56.7821 61.8286 56.7821 62.98Z" fill="#2FC0F0"/>
<path d="M56.7821 54.5923C56.7821 55.7438 55.848 56.6778 54.6966 56.6778H35V52.5068H54.6966C55.848 52.5068 56.7821 53.4398 56.7821 54.5923Z" fill="#2FC0F0"/>
</g>
<defs>
<clipPath id="clip0_158_5368">
<rect width="70" height="70" fill="white"/>
</clipPath>
</defs>
</svg>
