<svg width="70" height="70" viewBox="0 0 70 70" fill="none" xmlns="http://www.w3.org/2000/svg">
<path d="M26.7969 23.1875C26.0999 23.1875 25.3613 23.1875 24.6227 23.2692H24.4999C11.047 24.5408 0 37.3107 0 51.5428C0 68.0724 15.3536 69.9998 26.7969 69.9998C38.1584 69.9998 51.4062 68.2775 53.252 54.7012C55.1794 38.7868 42.5468 23.1875 26.7969 23.1875Z" fill="#FF637B"/>
<path d="M53.252 54.7012C51.4062 68.2775 38.1584 69.9998 26.7969 69.9998V23.1875C42.5468 23.1875 55.1794 38.7868 53.252 54.7012Z" fill="#E63950"/>
<path d="M41.029 6.8087L36.9275 19.2501H16.6664L12.5648 6.8087C12.3181 6.19347 12.4414 5.49599 12.8105 4.963C13.2206 4.43001 13.8359 4.10156 14.4922 4.10156H21.0136C21.8339 1.72234 24.1309 0 26.7969 0C29.4629 0 31.7188 1.72234 32.5802 4.10156H39.1016C39.758 4.10156 40.3732 4.43001 40.7834 4.963C41.1524 5.49599 41.2758 6.19347 41.029 6.8087Z" fill="#FF637B"/>
<path d="M41.029 6.8087L36.9274 19.2501H26.7969V0C29.4629 0 31.7187 1.72234 32.5802 4.10156H39.1016C39.7579 4.10156 40.3731 4.43001 40.7833 4.963C41.1523 5.49599 41.2757 6.19347 41.029 6.8087Z" fill="#E63950"/>
<path d="M32.9081 52.1582C32.9081 54.8242 31.2269 57.039 28.8476 57.9004V59.7461C28.8476 60.8949 27.9456 61.7969 26.7969 61.7969C25.6481 61.7969 24.7461 60.8949 24.7461 59.7461V57.9415C22.3669 57.0801 20.6034 54.8242 20.6034 52.1582C20.6034 51.01 21.5465 50.1074 22.6542 50.1074C23.8029 50.1074 24.705 51.01 24.705 52.1582C24.705 53.2658 25.6481 54.209 26.7557 54.209H26.7969C27.9456 54.1679 28.8065 53.2658 28.8065 52.1582C28.8065 51.01 27.9456 50.1485 26.7969 50.1074H26.7557C23.3928 50.1074 20.6034 47.318 20.6034 43.9551C20.6034 41.2479 22.3674 38.9921 24.7461 38.1718V35.1367C24.7461 33.988 25.6481 33.0859 26.7969 33.0859C27.9456 33.0859 28.8476 33.988 28.8476 35.1367V38.1718C31.2269 39.0332 32.9081 41.2891 32.9081 43.9551C32.9081 45.0627 32.0061 46.0059 30.8573 46.0059C29.7497 46.0059 28.8065 45.0627 28.8065 43.9551C28.8065 42.8069 27.9456 41.9454 26.7969 41.9043H26.7557C25.6481 41.9043 24.705 42.8069 24.705 43.9551C24.705 45.0627 25.6481 46.0059 26.7557 46.0059H26.7969C30.2015 46.047 32.9081 48.7541 32.9081 52.1582Z" fill="#FFDA2D"/>
<path d="M70 41.2891C70 43.5449 68.1543 45.3906 65.8984 45.3906L55.5078 49.4922L45.2539 45.3906C42.998 45.3906 41.1523 43.5449 41.1523 41.2891C41.1523 39.0332 42.998 37.1875 45.2539 37.1875H65.8984C68.1543 37.1875 70 39.0332 70 41.2891Z" fill="#FFDA2D"/>
<path d="M70 41.2891C70 43.5449 68.1543 45.3906 65.8984 45.3906L55.5078 49.4922V37.1875H65.8984C68.1543 37.1875 70 39.0332 70 41.2891Z" fill="#FDBF00"/>
<path d="M70 49.4922C70 51.748 68.1543 53.5938 65.8984 53.5938L55.5078 57.6953L45.2539 53.5938C42.998 53.5938 41.1523 51.748 41.1523 49.4922C41.1523 47.2363 42.998 45.3906 45.2539 45.3906H65.8984C68.1543 45.3906 70 47.2363 70 49.4922Z" fill="#FDBF00"/>
<path d="M70 49.4922C70 51.748 68.1543 53.5938 65.8984 53.5938L55.5078 57.6953V45.3906H65.8984C68.1543 45.3906 70 47.2363 70 49.4922Z" fill="#FF9100"/>
<path d="M70 57.6953C70 59.9512 68.1543 61.7969 65.8984 61.7969L55.5078 65.8984L45.2539 61.7969C42.998 61.7969 41.1523 59.9512 41.1523 57.6953C41.1523 55.4395 42.998 53.5938 45.2539 53.5938H65.8984C68.1543 53.5938 70 55.4395 70 57.6953Z" fill="#FFDA2D"/>
<path d="M70 57.6953C70 59.9512 68.1543 61.7969 65.8984 61.7969L55.5078 65.8984V53.5938H65.8984C68.1543 53.5938 70 55.4395 70 57.6953Z" fill="#FDBF00"/>
<path d="M70 65.8984C70 68.1543 68.1543 70 65.8984 70H45.2539C42.998 70 41.1523 68.1543 41.1523 65.8984C41.1523 63.6426 42.998 61.7969 45.2539 61.7969H65.8984C68.1543 61.7969 70 63.6426 70 65.8984Z" fill="#FDBF00"/>
<path d="M70 65.8984C70 68.1543 68.1543 70 65.8984 70H55.5078V61.7969H65.8984C68.1543 61.7969 70 63.6426 70 65.8984Z" fill="#FF9100"/>
<path d="M41.1523 20.6445C41.1523 22.9004 39.3066 24.7461 37.0508 24.7461H16.543C14.2871 24.7461 12.4414 22.9004 12.4414 20.6445C12.4414 18.3887 14.2871 16.543 16.543 16.543H37.0508C39.3066 16.543 41.1523 18.3887 41.1523 20.6445Z" fill="#FFDA2D"/>
<path d="M32.9081 52.1582C32.9081 54.8242 31.2269 57.039 28.8477 57.9004V59.7461C28.8477 60.8949 27.9456 61.7969 26.7969 61.7969V54.209C27.9456 54.1679 28.8065 53.2658 28.8065 52.1582C28.8065 51.01 27.9456 50.1485 26.7969 50.1074V46.0059C30.2015 46.047 32.9081 48.7541 32.9081 52.1582Z" fill="#FDBF00"/>
<path d="M32.9081 43.9551C32.9081 45.0627 32.0061 46.0059 30.8573 46.0059C29.7497 46.0059 28.8065 45.0627 28.8065 43.9551C28.8065 42.8069 27.9456 41.9454 26.7969 41.9043V33.0859C27.9456 33.0859 28.8477 33.988 28.8477 35.1367V38.1718C31.2269 39.0332 32.9081 41.2891 32.9081 43.9551Z" fill="#FDBF00"/>
<path d="M41.1523 20.6445C41.1523 22.9004 39.3066 24.7461 37.0508 24.7461H26.7969V16.543H37.0508C39.3066 16.543 41.1523 18.3887 41.1523 20.6445Z" fill="#FDBF00"/>
</svg>
