<svg width="70" height="70" viewBox="0 0 70 70" fill="none" xmlns="http://www.w3.org/2000/svg">
<g clip-path="url(#clip0_158_4639)">
<path d="M31.8261 33.9436H26.0463V18.7089C26.0463 18.1256 25.5734 17.6526 24.99 17.6526H20.6187V10.5634C20.6187 9.97999 20.1458 9.50708 19.5624 9.50708H12.7262C12.1428 9.50708 11.6699 9.97999 11.6699 10.5634C11.6699 11.1467 12.1428 11.6197 12.7262 11.6197H18.506V25.7981H12.7262C12.1428 25.7981 11.6699 26.271 11.6699 26.8544C11.6699 27.4377 12.1428 27.9107 12.7262 27.9107H19.5624C20.1458 27.9107 20.6187 27.4377 20.6187 26.8544V19.7652H23.9336V50.2346H20.6187V43.1455C20.6187 42.5621 20.1458 42.0892 19.5624 42.0892H12.7262C12.1428 42.0892 11.6699 42.5621 11.6699 43.1455C11.6699 43.7289 12.1428 44.2018 12.7262 44.2018H18.506V58.3802H12.7262C12.1428 58.3802 11.6699 58.8531 11.6699 59.4365C11.6699 60.0199 12.1428 60.4928 12.7262 60.4928H19.5624C20.1458 60.4928 20.6187 60.0199 20.6187 59.4365V52.3472H24.99C25.5734 52.3472 26.0463 51.8743 26.0463 51.2909V36.0562H31.8261C32.4095 36.0562 32.8824 35.5833 32.8824 34.9999C32.8824 34.4166 32.4095 33.9436 31.8261 33.9436Z" fill="#E7ECF1"/>
<path d="M38.174 33.9436H43.9538V18.7089C43.9538 18.1256 44.4267 17.6526 45.01 17.6526H49.3813V10.5634C49.3813 9.97999 49.8543 9.50708 50.4376 9.50708H57.2737C57.8571 9.50708 58.33 9.97999 58.33 10.5634C58.33 11.1467 57.8571 11.6197 57.2737 11.6197H51.4939V25.7981H57.2737C57.8571 25.7981 58.33 26.271 58.33 26.8544C58.33 27.4377 57.8571 27.9107 57.2737 27.9107H50.4376C49.8543 27.9107 49.3813 27.4377 49.3813 26.8544V19.7652H46.0665V50.2346H49.3813V43.1455C49.3813 42.5621 49.8543 42.0892 50.4376 42.0892H57.2737C57.8571 42.0892 58.33 42.5621 58.33 43.1455C58.33 43.7289 57.8571 44.2018 57.2737 44.2018H51.4939V58.3802H57.2737C57.8571 58.3802 58.33 58.8531 58.33 59.4365C58.33 60.0199 57.8571 60.4928 57.2737 60.4928H50.4376C49.8543 60.4928 49.3813 60.0199 49.3813 59.4365V52.3472H45.01C44.4267 52.3472 43.9538 51.8743 43.9538 51.2909V36.0562H38.174C37.5906 36.0562 37.1177 35.5833 37.1177 34.9999C37.1177 34.4166 37.5906 33.9436 38.174 33.9436Z" fill="#E7ECF1"/>
<path d="M30.4175 36.7932C30.4175 37.9149 32.4691 38.824 34.9998 38.824C37.5304 38.824 39.582 37.9149 39.582 36.7932V33.2065C39.582 34.3282 30.4175 34.3282 30.4175 33.2065V36.7932Z" fill="#756E78"/>
<path d="M56.7754 13.9064H69.09C69.5926 13.9064 70.0002 13.499 70.0002 12.9963V8.13035C70.0002 7.62777 69.5928 7.22021 69.09 7.22021H56.7754C56.2728 7.22021 55.8652 7.62764 55.8652 8.13035V12.9964C55.8652 13.499 56.2727 13.9064 56.7754 13.9064Z" fill="#DD636E"/>
<path d="M56.7754 30.1976H69.09C69.5926 30.1976 70.0002 29.7902 70.0002 29.2875V24.4214C70.0002 23.9188 69.5928 23.5112 69.09 23.5112H56.7754C56.2728 23.5112 55.8652 23.9187 55.8652 24.4214V29.2875C55.8652 29.7902 56.2727 30.1976 56.7754 30.1976Z" fill="#4073C8"/>
<path d="M56.7754 46.4886H69.09C69.5926 46.4886 70.0002 46.0812 70.0002 45.5785V40.7124C70.0002 40.2098 69.5928 39.8022 69.09 39.8022H56.7754C56.2728 39.8022 55.8652 40.2097 55.8652 40.7124V45.5785C55.8652 46.0812 56.2727 46.4886 56.7754 46.4886Z" fill="#95D6A4"/>
<path d="M56.7754 62.7796H69.09C69.5926 62.7796 70.0002 62.3722 70.0002 61.8695V57.0034C70.0002 56.5008 69.5928 56.0933 69.09 56.0933H56.7754C56.2728 56.0933 55.8652 56.5007 55.8652 57.0034V61.8695C55.8652 62.3722 56.2727 62.7796 56.7754 62.7796Z" fill="#FFE07D"/>
<path d="M13.2247 13.9064H0.910137C0.407422 13.9064 0 13.499 0 12.9964V8.13035C0 7.62777 0.407422 7.22021 0.910137 7.22021H13.2248C13.7274 7.22021 14.1349 7.62764 14.1349 8.13035V12.9964C14.1348 13.499 13.7274 13.9064 13.2247 13.9064Z" fill="#4073C8"/>
<path d="M13.2247 30.1976H0.910137C0.407559 30.1976 0 29.7902 0 29.2875V24.4214C0 23.9188 0.407422 23.5112 0.910137 23.5112H13.2248C13.7274 23.5112 14.1349 23.9187 14.1349 24.4214V29.2875C14.1348 29.7902 13.7274 30.1976 13.2247 30.1976Z" fill="#95D6A4"/>
<path d="M13.2247 46.4886H0.910137C0.407559 46.4886 0 46.0812 0 45.5785V40.7124C0 40.2098 0.407422 39.8022 0.910137 39.8022H13.2248C13.7274 39.8022 14.1349 40.2097 14.1349 40.7124V45.5785C14.1348 46.0812 13.7274 46.4886 13.2247 46.4886Z" fill="#FFE07D"/>
<path d="M13.2247 62.7796H0.910137C0.407559 62.7796 0 62.3722 0 61.8695V57.0034C0 56.5008 0.407422 56.0933 0.910137 56.0933H13.2248C13.7274 56.0933 14.1349 56.5007 14.1349 57.0034V61.8695C14.1348 62.3722 13.7274 62.7796 13.2247 62.7796Z" fill="#DD636E"/>
<path d="M34.9998 35.2374C37.5305 35.2374 39.582 34.3282 39.582 33.2066C39.582 32.085 37.5305 31.1758 34.9998 31.1758C32.469 31.1758 30.4175 32.085 30.4175 33.2066C30.4175 34.3282 32.469 35.2374 34.9998 35.2374Z" fill="#8B818E"/>
</g>
<defs>
<clipPath id="clip0_158_4639">
<rect width="70" height="70" fill="white"/>
</clipPath>
</defs>
</svg>
