<svg width="70" height="70" viewBox="0 0 70 70" fill="none" xmlns="http://www.w3.org/2000/svg">
<g clip-path="url(#clip0_158_4663)">
<path d="M67.7173 38.0437H40.3261C39.071 38.0437 38.0435 39.0659 38.0435 40.3264V67.7177C38.0435 68.9774 39.0664 69.9999 40.3261 69.9999H67.7174C68.9772 69.9999 70.0001 68.9773 70.0001 67.7177V40.3264C70 39.0659 68.9725 38.0437 67.7173 38.0437Z" fill="#2C9FD9"/>
<path d="M29.6738 38.0437H2.28266C1.02744 38.0437 0 39.0659 0 40.3264V67.7177C0 68.9774 1.02293 69.9999 2.28266 69.9999H29.674C30.9337 69.9999 31.9566 68.9773 31.9566 67.7177V40.3264C31.9565 39.0659 30.9291 38.0437 29.6738 38.0437Z" fill="#32BBFF"/>
<path d="M2.28285 69.9999H29.6742C30.9339 69.9999 31.9568 68.977 31.9568 67.7177V40.3264C31.9568 39.6966 31.7002 39.1265 31.2869 38.7136L0.669434 69.331C1.08273 69.7441 1.65312 69.9999 2.28285 69.9999Z" fill="#2C9FD9"/>
<path d="M29.6738 0.000976562H2.28266C1.02744 0.000976562 0 1.02336 0 2.28363V29.675C0 30.9347 1.02293 31.9572 2.28266 31.9572H29.674C30.9337 31.9572 31.9566 30.9345 31.9566 29.675V2.28363C31.9565 1.02336 30.9291 0.000976562 29.6738 0.000976562Z" fill="#2EE6E6"/>
<path d="M67.7173 0.000244141H40.3261C39.071 0.000244141 38.0435 1.02249 38.0435 2.2829V29.6742C38.0435 30.934 39.0664 31.9565 40.3261 31.9565H67.7174C68.9772 31.9565 70.0001 30.9338 70.0001 29.6742V2.2829C70 1.02263 68.9725 0.000244141 67.7173 0.000244141Z" fill="#32BBFF"/>
<path d="M40.3263 31.9565H67.7176C68.9774 31.9565 70.0003 30.9335 70.0003 29.6742V2.2829C70.0003 1.65317 69.7437 1.08306 69.3304 0.670166L38.7129 31.2875C39.1262 31.7007 39.6966 31.9565 40.3263 31.9565Z" fill="#2C9FD9"/>
</g>
<defs>
<clipPath id="clip0_158_4663">
<rect width="70" height="70" fill="white"/>
</clipPath>
</defs>
</svg>
