<svg width="70" height="70" viewBox="0 0 70 70" fill="none" xmlns="http://www.w3.org/2000/svg">
<path d="M30.9805 61.0065H1.62203C0.72625 61.0065 0 60.2803 0 59.3844V7.46582H32.6025V59.3844C32.6025 60.2803 31.8764 61.0065 30.9805 61.0065Z" fill="#D8ECFE"/>
<path d="M32.603 8.12842V59.3848C32.603 60.2805 31.8769 61.0066 30.9799 61.0066H28.2905C29.1874 61.0066 29.9137 60.2805 29.9137 59.3848V8.12842H32.603Z" fill="#C4E2FF"/>
<path d="M32.6025 8.12958H0V3.5897C0 2.94671 0.521172 2.42554 1.16416 2.42554H31.4385C32.0815 2.42554 32.6026 2.94671 32.6026 3.5897V8.12958H32.6025Z" fill="#60B7FF"/>
<path d="M32.6021 3.58918V8.1292H29.9044V3.58918C29.9044 2.94688 29.3828 2.42529 28.7393 2.42529H31.4384C32.0805 2.42529 32.6021 2.94688 32.6021 3.58918Z" fill="#26A6FE"/>
<path d="M6.45641 8.12958H0V3.5897C0 2.94671 0.521172 2.42554 1.16416 2.42554H6.45641V8.12958Z" fill="#E94444"/>
<path d="M3.61182 2.42554H6.45625V8.12985H3.61182V2.42554Z" fill="#D83131"/>
<path d="M68.3774 61.0065H39.019C38.1232 61.0065 37.397 60.2803 37.397 59.3845V7.46582H69.9995V59.3844C69.9996 60.2803 69.2734 61.0065 68.3774 61.0065Z" fill="#D8ECFE"/>
<path d="M70 8.12842V59.3848C70 60.2805 69.2739 61.0066 68.3769 61.0066H65.6875C66.5844 61.0066 67.3106 60.2805 67.3106 59.3848V8.12842H70Z" fill="#C4E2FF"/>
<path d="M69.9996 8.12958H37.397V3.5897C37.397 2.94671 37.9181 2.42554 38.5611 2.42554H68.8354C69.4784 2.42554 69.9996 2.94671 69.9996 3.5897V8.12958Z" fill="#60B7FF"/>
<path d="M69.9996 3.58918V8.1292H67.3018V3.58918C67.3018 2.94688 66.7803 2.42529 66.1367 2.42529H68.8358C69.4779 2.42529 69.9996 2.94688 69.9996 3.58918Z" fill="#26A6FE"/>
<path d="M43.8534 8.12958H37.397V3.5897C37.397 2.94671 37.9181 2.42554 38.5611 2.42554H43.8534V8.12958Z" fill="#E94444"/>
<path d="M41.0088 2.42554H43.8532V8.12985H41.0088V2.42554Z" fill="#D83131"/>
<path d="M26.8131 31.305H5.94502C5.57082 31.305 5.26758 31.0018 5.26758 30.6276V15.0273C5.26758 14.6531 5.57082 14.3499 5.94502 14.3499H26.8131C27.1873 14.3499 27.4905 14.6531 27.4905 15.0273V30.6274C27.4905 31.0016 27.1873 31.305 26.8131 31.305Z" fill="#F4D902"/>
<path d="M27.4911 15.0268V30.6272C27.4911 31.0013 27.1881 31.3044 26.8139 31.3044H24.1323C24.5064 31.3044 24.8095 31.0014 24.8095 30.6272V15.0268C24.8095 14.6527 24.5065 14.3496 24.1323 14.3496H26.8139C27.188 14.3496 27.4911 14.6527 27.4911 15.0268Z" fill="#E3CA00"/>
<path d="M27.4916 15.5743L18.1472 22.8278L27.4916 30.0799V30.628C27.4916 31.0014 27.1873 31.3043 26.8139 31.3043H25.6234L16.4226 24.1649L7.2232 31.3043H5.94529C5.57191 31.3043 5.26758 31.0014 5.26758 30.628V30.1476L14.6994 22.8278L5.26758 15.5066V15.0276C5.26758 14.6528 5.57191 14.3499 5.94529 14.3499H7.2232L16.4226 21.4893L25.6234 14.3499H26.8139C27.1873 14.3499 27.4916 14.6528 27.4916 15.0276V15.5743Z" fill="#BA9B06"/>
<path d="M27.2128 37.1881H5.26764C4.68398 37.1881 4.21094 36.7151 4.21094 36.1314C4.21094 35.5478 4.68398 35.0747 5.26764 35.0747H27.2128C27.7964 35.0747 28.2695 35.5478 28.2695 36.1314C28.2696 36.7151 27.7964 37.1881 27.2128 37.1881Z" fill="#96CCED"/>
<path d="M27.2128 41.881H5.26764C4.68398 41.881 4.21094 41.4079 4.21094 40.8243C4.21094 40.2406 4.68398 39.7676 5.26764 39.7676H27.2128C27.7964 39.7676 28.2695 40.2406 28.2695 40.8243C28.2696 41.4079 27.7964 41.881 27.2128 41.881Z" fill="#96CCED"/>
<path d="M27.2128 46.5738H5.26764C4.68398 46.5738 4.21094 46.1008 4.21094 45.5171C4.21094 44.9335 4.68398 44.4604 5.26764 44.4604H27.2128C27.7964 44.4604 28.2695 44.9335 28.2695 45.5171C28.2696 46.1008 27.7964 46.5738 27.2128 46.5738Z" fill="#96CCED"/>
<path d="M64.1323 31.305H43.2644C42.8902 31.305 42.5869 31.0018 42.5869 30.6276V15.0273C42.5869 14.6531 42.8903 14.3499 43.2644 14.3499H64.1324C64.5066 14.3499 64.8099 14.6531 64.8099 15.0273V30.6274C64.8097 31.0016 64.5065 31.305 64.1323 31.305Z" fill="#F4D902"/>
<path d="M64.8099 15.0268V30.6272C64.8099 31.0013 64.507 31.3044 64.1328 31.3044H61.4512C61.8252 31.3044 62.1283 31.0014 62.1283 30.6272V15.0268C62.1283 14.6527 61.8254 14.3496 61.4512 14.3496H64.1328C64.5068 14.3496 64.8099 14.6527 64.8099 15.0268Z" fill="#E3CA00"/>
<path d="M64.8101 15.0276C64.8101 14.6528 64.5057 14.3499 64.1324 14.3499H62.9418L53.7411 21.4893L44.5417 14.3499H43.2638C42.8904 14.3499 42.5874 14.6528 42.5874 15.0276V15.508L52.0179 22.8278L42.5874 30.1462V30.6281C42.5874 31.0015 42.8904 31.3045 43.2638 31.3045H44.5417L53.7411 24.165L62.9418 31.3045H64.1324C64.5057 31.3045 64.8101 31.0015 64.8101 30.6281V30.08L55.4656 22.8279L64.8101 15.5744V15.0276Z" fill="#BA9B06"/>
<path d="M64.5322 37.1881H42.587C42.0033 37.1881 41.5303 36.7151 41.5303 36.1314C41.5303 35.5478 42.0033 35.0747 42.587 35.0747H64.5321C65.1158 35.0747 65.5888 35.5478 65.5888 36.1314C65.5889 36.7151 65.1159 37.1881 64.5322 37.1881Z" fill="#96CCED"/>
<path d="M64.5322 41.881H42.587C42.0033 41.881 41.5303 41.4079 41.5303 40.8243C41.5303 40.2406 42.0033 39.7676 42.587 39.7676H64.5321C65.1158 39.7676 65.5888 40.2406 65.5888 40.8243C65.5889 41.4079 65.1159 41.881 64.5322 41.881Z" fill="#96CCED"/>
<path d="M64.5322 46.5738H42.587C42.0033 46.5738 41.5303 46.1008 41.5303 45.5171C41.5303 44.9335 42.0033 44.4604 42.587 44.4604H64.5321C65.1158 44.4604 65.5888 44.9335 65.5888 45.5171C65.5889 46.1008 65.1159 46.5738 64.5322 46.5738Z" fill="#96CCED"/>
<path d="M64.5322 51.192H42.587C42.0033 51.192 41.5303 50.719 41.5303 50.1353C41.5303 49.5517 42.0033 49.0786 42.587 49.0786H64.5321C65.1158 49.0786 65.5888 49.5517 65.5888 50.1353C65.5889 50.719 65.1159 51.192 64.5322 51.192Z" fill="#96CCED"/>
<path d="M64.5322 55.8417H42.587C42.0033 55.8417 41.5303 55.3686 41.5303 54.785C41.5303 54.2013 42.0033 53.7283 42.587 53.7283H64.5321C65.1158 53.7283 65.5888 54.2013 65.5888 54.785C65.5889 55.3686 65.1159 55.8417 64.5322 55.8417Z" fill="#96CCED"/>
<path d="M26.3543 53.3241H26.3556H26.3543ZM43.644 61.0059V65.5711C43.644 66.6758 42.7437 67.5747 41.639 67.5747H28.2493C27.1446 67.5747 26.2444 66.6758 26.2444 65.5711V53.3241H21.8018C21.2184 53.3241 20.7451 52.8506 20.7451 52.2674C20.7451 51.684 21.2186 51.2107 21.8018 51.2107H26.3543C27.459 51.2107 28.3579 52.1096 28.3579 53.2143V65.4613H41.5306V61.006H43.644V61.0059Z" fill="#ACACAC"/>
<path d="M22.1117 54.8922H5.78898C5.41506 54.8922 5.11182 54.5891 5.11182 54.215V50.3197C5.11182 49.9458 5.41492 49.6426 5.78898 49.6426H22.1117C22.4856 49.6426 22.7889 49.9457 22.7889 50.3197V54.215C22.7889 54.5891 22.4856 54.8922 22.1117 54.8922Z" fill="#97D729"/>
<path d="M22.7889 50.3197V54.2151C22.7889 54.5892 22.486 54.8923 22.1118 54.8923H19.4302C19.8042 54.8923 20.1073 54.5893 20.1073 54.2151V50.3197C20.1073 49.9457 19.8044 49.6426 19.4302 49.6426H22.1118C22.486 49.6427 22.7889 49.9457 22.7889 50.3197Z" fill="#8BC727"/>
</svg>
