<svg width="70" height="70" viewBox="0 0 70 70" fill="none" xmlns="http://www.w3.org/2000/svg">
<g clip-path="url(#clip0_158_4719)">
<path d="M57.5909 51.504H2.73437C1.22418 51.504 0 50.2798 0 48.7696V2.73438C0 1.22418 1.22418 0 2.73437 0H57.5909C59.101 0 60.3252 1.22418 60.3252 2.73438V48.7696C60.3252 50.2798 59.1009 51.504 57.5909 51.504Z" fill="#E4F6FF"/>
<path d="M57.4796 0H53.7804C55.3519 0 56.6259 1.27395 56.6259 2.84553V15.6505H44.1056C40.9676 15.6505 38.4146 18.2034 38.4146 21.3415V51.5041H57.4796C59.0511 51.5041 60.3251 50.2302 60.3251 48.6586V2.84553C60.3251 1.27395 59.051 0 57.4796 0V0Z" fill="#D3EFFB"/>
<path d="M60.3252 8.53658H0V2.73438C0 1.22418 1.22418 0 2.73437 0H57.5909C59.101 0 60.3252 1.22418 60.3252 2.73438V8.53658Z" fill="#90D8F9"/>
<path d="M5.83348 5.69112C6.61929 5.69112 7.25631 5.0541 7.25631 4.26829C7.25631 3.48248 6.61929 2.84546 5.83348 2.84546C5.04767 2.84546 4.41064 3.48248 4.41064 4.26829C4.41064 5.0541 5.04767 5.69112 5.83348 5.69112Z" fill="#E27A66"/>
<path d="M11.6665 5.69112C12.4523 5.69112 13.0893 5.0541 13.0893 4.26829C13.0893 3.48248 12.4523 2.84546 11.6665 2.84546C10.8807 2.84546 10.2437 3.48248 10.2437 4.26829C10.2437 5.0541 10.8807 5.69112 11.6665 5.69112Z" fill="#F4DD45"/>
<path d="M17.5 5.69112C18.2858 5.69112 18.9228 5.0541 18.9228 4.26829C18.9228 3.48248 18.2858 2.84546 17.5 2.84546C16.7142 2.84546 16.0771 3.48248 16.0771 4.26829C16.0771 5.0541 16.7142 5.69112 17.5 5.69112Z" fill="#AAD540"/>
<path d="M57.4795 0H53.7803C55.3519 0 56.6258 1.27395 56.6258 2.84553V8.53658H60.325V2.84553C60.325 1.27395 59.0509 0 57.4795 0V0Z" fill="#75CEF9"/>
<path d="M26.2344 30.4472H6.20459C5.44949 30.4472 4.8374 29.8351 4.8374 29.08V14.7412C4.8374 13.9861 5.44949 13.374 6.20459 13.374H26.2344C26.9895 13.374 27.6016 13.9861 27.6016 14.7412V29.08C27.6016 29.8351 26.9895 30.4472 26.2344 30.4472Z" fill="#A2F4C1"/>
<path d="M34.0908 30.4472H55.4879V14.7412C55.4879 13.9861 54.8758 13.374 54.1207 13.374H34.0908C33.3357 13.374 32.7236 13.9861 32.7236 14.7412V29.08C32.7236 29.8351 33.3357 30.4472 34.0908 30.4472Z" fill="#F4DD45"/>
<path d="M55.4877 30.4471V15.6504H44.1056C40.9676 15.6504 38.4146 18.2033 38.4146 21.3414V30.4472H55.4877V30.4471Z" fill="#ECC32E"/>
<path d="M27.6017 36.0562H4.83754C4.25402 36.0562 3.78125 35.5833 3.78125 34.9999C3.78125 34.4165 4.25416 33.9436 4.83754 33.9436H27.6017C28.1852 33.9436 28.658 34.4165 28.658 34.9999C28.6581 35.5833 28.1852 36.0562 27.6017 36.0562Z" fill="#665E66"/>
<path d="M23.3336 40.4668H4.83754C4.25403 40.4668 3.78125 39.9939 3.78125 39.4105C3.78125 38.8272 4.25416 38.3542 4.83754 38.3542H23.3336C23.9171 38.3542 24.3899 38.8272 24.3899 39.4105C24.3899 39.9939 23.9171 40.4668 23.3336 40.4668Z" fill="#665E66"/>
<path d="M16.2196 44.8772H4.83754C4.25402 44.8772 3.78125 44.4043 3.78125 43.8209C3.78125 43.2376 4.25416 42.7646 4.83754 42.7646H16.2196C16.8031 42.7646 17.2759 43.2376 17.2759 43.8209C17.2759 44.4043 16.803 44.8772 16.2196 44.8772Z" fill="#665E66"/>
<path d="M41.2605 36.0562H32.7238C32.1403 36.0562 31.6675 35.5833 31.6675 34.9999C31.6675 34.4165 32.1404 33.9436 32.7238 33.9436H41.2605C41.844 33.9436 42.3168 34.4165 42.3168 34.9999C42.3168 35.5833 41.8439 36.0562 41.2605 36.0562Z" fill="#665E66"/>
<path d="M41.2605 40.4668H32.7238C32.1403 40.4668 31.6675 39.9939 31.6675 39.4105C31.6675 38.8272 32.1404 38.3542 32.7238 38.3542H41.2605C41.844 38.3542 42.3168 38.8272 42.3168 39.4105C42.3168 39.9939 41.8439 40.4668 41.2605 40.4668Z" fill="#665E66"/>
<path d="M41.2605 44.8772H32.7238C32.1403 44.8772 31.6675 44.4043 31.6675 43.8209C31.6675 43.2376 32.1404 42.7646 32.7238 42.7646H41.2605C41.844 42.7646 42.3168 43.2376 42.3168 43.8209C42.3168 44.4043 41.8439 44.8772 41.2605 44.8772Z" fill="#665E66"/>
<path d="M67.2657 70.0001H43.9946C42.4844 70.0001 41.2603 68.7759 41.2603 67.2657V21.2305C41.2603 19.7203 42.4844 18.4961 43.9946 18.4961H67.2657C68.7759 18.4961 70 19.7203 70 21.2305V67.2657C70 68.7759 68.7759 70.0001 67.2657 70.0001Z" fill="#E4F6FF"/>
<path d="M47.1802 48.943H64.08C64.8351 48.943 65.4472 48.3309 65.4472 47.5759V33.2371C65.4472 32.482 64.8351 31.8699 64.08 31.8699H47.1802C46.4251 31.8699 45.813 32.482 45.813 33.2371V47.5759C45.813 48.3309 46.4252 48.943 47.1802 48.943Z" fill="#A2F4C1"/>
<path d="M67.1543 18.4961H63.4551C65.0267 18.4961 66.3006 19.77 66.3006 21.3416V67.1546C66.3006 68.7261 65.0267 70.0001 63.4551 70.0001H67.1543C68.7259 70.0001 69.9998 68.7261 69.9998 67.1546V21.3416C69.9998 19.77 68.7259 18.4961 67.1543 18.4961Z" fill="#D3EFFB"/>
<path d="M70 27.0327H41.2603V21.2305C41.2603 19.7203 42.4844 18.4961 43.9946 18.4961H67.2657C68.7759 18.4961 70 19.7203 70 21.2305V27.0327Z" fill="#90D8F9"/>
<path d="M67.1543 18.4961H63.4551C65.0267 18.4961 66.3006 19.77 66.3006 21.3416V27.0327H69.9998V21.3416C69.9998 19.77 68.7259 18.4961 67.1543 18.4961Z" fill="#75CEF9"/>
<path d="M65.4472 54.552H45.8131C45.2296 54.552 44.7568 54.0791 44.7568 53.4957C44.7568 52.9124 45.2297 52.4395 45.8131 52.4395H65.4473C66.0308 52.4395 66.5036 52.9124 66.5036 53.4957C66.5036 54.0791 66.0307 54.552 65.4472 54.552Z" fill="#665E66"/>
<path d="M61.1789 58.9629H45.8131C45.2296 58.9629 44.7568 58.49 44.7568 57.9066C44.7568 57.3233 45.2297 56.8503 45.8131 56.8503H61.1789C61.7625 56.8503 62.2352 57.3233 62.2352 57.9066C62.2352 58.49 61.7623 58.9629 61.1789 58.9629Z" fill="#665E66"/>
<path d="M54.0651 63.3733H45.8131C45.2296 63.3733 44.7568 62.9004 44.7568 62.317C44.7568 61.7337 45.2297 61.2607 45.8131 61.2607H54.0651C54.6486 61.2607 55.1213 61.7337 55.1213 62.317C55.1213 62.9004 54.6484 63.3733 54.0651 63.3733Z" fill="#665E66"/>
<path d="M48.6585 23.8205H45.8131C45.2296 23.8205 44.7568 23.3476 44.7568 22.7642C44.7568 22.1809 45.2297 21.708 45.8131 21.708H48.6587C49.2422 21.708 49.7149 22.1809 49.7149 22.7642C49.7149 23.3476 49.242 23.8205 48.6585 23.8205Z" fill="#E27A66"/>
</g>
<defs>
<clipPath id="clip0_158_4719">
<rect width="70" height="70" fill="white"/>
</clipPath>
</defs>
</svg>
