<svg width="70" height="70" viewBox="0 0 70 70" fill="none" xmlns="http://www.w3.org/2000/svg">
<g clip-path="url(#clip0_158_4746)">
<path d="M45.0642 44.3543C45.0642 42.719 44.8446 41.1384 44.4718 39.618L49.6577 35.4L45.191 27.6632L38.9482 30.0439C36.665 27.8521 33.8633 26.2045 30.7399 25.3L29.6812 18.7087H20.7477L19.6889 25.3001C16.5655 26.2045 13.764 27.8522 11.4807 30.044L5.2382 27.6632L0.771484 35.4L5.95754 39.6182C5.5847 41.1386 5.36509 42.719 5.36509 44.3543C5.36509 45.9897 5.5847 47.5701 5.95754 49.0905L0.771484 53.3088L5.2382 61.0456L11.481 58.6648C13.7642 60.8564 16.5658 62.5042 19.6892 63.4087L20.7479 70.0001H29.6815L30.7402 63.4087C33.8637 62.5043 36.6654 60.8564 38.9486 58.6648L45.1914 61.0456L49.6581 53.3088L44.4718 49.0906C44.8448 47.5702 45.0642 45.9898 45.0642 44.3543ZM25.2147 57.9769C17.691 57.9769 11.5921 51.8778 11.5921 44.3543C11.5921 36.8308 17.6911 30.7317 25.2147 30.7317C32.7382 30.7317 38.8371 36.8308 38.8371 44.3543C38.8371 51.8778 32.7382 57.9769 25.2147 57.9769Z" fill="#E56353"/>
<path d="M25.2144 30.7317C17.6907 30.7317 11.5918 36.8308 11.5918 44.3543C11.5918 51.8778 17.6909 57.9769 25.2144 57.9769C32.7379 57.9769 38.8368 51.8778 38.8368 44.3543C38.8368 36.8308 32.7379 30.7317 25.2144 30.7317ZM25.2144 55.8727C18.8528 55.8727 13.696 50.7157 13.696 44.3543C13.696 37.9929 18.853 32.836 25.2144 32.836C31.5758 32.836 36.7326 37.9929 36.7326 44.3543C36.7326 50.7157 31.5759 55.8727 25.2144 55.8727Z" fill="#D15241"/>
<path d="M66.2825 16.4498C66.2825 15.4008 66.1417 14.3869 65.9023 13.4118L69.2289 10.7061L66.3638 5.74361L62.3595 7.27059C60.8949 5.86466 59.0979 4.8078 57.0945 4.22774L56.4153 0H50.6851L50.0059 4.22788C48.0026 4.80808 46.2054 5.86495 44.741 7.27087L40.7367 5.74375L37.8716 10.7062L41.1981 13.412C40.959 14.3872 40.818 15.4009 40.818 16.45C40.818 17.499 40.9589 18.5127 41.1981 19.488L37.8716 22.1937L40.7367 27.1563L44.741 25.6292C46.2056 27.0351 48.0026 28.092 50.0059 28.6721L50.6851 32.9001H56.4153L57.0944 28.6721C59.0979 28.092 60.895 27.0351 62.3595 25.6292L66.3638 27.1563L69.2289 22.1937L65.9023 19.488C66.1417 18.5127 66.2825 17.4989 66.2825 16.4498ZM53.5504 25.1877C48.7245 25.1877 44.8123 21.2756 44.8123 16.4498C44.8123 11.6241 48.7245 7.71193 53.5504 7.71193C58.3761 7.71193 62.2883 11.6241 62.2883 16.4498C62.2883 21.2756 58.3761 25.1877 53.5504 25.1877Z" fill="#44C4A1"/>
<path d="M53.5501 7.71191C48.7242 7.71191 44.812 11.6241 44.812 16.4498C44.812 21.2756 48.7242 25.1877 53.5501 25.1877C58.3758 25.1877 62.2879 21.2756 62.2879 16.4498C62.2879 11.6241 58.3758 7.71191 53.5501 7.71191ZM53.5501 23.8382C49.4696 23.8382 46.1617 20.5303 46.1617 16.4498C46.1617 12.3695 49.4696 9.06158 53.5501 9.06158C57.6304 9.06158 60.9383 12.3695 60.9383 16.4498C60.9381 20.5303 57.6304 23.8382 53.5501 23.8382Z" fill="#3EA69B"/>
</g>
<defs>
<clipPath id="clip0_158_4746">
<rect width="70" height="70" fill="white"/>
</clipPath>
</defs>
</svg>
