<svg width="30" height="30" viewBox="0 0 30 30" fill="none" xmlns="http://www.w3.org/2000/svg">
<path d="M15 30C6.71573 30 0 23.2843 0 15C0 6.71573 6.71573 0 15 0C23.2843 0 30 6.71573 30 15C30 23.2843 23.2843 30 15 30Z" fill="#039BE5"/>
<path d="M23.1363 14.675L8.67377 9.0987C8.00252 8.8562 7.41628 9.26245 7.63378 10.2775L7.63253 10.2762L10.095 21.8775C10.2775 22.7 10.7663 22.9 11.45 22.5125L15.2 19.7487L17.0088 21.4912C17.2088 21.6912 17.3775 21.86 17.765 21.86L17.4988 18.0437L10.5488 11.765C10.2463 11.4987 10.6163 11.3487 11.015 11.6137L19.6038 17.0212L23.3063 15.8662C24.11 15.6112 24.1275 15.0625 23.1363 14.675Z" fill="white"/>
</svg>
