<svg width="40" height="40" viewBox="0 0 40 40" fill="none" xmlns="http://www.w3.org/2000/svg">
<path d="M40 19.9995C40 19.0487 39.4957 18.1822 38.6488 17.6797L36.4215 16.3693C37.2795 15.8598 38.0441 15.4054 38.6506 15.0445C39.4958 14.5402 40 13.6737 40 12.7264C40 11.7791 39.4957 10.9126 38.6506 10.4074C35.8665 8.75159 26.4258 3.14133 21.772 0.473455C20.6942 -0.14538 19.3838 -0.170181 18.219 0.478825C18.219 0.478825 5.56279 7.91269 1.35111 10.4066C0.50429 10.909 0 11.7755 0 12.7264C0 13.6737 0.50429 14.5402 1.3494 15.0455C1.9558 15.406 2.72029 15.8604 3.5781 16.3696L1.35119 17.6797C0.50429 18.1822 0 19.0487 0 19.9995C0 20.9468 0.50429 21.8134 1.3494 22.3186C1.9558 22.6792 2.72029 23.1335 3.5781 23.6428L1.35119 24.9528C0.50429 25.4553 0 26.3218 0 27.2727C0 28.22 0.50429 29.0865 1.3494 29.5917C4.95205 31.734 13.8068 36.9909 18.228 39.5256C18.7695 39.8364 19.3839 40.0006 20 40.0006C20.6161 40.0006 21.2306 39.8364 21.7739 39.5247C26.1933 36.9908 35.048 31.734 38.6507 29.5908C39.4959 29.0865 40.0001 28.22 40.0001 27.2727C40.0001 26.3218 39.4958 25.4553 38.6489 24.9528L36.4216 23.6424C37.2796 23.1329 38.0442 22.6785 38.6507 22.3176C39.4958 21.8134 40 20.9468 40 19.9995ZM2.27983 13.4852C2.14134 13.4018 1.81815 13.162 1.81815 12.728C1.81815 12.292 2.13955 12.0541 2.27804 11.9724C6.48435 9.4813 19.1229 2.05851 19.1211 2.05937C19.7 1.73354 20.332 1.74598 20.8683 2.05314C25.5096 4.71386 34.9414 10.3176 37.7202 11.9706C37.8587 12.0541 38.1818 12.2938 38.1818 12.7279C38.1818 13.1619 37.8587 13.4017 37.7202 13.4843C34.1229 15.6238 25.2788 20.8751 20.87 23.4017C20.3231 23.7143 19.6751 23.7133 19.1317 23.4026C14.7212 20.8751 5.87711 15.6239 2.27983 13.4852ZM37.722 26.5178C37.8605 26.5995 38.1818 26.8374 38.1818 27.2734C38.1818 27.7075 37.8587 27.9472 37.7202 28.0297C34.1229 30.1693 25.2788 35.4206 20.87 37.9472C20.3231 38.2598 19.6751 38.2588 19.1317 37.9481C14.7212 35.4206 5.87711 30.1693 2.27983 28.0306C2.14134 27.9472 1.81815 27.7074 1.81815 27.2734C1.81815 26.8374 2.13955 26.5996 2.27804 26.5178L5.36319 24.7024C9.53319 27.1741 15.0339 30.4217 18.228 32.2528C18.7695 32.5636 19.3839 32.7278 20 32.7278C20.6161 32.7278 21.2306 32.5636 21.7739 32.252C24.9666 30.4215 30.4668 27.1743 34.6366 24.7023L37.722 26.5178ZM37.7202 20.757C34.1229 22.8966 25.2788 28.1479 20.87 30.6745C20.3231 30.9871 19.6751 30.9861 19.1317 30.6754C14.7212 28.1478 5.87711 22.8966 2.27983 20.7579C2.14134 20.6745 1.81815 20.4347 1.81815 20.0007C1.81815 19.5647 2.13955 19.3268 2.27804 19.2451L5.36319 17.4297C9.53319 19.9014 15.0339 23.149 18.228 24.9801C18.7695 25.2909 19.3839 25.4551 20 25.4551C20.6161 25.4551 21.2306 25.2909 21.7739 24.9793C24.9666 23.1488 30.4668 19.9016 34.6366 17.4296L37.722 19.2451C37.8605 19.3268 38.1819 19.5647 38.1819 20.0007C38.1818 20.4347 37.8587 20.6745 37.7202 20.757Z" fill="#FF0A2D"/>
</svg>
