<svg width="30" height="30" viewBox="0 0 30 30" fill="none" xmlns="http://www.w3.org/2000/svg">
<path d="M15 30C23.2843 30 30 23.2843 30 15C30 6.71573 23.2843 0 15 0C6.71573 0 0 6.71573 0 15C0 23.2843 6.71573 30 15 30Z" fill="#6F3FAA"/>
<path d="M22.9351 10.5425L22.9302 10.5227C22.5294 8.9024 20.7225 7.16381 19.0631 6.80211L19.0445 6.79824C16.3605 6.28625 13.6391 6.28625 10.9558 6.79824L10.9365 6.80211C9.27769 7.16381 7.47072 8.90252 7.06941 10.5227L7.06496 10.5425C6.56949 12.8052 6.56949 15.1 7.06496 17.3627L7.06941 17.3825C7.45367 18.9336 9.126 20.5924 10.7234 21.0485V22.8572C10.7234 23.5119 11.5212 23.8334 11.9748 23.3609L13.8073 21.4561C14.2048 21.4783 14.6025 21.4907 15.0001 21.4907C16.3511 21.4907 17.7027 21.3629 19.0444 21.107L19.0631 21.1031C20.7225 20.7414 22.5294 19.0027 22.9302 17.3826L22.9351 17.3627C23.4305 15.1 23.4305 12.8053 22.9351 10.5425ZM21.4849 17.0346C21.2173 18.0917 19.8454 19.4059 18.7553 19.6487C17.3282 19.9201 15.8898 20.036 14.4529 19.9962C14.4243 19.9954 14.3968 20.0066 14.3769 20.0271C14.173 20.2364 13.0389 21.4006 13.0389 21.4006L11.6158 22.8612C11.5118 22.9698 11.3289 22.8959 11.3289 22.7462V19.7499C11.3289 19.7004 11.2936 19.6584 11.245 19.6488C11.2447 19.6487 11.2445 19.6487 11.2442 19.6486C10.1541 19.4058 8.78264 18.0917 8.51457 17.0346C8.06861 14.9893 8.06861 12.9159 8.51457 10.8706C8.78264 9.81353 10.1541 8.49939 11.2442 8.25658C13.7365 7.78256 16.2635 7.78256 18.7553 8.25658C19.846 8.49939 21.2173 9.81353 21.4849 10.8706C21.9314 12.916 21.9314 14.9894 21.4849 17.0346Z" fill="white"/>
<path d="M17.3713 18.4177C17.2037 18.3668 17.044 18.3326 16.8956 18.2712C15.3586 17.6335 13.9442 16.8108 12.8238 15.5498C12.1867 14.8328 11.688 14.0232 11.2664 13.1664C11.0665 12.7601 10.8981 12.338 10.7263 11.9184C10.5698 11.5359 10.8004 11.1408 11.0432 10.8525C11.2711 10.582 11.5643 10.375 11.8819 10.2224C12.1298 10.1033 12.3742 10.172 12.5553 10.3821C12.9466 10.8363 13.3061 11.3137 13.5971 11.8402C13.7761 12.1641 13.727 12.5599 13.4025 12.7803C13.3237 12.8339 13.2518 12.8968 13.1784 12.9573C13.114 13.0103 13.0534 13.0638 13.0092 13.1356C12.9285 13.2669 12.9246 13.4219 12.9766 13.5647C13.3766 14.664 14.0508 15.5189 15.1574 15.9793C15.3344 16.053 15.5122 16.1387 15.7162 16.115C16.0578 16.0751 16.1685 15.7003 16.4079 15.5046C16.6418 15.3132 16.9409 15.3107 17.1929 15.4702C17.445 15.6298 17.6894 15.801 17.9323 15.9742C18.1708 16.1441 18.4081 16.3102 18.628 16.504C18.8396 16.6903 18.9124 16.9346 18.7933 17.1873C18.5753 17.6503 18.258 18.0353 17.8005 18.2811C17.6713 18.3504 17.5169 18.3728 17.3713 18.4177C17.2037 18.3668 17.5169 18.3728 17.3713 18.4177Z" fill="white"/>
<path d="M15.0041 9.69299C17.0144 9.74936 18.6657 11.0835 19.0195 13.071C19.0798 13.4097 19.1012 13.7558 19.1281 14.0996C19.1394 14.2442 19.0575 14.3815 18.9015 14.3834C18.7404 14.3854 18.6679 14.2505 18.6573 14.106C18.6367 13.82 18.6223 13.5326 18.5829 13.249C18.3748 11.7514 17.1807 10.5124 15.69 10.2466C15.4657 10.2066 15.2362 10.1961 15.0089 10.1722C14.8653 10.1572 14.6772 10.1485 14.6454 9.96991C14.6188 9.8202 14.7451 9.70102 14.8877 9.69335C14.9263 9.69106 14.9652 9.69288 15.0041 9.69299C17.0145 9.74936 14.9652 9.69288 15.0041 9.69299Z" fill="white"/>
<path d="M18.0593 13.6535C18.0559 13.6787 18.0542 13.7377 18.0395 13.7932C17.9861 13.995 17.6801 14.0203 17.6097 13.8167C17.5888 13.7563 17.5857 13.6875 17.5855 13.6224C17.5848 13.1967 17.4923 12.7713 17.2776 12.4008C17.0568 12.02 16.7196 11.7 16.3241 11.5063C16.085 11.3892 15.8264 11.3164 15.5642 11.2731C15.4497 11.2541 15.3339 11.2426 15.2188 11.2266C15.0793 11.2072 15.0047 11.1183 15.0114 10.9808C15.0176 10.8521 15.1117 10.7593 15.2521 10.7673C15.7134 10.7935 16.1591 10.8933 16.5693 11.1105C17.4033 11.5522 17.8798 12.2493 18.0189 13.1803C18.0252 13.2226 18.0352 13.2643 18.0385 13.3066C18.0463 13.411 18.0513 13.5156 18.0593 13.6535C18.0559 13.6786 18.0513 13.5156 18.0593 13.6535Z" fill="white"/>
<path d="M16.8089 13.6047C16.6407 13.6078 16.5507 13.5146 16.5333 13.3605C16.5213 13.2531 16.5117 13.1441 16.486 13.0394C16.4355 12.8334 16.326 12.6425 16.1527 12.5162C16.0709 12.4566 15.9781 12.4132 15.881 12.3851C15.7577 12.3494 15.6295 12.3592 15.5065 12.3291C15.3729 12.2964 15.2989 12.1881 15.3199 12.0627C15.3391 11.9486 15.45 11.8595 15.5748 11.8686C16.3542 11.9249 16.9112 12.3278 16.9908 13.2454C16.9964 13.3101 17.003 13.3785 16.9886 13.4406C16.9639 13.5464 16.8854 13.5996 16.8089 13.6047C16.6407 13.6077 16.8854 13.5996 16.8089 13.6047Z" fill="white"/>
<path d="M22.9352 10.5424L22.9303 10.5226C22.7057 9.61429 22.039 8.66894 21.2042 7.94965L20.0758 8.94972C20.7468 9.48439 21.3217 10.2251 21.4851 10.8704C21.9316 12.9158 21.9316 14.9891 21.4851 17.0345C21.2175 18.0916 19.8455 19.4057 18.7555 19.6485C17.3284 19.9199 15.89 20.0359 14.4531 19.9961C14.4245 19.9953 14.397 20.0064 14.3771 20.0269C14.1732 20.2362 13.0392 21.4005 13.0392 21.4005L11.616 22.8611C11.512 22.9696 11.3292 22.8959 11.3292 22.746V19.7498C11.3292 19.7003 11.2938 19.6583 11.2452 19.6487C11.2449 19.6487 11.2447 19.6485 11.2444 19.6485C10.6249 19.5105 9.91476 19.0264 9.36772 18.4403L8.25269 19.4283C8.94907 20.1859 9.84726 20.7983 10.7235 21.0485V22.8572C10.7235 23.5119 11.5212 23.8334 11.9749 23.3609L13.8074 21.4561C14.2049 21.4783 14.6024 21.4907 15.0001 21.4907C16.3511 21.4907 17.7027 21.3629 19.0444 21.107L19.0631 21.1032C20.7225 20.7415 22.5294 19.0029 22.9302 17.3826L22.9351 17.3628C23.4306 15.0998 23.4306 12.8052 22.9352 10.5424Z" fill="#D1D1D1"/>
<path d="M17.3712 18.4176C17.5169 18.3727 17.2037 18.3666 17.3712 18.4176V18.4176Z" fill="white"/>
<path d="M18.6281 16.5038C18.4082 16.3102 18.1708 16.1439 17.9324 15.974C17.6895 15.8009 17.4451 15.6297 17.193 15.47C16.941 15.3106 16.642 15.3131 16.408 15.5044C16.1685 15.7001 16.058 16.0749 15.7163 16.1148C15.5124 16.1385 15.3345 16.0528 15.1575 15.9792C14.4767 15.6959 13.9601 15.2628 13.5697 14.7159L12.74 15.4513C12.7682 15.4839 12.7951 15.5174 12.8237 15.5497C13.9442 16.8107 15.3587 17.6333 16.8955 18.271C17.0438 18.3325 17.2036 18.3667 17.3712 18.4175C17.2036 18.3666 17.517 18.3727 17.3712 18.4175C17.517 18.3727 17.6712 18.3502 17.8005 18.2809C18.2582 18.035 18.5753 17.65 18.7933 17.1871C18.9125 16.9344 18.8397 16.6901 18.6281 16.5038Z" fill="#D1D1D1"/>
<path d="M15.0093 9.69327C15.0076 9.69327 15.006 9.6931 15.0043 9.6931C15.0027 9.69299 15.0048 9.6931 15.0093 9.69327Z" fill="white"/>
<path d="M15.0045 9.69287C15.0062 9.69287 15.0079 9.69305 15.0096 9.69305C15.1211 9.69703 16.9356 9.74701 15.0045 9.69287Z" fill="white"/>
<path d="M17.8878 10.8889L17.5341 11.2025C18.0899 11.7433 18.4733 12.4601 18.5828 13.2488C18.6222 13.5326 18.6367 13.8198 18.6574 14.1059C18.6679 14.2504 18.7403 14.3853 18.9015 14.3834C19.0576 14.3815 19.1394 14.2442 19.1281 14.0996C19.1012 13.7559 19.0798 13.4096 19.0195 13.0709C18.8647 12.2009 18.4611 11.4562 17.8878 10.8889Z" fill="#D1D1D1"/>
<path d="M18.0188 13.1801C17.9175 12.5017 17.6361 11.9481 17.1687 11.5264L16.8159 11.839C16.9983 12.0009 17.1561 12.191 17.2776 12.4007C17.4924 12.7712 17.5849 13.1966 17.5856 13.6223C17.5857 13.6874 17.5888 13.7562 17.6097 13.8167C17.6802 14.0204 17.9862 13.9952 18.0395 13.7932C18.0543 13.7376 18.056 13.6786 18.0593 13.6536C18.056 13.6787 18.0512 13.5157 18.0593 13.6536C18.0512 13.5157 18.0463 13.411 18.0384 13.3065C18.0353 13.264 18.0252 13.2223 18.0188 13.1801Z" fill="#D1D1D1"/>
<path d="M18.0593 13.6534C18.0514 13.5155 18.056 13.6784 18.0593 13.6534V13.6534Z" fill="white"/>
<path d="M16.8081 13.6047C16.8107 13.6045 16.8131 13.6032 16.8156 13.6029C16.8087 13.6029 16.7982 13.6031 16.7874 13.6035C16.7944 13.6036 16.8008 13.6047 16.8081 13.6047Z" fill="white"/>
<path d="M16.8089 13.6047C16.8014 13.6048 16.7947 13.6037 16.7874 13.6035C16.751 13.6045 16.7135 13.6064 16.8089 13.6047Z" fill="white"/>
<path d="M16.8164 13.6029C16.8138 13.6032 16.8114 13.6045 16.809 13.6047C16.828 13.6034 16.8263 13.6029 16.8164 13.6029Z" fill="white"/>
<path d="M16.4539 12.1597L16.0948 12.478C16.1147 12.49 16.134 12.5026 16.1529 12.5162C16.3262 12.6425 16.4357 12.8334 16.4862 13.0395C16.5119 13.1441 16.5214 13.253 16.5335 13.3605C16.5501 13.5078 16.6337 13.5983 16.7875 13.6036C16.7987 13.6033 16.8098 13.6031 16.8167 13.603C16.8908 13.5948 16.965 13.5429 16.9888 13.4405C17.0031 13.3785 16.9966 13.31 16.9909 13.2453C16.9462 12.7323 16.7523 12.3803 16.4539 12.1597Z" fill="#D1D1D1"/>
</svg>
